<svg xmlns="http://www.w3.org/2000/svg" xmlns:xlink="http://www.w3.org/1999/xlink" xmlns:lucid="lucid" width="3214" height="1547"><g transform="translate(-738 2925)" lucid:page-tab-id="0_0"><path d="M500-3000h3500v2000H500z" fill="#fff"/><path d="M820-2260c0 16.57-13.43 30-30 30s-30-13.43-30-30 13.43-30 30-30 30 13.43 30 30z" stroke="#3a414a" stroke-width="4"/><path d="M1504.2-2335.98a6.65 6.65 0 0 1 8.92 0l79.76 71.96a5.4 5.4 0 0 1 0 8.04l-79.76 71.96a6.65 6.65 0 0 1-8.9 0l-79.77-71.96a5.4 5.4 0 0 1 0-8.04z" stroke="#3a414a" stroke-width="4" fill="#fff"/><path d="M824-2260h577.67" stroke="#5e5e5e" stroke-width="4" fill="none"/><path d="M824.05-2258.03h-2.2l.15-1.92-.07-2.03h2.12z" stroke="#5e5e5e" stroke-width=".05" fill="#5e5e5e"/><path d="M1416.66-2260l-13 7.5v-15z" stroke="#5e5e5e" stroke-width="4" fill="#5e5e5e"/><path d="M1508.67-2341.7v-87.4a6 6 0 0 0-6-6H1436a6 6 0 0 1-6-6v-70.4" stroke="#5e5e5e" stroke-width="4" fill="none"/><path d="M1510.64-2339.45l-.7-.16-1.27-.1-1.27.1-.7.15v-2.3h3.94z" stroke="#5e5e5e" stroke-width=".05" fill="#5e5e5e"/><path d="M1430-2526.48l7.5 13h-15z" stroke="#5e5e5e" stroke-width="4" fill="#5e5e5e"/><path d="M1508.67-2178.3v112.3a6 6 0 0 0 6 6H1999" stroke="#5e5e5e" stroke-width="4" fill="none"/><path d="M1507.4-2180.4l1.27.1 1.26-.1.7-.15v2.3h-3.94v-2.3z" stroke="#5e5e5e" stroke-width=".05" fill="#5e5e5e"/><path d="M2014-2060l-13 7.5v-15z" stroke="#5e5e5e" stroke-width="4" fill="#5e5e5e"/><path d="M1481.52-2580h117.5" stroke="#5e5e5e" stroke-width="4" fill="none"/><path d="M1481.57-2578.03h-2.32l.17-.72.1-1.25-.1-1.25-.17-.72h2.32z" stroke="#5e5e5e" stroke-width=".05" fill="#5e5e5e"/><path d="M1614-2580l-13 7.5v-15z" stroke="#5e5e5e" stroke-width="4" fill="#5e5e5e"/><path d="M1925.76-2645.76a6 6 0 0 1 8.48 0l61.52 61.52a6 6 0 0 1 0 8.48l-61.52 61.52a6 6 0 0 1-8.48 0l-61.52-61.52a6 6 0 0 1 0-8.48z" stroke="#3a414a" stroke-width="4" fill="#fff"/><path d="M2001.52-2580h300.24" stroke="#5e5e5e" stroke-width="4" fill="none"/><path d="M2001.57-2578.03h-2.32l.17-.72.1-1.25-.1-1.25-.17-.72h2.32z" stroke="#5e5e5e" stroke-width=".05" fill="#5e5e5e"/><path d="M2316.75-2580l-13 7.5v-15z" stroke="#5e5e5e" stroke-width="4" fill="#5e5e5e"/><path d="M1930-2508.48V-2266a6 6 0 0 1-6 6h-308.34" stroke="#5e5e5e" stroke-width="4" fill="none"/><path d="M1928.75-2510.58l1.25.1 1.25-.1.72-.17v2.32h-3.94v-2.32z" stroke="#5e5e5e" stroke-width=".05" fill="#5e5e5e"/><path d="M1600.67-2260l13-7.5v15z" stroke="#5e5e5e" stroke-width="4" fill="#5e5e5e"/><path d="M2636-2620c-8.84 0-16 7.16-16 16v48c0 8.84 7.16 16 16 16h128c8.84 0 16-7.16 16-16v-48c0-8.84-7.16-16-16-16z" stroke="#3a414a" stroke-width="4" fill="#fff"/><use xlink:href="#a" transform="matrix(1,0,0,1,2628,-2612) translate(26.599999999999994 35.6)"/><use xlink:href="#b" transform="matrix(1,0,0,1,2628,-2612) translate(62.49999999999999 35.6)"/><path d="M2385.44-2636.1a7 7 0 0 1 9.12 0l60.88 52.2a5.14 5.14 0 0 1 0 7.8l-60.88 52.2a7 7 0 0 1-9.12 0l-60.88-52.2a5.14 5.14 0 0 1 0-7.8z" stroke="#3a414a" stroke-width="4" fill="#fff"/><path d="M2461.25-2580H2599" stroke="#5e5e5e" stroke-width="4" fill="none"/><path d="M2461.3-2578.03h-2.36l.2-.74.1-1.23-.1-1.23-.2-.74h2.36z" stroke="#5e5e5e" stroke-width=".05" fill="#5e5e5e"/><path d="M2614-2580l-13 7.5v-15z" stroke="#5e5e5e" stroke-width="4" fill="#5e5e5e"/><path d="M2784-2580h157.76" stroke="#5e5e5e" stroke-width="4" fill="none"/><path d="M2784.05-2578.03H2782v-3.94h2.05z" stroke="#5e5e5e" stroke-width=".05" fill="#5e5e5e"/><path d="M2956.75-2580l-13 7.5v-15z" stroke="#5e5e5e" stroke-width="4" fill="#5e5e5e"/><path d="M3025.44-2636.1a7 7 0 0 1 9.12 0l60.88 52.2a5.14 5.14 0 0 1 0 7.8l-60.88 52.2a7 7 0 0 1-9.12 0l-60.88-52.2a5.14 5.14 0 0 1 0-7.8z" stroke="#3a414a" stroke-width="4" fill="#fff"/><path d="M3030-2641.78V-2914a6 6 0 0 0-6-6H1436a6 6 0 0 0-6 6v265.5" stroke="#5e5e5e" stroke-width="4" fill="none"/><path d="M3031.97-2639.54l-.7-.16-1.27-.1-1.27.1-.7.16v-2.3h3.94z" stroke="#5e5e5e" stroke-width=".05" fill="#5e5e5e"/><path d="M1430-2633.52l-7.5-13h15z" stroke="#5e5e5e" stroke-width="4" fill="#5e5e5e"/><path d="M1620-2614a6 6 0 0 1 6-6h148a6 6 0 0 1 6 6v68a6 6 0 0 1-6 6h-148a6 6 0 0 1-6-6z" stroke="#3a414a" stroke-width="4" fill="#fff"/><use xlink:href="#c" transform="matrix(1,0,0,1,1620,-2620) translate(8.62999999999999 44.4)"/><use xlink:href="#d" transform="matrix(1,0,0,1,1620,-2620) translate(87.48 44.4)"/><path d="M1425.76-2625.76a6 6 0 0 1 8.48 0l41.52 41.52a6 6 0 0 1 0 8.48l-41.52 41.52a6 6 0 0 1-8.48 0l-41.52-41.52a6 6 0 0 1 0-8.48z" stroke="#3a414a" stroke-width="4" fill="#fff"/><path d="M1784-2580h57.5" stroke="#5e5e5e" stroke-width="4" fill="none"/><path d="M1784.05-2578.03H1782v-3.94h2.05z" stroke="#5e5e5e" stroke-width=".05" fill="#5e5e5e"/><path d="M1856.48-2580l-13 7.5v-15z" stroke="#5e5e5e" stroke-width="4" fill="#5e5e5e"/><path d="M2036-2100c-8.84 0-16 7.16-16 16v48c0 8.84 7.16 16 16 16h128c8.84 0 16-7.16 16-16v-48c0-8.84-7.16-16-16-16z" stroke="#3a414a" stroke-width="4" fill="#fff"/><use xlink:href="#e" transform="matrix(1,0,0,1,2028,-2092) translate(26.124999999999993 24.799999999999997)"/><use xlink:href="#f" transform="matrix(1,0,0,1,2028,-2092) translate(103.92500000000001 24.799999999999997)"/><use xlink:href="#g" transform="matrix(1,0,0,1,2028,-2092) translate(33.025 46.4)"/><path d="M2184-2060h200a6 6 0 0 0 6-6v-435.22" stroke="#5e5e5e" stroke-width="4" fill="none"/><path d="M2184.05-2058.03H2182v-3.94h2.05z" stroke="#5e5e5e" stroke-width=".05" fill="#5e5e5e"/><path d="M2390-2516.22l7.5 13h-15z" stroke="#5e5e5e" stroke-width="4" fill="#5e5e5e"/><path d="M3030-2518.22V-1886a6 6 0 0 1-6 6H1478.3a6 6 0 0 1-6-6v-305.12" stroke="#5e5e5e" stroke-width="4" fill="none"/><path d="M3028.73-2520.3l1.27.1 1.27-.1.7-.16v2.3h-3.94v-2.3z" stroke="#5e5e5e" stroke-width=".05" fill="#5e5e5e"/><path d="M1472.3-2206.1l7.5 12.98h-15z" stroke="#5e5e5e" stroke-width="4" fill="#5e5e5e"/><path d="M3101.25-2580H3559" stroke="#5e5e5e" stroke-width="4" fill="none"/><path d="M3101.3-2578.03h-2.36l.2-.74.1-1.23-.1-1.23-.2-.74h2.36z" stroke="#5e5e5e" stroke-width=".05" fill="#5e5e5e"/><path d="M3574-2580l-13 7.5v-15z" stroke="#5e5e5e" stroke-width="4" fill="#5e5e5e"/><path d="M3596-2620c-8.84 0-16 7.16-16 16v48c0 8.84 7.16 16 16 16h128c8.84 0 16-7.16 16-16v-48c0-8.84-7.16-16-16-16z" stroke="#3a414a" stroke-width="4" fill="#fff"/><use xlink:href="#h" transform="matrix(1,0,0,1,3588,-2612) translate(4.125 24.799999999999997)"/><use xlink:href="#i" transform="matrix(1,0,0,1,3588,-2612) translate(66.025 24.799999999999997)"/><use xlink:href="#j" transform="matrix(1,0,0,1,3588,-2612) translate(84.97500000000001 24.799999999999997)"/><use xlink:href="#k" transform="matrix(1,0,0,1,3588,-2612) translate(34.55 46.4)"/><use xlink:href="#l" transform="matrix(1,0,0,1,3588,-2612) translate(59.55 46.4)"/><path d="M3660-2536v117.26" stroke="#5e5e5e" stroke-width="4" fill="none"/><path d="M3661.97-2535.95h-3.94v-2.05h3.94z" stroke="#5e5e5e" stroke-width=".05" fill="#5e5e5e"/><path d="M3660-2403.75l-7.5-13h15z" stroke="#5e5e5e" stroke-width="4" fill="#5e5e5e"/><path d="M910-1970c0 16.57-20.15 30-45 30s-45-13.43-45-30 20.15-30 45-30 45 13.43 45 30z" stroke="#3a414a" stroke-width="4" fill="#fff"/><path d="M837.68-1981.5a6 6 0 0 1 6-6h42.64a6 6 0 0 1 6 6v23a6 6 0 0 1-6 6h-42.64a6 6 0 0 1-6-6z" fill="#fff"/><use xlink:href="#m" transform="matrix(1,0,0,1,837.6785714285714,-1987.5) translate(21.57907407407407 20.78472222222222)"/><path d="M865-2004v-109.73a6 6 0 0 1 6-6h565a6 6 0 0 0 6-6v-92.74" stroke="#5e5e5e" stroke-width="4" fill="none"/><path d="M866.98-2001.9l-1.93-.1h-1.17l-.86.07v-2.12H867z" stroke="#5e5e5e" stroke-width=".05" fill="#5e5e5e"/><path d="M1442-2233.46l7.5 13h-15z" stroke="#5e5e5e" stroke-width="4" fill="#5e5e5e"/><path d="M3655.48-2396.05a6.87 6.87 0 0 1 9.04 0l47.76 41.7a5.24 5.24 0 0 1 0 7.9l-47.76 41.7a6.87 6.87 0 0 1-9.04 0l-47.76-41.7a5.24 5.24 0 0 1 0-7.9z" stroke="#3a414a" stroke-width="4" fill="#fff"/><path d="M3660-2299.05v140.3" stroke="#5e5e5e" stroke-width="4" fill="none"/><path d="M3658.73-2301.14l1.27.1 1.27-.1.7-.15v2.3h-3.94v-2.3z" stroke="#5e5e5e" stroke-width=".05" fill="#5e5e5e"/><path d="M3660-2143.75l-7.5-13h15z" stroke="#5e5e5e" stroke-width="4" fill="#5e5e5e"/><path d="M3601.92-2350.4h-143.76a.2.2 0 0 1-.2-.2.2.2 0 0 0-.2-.2H3331" stroke="#5e5e5e" stroke-width="4" fill="none"/><path d="M3604.02-2351.63l-.1 1.23.1 1.23.2.74h-2.35v-3.95h2.35z" stroke="#5e5e5e" stroke-width=".05" fill="#5e5e5e"/><path d="M3316-2350.8l13-7.5v15z" stroke="#5e5e5e" stroke-width="4" fill="#5e5e5e"/><path d="M3596-1940c-8.84 0-16 7.16-16 16v48c0 8.84 7.16 16 16 16h128c8.84 0 16-7.16 16-16v-48c0-8.84-7.16-16-16-16z" stroke="#3a414a" stroke-width="4" fill="#fff"/><use xlink:href="#a" transform="matrix(1,0,0,1,3588,-1932) translate(19.625 35.6)"/><use xlink:href="#i" transform="matrix(1,0,0,1,3588,-1932) translate(55.525 35.6)"/><use xlink:href="#l" transform="matrix(1,0,0,1,3588,-1932) translate(74.475 35.6)"/><path d="M3310-2350.4c0 16.57-20.15 30-45 30s-45-13.43-45-30 20.15-30 45-30 45 13.43 45 30z" stroke="#3a414a" stroke-width="4" fill="#fff"/><path d="M3237.68-2361.9a6 6 0 0 1 6-6h42.64a6 6 0 0 1 6 6v23a6 6 0 0 1-6 6h-42.64a6 6 0 0 1-6-6z" fill="#fff"/><use xlink:href="#m" transform="matrix(1,0,0,1,3237.6785714285716,-2367.9) translate(21.57907407407407 20.78472222222222)"/><path d="M3660-1856v117.5" stroke="#5e5e5e" stroke-width="4" fill="none"/><path d="M3661.97-1855.95h-3.94v-2.05h3.94z" stroke="#5e5e5e" stroke-width=".05" fill="#5e5e5e"/><path d="M3660-1723.52l-7.5-13h15z" stroke="#5e5e5e" stroke-width="4" fill="#5e5e5e"/><path d="M3655.76-1715.76a6 6 0 0 1 8.48 0l61.52 61.52a6 6 0 0 1 0 8.48l-61.52 61.52a6 6 0 0 1-8.48 0l-61.52-61.52a6 6 0 0 1 0-8.48z" stroke="#3a414a" stroke-width="4" fill="#fff"/><path d="M3731.52-1650h87.5" stroke="#5e5e5e" stroke-width="4" fill="none"/><path d="M3731.57-1648.03h-2.32l.17-.72.1-1.25-.1-1.25-.17-.72h2.32z" stroke="#5e5e5e" stroke-width=".05" fill="#5e5e5e"/><path d="M3834-1650l-13 7.5v-15z" stroke="#5e5e5e" stroke-width="4" fill="#5e5e5e"/><path d="M3660-1578.48v97.5" stroke="#5e5e5e" stroke-width="4" fill="none"/><path d="M3658.75-1580.58l1.25.1 1.25-.1.72-.17v2.32h-3.94v-2.32z" stroke="#5e5e5e" stroke-width=".05" fill="#5e5e5e"/><path d="M3660-1466l-7.5-13h15z" stroke="#5e5e5e" stroke-width="4" fill="#5e5e5e"/><path d="M1473.45-1796.16a2.17 2.17 0 0 1 1.4-3.84h168a6 6 0 0 1 6 6v48a6 6 0 0 1-6 6h-168a2.17 2.17 0 0 1-1.4-3.84l26.78-22.32a5 5 0 0 0 0-7.68z" stroke="#3a414a" stroke-width="4" fill="#fff"/><use xlink:href="#n" transform="matrix(1,0,0,1,1504.8392857142858,-1792) translate(14.574999999999996 25.6)"/><use xlink:href="#l" transform="matrix(1,0,0,1,1504.8392857142858,-1792) translate(70.525 25.6)"/><path d="M1652.84-1770h75" stroke="#5e5e5e" stroke-width="4" fill="none"/><path d="M1652.9-1768.03h-2.06v-3.94h2.05z" stroke="#5e5e5e" stroke-width=".05" fill="#5e5e5e"/><path d="M1742.84-1770l-13 7.5v-15z" stroke="#5e5e5e" stroke-width="4" fill="#5e5e5e"/><path d="M1838.84-1770c0 16.57-20.15 30-45 30s-45-13.43-45-30 20.15-30 45-30 45 13.43 45 30z" stroke="#3a414a" stroke-width="4" fill="#fff"/><path d="M1766.52-1781.5a6 6 0 0 1 6-6h42.64a6 6 0 0 1 6 6v23a6 6 0 0 1-6 6h-42.64a6 6 0 0 1-6-6z" fill="#fff"/><use xlink:href="#o" transform="matrix(1,0,0,1,1766.517857142857,-1787.5) translate(21.57907407407407 20.78472222222222)"/><path d="M3655.48-2136.05a6.87 6.87 0 0 1 9.04 0l47.76 41.7a5.24 5.24 0 0 1 0 7.9l-47.76 41.7a6.87 6.87 0 0 1-9.04 0l-47.76-41.7a5.24 5.24 0 0 1 0-7.9zM3470-2090.4c0 16.57-20.15 30-45 30s-45-13.43-45-30 20.15-30 45-30 45 13.43 45 30z" stroke="#3a414a" stroke-width="4" fill="#fff"/><path d="M3397.68-2101.9a6 6 0 0 1 6-6h42.64a6 6 0 0 1 6 6v23a6 6 0 0 1-6 6h-42.64a6 6 0 0 1-6-6z" fill="#fff"/><use xlink:href="#o" transform="matrix(1,0,0,1,3397.6785714285716,-2107.9) translate(21.57907407407407 20.78472222222222)"/><path d="M3474-2090.4h110.93" stroke="#5e5e5e" stroke-width="4" fill="none"/><path d="M3474.05-2088.43h-2.16l.1-1.92v-.44l-.1-1.57h2.15z" stroke="#5e5e5e" stroke-width=".05" fill="#5e5e5e"/><path d="M3599.92-2090.4l-13 7.5v-15z" stroke="#5e5e5e" stroke-width="4" fill="#5e5e5e"/><path d="M3660-2039.05v78.06" stroke="#5e5e5e" stroke-width="4" fill="none"/><path d="M3658.73-2041.14l1.27.1 1.27-.1.7-.15v2.3h-3.94v-2.3z" stroke="#5e5e5e" stroke-width=".05" fill="#5e5e5e"/><path d="M3660-1946l-7.5-13h15z" stroke="#5e5e5e" stroke-width="4" fill="#5e5e5e"/><path d="M3930-1650c0 16.57-20.15 30-45 30s-45-13.43-45-30 20.15-30 45-30 45 13.43 45 30z" stroke="#3a414a" stroke-width="4" fill="#fff"/><path d="M3857.68-1661.5a6 6 0 0 1 6-6h42.64a6 6 0 0 1 6 6v23a6 6 0 0 1-6 6h-42.64a6 6 0 0 1-6-6z" fill="#fff"/><use xlink:href="#m" transform="matrix(1,0,0,1,3857.6785714285716,-1667.5) translate(21.57907407407407 20.78472222222222)"/><path d="M3705-1430c0 16.57-20.15 30-45 30s-45-13.43-45-30 20.15-30 45-30 45 13.43 45 30z" stroke="#3a414a" stroke-width="4" fill="#fff"/><path d="M3632.68-1441.5a6 6 0 0 1 6-6h42.64a6 6 0 0 1 6 6v23a6 6 0 0 1-6 6h-42.64a6 6 0 0 1-6-6z" fill="#fff"/><use xlink:href="#p" transform="matrix(1,0,0,1,3632.6785714285716,-1447.5) translate(21.10993827160494 20.78472222222222)"/><path d="M1473.45-1636.16a2.17 2.17 0 0 1 1.4-3.84h168a6 6 0 0 1 6 6v48a6 6 0 0 1-6 6h-168a2.17 2.17 0 0 1-1.4-3.84l26.78-22.32a5 5 0 0 0 0-7.68z" stroke="#3a414a" stroke-width="4" fill="#fff"/><use xlink:href="#q" transform="matrix(1,0,0,1,1504.8392857142858,-1632) translate(44.025 25.6)"/><path d="M1652.84-1610h149.8" stroke="#5e5e5e" stroke-width="4" fill="none"/><path d="M1652.9-1608.03h-2.06v-3.94h2.05z" stroke="#5e5e5e" stroke-width=".05" fill="#5e5e5e"/><path d="M1817.64-1610l-13 7.5v-15z" stroke="#5e5e5e" stroke-width="4" fill="#5e5e5e"/><path d="M1871.92-1660.76a6 6 0 0 1 8.48 0l46.52 46.52a6 6 0 0 1 0 8.48l-46.52 46.52a6 6 0 0 1-8.48 0l-46.52-46.52a6 6 0 0 1 0-8.48zM1921.16-1470c0 16.57-20.15 30-45 30s-45-13.43-45-30 20.15-30 45-30 45 13.43 45 30z" stroke="#3a414a" stroke-width="4" fill="#fff"/><path d="M1848.84-1481.5a6 6 0 0 1 6-6h42.64a6 6 0 0 1 6 6v23a6 6 0 0 1-6 6h-42.64a6 6 0 0 1-6-6z" fill="#fff"/><use xlink:href="#p" transform="matrix(1,0,0,1,1848.8392857142856,-1487.5) translate(21.10993827160494 20.78472222222222)"/><path d="M1876.16-1504v-32.5" stroke="#5e5e5e" stroke-width="4" fill="none"/><path d="M1878.14-1501.9l-1.93-.1h-1.16l-.85.07v-2.12h3.94z" stroke="#5e5e5e" stroke-width=".05" fill="#5e5e5e"/><path d="M1876.16-1551.48l7.5 13h-15z" stroke="#5e5e5e" stroke-width="4" fill="#5e5e5e"/><path d="M1932.68-1610H2039" stroke="#5e5e5e" stroke-width="4" fill="none"/><path d="M1932.73-1608.03h-2.32l.18-.72.1-1.25-.1-1.25-.17-.72h2.33z" stroke="#5e5e5e" stroke-width=".05" fill="#5e5e5e"/><path d="M2054-1610l-13 7.5v-15z" stroke="#5e5e5e" stroke-width="4" fill="#5e5e5e"/><path d="M2076-1650c-8.84 0-16 7.16-16 16v48c0 8.84 7.16 16 16 16h128c8.84 0 16-7.16 16-16v-48c0-8.84-7.16-16-16-16z" stroke="#3a414a" stroke-width="4" fill="#fff"/><g><use xlink:href="#q" transform="matrix(1,0,0,1,2068,-1642) translate(48.525 35.6)"/></g><path d="M2224-1610h125" stroke="#5e5e5e" stroke-width="4" fill="none"/><path d="M2224.05-1608.03H2222v-3.94h2.05z" stroke="#5e5e5e" stroke-width=".05" fill="#5e5e5e"/><path d="M2364-1610l-13 7.5v-15z" stroke="#5e5e5e" stroke-width="4" fill="#5e5e5e"/><path d="M2410-1610c0 11.05-8.95 20-20 20s-20-8.95-20-20 8.95-20 20-20 20 8.95 20 20z" stroke="#3a414a" stroke-width="4" fill="#fff"/><path d="M2402-1610c0 6.63-5.37 12-12 12s-12-5.37-12-12 5.37-12 12-12 12 5.37 12 12z" stroke="#3a414a" stroke-width="4"/><defs><path d="M137 0h-34L2-248h35l83 218 83-218h36" id="r"/><path d="M100-194c62-1 85 37 85 99 1 63-27 99-86 99S16-35 15-95c0-66 28-99 85-99zM99-20c44 1 53-31 53-75 0-43-8-75-51-75s-53 32-53 75 10 74 51 75" id="s"/><path d="M24-231v-30h32v30H24zM24 0v-190h32V0H24" id="t"/><path d="M114-163C36-179 61-72 57 0H25l-1-190h30c1 12-1 29 2 39 6-27 23-49 58-41v29" id="u"/><g id="a"><use transform="matrix(0.05,0,0,0.05,0,0)" xlink:href="#r"/><use transform="matrix(0.05,0,0,0.05,11,0)" xlink:href="#s"/><use transform="matrix(0.05,0,0,0.05,21,0)" xlink:href="#t"/><use transform="matrix(0.05,0,0,0.05,24.95,0)" xlink:href="#u"/></g><path d="M115-194c55 1 70 41 70 98S169 2 115 4C84 4 66-9 55-30l1 105H24l-1-265h31l2 30c10-21 28-34 59-34zm-8 174c40 0 45-34 45-75s-6-73-45-74c-42 0-51 32-51 76 0 43 10 73 51 73" id="v"/><path d="M85-194c31 0 48 13 60 33l-1-100h32l1 261h-30c-2-10 0-23-3-31C134-8 116 4 85 4 32 4 16-35 15-94c0-66 23-100 70-100zm9 24c-40 0-46 34-46 75 0 40 6 74 45 74 42 0 51-32 51-76 0-42-9-74-50-73" id="w"/><path d="M84 4C-5 8 30-112 23-190h32v120c0 31 7 50 39 49 72-2 45-101 50-169h31l1 190h-30c-1-10 1-25-2-33-11 22-28 36-60 37" id="x"/><path d="M59-47c-2 24 18 29 38 22v24C64 9 27 4 27-40v-127H5v-23h24l9-43h21v43h35v23H59v120" id="y"/><g id="b"><use transform="matrix(0.05,0,0,0.05,0,0)" xlink:href="#v"/><use transform="matrix(0.05,0,0,0.05,10,0)" xlink:href="#u"/><use transform="matrix(0.05,0,0,0.05,15.949999999999998,0)" xlink:href="#s"/><use transform="matrix(0.05,0,0,0.05,25.950000000000003,0)" xlink:href="#w"/><use transform="matrix(0.05,0,0,0.05,35.95,0)" xlink:href="#x"/><use transform="matrix(0.05,0,0,0.05,45.95,0)" xlink:href="#t"/><use transform="matrix(0.05,0,0,0.05,49.900000000000006,0)" xlink:href="#y"/></g><path d="M212-179c-10-28-35-45-73-45-59 0-87 40-87 99 0 60 29 101 89 101 43 0 62-24 78-52l27 14C228-24 195 4 139 4 59 4 22-46 18-125c-6-104 99-153 187-111 19 9 31 26 39 46" id="z"/><path d="M106-169C34-169 62-67 57 0H25v-261h32l-1 103c12-21 28-36 61-36 89 0 53 116 60 194h-32v-121c2-32-8-49-39-48" id="A"/><path d="M100-194c63 0 86 42 84 106H49c0 40 14 67 53 68 26 1 43-12 49-29l28 8c-11 28-37 45-77 45C44 4 14-33 15-96c1-61 26-98 85-98zm52 81c6-60-76-77-97-28-3 7-6 17-6 28h103" id="B"/><path d="M96-169c-40 0-48 33-48 73s9 75 48 75c24 0 41-14 43-38l32 2c-6 37-31 61-74 61-59 0-76-41-82-99-10-93 101-131 147-64 4 7 5 14 7 22l-32 3c-4-21-16-35-41-35" id="C"/><g id="c"><use transform="matrix(0.05,0,0,0.05,0,0)" xlink:href="#z"/><use transform="matrix(0.05,0,0,0.05,12.950000000000001,0)" xlink:href="#A"/><use transform="matrix(0.05,0,0,0.05,22.950000000000003,0)" xlink:href="#B"/><use transform="matrix(0.05,0,0,0.05,32.95,0)" xlink:href="#u"/><use transform="matrix(0.05,0,0,0.05,38.900000000000006,0)" xlink:href="#C"/><use transform="matrix(0.05,0,0,0.05,47.900000000000006,0)" xlink:href="#A"/><use transform="matrix(0.05,0,0,0.05,57.900000000000006,0)" xlink:href="#B"/><use transform="matrix(0.05,0,0,0.05,67.9,0)" xlink:href="#u"/></g><path d="M135-143c-3-34-86-38-87 0 15 53 115 12 119 90S17 21 10-45l28-5c4 36 97 45 98 0-10-56-113-15-118-90-4-57 82-63 122-42 12 7 21 19 24 35" id="D"/><g id="d"><use transform="matrix(0.05,0,0,0.05,0,0)" xlink:href="#v"/><use transform="matrix(0.05,0,0,0.05,10,0)" xlink:href="#u"/><use transform="matrix(0.05,0,0,0.05,15.949999999999998,0)" xlink:href="#s"/><use transform="matrix(0.05,0,0,0.05,25.950000000000003,0)" xlink:href="#w"/><use transform="matrix(0.05,0,0,0.05,35.95,0)" xlink:href="#x"/><use transform="matrix(0.05,0,0,0.05,45.95,0)" xlink:href="#t"/><use transform="matrix(0.05,0,0,0.05,49.900000000000006,0)" xlink:href="#y"/><use transform="matrix(0.05,0,0,0.05,54.900000000000006,0)" xlink:href="#D"/></g><path d="M30-248c87 1 191-15 191 75 0 78-77 80-158 76V0H30v-248zm33 125c57 0 124 11 124-50 0-59-68-47-124-48v98" id="E"/><path d="M141-36C126-15 110 5 73 4 37 3 15-17 15-53c-1-64 63-63 125-63 3-35-9-54-41-54-24 1-41 7-42 31l-33-3c5-37 33-52 76-52 45 0 72 20 72 64v82c-1 20 7 32 28 27v20c-31 9-61-2-59-35zM48-53c0 20 12 33 32 33 41-3 63-29 60-74-43 2-92-5-92 41" id="F"/><g id="e"><use transform="matrix(0.05,0,0,0.05,0,0)" xlink:href="#E"/><use transform="matrix(0.05,0,0,0.05,12,0)" xlink:href="#F"/><use transform="matrix(0.05,0,0,0.05,22,0)" xlink:href="#u"/><use transform="matrix(0.05,0,0,0.05,27.950000000000003,0)" xlink:href="#C"/><use transform="matrix(0.05,0,0,0.05,36.95,0)" xlink:href="#s"/><use transform="matrix(0.05,0,0,0.05,46.95,0)" xlink:href="#x"/><use transform="matrix(0.05,0,0,0.05,56.95,0)" xlink:href="#u"/><use transform="matrix(0.05,0,0,0.05,62.900000000000006,0)" xlink:href="#t"/><use transform="matrix(0.05,0,0,0.05,66.85000000000001,0)" xlink:href="#u"/></g><path d="M24 0v-261h32V0H24" id="G"/><g id="f"><use transform="matrix(0.05,0,0,0.05,0,0)" xlink:href="#G"/><use transform="matrix(0.05,0,0,0.05,3.95,0)" xlink:href="#B"/></g><path d="M177-190C167-65 218 103 67 71c-23-6-38-20-44-43l32-5c15 47 100 32 89-28v-30C133-14 115 1 83 1 29 1 15-40 15-95c0-56 16-97 71-98 29-1 48 16 59 35 1-10 0-23 2-32h30zM94-22c36 0 50-32 50-73 0-42-14-75-50-75-39 0-46 34-46 75s6 73 46 73" id="H"/><g id="g"><use transform="matrix(0.05,0,0,0.05,0,0)" xlink:href="#C"/><use transform="matrix(0.05,0,0,0.05,9,0)" xlink:href="#F"/><use transform="matrix(0.05,0,0,0.05,19,0)" xlink:href="#y"/><use transform="matrix(0.05,0,0,0.05,24,0)" xlink:href="#F"/><use transform="matrix(0.05,0,0,0.05,34,0)" xlink:href="#G"/><use transform="matrix(0.05,0,0,0.05,37.95,0)" xlink:href="#s"/><use transform="matrix(0.05,0,0,0.05,47.95,0)" xlink:href="#H"/><use transform="matrix(0.05,0,0,0.05,57.95,0)" xlink:href="#x"/><use transform="matrix(0.05,0,0,0.05,67.95,0)" xlink:href="#B"/></g><path d="M205 0l-28-72H64L36 0H1l101-248h38L239 0h-34zm-38-99l-47-123c-12 45-31 82-46 123h93" id="I"/><path d="M24-231v-30h32v30H24zM-9 49c24 4 33-6 33-30v-209h32V24c2 40-23 58-65 49V49" id="J"/><g id="h"><use transform="matrix(0.05,0,0,0.05,0,0)" xlink:href="#I"/><use transform="matrix(0.05,0,0,0.05,12,0)" xlink:href="#J"/><use transform="matrix(0.05,0,0,0.05,15.949999999999998,0)" xlink:href="#s"/><use transform="matrix(0.05,0,0,0.05,25.950000000000003,0)" xlink:href="#x"/><use transform="matrix(0.05,0,0,0.05,35.95,0)" xlink:href="#y"/><use transform="matrix(0.05,0,0,0.05,40.95,0)" xlink:href="#B"/><use transform="matrix(0.05,0,0,0.05,50.95,0)" xlink:href="#u"/></g><g id="i"><use transform="matrix(0.05,0,0,0.05,0,0)" xlink:href="#G"/><use transform="matrix(0.05,0,0,0.05,3.95,0)" xlink:href="#B"/></g><g id="j"><use transform="matrix(0.05,0,0,0.05,0,0)" xlink:href="#v"/><use transform="matrix(0.05,0,0,0.05,10,0)" xlink:href="#u"/><use transform="matrix(0.05,0,0,0.05,15.949999999999998,0)" xlink:href="#s"/><use transform="matrix(0.05,0,0,0.05,25.950000000000003,0)" xlink:href="#w"/><use transform="matrix(0.05,0,0,0.05,35.95,0)" xlink:href="#x"/><use transform="matrix(0.05,0,0,0.05,45.95,0)" xlink:href="#t"/><use transform="matrix(0.05,0,0,0.05,49.900000000000006,0)" xlink:href="#y"/></g><g id="k"><use transform="matrix(0.05,0,0,0.05,0,0)" xlink:href="#F"/><use transform="matrix(0.05,0,0,0.05,10,0)" xlink:href="#x"/></g><path d="M117-194c89-4 53 116 60 194h-32v-121c0-31-8-49-39-48C34-167 62-67 57 0H25l-1-190h30c1 10-1 24 2 32 11-22 29-35 61-36" id="K"/><g id="l"><use transform="matrix(0.05,0,0,0.05,0,0)" xlink:href="#v"/><use transform="matrix(0.05,0,0,0.05,10,0)" xlink:href="#F"/><use transform="matrix(0.05,0,0,0.05,20,0)" xlink:href="#K"/><use transform="matrix(0.05,0,0,0.05,30,0)" xlink:href="#t"/><use transform="matrix(0.05,0,0,0.05,33.95,0)" xlink:href="#B"/><use transform="matrix(0.05,0,0,0.05,43.95,0)" xlink:href="#u"/></g><use transform="matrix(0.04938271604938272,0,0,0.04938271604938272,0,0)" xlink:href="#I" id="m"/><path d="M143 0L79-87 56-68V0H24v-261h32v163l83-92h37l-77 82L181 0h-38" id="L"/><g id="n"><use transform="matrix(0.05,0,0,0.05,0,0)" xlink:href="#z"/><use transform="matrix(0.05,0,0,0.05,12.950000000000001,0)" xlink:href="#A"/><use transform="matrix(0.05,0,0,0.05,22.950000000000003,0)" xlink:href="#B"/><use transform="matrix(0.05,0,0,0.05,32.95,0)" xlink:href="#C"/><use transform="matrix(0.05,0,0,0.05,41.95,0)" xlink:href="#L"/></g><path d="M160-131c35 5 61 23 61 61C221 17 115-2 30 0v-248c76 3 177-17 177 60 0 33-19 50-47 57zm-97-11c50-1 110 9 110-42 0-47-63-36-110-37v79zm0 115c55-2 124 14 124-45 0-56-70-42-124-44v89" id="M"/><use transform="matrix(0.04938271604938272,0,0,0.04938271604938272,0,0)" xlink:href="#M" id="o"/><use transform="matrix(0.04938271604938272,0,0,0.04938271604938272,0,0)" xlink:href="#z" id="p"/><path d="M179-190L93 31C79 59 56 82 12 73V49c39 6 53-20 64-50L1-190h34L92-34l54-156h33" id="N"/><g id="q"><use transform="matrix(0.05,0,0,0.05,0,0)" xlink:href="#E"/><use transform="matrix(0.05,0,0,0.05,12,0)" xlink:href="#F"/><use transform="matrix(0.05,0,0,0.05,22,0)" xlink:href="#N"/><use transform="matrix(0.05,0,0,0.05,31,0)" xlink:href="#B"/><use transform="matrix(0.05,0,0,0.05,41,0)" xlink:href="#u"/></g></defs></g></svg>