<svg xmlns="http://www.w3.org/2000/svg" xmlns:xlink="http://www.w3.org/1999/xlink" xmlns:lucid="lucid" width="1383" height="1562"><g transform="translate(941 1241)" lucid:page-tab-id="0_0"><path d="M-1000-1500H500V500h-1500z" fill="#fff"/><path d="M-540-1214a6 6 0 0 1 6-6h848a6 6 0 0 1 6 6V294a6 6 0 0 1-6 6h-848a6 6 0 0 1-6-6z" stroke="#3a414a" stroke-width="2" fill-opacity="0"/><use xlink:href="#a" transform="matrix(1,0,0,1,-532,-1212) translate(340.125 15.6)"/><use xlink:href="#b" transform="matrix(1,0,0,1,-532,-1212) translate(432.975 15.6)"/><path d="M-770.25-660.25c0 10.9-8.84 19.75-19.75 19.75-10.9 0-19.75-8.84-19.75-19.75 0-10.9 8.84-19.75 19.75-19.75 10.9 0 19.75 8.84 19.75 19.75z" stroke="#3a414a" stroke-width="2" fill="#fff"/><path d="M-790-640.5v49.3a17.25 17.25 0 0 0 3.72 10.7L-740-522m-50-63.2l-50 63.2m0-98.75h100" stroke="#3a414a" stroke-width="2" fill="none"/><path d="M-840-674a6 6 0 0 1 6-6h88a6 6 0 0 1 6 6v168a6 6 0 0 1-6 6h-88a6 6 0 0 1-6-6z" fill="none"/><use xlink:href="#c" transform="matrix(1,0,0,1,-920,-522) translate(90.125 14.6)"/><path d="M-635.25-245.25c0 8.15-6.6 14.75-14.75 14.75s-14.75-6.6-14.75-14.75S-658.15-260-650-260s14.75 6.6 14.75 14.75z" stroke="#3a414a" stroke-width="2" fill="#fff"/><path d="M-650-230.5v35.3a20.63 20.63 0 0 0 3.22 11.06L-620-142m-30-47.2l-30 47.2m0-73.75h60" stroke="#3a414a" stroke-width="2" fill="none"/><path d="M-680-254a6 6 0 0 1 6-6h48a6 6 0 0 1 6 6v128a6 6 0 0 1-6 6h-48a6 6 0 0 1-6-6z" fill="none"/><use xlink:href="#d" transform="matrix(1,0,0,1,-760,-142) translate(70.125 14.6)"/><path d="M404.75-525.25c0 8.15-6.6 14.75-14.75 14.75s-14.75-6.6-14.75-14.75S381.85-540 390-540s14.75 6.6 14.75 14.75z" stroke="#3a414a" stroke-width="2" fill="#fff"/><path d="M390-510.5v35.3a20.63 20.63 0 0 0 3.22 11.06L420-422m-30-47.2L360-422m0-73.75h60" stroke="#3a414a" stroke-width="2" fill="none"/><path d="M360-534a6 6 0 0 1 6-6h48a6 6 0 0 1 6 6v128a6 6 0 0 1-6 6h-48a6 6 0 0 1-6-6z" fill="none"/><use xlink:href="#e" transform="matrix(1,0,0,1,280,-422) translate(79 14.6)"/><path d="M-300-1000c0 33.14-35.82 60-80 60s-80-26.86-80-60 35.82-60 80-60 80 26.86 80 60z" stroke="#3a414a" stroke-width="2" fill="#fff"/><use xlink:href="#f" transform="matrix(1,0,0,1,-460,-1060) translate(25.055 63.15)"/><use xlink:href="#g" transform="matrix(1,0,0,1,-460,-1060) translate(52.055 63.15)"/><path d="M100-840c0 33.14-35.82 60-80 60s-80-26.86-80-60 35.82-60 80-60 80 26.86 80 60z" stroke="#3a414a" stroke-width="2" fill="#fff"/><use xlink:href="#h" transform="matrix(1,0,0,1,-60,-900) translate(16.104999999999997 63.15)"/><use xlink:href="#i" transform="matrix(1,0,0,1,-60,-900) translate(97.95500000000001 63.15)"/><path d="M100-640c0 33.14-35.82 60-80 60s-80-26.86-80-60 35.82-60 80-60 80 26.86 80 60z" stroke="#3a414a" stroke-width="2" fill="#fff"/><use xlink:href="#j" transform="matrix(1,0,0,1,-60,-700) translate(44.20499999999999 51.9)"/><use xlink:href="#k" transform="matrix(1,0,0,1,-60,-700) translate(44.254999999999995 73.5)"/><path d="M-60-460c0 33.14-35.82 60-80 60s-80-26.86-80-60 35.82-60 80-60 80 26.86 80 60z" stroke="#3a414a" stroke-width="2" fill="#fff"/><use xlink:href="#l" transform="matrix(1,0,0,1,-220,-520) translate(23.57999999999999 63.15)"/><use xlink:href="#m" transform="matrix(1,0,0,1,-220,-520) translate(75.53 63.15)"/><path d="M160 220c0 33.14-35.82 60-80 60S0 253.14 0 220s35.82-60 80-60 80 26.86 80 60z" stroke="#3a414a" stroke-width="2" fill="#fff"/><use xlink:href="#n" transform="matrix(1,0,0,1,0,160) translate(41.05499999999999 51.9)"/><use xlink:href="#o" transform="matrix(1,0,0,1,0,160) translate(40.12999999999999 73.5)"/><path d="M-280-260c0 33.14-35.82 60-80 60s-80-26.86-80-60 35.82-60 80-60 80 26.86 80 60z" stroke="#3a414a" stroke-width="2" fill="#fff"/><use xlink:href="#p" transform="matrix(1,0,0,1,-440,-320) translate(35.12999999999999 51.9)"/><use xlink:href="#q" transform="matrix(1,0,0,1,-440,-320) translate(86.03 51.9)"/><use xlink:href="#r" transform="matrix(1,0,0,1,-440,-320) translate(41.605 73.5)"/><path d="M-875.25-245.25c0 8.15-6.6 14.75-14.75 14.75s-14.75-6.6-14.75-14.75S-898.15-260-890-260s14.75 6.6 14.75 14.75z" stroke="#3a414a" stroke-width="2" fill="#fff"/><path d="M-890-230.5v35.3a20.63 20.63 0 0 0 3.22 11.06L-860-142m-30-47.2l-30 47.2m0-73.75h60" stroke="#3a414a" stroke-width="2" fill="none"/><path d="M-920-254a6 6 0 0 1 6-6h48a6 6 0 0 1 6 6v128a6 6 0 0 1-6 6h-48a6 6 0 0 1-6-6z" fill="none"/><use xlink:href="#s" transform="matrix(1,0,0,1,-1000,-142) translate(87.075 14.6)"/><path d="M-788.37-599.36l326.74-399.87M-788.35-599.38l-2.55 3.12" stroke="#5e5e5e" stroke-width="2" fill="none"/><path d="M-461-1000v.4l.04.96-1.44-1.18 1.45-1.78zM-787.74-597.98l-.62-1.85 623.74-206.84h6.2zm726.1-240.78l-53.64 17.8v-2.07l53.02-17.58z" stroke="#5e5e5e" stroke-width=".05" fill="#5e5e5e"/><path d="M-787.72-597.98l-3.82 1.26-.6-1.85 3.8-1.26z" stroke="#5e5e5e" stroke-width=".05" fill="#5e5e5e"/><path d="M-61-840v.4l.03.62-.7.23-.6-1.85 1.3-.44z" fill="#5e5e5e"/><path stroke="#5e5e5e" stroke-width=".05" fill="#5e5e5e"/><path d="M101.61-839.2l287.43 368.4" stroke="#5e5e5e" stroke-width="2" fill="none"/><path d="M102.4-839.8l-1.44 1.13.04-1.32v-.4l-.05-1.25z" stroke="#5e5e5e" stroke-width=".05" fill="#5e5e5e"/><path d="M389-470.8l2.5 3.17M-788-598.63l727.06-31.5M-787.98-598.63l-4.02.17" stroke="#5e5e5e" stroke-width="2" fill="none"/><path d="M-60.1-630.9l.4 1.7-1.22.05-.08-1.95.85-.03z" stroke="#5e5e5e" stroke-width=".05" fill="#5e5e5e"/><path d="M101.86-639.5l286.92 169" stroke="#5e5e5e" stroke-width="2" fill="none"/><path d="M102.38-640.32l-1 1.68-.4-.25.02-1.1v-.4l-.03-.75z" stroke="#5e5e5e" stroke-width=".05" fill="#5e5e5e"/><path d="M388.76-470.52l3.47 2.04M-650-262v-112.5a6 6 0 0 0-6-6h-98a6 6 0 0 1-6-6V-484" stroke="#5e5e5e" stroke-width="2" fill="none"/><path d="M-649.02-260.88l-.98-.13-.98.12v-1.15h1.96z" stroke="#5e5e5e" stroke-width=".05" fill="#5e5e5e"/><path d="M-760-498l7.5 13h-15z" stroke="#5e5e5e" stroke-width="2" fill="#fff"/><path d="M-890-262v-112.5a6 6 0 0 1 6-6h58a6 6 0 0 0 6-6V-484" stroke="#5e5e5e" stroke-width="2" fill="none"/><path d="M-889.02-260.88l-.98-.13-.98.12v-1.15h1.96z" stroke="#5e5e5e" stroke-width=".05" fill="#5e5e5e"/><path d="M-820-498l7.5 13h-15z" stroke="#5e5e5e" stroke-width="2" fill="#fff"/><path d="M-888.05-201.9l674-231.46M-888.03-201.9l-3.8 1.3" stroke="#5e5e5e" stroke-width="2" fill="none"/><path d="M-212.96-433.46l.42.6-1.2.43-.64-1.84.77-.27zM-1.5 218.7l-.82 1.75-886.2-420.27.84-1.76z" stroke="#5e5e5e" stroke-width=".05" fill="#5e5e5e"/><path d="M-887.66-201.57l-.83 1.76-3.63-1.73.84-1.77z" stroke="#5e5e5e" stroke-width=".05" fill="#5e5e5e"/><path d="M-.97 218.94L-1 220v.4l.03.7-1.38-.66.84-1.76z" fill="#5e5e5e"/><path stroke="#5e5e5e" stroke-width=".05" fill="#5e5e5e"/><path d="M-58-460.02l446.64-9.96" stroke="#5e5e5e" stroke-width="2" fill="none"/><path d="M-57.95-459.05l-1.08.03.03-.97v-.4l-.02-.58L-58-461z" stroke="#5e5e5e" stroke-width=".05" fill="#5e5e5e"/><path d="M388.62-469.98l4.02-.1" stroke="#5e5e5e" stroke-width="2" fill="none"/><path d="M-280-60c0 33.14-35.82 60-80 60s-80-26.86-80-60 35.82-60 80-60 80 26.86 80 60z" stroke="#3a414a" stroke-width="2" fill="#fff"/><use xlink:href="#t" transform="matrix(1,0,0,1,-440,-120) translate(51.605000000000004 40.65)"/><use xlink:href="#u" transform="matrix(1,0,0,1,-440,-120) translate(36.05499999999999 62.25)"/><use xlink:href="#v" transform="matrix(1,0,0,1,-440,-120) translate(44.004999999999995 83.85000000000001)"/><path d="M-648.17-200.57l206.34 140M-648.15-200.55l-3.33-2.26" stroke="#5e5e5e" stroke-width="2" fill="none"/><path d="M-440.96-61.15L-441-60v.4l.03.8-1.43-.97 1.1-1.6z" stroke="#5e5e5e" stroke-width=".05" fill="#5e5e5e"/><path d="M-648.04-201.4l206.08-58.33M-648-201.4l-3.9 1.1" stroke="#5e5e5e" stroke-width="2" fill="none"/><path d="M-441-260v.4l.03.6-.75.22-.53-1.88 1.28-.36zM-73.73-849.73l-1.08 1.62-8.3-5.6 1.08-1.6zm-16.58-11.15l-1.1 1.62-16.58-11.15 1.08-1.63zm-24.9-16.73l-1.08 1.6-16.58-11.14 1.1-1.6zm-24.87-16.73l-1.1 1.62-16.57-11.16 1.1-1.62zm-58.02-39h-3.48l-5.92-3.98 1.1-1.63zm-16.6-11.17l-1.1 1.62-16.57-11.15 1.1-1.62zm-24.88-16.73l-1.1 1.62-16.57-11.16 1.1-1.62zm-24.88-16.72l-1.08 1.62-16.6-11.15 1.1-1.62zm-24.87-16.73l-1.1 1.62-8.28-5.57 1.07-1.62z" stroke="#5e5e5e" stroke-width=".05" fill="#5e5e5e"/><path d="M-297.6-1000.24l-1.1 1.62-.34-.23.04-1.14v-.4l-.03-.8z" fill="#5e5e5e"/><path stroke="#5e5e5e" stroke-width=".05" fill="#5e5e5e"/><path d="M-62.66-841.12l-14.97-1.02 8.37-12.45z" fill="#5e5e5e"/><path d="M-61.04-840.03l-18.34-1.25 10.26-15.25zM-75.87-843l11.6.8-5.12-10.44z" stroke="#5e5e5e" stroke-width=".05" fill="#5e5e5e"/><use xlink:href="#w" transform="matrix(1,0,0,1,-244.72222222222223,-933.3333333333334) translate(0.0049999999999954525 17.77777777777778)"/><path d="M-69-653.88l-1.63 1.08-5.45-8.24 1.63-1.07zm-10.9-16.47l-1.62 1.08-10.9-16.47 1.64-1.07zm-16.32-24.7l-1.63 1.08-10.9-16.47 1.64-1.07zm-16.33-24.7l-1.63 1.08-10.9-16.47 1.64-1.08zm-16.33-24.7l-1.63 1.08-10.9-16.47 1.63-1.08zm-16.34-24.7l-1.62 1.07-10.9-16.46 1.64-1.08zm-16.33-24.7l-1.62 1.07-9.18-13.9h2.33zm-26.1-39.48h-2.33l-.4-.62 1.62-1.07zm-6.56-9.93l-1.63 1.08-10.9-16.47 1.64-1.08zm-16.34-24.7l-1.63 1.08-10.88-16.47 1.63-1.08zm-16.33-24.7l-1.63 1.07-9.97-15.07h2.34zm-17.85-27v3.3l-.1.07-10.9-16.46 1.63-1.07zm-14.8-22.4l-1.64 1.07-10.88-16.46 1.62-1.07zm-16.34-24.7l-1.63 1.07-10.88-16.46 1.63-1.08zm-16.33-24.7l-1.62 1.07-5.44-8.23 1.63-1.07z" stroke="#5e5e5e" stroke-width=".05" fill="#5e5e5e"/><path d="M-297.62-999.68l-1.42.93.04-1.24v-.4l-.06-1.46z" fill="#5e5e5e"/><path stroke="#5e5e5e" stroke-width=".05" fill="#5e5e5e"/><path d="M-62.1-641.67l-13.42-6.7 12.5-8.27z" fill="#5e5e5e"/><path d="M-61.03-640.04l-16.44-8.2 15.33-10.15zm-12.55-8.45l10.4 5.2-.7-11.6z" stroke="#5e5e5e" stroke-width=".05" fill="#5e5e5e"/><use xlink:href="#w" transform="matrix(1,0,0,1,-244.72222222222223,-833.3333333333334) translate(0.0049999999999954525 17.77777777777778)"/><path d="M-222.32-475.97l-1.93.28-1.4-9.68 1.93-.27zm-2.8-19.37l-1.93.28-2.8-19.38 1.93-.28zm-4.2-29.07l-1.93.27-2.8-19.38 1.93-.3zm-4.2-29.07l-1.93.27-2.8-19.37 1.93-.28zm-4.2-29.07l-1.93.28-2.8-19.38 1.94-.28zm-4.2-29.07l-1.92.27-2.8-19.37 1.93-.28zm-4.2-29.07l-1.92.28-2.8-19.37 1.93-.28zm-4.2-29.07l-1.92.28-2.8-19.38 1.93-.27zm-4.2-29.06l-1.92.28-2.62-18.15h1.97zm-6.42-44.53h-1.97l-.54-3.64 1.93-.28zm-1.96-13.6l-1.94.27-2.8-19.37 1.94-.28zm-4.2-29.07l-1.93.28-2.8-19.38 1.93-.28zm-4.2-29.07l-1.93.28-2.8-19.37 1.93-.27zm-4.2-29.06l-1.93.28-2.8-19.38 1.93-.28zm-4.2-29.07l-1.93.28-2.8-19.38 1.93-.28zm-4.2-29.06l-1.93.27-2.8-19.36 1.93-.28zm-4.2-29.07l-1.93.28-2.8-19.38 1.94-.28zm-4.2-29.06l-1.92.28-2.8-19.37 1.93-.27zm-4.2-29.06l-1.92.28-1.4-9.7 1.93-.27z" stroke="#5e5e5e" stroke-width=".05" fill="#5e5e5e"/><path d="M-297.9-999.12l-1.13.16.03-1.03v-.4l-.1-2.62.64-.1z" fill="#5e5e5e"/><path stroke="#5e5e5e" stroke-width=".05" fill="#5e5e5e"/><path d="M-221.3-461.98l-9.27-11.78 14.85-2.15z" fill="#5e5e5e"/><path d="M-221-460.05l-11.38-14.44 18.2-2.62zm-7.75-13l7.2 9.14 4.3-10.8z" stroke="#5e5e5e" stroke-width=".05" fill="#5e5e5e"/><use xlink:href="#w" transform="matrix(1,0,0,1,-324.72222222222223,-743.3333333333334) translate(0.0049999999999954525 17.77777777777778)"/><path d="M80.54 157.7l-1.8.73-3.76-9.52 1.8-.7zm-7.5-19l-1.8.7-7.5-19.02 1.8-.72zM61.8 110.14l-1.82.72-7.5-19.03 1.8-.7zM50.53 81.6l-1.82.73-7.5-19.02 1.82-.7zM39.3 53.1l-1.83.7-7.5-19 1.82-.73zM28.03 24.54l-1.82.72-7.5-19.03 1.82-.7zM16.8-4l-1.83.72-7.5-19.02 1.8-.72zM5.52-32.53l-1.8.7-7.5-19 1.8-.73zM-5.72-61.07l-1.8.72-7.5-19.03 1.8-.7zM-16.97-89.6l-1.8.7-7.02-17.77h2.1zm-17.24-43.73h-2.1l-1.23-3.12 1.8-.72zm-5.27-13.35l-1.8.72-7.5-19.03 1.8-.7zm-11.25-28.53l-1.8.7-7.52-19.02 1.82-.72zm-11.25-28.55l-1.82.72-7.5-19.03 1.83-.72zm-11.25-28.54l-1.82.73-7.5-19.03 1.82-.7zm-11.25-28.52l-1.82.7-7.5-19 1.83-.73zm-11.25-28.54l-1.82.72-7.5-19.03 1.82-.7zm-11.26-28.54l-1.8.72-7.5-19.03 1.8-.72zm-11.25-28.53l-1.8.7-7.5-19 1.8-.73zm-11.25-28.54l-1.8.72-3.76-9.52 1.8-.7z" stroke="#5e5e5e" stroke-width=".05" fill="#5e5e5e"/><path d="M81.06 159.03L80 159h-1.05l-.23-.6 1.8-.7z" fill="#5e5e5e"/><path stroke="#5e5e5e" stroke-width=".05" fill="#5e5e5e"/><path d="M-127.52-387.8l-13.96 5.5 2.2-14.84z" fill="#5e5e5e"/><path d="M-125.6-387.52l-17.1 6.74 2.72-18.17zm-14.67 3.7l10.82-4.27-9.1-7.22z" stroke="#5e5e5e" stroke-width=".05" fill="#5e5e5e"/><g><use xlink:href="#x" transform="matrix(1,0,0,1,-91.63580246913581,-133.33333333333334) translate(0.005000000000002558 17.77777777777778)"/></g><path d="M76.66 158.07l-1.95.14-.7-10 1.96-.15zm-1.4-20.04l-1.95.14-1.38-20.04 1.94-.13zm-2.1-30.05l-1.94.13-1.4-20.02 1.94-.14zm-2.1-30.06l-1.94.14-1.4-20.04 1.95-.13zm-2.1-30.05l-1.94.13-1.4-20.03 1.95-.14zm-2.1-30.06l-1.93.15-1.4-20.04 1.94-.12zm-2.1-30.04l-1.93.13-1.4-20.04 1.95-.14zM62.7-42.3l-1.95.14-1.4-20.04 1.95-.13zm-2.1-30.05l-1.95.13-1.4-20.03 1.95-.14zm-2.1-30.06l-1.94.13-1.4-20.04 1.95-.14zm-2.1-30.06l-1.94.13-1.4-20.03 1.95-.14zm-2.1-30.06l-1.94.14-1.4-20.04 1.95-.13zm-2.1-30.05l-1.93.13-.3-4.23h1.96zm-2.13-30.76H48.1l-1.35-19.2 1.95-.13zM48-252.68l-1.95.13-1.4-20.03 1.95-.14zm-2.1-30.06l-1.94.14-1.4-20.04 1.95-.13zm-2.1-30.05l-1.94.14-1.4-20.03 1.95-.13zm-2.1-30.05l-1.94.14-1.4-20.05 1.95-.13zm-2.1-30.05l-1.93.13-1.4-20.03 1.94-.14zm-2.1-30.06l-1.93.14-1.4-20.04 1.95-.13zM35.44-433l-1.95.12-1.4-20.03 1.95-.15zm-2.1-30.07l-1.94.14-1.4-20.04 1.94-.13zm-2.1-30.05l-1.94.13-1.4-20.02 1.95-.14zm-2.1-30.06l-1.94.14-1.4-20.04 1.95-.13zm-2.1-30.05l-1.93.13-.7-10 1.93-.15z" stroke="#5e5e5e" stroke-width=".05" fill="#5e5e5e"/><path d="M76.73 159.1l-1.95.07-.07-1 1.95-.13z" fill="#5e5e5e"/><path stroke="#5e5e5e" stroke-width=".05" fill="#5e5e5e"/><path d="M32.77-564.7l-14.96 1.04 6.6-13.48z" fill="#5e5e5e"/><path d="M34.52-563.85l-18.33 1.28 8.05-16.5zm-15.1-.9l11.6-.8-6.5-9.64z" stroke="#5e5e5e" stroke-width=".05" fill="#5e5e5e"/><g><use xlink:href="#x" transform="matrix(1,0,0,1,-11.635802469135804,-223.33333333333337) translate(0.005000000000002558 17.77777777777778)"/></g><defs><path d="M205 0l-28-72H64L36 0H1l101-248h38L239 0h-34zm-38-99l-47-123c-12 45-31 82-46 123h93" id="y"/><path d="M115-194c55 1 70 41 70 98S169 2 115 4C84 4 66-9 55-30l1 105H24l-1-265h31l2 30c10-21 28-34 59-34zm-8 174c40 0 45-34 45-75s-6-73-45-74c-42 0-51 32-51 76 0 43 10 73 51 73" id="z"/><path d="M24 0v-261h32V0H24" id="A"/><path d="M24-231v-30h32v30H24zM24 0v-190h32V0H24" id="B"/><path d="M96-169c-40 0-48 33-48 73s9 75 48 75c24 0 41-14 43-38l32 2c-6 37-31 61-74 61-59 0-76-41-82-99-10-93 101-131 147-64 4 7 5 14 7 22l-32 3c-4-21-16-35-41-35" id="C"/><path d="M141-36C126-15 110 5 73 4 37 3 15-17 15-53c-1-64 63-63 125-63 3-35-9-54-41-54-24 1-41 7-42 31l-33-3c5-37 33-52 76-52 45 0 72 20 72 64v82c-1 20 7 32 28 27v20c-31 9-61-2-59-35zM48-53c0 20 12 33 32 33 41-3 63-29 60-74-43 2-92-5-92 41" id="D"/><path d="M59-47c-2 24 18 29 38 22v24C64 9 27 4 27-40v-127H5v-23h24l9-43h21v43h35v23H59v120" id="E"/><path d="M100-194c62-1 85 37 85 99 1 63-27 99-86 99S16-35 15-95c0-66 28-99 85-99zM99-20c44 1 53-31 53-75 0-43-8-75-51-75s-53 32-53 75 10 74 51 75" id="F"/><path d="M117-194c89-4 53 116 60 194h-32v-121c0-31-8-49-39-48C34-167 62-67 57 0H25l-1-190h30c1 10-1 24 2 32 11-22 29-35 61-36" id="G"/><g id="a"><use transform="matrix(0.05,0,0,0.05,0,0)" xlink:href="#y"/><use transform="matrix(0.05,0,0,0.05,12,0)" xlink:href="#z"/><use transform="matrix(0.05,0,0,0.05,22,0)" xlink:href="#z"/><use transform="matrix(0.05,0,0,0.05,32,0)" xlink:href="#A"/><use transform="matrix(0.05,0,0,0.05,35.95,0)" xlink:href="#B"/><use transform="matrix(0.05,0,0,0.05,39.900000000000006,0)" xlink:href="#C"/><use transform="matrix(0.05,0,0,0.05,48.900000000000006,0)" xlink:href="#D"/><use transform="matrix(0.05,0,0,0.05,58.900000000000006,0)" xlink:href="#E"/><use transform="matrix(0.05,0,0,0.05,63.900000000000006,0)" xlink:href="#B"/><use transform="matrix(0.05,0,0,0.05,67.85000000000001,0)" xlink:href="#F"/><use transform="matrix(0.05,0,0,0.05,77.85000000000001,0)" xlink:href="#G"/></g><path d="M160-131c35 5 61 23 61 61C221 17 115-2 30 0v-248c76 3 177-17 177 60 0 33-19 50-47 57zm-97-11c50-1 110 9 110-42 0-47-63-36-110-37v79zm0 115c55-2 124 14 124-45 0-56-70-42-124-44v89" id="H"/><path d="M114-163C36-179 61-72 57 0H25l-1-190h30c1 12-1 29 2 39 6-27 23-49 58-41v29" id="I"/><path d="M100-194c63 0 86 42 84 106H49c0 40 14 67 53 68 26 1 43-12 49-29l28 8c-11 28-37 45-77 45C44 4 14-33 15-96c1-61 26-98 85-98zm52 81c6-60-76-77-97-28-3 7-6 17-6 28h103" id="J"/><g id="b"><use transform="matrix(0.05,0,0,0.05,0,0)" xlink:href="#H"/><use transform="matrix(0.05,0,0,0.05,12,0)" xlink:href="#D"/><use transform="matrix(0.05,0,0,0.05,22,0)" xlink:href="#G"/><use transform="matrix(0.05,0,0,0.05,32,0)" xlink:href="#C"/><use transform="matrix(0.05,0,0,0.05,41,0)" xlink:href="#D"/><use transform="matrix(0.05,0,0,0.05,51,0)" xlink:href="#B"/><use transform="matrix(0.05,0,0,0.05,54.95,0)" xlink:href="#I"/><use transform="matrix(0.05,0,0,0.05,60.900000000000006,0)" xlink:href="#J"/></g><path d="M232-93c-1 65-40 97-104 97C67 4 28-28 28-90v-158h33c8 89-33 224 67 224 102 0 64-133 71-224h33v155" id="K"/><path d="M135-143c-3-34-86-38-87 0 15 53 115 12 119 90S17 21 10-45l28-5c4 36 97 45 98 0-10-56-113-15-118-90-4-57 82-63 122-42 12 7 21 19 24 35" id="L"/><path d="M84 4C-5 8 30-112 23-190h32v120c0 31 7 50 39 49 72-2 45-101 50-169h31l1 190h-30c-1-10 1-25-2-33-11 22-28 36-60 37" id="M"/><g id="c"><use transform="matrix(0.05,0,0,0.05,0,0)" xlink:href="#K"/><use transform="matrix(0.05,0,0,0.05,12.950000000000001,0)" xlink:href="#E"/><use transform="matrix(0.05,0,0,0.05,17.950000000000003,0)" xlink:href="#B"/><use transform="matrix(0.05,0,0,0.05,21.900000000000002,0)" xlink:href="#A"/><use transform="matrix(0.05,0,0,0.05,25.85,0)" xlink:href="#B"/><use transform="matrix(0.05,0,0,0.05,29.8,0)" xlink:href="#L"/><use transform="matrix(0.05,0,0,0.05,38.8,0)" xlink:href="#D"/><use transform="matrix(0.05,0,0,0.05,48.8,0)" xlink:href="#E"/><use transform="matrix(0.05,0,0,0.05,53.79999999999999,0)" xlink:href="#J"/><use transform="matrix(0.05,0,0,0.05,63.79999999999999,0)" xlink:href="#M"/><use transform="matrix(0.05,0,0,0.05,73.8,0)" xlink:href="#I"/></g><path d="M212-179c-10-28-35-45-73-45-59 0-87 40-87 99 0 60 29 101 89 101 43 0 62-24 78-52l27 14C228-24 195 4 139 4 59 4 22-46 18-125c-6-104 99-153 187-111 19 9 31 26 39 46" id="N"/><g id="d"><use transform="matrix(0.05,0,0,0.05,0,0)" xlink:href="#N"/><use transform="matrix(0.05,0,0,0.05,12.950000000000001,0)" xlink:href="#F"/><use transform="matrix(0.05,0,0,0.05,22.950000000000003,0)" xlink:href="#G"/><use transform="matrix(0.05,0,0,0.05,32.95,0)" xlink:href="#L"/><use transform="matrix(0.05,0,0,0.05,41.95,0)" xlink:href="#J"/><use transform="matrix(0.05,0,0,0.05,51.95,0)" xlink:href="#B"/><use transform="matrix(0.05,0,0,0.05,55.900000000000006,0)" xlink:href="#A"/><use transform="matrix(0.05,0,0,0.05,59.85,0)" xlink:href="#A"/><use transform="matrix(0.05,0,0,0.05,63.80000000000001,0)" xlink:href="#J"/><use transform="matrix(0.05,0,0,0.05,73.80000000000001,0)" xlink:href="#I"/></g><path d="M145-31C134-9 116 4 85 4 32 4 16-35 15-94c0-59 17-99 70-100 32-1 48 14 60 33 0-11-1-24 2-32h30l-1 268h-32zM93-21c41 0 51-33 51-76s-8-73-50-73c-40 0-46 35-46 75s5 74 45 74" id="O"/><g id="e"><use transform="matrix(0.05,0,0,0.05,0,0)" xlink:href="#H"/><use transform="matrix(0.05,0,0,0.05,12,0)" xlink:href="#D"/><use transform="matrix(0.05,0,0,0.05,22,0)" xlink:href="#G"/><use transform="matrix(0.05,0,0,0.05,32,0)" xlink:href="#O"/><use transform="matrix(0.05,0,0,0.05,42,0)" xlink:href="#M"/><use transform="matrix(0.05,0,0,0.05,52,0)" xlink:href="#J"/></g><path d="M185-189c-5-48-123-54-124 2 14 75 158 14 163 119 3 78-121 87-175 55-17-10-28-26-33-46l33-7c5 56 141 63 141-1 0-78-155-14-162-118-5-82 145-84 179-34 5 7 8 16 11 25" id="P"/><g id="f"><use transform="matrix(0.05,0,0,0.05,0,0)" xlink:href="#P"/><use transform="matrix(0.05,0,0,0.05,12,0)" xlink:href="#J"/></g><g id="g"><use transform="matrix(0.05,0,0,0.05,0,0)" xlink:href="#N"/><use transform="matrix(0.05,0,0,0.05,12.950000000000001,0)" xlink:href="#F"/><use transform="matrix(0.05,0,0,0.05,22.950000000000003,0)" xlink:href="#G"/><use transform="matrix(0.05,0,0,0.05,32.95,0)" xlink:href="#G"/><use transform="matrix(0.05,0,0,0.05,42.95,0)" xlink:href="#J"/><use transform="matrix(0.05,0,0,0.05,52.95,0)" xlink:href="#C"/><use transform="matrix(0.05,0,0,0.05,61.95,0)" xlink:href="#E"/><use transform="matrix(0.05,0,0,0.05,66.95,0)" xlink:href="#J"/><use transform="matrix(0.05,0,0,0.05,76.95,0)" xlink:href="#I"/></g><g id="h"><use transform="matrix(0.05,0,0,0.05,0,0)" xlink:href="#N"/><use transform="matrix(0.05,0,0,0.05,12.950000000000001,0)" xlink:href="#F"/><use transform="matrix(0.05,0,0,0.05,22.950000000000003,0)" xlink:href="#G"/><use transform="matrix(0.05,0,0,0.05,32.95,0)" xlink:href="#L"/><use transform="matrix(0.05,0,0,0.05,41.95,0)" xlink:href="#M"/><use transform="matrix(0.05,0,0,0.05,51.95,0)" xlink:href="#A"/><use transform="matrix(0.05,0,0,0.05,55.900000000000006,0)" xlink:href="#E"/><use transform="matrix(0.05,0,0,0.05,60.900000000000006,0)" xlink:href="#J"/><use transform="matrix(0.05,0,0,0.05,70.9,0)" xlink:href="#I"/></g><path d="M85-194c31 0 48 13 60 33l-1-100h32l1 261h-30c-2-10 0-23-3-31C134-8 116 4 85 4 32 4 16-35 15-94c0-66 23-100 70-100zm9 24c-40 0-46 34-46 75 0 40 6 74 45 74 42 0 51-32 51-76 0-42-9-74-50-73" id="Q"/><g id="i"><use transform="matrix(0.05,0,0,0.05,0,0)" xlink:href="#P"/><use transform="matrix(0.05,0,0,0.05,12,0)" xlink:href="#F"/><use transform="matrix(0.05,0,0,0.05,22,0)" xlink:href="#A"/><use transform="matrix(0.05,0,0,0.05,25.950000000000003,0)" xlink:href="#Q"/><use transform="matrix(0.05,0,0,0.05,35.95,0)" xlink:href="#J"/></g><path d="M30 0v-248h187v28H63v79h144v27H63v87h162V0H30" id="R"/><path d="M101-234c-31-9-42 10-38 44h38v23H63V0H32v-167H5v-23h27c-7-52 17-82 69-68v24" id="S"/><g id="j"><use transform="matrix(0.05,0,0,0.05,0,0)" xlink:href="#R"/><use transform="matrix(0.05,0,0,0.05,12,0)" xlink:href="#S"/><use transform="matrix(0.05,0,0,0.05,16.65,0)" xlink:href="#S"/><use transform="matrix(0.05,0,0,0.05,21.65,0)" xlink:href="#J"/><use transform="matrix(0.05,0,0,0.05,31.649999999999995,0)" xlink:href="#C"/><use transform="matrix(0.05,0,0,0.05,40.65,0)" xlink:href="#E"/><use transform="matrix(0.05,0,0,0.05,45.65,0)" xlink:href="#M"/><use transform="matrix(0.05,0,0,0.05,55.650000000000006,0)" xlink:href="#J"/><use transform="matrix(0.05,0,0,0.05,65.65,0)" xlink:href="#I"/></g><path d="M137 0h-34L2-248h35l83 218 83-218h36" id="T"/><path d="M210-169c-67 3-38 105-44 169h-31v-121c0-29-5-50-35-48C34-165 62-65 56 0H25l-1-190h30c1 10-1 24 2 32 10-44 99-50 107 0 11-21 27-35 58-36 85-2 47 119 55 194h-31v-121c0-29-5-49-35-48" id="U"/><g id="k"><use transform="matrix(0.05,0,0,0.05,0,0)" xlink:href="#T"/><use transform="matrix(0.05,0,0,0.05,11.65,0)" xlink:href="#B"/><use transform="matrix(0.05,0,0,0.05,15.600000000000001,0)" xlink:href="#I"/><use transform="matrix(0.05,0,0,0.05,21.55,0)" xlink:href="#J"/><use transform="matrix(0.05,0,0,0.05,31.55,0)" xlink:href="#U"/><use transform="matrix(0.05,0,0,0.05,46.5,0)" xlink:href="#J"/><use transform="matrix(0.05,0,0,0.05,56.5,0)" xlink:href="#G"/><use transform="matrix(0.05,0,0,0.05,66.5,0)" xlink:href="#E"/></g><path d="M30-248c87 1 191-15 191 75 0 78-77 80-158 76V0H30v-248zm33 125c57 0 124 11 124-50 0-59-68-47-124-48v98" id="V"/><path d="M179-190L93 31C79 59 56 82 12 73V49c39 6 53-20 64-50L1-190h34L92-34l54-156h33" id="W"/><g id="l"><use transform="matrix(0.05,0,0,0.05,0,0)" xlink:href="#V"/><use transform="matrix(0.05,0,0,0.05,12,0)" xlink:href="#D"/><use transform="matrix(0.05,0,0,0.05,22,0)" xlink:href="#W"/><use transform="matrix(0.05,0,0,0.05,31,0)" xlink:href="#J"/><use transform="matrix(0.05,0,0,0.05,41,0)" xlink:href="#I"/></g><path d="M63-220v92h138v28H63V0H30v-248h175v28H63" id="X"/><g id="m"><use transform="matrix(0.05,0,0,0.05,0,0)" xlink:href="#X"/><use transform="matrix(0.05,0,0,0.05,10.950000000000001,0)" xlink:href="#D"/><use transform="matrix(0.05,0,0,0.05,20.950000000000003,0)" xlink:href="#C"/><use transform="matrix(0.05,0,0,0.05,29.950000000000003,0)" xlink:href="#E"/><use transform="matrix(0.05,0,0,0.05,34.95,0)" xlink:href="#M"/><use transform="matrix(0.05,0,0,0.05,44.95,0)" xlink:href="#I"/><use transform="matrix(0.05,0,0,0.05,50.900000000000006,0)" xlink:href="#J"/></g><g id="n"><use transform="matrix(0.05,0,0,0.05,0,0)" xlink:href="#N"/><use transform="matrix(0.05,0,0,0.05,12.950000000000001,0)" xlink:href="#F"/><use transform="matrix(0.05,0,0,0.05,22.950000000000003,0)" xlink:href="#G"/><use transform="matrix(0.05,0,0,0.05,32.95,0)" xlink:href="#E"/><use transform="matrix(0.05,0,0,0.05,37.95,0)" xlink:href="#D"/><use transform="matrix(0.05,0,0,0.05,47.95,0)" xlink:href="#C"/><use transform="matrix(0.05,0,0,0.05,56.95,0)" xlink:href="#E"/><use transform="matrix(0.05,0,0,0.05,61.95,0)" xlink:href="#J"/><use transform="matrix(0.05,0,0,0.05,71.95,0)" xlink:href="#I"/></g><g id="o"><use transform="matrix(0.05,0,0,0.05,0,0)" xlink:href="#N"/><use transform="matrix(0.05,0,0,0.05,12.950000000000001,0)" xlink:href="#F"/><use transform="matrix(0.05,0,0,0.05,22.950000000000003,0)" xlink:href="#G"/><use transform="matrix(0.05,0,0,0.05,32.95,0)" xlink:href="#L"/><use transform="matrix(0.05,0,0,0.05,41.95,0)" xlink:href="#J"/><use transform="matrix(0.05,0,0,0.05,51.95,0)" xlink:href="#B"/><use transform="matrix(0.05,0,0,0.05,55.900000000000006,0)" xlink:href="#A"/><use transform="matrix(0.05,0,0,0.05,59.85,0)" xlink:href="#A"/><use transform="matrix(0.05,0,0,0.05,63.80000000000001,0)" xlink:href="#J"/><use transform="matrix(0.05,0,0,0.05,73.80000000000001,0)" xlink:href="#I"/></g><path d="M143 4C61 4 22-44 18-125c-5-107 100-154 193-111 17 8 29 25 37 43l-32 9c-13-25-37-40-76-40-61 0-88 39-88 99 0 61 29 100 91 101 35 0 62-11 79-27v-45h-74v-28h105v86C228-13 192 4 143 4" id="Y"/><path d="M100-194c63 0 86 42 84 106H49c0 40 14 67 53 68 26 1 43-12 49-29l28 8c-11 28-37 45-77 45C44 4 14-33 15-96c1-61 26-98 85-98zm52 81c6-60-76-77-97-28-3 7-6 17-6 28h103zm-74-98c8-23 27-35 38-54h36v5l-58 49H78" id="Z"/><g id="p"><use transform="matrix(0.05,0,0,0.05,0,0)" xlink:href="#Y"/><use transform="matrix(0.05,0,0,0.05,14,0)" xlink:href="#Z"/><use transform="matrix(0.05,0,0,0.05,24,0)" xlink:href="#I"/><use transform="matrix(0.05,0,0,0.05,29.950000000000003,0)" xlink:href="#J"/><use transform="matrix(0.05,0,0,0.05,39.95,0)" xlink:href="#I"/></g><g id="q"><use transform="matrix(0.05,0,0,0.05,0,0)" xlink:href="#z"/><use transform="matrix(0.05,0,0,0.05,10,0)" xlink:href="#I"/><use transform="matrix(0.05,0,0,0.05,15.949999999999998,0)" xlink:href="#F"/><use transform="matrix(0.05,0,0,0.05,25.950000000000003,0)" xlink:href="#S"/><use transform="matrix(0.05,0,0,0.05,30.950000000000003,0)" xlink:href="#B"/><use transform="matrix(0.05,0,0,0.05,34.9,0)" xlink:href="#A"/></g><g id="r"><use transform="matrix(0.05,0,0,0.05,0,0)" xlink:href="#M"/><use transform="matrix(0.05,0,0,0.05,10,0)" xlink:href="#E"/><use transform="matrix(0.05,0,0,0.05,15,0)" xlink:href="#B"/><use transform="matrix(0.05,0,0,0.05,18.95,0)" xlink:href="#A"/><use transform="matrix(0.05,0,0,0.05,22.9,0)" xlink:href="#B"/><use transform="matrix(0.05,0,0,0.05,26.849999999999994,0)" xlink:href="#L"/><use transform="matrix(0.05,0,0,0.05,35.849999999999994,0)" xlink:href="#D"/><use transform="matrix(0.05,0,0,0.05,45.849999999999994,0)" xlink:href="#E"/><use transform="matrix(0.05,0,0,0.05,50.849999999999994,0)" xlink:href="#J"/><use transform="matrix(0.05,0,0,0.05,60.849999999999994,0)" xlink:href="#M"/><use transform="matrix(0.05,0,0,0.05,70.85,0)" xlink:href="#I"/></g><g id="s"><use transform="matrix(0.05,0,0,0.05,0,0)" xlink:href="#N"/><use transform="matrix(0.05,0,0,0.05,12.950000000000001,0)" xlink:href="#A"/><use transform="matrix(0.05,0,0,0.05,16.900000000000002,0)" xlink:href="#B"/><use transform="matrix(0.05,0,0,0.05,20.85,0)" xlink:href="#J"/><use transform="matrix(0.05,0,0,0.05,30.85,0)" xlink:href="#G"/><use transform="matrix(0.05,0,0,0.05,40.85,0)" xlink:href="#E"/></g><g id="t"><use transform="matrix(0.05,0,0,0.05,0,0)" xlink:href="#T"/><use transform="matrix(0.05,0,0,0.05,12,0)" xlink:href="#Z"/><use transform="matrix(0.05,0,0,0.05,22,0)" xlink:href="#I"/><use transform="matrix(0.05,0,0,0.05,27.950000000000003,0)" xlink:href="#B"/><use transform="matrix(0.05,0,0,0.05,31.899999999999995,0)" xlink:href="#S"/><use transform="matrix(0.05,0,0,0.05,36.9,0)" xlink:href="#B"/><use transform="matrix(0.05,0,0,0.05,40.85,0)" xlink:href="#J"/><use transform="matrix(0.05,0,0,0.05,50.85,0)" xlink:href="#I"/></g><g id="u"><use transform="matrix(0.05,0,0,0.05,0,0)" xlink:href="#E"/><use transform="matrix(0.05,0,0,0.05,5,0)" xlink:href="#I"/><use transform="matrix(0.05,0,0,0.05,10.95,0)" xlink:href="#D"/><use transform="matrix(0.05,0,0,0.05,20.95,0)" xlink:href="#G"/><use transform="matrix(0.05,0,0,0.05,30.950000000000003,0)" xlink:href="#L"/><use transform="matrix(0.05,0,0,0.05,39.95,0)" xlink:href="#D"/><use transform="matrix(0.05,0,0,0.05,49.95,0)" xlink:href="#C"/><use transform="matrix(0.05,0,0,0.05,58.95,0)" xlink:href="#E"/><use transform="matrix(0.05,0,0,0.05,63.95,0)" xlink:href="#B"/><use transform="matrix(0.05,0,0,0.05,67.9,0)" xlink:href="#F"/><use transform="matrix(0.05,0,0,0.05,77.9,0)" xlink:href="#G"/></g><g id="v"><use transform="matrix(0.05,0,0,0.05,0,0)" xlink:href="#L"/><use transform="matrix(0.05,0,0,0.05,9,0)" xlink:href="#M"/><use transform="matrix(0.05,0,0,0.05,19,0)" xlink:href="#L"/><use transform="matrix(0.05,0,0,0.05,28,0)" xlink:href="#z"/><use transform="matrix(0.05,0,0,0.05,38,0)" xlink:href="#J"/><use transform="matrix(0.05,0,0,0.05,48,0)" xlink:href="#C"/><use transform="matrix(0.05,0,0,0.05,57,0)" xlink:href="#E"/><use transform="matrix(0.05,0,0,0.05,62,0)" xlink:href="#J"/></g><path fill="#333" d="M15-91v-56l181-69v40L49-119l147 57v40" id="aa"/><path fill="#333" d="M25-224v-37h50v37H25zM25 0v-190h50V0H25" id="ab"/><path fill="#333" d="M135-194c87-1 58 113 63 194h-50c-7-57 23-157-34-157-59 0-34 97-39 157H25l-1-190h47c2 12-1 28 3 38 12-26 28-41 61-42" id="ac"/><path fill="#333" d="M190-63c-7 42-38 67-86 67-59 0-84-38-90-98-12-110 154-137 174-36l-49 2c-2-19-15-32-35-32-30 0-35 28-38 64-6 74 65 87 74 30" id="ad"/><path fill="#333" d="M25 0v-261h50V0H25" id="ae"/><path fill="#333" d="M85 4C-2 5 27-109 22-190h50c7 57-23 150 33 157 60-5 35-97 40-157h50l1 190h-47c-2-12 1-28-3-38-12 25-28 42-61 42" id="af"/><path fill="#333" d="M88-194c31-1 46 15 58 34l-1-101h50l1 261h-48c-2-10 0-23-3-31C134-8 116 4 84 4 32 4 16-41 15-95c0-56 19-97 73-99zm17 164c33 0 40-30 41-66 1-37-9-64-41-64s-38 30-39 65c0 43 13 65 39 65" id="ag"/><path fill="#333" d="M185-48c-13 30-37 53-82 52C43 2 14-33 14-96s30-98 90-98c62 0 83 45 84 108H66c0 31 8 55 39 56 18 0 30-7 34-22zm-45-69c5-46-57-63-70-21-2 6-4 13-4 21h74" id="ah"/><path fill="#333" d="M15-22v-40l146-57-146-57v-40l181 69v56" id="ai"/><g id="w"><use transform="matrix(0.06172839506172839,0,0,0.06172839506172839,0,0)" xlink:href="#aa"/><use transform="matrix(0.06172839506172839,0,0,0.06172839506172839,12.962962962962962,0)" xlink:href="#aa"/><use transform="matrix(0.06172839506172839,0,0,0.06172839506172839,25.925925925925924,0)" xlink:href="#ab"/><use transform="matrix(0.06172839506172839,0,0,0.06172839506172839,32.098765432098766,0)" xlink:href="#ac"/><use transform="matrix(0.06172839506172839,0,0,0.06172839506172839,45.617283950617285,0)" xlink:href="#ad"/><use transform="matrix(0.06172839506172839,0,0,0.06172839506172839,57.96296296296296,0)" xlink:href="#ae"/><use transform="matrix(0.06172839506172839,0,0,0.06172839506172839,64.1358024691358,0)" xlink:href="#af"/><use transform="matrix(0.06172839506172839,0,0,0.06172839506172839,77.65432098765432,0)" xlink:href="#ag"/><use transform="matrix(0.06172839506172839,0,0,0.06172839506172839,91.17283950617283,0)" xlink:href="#ah"/><use transform="matrix(0.06172839506172839,0,0,0.06172839506172839,103.51851851851852,0)" xlink:href="#ai"/><use transform="matrix(0.06172839506172839,0,0,0.06172839506172839,116.48148148148148,0)" xlink:href="#ai"/></g><path fill="#333" d="M144 0l-44-69L55 0H2l70-98-66-92h53l41 62 40-62h54l-67 91 71 99h-54" id="aj"/><path fill="#333" d="M115-3C79 11 28 4 28-45v-112H4v-33h27l15-45h31v45h36v33H77v99c-1 23 16 31 38 25v30" id="ak"/><g id="x"><use transform="matrix(0.06172839506172839,0,0,0.06172839506172839,0,0)" xlink:href="#aa"/><use transform="matrix(0.06172839506172839,0,0,0.06172839506172839,12.962962962962962,0)" xlink:href="#aa"/><use transform="matrix(0.06172839506172839,0,0,0.06172839506172839,25.925925925925924,0)" xlink:href="#ah"/><use transform="matrix(0.06172839506172839,0,0,0.06172839506172839,38.2716049382716,0)" xlink:href="#aj"/><use transform="matrix(0.06172839506172839,0,0,0.06172839506172839,50.61728395061728,0)" xlink:href="#ak"/><use transform="matrix(0.06172839506172839,0,0,0.06172839506172839,57.962962962962955,0)" xlink:href="#ah"/><use transform="matrix(0.06172839506172839,0,0,0.06172839506172839,70.30864197530863,0)" xlink:href="#ac"/><use transform="matrix(0.06172839506172839,0,0,0.06172839506172839,83.82716049382715,0)" xlink:href="#ag"/><use transform="matrix(0.06172839506172839,0,0,0.06172839506172839,97.34567901234567,0)" xlink:href="#ai"/><use transform="matrix(0.06172839506172839,0,0,0.06172839506172839,110.30864197530863,0)" xlink:href="#ai"/></g></defs></g></svg>