<svg xmlns="http://www.w3.org/2000/svg" xmlns:xlink="http://www.w3.org/1999/xlink" xmlns:lucid="lucid" width="2002" height="762"><g transform="translate(141 781)" lucid:page-tab-id="0_0"><path d="M-500-1000h2500V0H-500z" fill="#fff"/><path d="M-120-754a6 6 0 0 1 6-6h598a6 6 0 0 1 6 6v447a6 6 0 0 1-6 6h-598a6 6 0 0 1-6-6z" stroke="#3a414a" stroke-width="2" fill="#fff"/><path d="M-120-722.4h610m-610 210.9h610" stroke="#3a414a" stroke-width="2" fill="none"/><use xlink:href="#a" transform="matrix(1,0,0,1,-112,-752) translate(267.05 14.6)"/><use xlink:href="#b" transform="matrix(1,0,0,1,-108,-714.4) translate(0 68.69999999999999)"/><use xlink:href="#c" transform="matrix(1,0,0,1,-108,-714.4) translate(15 68.69999999999999)"/><use xlink:href="#d" transform="matrix(1,0,0,1,-108,-714.4) translate(0 90.3)"/><use xlink:href="#e" transform="matrix(1,0,0,1,-108,-714.4) translate(10.95 90.3)"/><use xlink:href="#f" transform="matrix(1,0,0,1,-108,-714.4) translate(84.85000000000001 90.3)"/><use xlink:href="#g" transform="matrix(1,0,0,1,-108,-714.4) translate(100.35000000000001 90.3)"/><use xlink:href="#d" transform="matrix(1,0,0,1,-108,-714.4) translate(0 111.9)"/><use xlink:href="#h" transform="matrix(1,0,0,1,-108,-714.4) translate(10.95 111.9)"/><use xlink:href="#i" transform="matrix(1,0,0,1,-108,-714.4) translate(0 133.5)"/><use xlink:href="#j" transform="matrix(1,0,0,1,-108,-503.49999999999994) translate(0 68.69999999999999)"/><use xlink:href="#k" transform="matrix(1,0,0,1,-108,-503.49999999999994) translate(15.5 68.69999999999999)"/><use xlink:href="#j" transform="matrix(1,0,0,1,-108,-503.49999999999994) translate(0 90.3)"/><use xlink:href="#l" transform="matrix(1,0,0,1,-108,-503.49999999999994) translate(15.5 90.3)"/><use xlink:href="#m" transform="matrix(1,0,0,1,-108,-503.49999999999994) translate(65.4 90.3)"/><use xlink:href="#n" transform="matrix(1,0,0,1,-108,-503.49999999999994) translate(111.35000000000001 90.3)"/><use xlink:href="#o" transform="matrix(1,0,0,1,-108,-503.49999999999994) translate(121.35000000000001 90.3)"/><use xlink:href="#j" transform="matrix(1,0,0,1,-108,-503.49999999999994) translate(0 111.9)"/><use xlink:href="#p" transform="matrix(1,0,0,1,-108,-503.49999999999994) translate(15.5 111.9)"/><use xlink:href="#q" transform="matrix(1,0,0,1,-108,-503.49999999999994) translate(112.30000000000001 111.9)"/><use xlink:href="#j" transform="matrix(1,0,0,1,-108,-503.49999999999994) translate(0 133.5)"/><use xlink:href="#r" transform="matrix(1,0,0,1,-108,-503.49999999999994) translate(15.5 133.5)"/><use xlink:href="#s" transform="matrix(1,0,0,1,-108,-503.49999999999994) translate(115.45 133.5)"/><path d="M520-754a6 6 0 0 1 6-6h528a6 6 0 0 1 6 6v340a6 6 0 0 1-6 6H526a6 6 0 0 1-6-6z" fill="#fff"/><path d="M545.56-760h19.55m9.8 0h19.54m9.78 0h19.56m9.78 0h19.55m9.8 0h19.54m9.78 0h19.56m9.78 0h19.55m9.8 0h19.54m9.78 0h19.56m9.78 0h19.55m9.8 0h19.54m9.78 0h19.56m9.78 0h19.55m9.8 0h19.54m9.78 0h19.56m9.78 0h19.55m9.8 0h19.54m9.78 0h9.78l.94.07.9.22.88.35.8.5.72.6.6.72.5.8.37.88.23.9.07.95v10.3m0 10.3v20.6m0 10.3v20.62m0 10.3v20.6m0 10.3v20.62m0 10.3v20.6m0 10.3v20.62m0 10.3v20.6m0 10.3v20.62m0 10.3v20.6m0 10.3v20.6m0 10.32v10.3l-.07.94-.22.9-.35.88-.5.8-.6.72-.72.6-.8.5-.88.37-.9.23-.95.07h-9.78m-9.78 0h-19.55m-9.8 0h-19.54m-9.78 0h-19.56m-9.78 0H926.9m-9.8 0h-19.54m-9.78 0h-19.56m-9.78 0H838.9m-9.8 0h-19.54m-9.78 0h-19.56m-9.78 0H750.9m-9.8 0h-19.54m-9.78 0h-19.56m-9.78 0H662.9m-9.8 0h-19.54m-9.78 0h-19.56m-9.78 0H574.9m-9.8 0h-19.54m-9.78 0H526l-.94-.07-.9-.22-.88-.35-.8-.5-.72-.6-.6-.72-.5-.8-.37-.88-.23-.9-.07-.95v-10.3m0-10.3v-20.6m0-10.3v-20.62m0-10.3v-20.6m0-10.3v-20.62m0-10.3v-20.6m0-10.3v-20.62m0-10.3v-20.6m0-10.3v-20.62m0-10.3v-20.6m0-10.3v-20.6m0-10.32V-754l.07-.94.22-.9.35-.88.5-.8.6-.72.72-.6.8-.5.88-.37.9-.23.95-.07h9.78" stroke="#3a414a" stroke-width="2" fill="none"/><path d="M520-722.4h540M520-565.3h540" fill="none"/><path d="M520-722.4h10m10 0h20m10 0h20m10 0h20m10 0h20m10 0h20m10 0h20m10 0h20m10 0h20m10 0h20m10 0h20m10 0h20m10 0h20m10 0h20m10 0h20m10 0h20m10 0h20m10 0h20m10 0h10M520-565.3h10m10 0h20m10 0h20m10 0h20m10 0h20m10 0h20m10 0h20m10 0h20m10 0h20m10 0h20m10 0h20m10 0h20m10 0h20m10 0h20m10 0h20m10 0h20m10 0h20m10 0h20m10 0h10" stroke="#3a414a" stroke-width="2" fill="none"/><g><use xlink:href="#t" transform="matrix(1,0,0,1,528,-752) translate(233.025 14.6)"/></g><path d="M-120-294a6 6 0 0 1 6-6h448a6 6 0 0 1 6 6v248a6 6 0 0 1-6 6h-448a6 6 0 0 1-6-6z" fill="#fff"/><g><use xlink:href="#j" transform="matrix(1,0,0,1,-120,-300) translate(20.57999999999999 91.5875)"/><use xlink:href="#n" transform="matrix(1,0,0,1,-120,-300) translate(36.07999999999999 91.5875)"/><use xlink:href="#u" transform="matrix(1,0,0,1,-120,-300) translate(46.07999999999999 91.5875)"/><use xlink:href="#v" transform="matrix(1,0,0,1,-120,-300) translate(180.92999999999998 91.5875)"/><use xlink:href="#w" transform="matrix(1,0,0,1,-120,-300) translate(232.82999999999998 91.5875)"/><use xlink:href="#x" transform="matrix(1,0,0,1,-120,-300) translate(293.63 91.5875)"/><use xlink:href="#y" transform="matrix(1,0,0,1,-120,-300) translate(324.58 91.5875)"/><use xlink:href="#z" transform="matrix(1,0,0,1,-120,-300) translate(359.58 91.5875)"/><use xlink:href="#A" transform="matrix(1,0,0,1,-120,-300) translate(378.53 91.5875)"/><use xlink:href="#d" transform="matrix(1,0,0,1,-120,-300) translate(32.33000000000002 113.1875)"/><use xlink:href="#n" transform="matrix(1,0,0,1,-120,-300) translate(43.28000000000002 113.1875)"/><use xlink:href="#u" transform="matrix(1,0,0,1,-120,-300) translate(53.28000000000002 113.1875)"/><use xlink:href="#B" transform="matrix(1,0,0,1,-120,-300) translate(188.13000000000002 113.1875)"/><use xlink:href="#w" transform="matrix(1,0,0,1,-120,-300) translate(242.03000000000003 113.1875)"/><use xlink:href="#C" transform="matrix(1,0,0,1,-120,-300) translate(302.83000000000004 113.1875)"/><use xlink:href="#D" transform="matrix(1,0,0,1,-120,-300) translate(401.73 113.1875)"/><use xlink:href="#E" transform="matrix(1,0,0,1,-120,-300) translate(155.38 134.7875)"/><use xlink:href="#F" transform="matrix(1,0,0,1,-120,-300) translate(234.68 134.7875)"/><use xlink:href="#G" transform="matrix(1,0,0,1,-120,-300) translate(259.68 134.7875)"/><use xlink:href="#b" transform="matrix(1,0,0,1,-120,-300) translate(19.28000000000001 156.3875)"/><use xlink:href="#n" transform="matrix(1,0,0,1,-120,-300) translate(34.28000000000001 156.3875)"/><use xlink:href="#u" transform="matrix(1,0,0,1,-120,-300) translate(44.28000000000001 156.3875)"/><use xlink:href="#H" transform="matrix(1,0,0,1,-120,-300) translate(179.13 156.3875)"/><use xlink:href="#w" transform="matrix(1,0,0,1,-120,-300) translate(245.08 156.3875)"/><use xlink:href="#x" transform="matrix(1,0,0,1,-120,-300) translate(305.88 156.3875)"/><use xlink:href="#I" transform="matrix(1,0,0,1,-120,-300) translate(336.83000000000004 156.3875)"/><use xlink:href="#J" transform="matrix(1,0,0,1,-120,-300) translate(364.78 156.3875)"/><use xlink:href="#K" transform="matrix(1,0,0,1,-120,-300) translate(106.42999999999999 177.98749999999998)"/><use xlink:href="#F" transform="matrix(1,0,0,1,-120,-300) translate(179.32999999999998 177.98749999999998)"/><use xlink:href="#E" transform="matrix(1,0,0,1,-120,-300) translate(204.32999999999998 177.98749999999998)"/><use xlink:href="#F" transform="matrix(1,0,0,1,-120,-300) translate(283.63 177.98749999999998)"/><use xlink:href="#L" transform="matrix(1,0,0,1,-120,-300) translate(308.63 177.98749999999998)"/></g><path d="M400-274a6 6 0 0 1 6-6h548a6 6 0 0 1 6 6v228a6 6 0 0 1-6 6H406a6 6 0 0 1-6-6z" fill="#fff"/><g><use xlink:href="#M" transform="matrix(1,0,0,1,400,-280) translate(135.27999999999997 104.4)"/><use xlink:href="#N" transform="matrix(1,0,0,1,400,-280) translate(154.23 104.4)"/><use xlink:href="#O" transform="matrix(1,0,0,1,400,-280) translate(213.13 104.4)"/><use xlink:href="#P" transform="matrix(1,0,0,1,400,-280) translate(273.98 104.4)"/><use xlink:href="#Q" transform="matrix(1,0,0,1,400,-280) translate(316.88 104.4)"/><use xlink:href="#R" transform="matrix(1,0,0,1,400,-280) translate(351.88 104.4)"/><use xlink:href="#S" transform="matrix(1,0,0,1,400,-280) translate(128.655 126)"/><use xlink:href="#T" transform="matrix(1,0,0,1,400,-280) translate(158.655 126)"/><use xlink:href="#U" transform="matrix(1,0,0,1,400,-280) translate(240.655 126)"/><use xlink:href="#V" transform="matrix(1,0,0,1,400,-280) translate(281.605 126)"/><use xlink:href="#W" transform="matrix(1,0,0,1,400,-280) translate(300.55499999999995 126)"/><use xlink:href="#F" transform="matrix(1,0,0,1,400,-280) translate(354.455 126)"/><use xlink:href="#X" transform="matrix(1,0,0,1,400,-280) translate(379.455 126)"/><use xlink:href="#Y" transform="matrix(1,0,0,1,400,-280) translate(57.304999999999986 147.6)"/><use xlink:href="#N" transform="matrix(1,0,0,1,400,-280) translate(101.255 147.6)"/><use xlink:href="#Z" transform="matrix(1,0,0,1,400,-280) translate(160.155 147.6)"/><use xlink:href="#aa" transform="matrix(1,0,0,1,400,-280) translate(226.005 147.6)"/><use xlink:href="#ab" transform="matrix(1,0,0,1,400,-280) translate(304.95500000000004 147.6)"/><use xlink:href="#ac" transform="matrix(1,0,0,1,400,-280) translate(324.95500000000004 147.6)"/><use xlink:href="#ad" transform="matrix(1,0,0,1,400,-280) translate(353.905 147.6)"/><use xlink:href="#ae" transform="matrix(1,0,0,1,400,-280) translate(393.905 147.6)"/><use xlink:href="#af" transform="matrix(1,0,0,1,400,-280) translate(429.855 147.6)"/></g><path d="M1062-584l9.73-.1m9.72-.08l19.46-.17m9.74-.1l19.45-.16m9.72-.1l19.46-.17m9.72-.1l19.46-.16m9.73-.1l19.44-.16m9.73-.08l19.45-.17m9.73-.1l19.46-.16m9.73-.1l19.46-.17m9.72-.08l19.45-.18m9.73-.08l19.46-.18m9.72-.1l9.73-.08" stroke="#5e5e5e" stroke-width="2" fill="none"/><path d="M1062.03-583.03H1061v-1.95h1.02z" stroke="#5e5e5e" stroke-width=".05" fill="#5e5e5e"/><path d="M1397-586.98l-12.92 7.6-.14-15z" stroke="#5e5e5e" stroke-width="2" fill="#5e5e5e"/><path d="M1400-748a6 6 0 0 1 6-6h428a6 6 0 0 1 6 6v322a6 6 0 0 1-6 6h-428a6 6 0 0 1-6-6z" fill="#fff"/><path d="M1426.38-754h20.38m10.2 0h20.37m10.2 0h20.38m10.2 0h20.38m10.2 0h20.37m10.2 0h20.37m10.2 0h20.37m10.18 0h20.38m10.2 0h20.37m10.2 0h20.38m10.2 0h20.38m10.2 0h20.37m10.2 0h20.37m10.2 0H1834l.94.07.9.22.88.35.8.5.72.6.6.72.5.8.37.88.23.9.07.95v9.76m0 9.75v19.53m0 9.76v19.5m0 9.76v19.52m0 9.75v19.52m0 9.76v19.52m0 9.76v19.5m0 9.77v19.52m0 9.75v19.52m0 9.76v19.5m0 9.77v19.5m0 9.77v9.76l-.07.94-.22.9-.35.88-.5.8-.6.72-.72.6-.8.5-.88.37-.9.23-.95.07h-10.2m-10.18 0h-20.38m-10.2 0h-20.37m-10.2 0h-20.38m-10.2 0h-20.38m-10.2 0h-20.37m-10.2 0h-20.37m-10.2 0h-20.37m-10.18 0h-20.38m-10.2 0h-20.37m-10.2 0h-20.38m-10.2 0h-20.38m-10.2 0h-20.37m-10.2 0h-20.37m-10.2 0H1406l-.94-.07-.9-.22-.88-.35-.8-.5-.72-.6-.6-.72-.5-.8-.37-.88-.23-.9-.07-.95v-9.76m0-9.75v-19.53m0-9.76v-19.5m0-9.76v-19.52m0-9.75v-19.52m0-9.76v-19.52m0-9.76v-19.5m0-9.77v-19.52m0-9.75v-19.52m0-9.76v-19.5m0-9.77v-19.5m0-9.77V-748l.07-.94.22-.9.35-.88.5-.8.6-.72.72-.6.8-.5.88-.37.9-.23.95-.07h10.2" stroke="#3a414a" stroke-width="2" fill="none"/><path d="M1400-711.33h440m-440 145.66h440" fill="none"/><path d="M1400-711.33h9.78m9.78 0h19.55m9.8 0h19.54m9.78 0h19.56m9.78 0h19.55m9.8 0h19.54m9.78 0h19.56m9.78 0h19.55m9.8 0h19.54m9.78 0h19.56m9.78 0h19.55m9.8 0h19.54m9.78 0h19.56m9.78 0h19.55m9.8 0h19.54m9.78 0h9.78m-440 145.66h9.78m9.78 0h19.55m9.8 0h19.54m9.78 0h19.56m9.78 0h19.55m9.8 0h19.54m9.78 0h19.56m9.78 0h19.55m9.8 0h19.54m9.78 0h19.56m9.78 0h19.55m9.8 0h19.54m9.78 0h19.56m9.78 0h19.55m9.8 0h19.54m9.78 0h9.78" stroke="#3a414a" stroke-width="2" fill="none"/><g><use xlink:href="#ag" transform="matrix(1,0,0,1,1408,-746) translate(178.11111111111111 17.944444444444443)"/></g><defs><path d="M199 0l-22-63H83L61 0H9l90-248h61L250 0h-51zm-33-102l-36-108c-10 38-24 72-36 108h72" id="ah"/><path d="M135-194c87-1 58 113 63 194h-50c-7-57 23-157-34-157-59 0-34 97-39 157H25l-1-190h47c2 12-1 28 3 38 12-26 28-41 61-42" id="ai"/><path d="M25-224v-37h50v37H25zM25 0v-190h50V0H25" id="aj"/><path d="M220-157c-53 9-28 100-34 157h-49v-107c1-27-5-49-29-50C55-147 81-57 75 0H25l-1-190h47c2 12-1 28 3 38 10-53 101-56 108 0 13-22 24-43 59-42 82 1 51 116 57 194h-49v-107c-1-25-5-48-29-50" id="ak"/><path d="M133-34C117-15 103 5 69 4 32 3 11-16 11-54c-1-60 55-63 116-61 1-26-3-47-28-47-18 1-26 9-28 27l-52-2c7-38 36-58 82-57s74 22 75 68l1 82c-1 14 12 18 25 15v27c-30 8-71 5-69-32zm-48 3c29 0 43-24 42-57-32 0-66-3-65 30 0 17 8 27 23 27" id="al"/><path d="M25 0v-261h50V0H25" id="am"/><g id="a"><use transform="matrix(0.05,0,0,0.05,0,0)" xlink:href="#ah"/><use transform="matrix(0.05,0,0,0.05,12.950000000000001,0)" xlink:href="#ai"/><use transform="matrix(0.05,0,0,0.05,23.900000000000002,0)" xlink:href="#aj"/><use transform="matrix(0.05,0,0,0.05,28.900000000000002,0)" xlink:href="#ak"/><use transform="matrix(0.05,0,0,0.05,44.900000000000006,0)" xlink:href="#al"/><use transform="matrix(0.05,0,0,0.05,54.900000000000006,0)" xlink:href="#am"/></g><path d="M158-156l-14 65h45v19h-49L124 0h-19l15-72H56L41 0H22l15-72H2v-19h39l14-65H11v-19h48l15-71h20l-16 71h64l16-71h19l-16 71h37v19h-40zm-83 0L61-91h63l14-65H75" id="an"/><use transform="matrix(0.05,0,0,0.05,0,0)" xlink:href="#an" id="b"/><path d="M24-231v-30h32v30H24zM-9 49c24 4 33-6 33-30v-209h32V24c2 40-23 58-65 49V49" id="ao"/><path d="M141-36C126-15 110 5 73 4 37 3 15-17 15-53c-1-64 63-63 125-63 3-35-9-54-41-54-24 1-41 7-42 31l-33-3c5-37 33-52 76-52 45 0 72 20 72 64v82c-1 20 7 32 28 27v20c-31 9-61-2-59-35zM48-53c0 20 12 33 32 33 41-3 63-29 60-74-43 2-92-5-92 41" id="ap"/><path d="M210-169c-67 3-38 105-44 169h-31v-121c0-29-5-50-35-48C34-165 62-65 56 0H25l-1-190h30c1 10-1 24 2 32 10-44 99-50 107 0 11-21 27-35 58-36 85-2 47 119 55 194h-31v-121c0-29-5-49-35-48" id="aq"/><path d="M115-194c53 0 69 39 70 98 0 66-23 100-70 100C84 3 66-7 56-30L54 0H23l1-261h32v101c10-23 28-34 59-34zm-8 174c40 0 45-34 45-75 0-40-5-75-45-74-42 0-51 32-51 76 0 43 10 73 51 73" id="ar"/><path d="M100-194c63 0 86 42 84 106H49c0 40 14 67 53 68 26 1 43-12 49-29l28 8c-11 28-37 45-77 45C44 4 14-33 15-96c1-61 26-98 85-98zm52 81c6-60-76-77-97-28-3 7-6 17-6 28h103" id="as"/><path d="M135-143c-3-34-86-38-87 0 15 53 115 12 119 90S17 21 10-45l28-5c4 36 97 45 98 0-10-56-113-15-118-90-4-57 82-63 122-42 12 7 21 19 24 35" id="at"/><path d="M33-154v-36h34v36H33zM33 0v-36h34V0H33" id="au"/><path d="M24-231v-30h32v30H24zM24 0v-190h32V0H24" id="av"/><path d="M117-194c89-4 53 116 60 194h-32v-121c0-31-8-49-39-48C34-167 62-67 57 0H25l-1-190h30c1 10-1 24 2 32 11-22 29-35 61-36" id="aw"/><path d="M59-47c-2 24 18 29 38 22v24C64 9 27 4 27-40v-127H5v-23h24l9-43h21v43h35v23H59v120" id="ax"/><g id="c"><use transform="matrix(0.05,0,0,0.05,0,0)" xlink:href="#ao"/><use transform="matrix(0.05,0,0,0.05,3.95,0)" xlink:href="#ap"/><use transform="matrix(0.05,0,0,0.05,13.949999999999998,0)" xlink:href="#aq"/><use transform="matrix(0.05,0,0,0.05,28.899999999999995,0)" xlink:href="#ar"/><use transform="matrix(0.05,0,0,0.05,38.9,0)" xlink:href="#as"/><use transform="matrix(0.05,0,0,0.05,48.9,0)" xlink:href="#at"/><use transform="matrix(0.05,0,0,0.05,57.900000000000006,0)" xlink:href="#au"/><use transform="matrix(0.05,0,0,0.05,62.900000000000006,0)" xlink:href="#av"/><use transform="matrix(0.05,0,0,0.05,66.85,0)" xlink:href="#aw"/><use transform="matrix(0.05,0,0,0.05,76.85,0)" xlink:href="#ax"/></g><path d="M16-82v-28h88v28H16" id="ay"/><use transform="matrix(0.05,0,0,0.05,0,0)" xlink:href="#ay" id="d"/><path d="M96-169c-40 0-48 33-48 73s9 75 48 75c24 0 41-14 43-38l32 2c-6 37-31 61-74 61-59 0-76-41-82-99-10-93 101-131 147-64 4 7 5 14 7 22l-32 3c-4-21-16-35-41-35" id="az"/><path d="M100-194c62-1 85 37 85 99 1 63-27 99-86 99S16-35 15-95c0-66 28-99 85-99zM99-20c44 1 53-31 53-75 0-43-8-75-51-75s-53 32-53 75 10 74 51 75" id="aA"/><path d="M84 4C-5 8 30-112 23-190h32v120c0 31 7 50 39 49 72-2 45-101 50-169h31l1 190h-30c-1-10 1-25-2-33-11 22-28 36-60 37" id="aB"/><path d="M114-163C36-179 61-72 57 0H25l-1-190h30c1 12-1 29 2 39 6-27 23-49 58-41v29" id="aC"/><g id="e"><use transform="matrix(0.05,0,0,0.05,0,0)" xlink:href="#az"/><use transform="matrix(0.05,0,0,0.05,9,0)" xlink:href="#aA"/><use transform="matrix(0.05,0,0,0.05,19,0)" xlink:href="#as"/><use transform="matrix(0.05,0,0,0.05,29,0)" xlink:href="#aB"/><use transform="matrix(0.05,0,0,0.05,39,0)" xlink:href="#aC"/><use transform="matrix(0.05,0,0,0.05,44.95,0)" xlink:href="#au"/><use transform="matrix(0.05,0,0,0.05,49.95,0)" xlink:href="#av"/><use transform="matrix(0.05,0,0,0.05,53.900000000000006,0)" xlink:href="#aw"/><use transform="matrix(0.05,0,0,0.05,63.900000000000006,0)" xlink:href="#ax"/></g><path d="M18-150v-26h174v26H18zm0 90v-26h174v26H18" id="aD"/><use transform="matrix(0.05,0,0,0.05,0,0)" xlink:href="#aD" id="f"/><path d="M27 0v-27h64v-190l-56 39v-29l58-41h29v221h61V0H27" id="aE"/><use transform="matrix(0.05,0,0,0.05,0,0)" xlink:href="#aE" id="g"/><path d="M185-189c-5-48-123-54-124 2 14 75 158 14 163 119 3 78-121 87-175 55-17-10-28-26-33-46l33-7c5 56 141 63 141-1 0-78-155-14-162-118-5-82 145-84 179-34 5 7 8 16 11 25" id="aF"/><path d="M177-190C167-65 218 103 67 71c-23-6-38-20-44-43l32-5c15 47 100 32 89-28v-30C133-14 115 1 83 1 29 1 15-40 15-95c0-56 16-97 71-98 29-1 48 16 59 35 1-10 0-23 2-32h30zM94-22c36 0 50-32 50-73 0-42-14-75-50-75-39 0-46 34-46 75s6 73 46 73" id="aG"/><g id="h"><use transform="matrix(0.05,0,0,0.05,0,0)" xlink:href="#aw"/><use transform="matrix(0.05,0,0,0.05,10,0)" xlink:href="#aA"/><use transform="matrix(0.05,0,0,0.05,20,0)" xlink:href="#aq"/><use transform="matrix(0.05,0,0,0.05,34.95,0)" xlink:href="#au"/><use transform="matrix(0.05,0,0,0.05,39.95,0)" xlink:href="#aF"/><use transform="matrix(0.05,0,0,0.05,51.95,0)" xlink:href="#ax"/><use transform="matrix(0.05,0,0,0.05,56.95,0)" xlink:href="#aC"/><use transform="matrix(0.05,0,0,0.05,62.900000000000006,0)" xlink:href="#av"/><use transform="matrix(0.05,0,0,0.05,66.85000000000001,0)" xlink:href="#aw"/><use transform="matrix(0.05,0,0,0.05,76.85000000000001,0)" xlink:href="#aG"/></g><use transform="matrix(0.05,0,0,0.05,0,0)" xlink:href="#ay" id="i"/><path d="M118-107v75H92v-75H18v-26h74v-75h26v75h74v26h-74" id="aH"/><use transform="matrix(0.05,0,0,0.05,0,0)" xlink:href="#aH" id="j"/><path d="M143 0L79-87 56-68V0H24v-261h32v163l83-92h37l-77 82L181 0h-38" id="aI"/><path d="M190 0L58-211 59 0H30v-248h39L202-35l-2-213h31V0h-41" id="aJ"/><path d="M87 75C49 33 22-17 22-94c0-76 28-126 65-167h31c-38 41-64 92-64 168S80 34 118 75H87" id="aK"/><path d="M33-261c38 41 65 92 65 168S71 34 33 75H2C39 34 66-17 66-93S39-220 2-261h31" id="aL"/><g id="k"><use transform="matrix(0.05,0,0,0.05,0,0)" xlink:href="#aq"/><use transform="matrix(0.05,0,0,0.05,14.950000000000001,0)" xlink:href="#ap"/><use transform="matrix(0.05,0,0,0.05,24.950000000000003,0)" xlink:href="#aI"/><use transform="matrix(0.05,0,0,0.05,33.95,0)" xlink:href="#as"/><use transform="matrix(0.05,0,0,0.05,43.95,0)" xlink:href="#aJ"/><use transform="matrix(0.05,0,0,0.05,56.900000000000006,0)" xlink:href="#aA"/><use transform="matrix(0.05,0,0,0.05,66.9,0)" xlink:href="#av"/><use transform="matrix(0.05,0,0,0.05,70.85000000000001,0)" xlink:href="#at"/><use transform="matrix(0.05,0,0,0.05,79.85000000000001,0)" xlink:href="#as"/><use transform="matrix(0.05,0,0,0.05,89.85000000000001,0)" xlink:href="#aK"/><use transform="matrix(0.05,0,0,0.05,95.80000000000001,0)" xlink:href="#aL"/></g><g id="l"><use transform="matrix(0.05,0,0,0.05,0,0)" xlink:href="#as"/><use transform="matrix(0.05,0,0,0.05,10,0)" xlink:href="#ap"/><use transform="matrix(0.05,0,0,0.05,20,0)" xlink:href="#ax"/><use transform="matrix(0.05,0,0,0.05,25,0)" xlink:href="#aK"/><use transform="matrix(0.05,0,0,0.05,30.950000000000003,0)" xlink:href="#av"/><use transform="matrix(0.05,0,0,0.05,34.9,0)" xlink:href="#aw"/></g><path d="M101-234c-31-9-42 10-38 44h38v23H63V0H32v-167H5v-23h27c-7-52 17-82 69-68v24" id="aM"/><path d="M85-194c31 0 48 13 60 33l-1-100h32l1 261h-30c-2-10 0-23-3-31C134-8 116 4 85 4 32 4 16-35 15-94c0-66 23-100 70-100zm9 24c-40 0-46 34-46 75 0 40 6 74 45 74 42 0 51-32 51-76 0-42-9-74-50-73" id="aN"/><g id="m"><use transform="matrix(0.05,0,0,0.05,0,0)" xlink:href="#aM"/><use transform="matrix(0.05,0,0,0.05,5,0)" xlink:href="#aA"/><use transform="matrix(0.05,0,0,0.05,15,0)" xlink:href="#aA"/><use transform="matrix(0.05,0,0,0.05,25,0)" xlink:href="#aN"/><use transform="matrix(0.05,0,0,0.05,35,0)" xlink:href="#aL"/></g><use transform="matrix(0.05,0,0,0.05,0,0)" xlink:href="#au" id="n"/><path d="M24 0v-261h32V0H24" id="aO"/><g id="o"><use transform="matrix(0.05,0,0,0.05,0,0)" xlink:href="#ar"/><use transform="matrix(0.05,0,0,0.05,10,0)" xlink:href="#aA"/><use transform="matrix(0.05,0,0,0.05,20,0)" xlink:href="#aA"/><use transform="matrix(0.05,0,0,0.05,30,0)" xlink:href="#aO"/></g><g id="p"><use transform="matrix(0.05,0,0,0.05,0,0)" xlink:href="#at"/><use transform="matrix(0.05,0,0,0.05,9,0)" xlink:href="#as"/><use transform="matrix(0.05,0,0,0.05,19,0)" xlink:href="#ax"/><use transform="matrix(0.05,0,0,0.05,24,0)" xlink:href="#aJ"/><use transform="matrix(0.05,0,0,0.05,36.95,0)" xlink:href="#ap"/><use transform="matrix(0.05,0,0,0.05,46.95,0)" xlink:href="#aq"/><use transform="matrix(0.05,0,0,0.05,61.900000000000006,0)" xlink:href="#as"/><use transform="matrix(0.05,0,0,0.05,71.9,0)" xlink:href="#aK"/><use transform="matrix(0.05,0,0,0.05,77.85000000000001,0)" xlink:href="#av"/><use transform="matrix(0.05,0,0,0.05,81.80000000000001,0)" xlink:href="#aw"/></g><g id="q"><use transform="matrix(0.05,0,0,0.05,0,0)" xlink:href="#aw"/><use transform="matrix(0.05,0,0,0.05,10,0)" xlink:href="#ap"/><use transform="matrix(0.05,0,0,0.05,20,0)" xlink:href="#aq"/><use transform="matrix(0.05,0,0,0.05,34.95,0)" xlink:href="#as"/><use transform="matrix(0.05,0,0,0.05,44.95,0)" xlink:href="#aL"/></g><path d="M30 0v-248h33v221h125V0H30" id="aP"/><g id="r"><use transform="matrix(0.05,0,0,0.05,0,0)" xlink:href="#aG"/><use transform="matrix(0.05,0,0,0.05,10,0)" xlink:href="#as"/><use transform="matrix(0.05,0,0,0.05,20,0)" xlink:href="#ax"/><use transform="matrix(0.05,0,0,0.05,25,0)" xlink:href="#aP"/><use transform="matrix(0.05,0,0,0.05,35,0)" xlink:href="#as"/><use transform="matrix(0.05,0,0,0.05,45,0)" xlink:href="#aG"/><use transform="matrix(0.05,0,0,0.05,55,0)" xlink:href="#at"/><use transform="matrix(0.05,0,0,0.05,64,0)" xlink:href="#aK"/><use transform="matrix(0.05,0,0,0.05,69.95,0)" xlink:href="#aA"/><use transform="matrix(0.05,0,0,0.05,79.95,0)" xlink:href="#aB"/><use transform="matrix(0.05,0,0,0.05,89.95,0)" xlink:href="#ax"/></g><g id="s"><use transform="matrix(0.05,0,0,0.05,0,0)" xlink:href="#aO"/><use transform="matrix(0.05,0,0,0.05,3.95,0)" xlink:href="#as"/><use transform="matrix(0.05,0,0,0.05,13.949999999999998,0)" xlink:href="#aG"/><use transform="matrix(0.05,0,0,0.05,23.95,0)" xlink:href="#at"/><use transform="matrix(0.05,0,0,0.05,32.95,0)" xlink:href="#aL"/></g><path d="M67-125c0 53 21 87 73 88 37 1 54-22 65-47l45 17C233-25 199 4 140 4 58 4 20-42 15-125 8-235 124-281 211-232c18 10 29 29 36 50l-46 12c-8-25-30-41-62-41-52 0-71 34-72 86" id="aQ"/><path d="M137-138c1-29-70-34-71-4 15 46 118 7 119 86 1 83-164 76-172 9l43-7c4 19 20 25 44 25 33 8 57-30 24-41C81-84 22-81 20-136c-2-80 154-74 161-7" id="aR"/><path d="M185-48c-13 30-37 53-82 52C43 2 14-33 14-96s30-98 90-98c62 0 83 45 84 108H66c0 31 8 55 39 56 18 0 30-7 34-22zm-45-69c5-46-57-63-70-21-2 6-4 13-4 21h74" id="aS"/><g id="t"><use transform="matrix(0.05,0,0,0.05,0,0)" xlink:href="#aQ"/><use transform="matrix(0.05,0,0,0.05,12.950000000000001,0)" xlink:href="#am"/><use transform="matrix(0.05,0,0,0.05,17.950000000000003,0)" xlink:href="#al"/><use transform="matrix(0.05,0,0,0.05,27.950000000000003,0)" xlink:href="#aR"/><use transform="matrix(0.05,0,0,0.05,37.95,0)" xlink:href="#aR"/><use transform="matrix(0.05,0,0,0.05,47.95,0)" xlink:href="#aS"/></g><path d="M0 4l72-265h28L28 4H0" id="aT"/><path d="M100-194c63 0 86 42 84 106H49c0 40 14 67 53 68 26 1 43-12 49-29l28 8c-11 28-37 45-77 45C44 4 14-33 15-96c1-61 26-98 85-98zm52 81c6-60-76-77-97-28-3 7-6 17-6 28h103zm-74-98c8-23 27-35 38-54h36v5l-58 49H78" id="aU"/><path d="M106-169C34-169 62-67 57 0H25v-261h32l-1 103c12-21 28-36 61-36 89 0 53 116 60 194h-32v-121c2-32-8-49-39-48" id="aV"/><g id="u"><use transform="matrix(0.05,0,0,0.05,0,0)" xlink:href="#ap"/><use transform="matrix(0.05,0,0,0.05,10,0)" xlink:href="#ax"/><use transform="matrix(0.05,0,0,0.05,15,0)" xlink:href="#ax"/><use transform="matrix(0.05,0,0,0.05,20,0)" xlink:href="#aC"/><use transform="matrix(0.05,0,0,0.05,25.950000000000003,0)" xlink:href="#av"/><use transform="matrix(0.05,0,0,0.05,29.899999999999995,0)" xlink:href="#ar"/><use transform="matrix(0.05,0,0,0.05,39.9,0)" xlink:href="#aB"/><use transform="matrix(0.05,0,0,0.05,49.9,0)" xlink:href="#ax"/><use transform="matrix(0.05,0,0,0.05,54.900000000000006,0)" xlink:href="#aT"/><use transform="matrix(0.05,0,0,0.05,59.900000000000006,0)" xlink:href="#aq"/><use transform="matrix(0.05,0,0,0.05,74.85,0)" xlink:href="#aU"/><use transform="matrix(0.05,0,0,0.05,84.85,0)" xlink:href="#ax"/><use transform="matrix(0.05,0,0,0.05,89.85,0)" xlink:href="#aV"/><use transform="matrix(0.05,0,0,0.05,99.85,0)" xlink:href="#aA"/><use transform="matrix(0.05,0,0,0.05,109.84999999999998,0)" xlink:href="#aN"/><use transform="matrix(0.05,0,0,0.05,119.84999999999998,0)" xlink:href="#as"/></g><path d="M115-194c55 1 70 41 70 98S169 2 115 4C84 4 66-9 55-30l1 105H24l-1-265h31l2 30c10-21 28-34 59-34zm-8 174c40 0 45-34 45-75s-6-73-45-74c-42 0-51 32-51 76 0 43 10 73 51 73" id="aW"/><g id="v"><use transform="matrix(0.05,0,0,0.05,0,0)" xlink:href="#aW"/><use transform="matrix(0.05,0,0,0.05,10,0)" xlink:href="#aB"/><use transform="matrix(0.05,0,0,0.05,20,0)" xlink:href="#ar"/><use transform="matrix(0.05,0,0,0.05,30,0)" xlink:href="#aO"/><use transform="matrix(0.05,0,0,0.05,33.95,0)" xlink:href="#av"/><use transform="matrix(0.05,0,0,0.05,37.900000000000006,0)" xlink:href="#az"/></g><path d="M108 0H70L1-190h34L89-25l56-165h34" id="aX"/><g id="w"><use transform="matrix(0.05,0,0,0.05,0,0)" xlink:href="#aK"/><use transform="matrix(0.05,0,0,0.05,5.95,0)" xlink:href="#aX"/><use transform="matrix(0.05,0,0,0.05,14.949999999999998,0)" xlink:href="#av"/><use transform="matrix(0.05,0,0,0.05,18.9,0)" xlink:href="#at"/><use transform="matrix(0.05,0,0,0.05,27.899999999999995,0)" xlink:href="#av"/><use transform="matrix(0.05,0,0,0.05,31.849999999999994,0)" xlink:href="#ar"/><use transform="matrix(0.05,0,0,0.05,41.849999999999994,0)" xlink:href="#aO"/><use transform="matrix(0.05,0,0,0.05,45.8,0)" xlink:href="#as"/></g><g id="x"><use transform="matrix(0.05,0,0,0.05,0,0)" xlink:href="#aW"/><use transform="matrix(0.05,0,0,0.05,10,0)" xlink:href="#ap"/><use transform="matrix(0.05,0,0,0.05,20,0)" xlink:href="#aC"/></g><g id="y"><use transform="matrix(0.05,0,0,0.05,0,0)" xlink:href="#ax"/><use transform="matrix(0.05,0,0,0.05,5,0)" xlink:href="#aA"/><use transform="matrix(0.05,0,0,0.05,15,0)" xlink:href="#aB"/><use transform="matrix(0.05,0,0,0.05,25,0)" xlink:href="#ax"/></g><g id="z"><use transform="matrix(0.05,0,0,0.05,0,0)" xlink:href="#aO"/><use transform="matrix(0.05,0,0,0.05,3.95,0)" xlink:href="#as"/></g><g id="A"><use transform="matrix(0.05,0,0,0.05,0,0)" xlink:href="#aq"/><use transform="matrix(0.05,0,0,0.05,14.950000000000001,0)" xlink:href="#aA"/><use transform="matrix(0.05,0,0,0.05,24.950000000000003,0)" xlink:href="#aw"/><use transform="matrix(0.05,0,0,0.05,34.95,0)" xlink:href="#aN"/><use transform="matrix(0.05,0,0,0.05,44.95,0)" xlink:href="#as"/><use transform="matrix(0.05,0,0,0.05,54.95,0)" xlink:href="#aL"/></g><g id="B"><use transform="matrix(0.05,0,0,0.05,0,0)" xlink:href="#aW"/><use transform="matrix(0.05,0,0,0.05,10,0)" xlink:href="#aC"/><use transform="matrix(0.05,0,0,0.05,15.949999999999998,0)" xlink:href="#av"/><use transform="matrix(0.05,0,0,0.05,19.9,0)" xlink:href="#aX"/><use transform="matrix(0.05,0,0,0.05,28.899999999999995,0)" xlink:href="#aU"/><use transform="matrix(0.05,0,0,0.05,38.9,0)" xlink:href="#as"/></g><path d="M145-31C134-9 116 4 85 4 32 4 16-35 15-94c0-59 17-99 70-100 32-1 48 14 60 33 0-11-1-24 2-32h30l-1 268h-32zM93-21c41 0 51-33 51-76s-8-73-50-73c-40 0-46 35-46 75s5 74 45 74" id="aY"/><g id="C"><use transform="matrix(0.05,0,0,0.05,0,0)" xlink:href="#aB"/><use transform="matrix(0.05,0,0,0.05,10,0)" xlink:href="#aw"/><use transform="matrix(0.05,0,0,0.05,20,0)" xlink:href="#av"/><use transform="matrix(0.05,0,0,0.05,23.95,0)" xlink:href="#aY"/><use transform="matrix(0.05,0,0,0.05,33.95,0)" xlink:href="#aB"/><use transform="matrix(0.05,0,0,0.05,43.95,0)" xlink:href="#as"/><use transform="matrix(0.05,0,0,0.05,53.95,0)" xlink:href="#aq"/><use transform="matrix(0.05,0,0,0.05,68.9,0)" xlink:href="#as"/><use transform="matrix(0.05,0,0,0.05,78.9,0)" xlink:href="#aw"/><use transform="matrix(0.05,0,0,0.05,88.9,0)" xlink:href="#ax"/></g><g id="D"><use transform="matrix(0.05,0,0,0.05,0,0)" xlink:href="#aW"/><use transform="matrix(0.05,0,0,0.05,10,0)" xlink:href="#ap"/><use transform="matrix(0.05,0,0,0.05,20,0)" xlink:href="#aC"/></g><path d="M47-170H22l-4-78h33" id="aZ"/><g id="E"><use transform="matrix(0.05,0,0,0.05,0,0)" xlink:href="#aO"/><use transform="matrix(0.05,0,0,0.05,3.95,0)" xlink:href="#aZ"/><use transform="matrix(0.05,0,0,0.05,7.3500000000000005,0)" xlink:href="#av"/><use transform="matrix(0.05,0,0,0.05,11.3,0)" xlink:href="#aw"/><use transform="matrix(0.05,0,0,0.05,21.3,0)" xlink:href="#at"/><use transform="matrix(0.05,0,0,0.05,30.3,0)" xlink:href="#ax"/><use transform="matrix(0.05,0,0,0.05,35.3,0)" xlink:href="#ap"/><use transform="matrix(0.05,0,0,0.05,45.3,0)" xlink:href="#aw"/><use transform="matrix(0.05,0,0,0.05,55.29999999999999,0)" xlink:href="#az"/><use transform="matrix(0.05,0,0,0.05,64.3,0)" xlink:href="#as"/></g><g id="F"><use transform="matrix(0.05,0,0,0.05,0,0)" xlink:href="#aN"/><use transform="matrix(0.05,0,0,0.05,10,0)" xlink:href="#as"/></g><g id="G"><use transform="matrix(0.05,0,0,0.05,0,0)" xlink:href="#ar"/><use transform="matrix(0.05,0,0,0.05,10,0)" xlink:href="#ap"/><use transform="matrix(0.05,0,0,0.05,20,0)" xlink:href="#at"/><use transform="matrix(0.05,0,0,0.05,29,0)" xlink:href="#as"/><use transform="matrix(0.05,0,0,0.05,39,0)" xlink:href="#aL"/></g><g id="H"><use transform="matrix(0.05,0,0,0.05,0,0)" xlink:href="#aW"/><use transform="matrix(0.05,0,0,0.05,10,0)" xlink:href="#aC"/><use transform="matrix(0.05,0,0,0.05,15.949999999999998,0)" xlink:href="#aA"/><use transform="matrix(0.05,0,0,0.05,25.950000000000003,0)" xlink:href="#ax"/><use transform="matrix(0.05,0,0,0.05,30.950000000000003,0)" xlink:href="#aU"/><use transform="matrix(0.05,0,0,0.05,40.95,0)" xlink:href="#aG"/><use transform="matrix(0.05,0,0,0.05,50.95,0)" xlink:href="#aU"/></g><g id="I"><use transform="matrix(0.05,0,0,0.05,0,0)" xlink:href="#aO"/><use transform="matrix(0.05,0,0,0.05,3.95,0)" xlink:href="#as"/><use transform="matrix(0.05,0,0,0.05,13.949999999999998,0)" xlink:href="#at"/></g><g id="J"><use transform="matrix(0.05,0,0,0.05,0,0)" xlink:href="#av"/><use transform="matrix(0.05,0,0,0.05,3.95,0)" xlink:href="#aw"/><use transform="matrix(0.05,0,0,0.05,13.949999999999998,0)" xlink:href="#at"/><use transform="matrix(0.05,0,0,0.05,22.95,0)" xlink:href="#ax"/><use transform="matrix(0.05,0,0,0.05,27.950000000000003,0)" xlink:href="#ap"/><use transform="matrix(0.05,0,0,0.05,37.95,0)" xlink:href="#aw"/><use transform="matrix(0.05,0,0,0.05,47.95,0)" xlink:href="#az"/><use transform="matrix(0.05,0,0,0.05,56.95,0)" xlink:href="#as"/><use transform="matrix(0.05,0,0,0.05,66.95,0)" xlink:href="#at"/></g><g id="K"><use transform="matrix(0.05,0,0,0.05,0,0)" xlink:href="#aN"/><use transform="matrix(0.05,0,0,0.05,10,0)" xlink:href="#aU"/><use transform="matrix(0.05,0,0,0.05,20,0)" xlink:href="#aC"/><use transform="matrix(0.05,0,0,0.05,25.950000000000003,0)" xlink:href="#av"/><use transform="matrix(0.05,0,0,0.05,29.899999999999995,0)" xlink:href="#aX"/><use transform="matrix(0.05,0,0,0.05,38.9,0)" xlink:href="#aU"/><use transform="matrix(0.05,0,0,0.05,48.9,0)" xlink:href="#as"/><use transform="matrix(0.05,0,0,0.05,58.900000000000006,0)" xlink:href="#at"/></g><g id="L"><use transform="matrix(0.05,0,0,0.05,0,0)" xlink:href="#ar"/><use transform="matrix(0.05,0,0,0.05,10,0)" xlink:href="#ap"/><use transform="matrix(0.05,0,0,0.05,20,0)" xlink:href="#at"/><use transform="matrix(0.05,0,0,0.05,29,0)" xlink:href="#as"/><use transform="matrix(0.05,0,0,0.05,39,0)" xlink:href="#aL"/></g><g id="M"><use transform="matrix(0.05,0,0,0.05,0,0)" xlink:href="#av"/><use transform="matrix(0.05,0,0,0.05,3.95,0)" xlink:href="#aw"/></g><path d="M26 75v-336h71v23H56V52h41v23H26" id="ba"/><g id="N"><use transform="matrix(0.05,0,0,0.05,0,0)" xlink:href="#ba"/><use transform="matrix(0.05,0,0,0.05,5,0)" xlink:href="#aX"/><use transform="matrix(0.05,0,0,0.05,14,0)" xlink:href="#ap"/><use transform="matrix(0.05,0,0,0.05,24,0)" xlink:href="#aO"/><use transform="matrix(0.05,0,0,0.05,27.950000000000003,0)" xlink:href="#as"/><use transform="matrix(0.05,0,0,0.05,37.95,0)" xlink:href="#aB"/><use transform="matrix(0.05,0,0,0.05,47.95,0)" xlink:href="#aC"/></g><g id="O"><use transform="matrix(0.05,0,0,0.05,0,0)" xlink:href="#aB"/><use transform="matrix(0.05,0,0,0.05,10,0)" xlink:href="#ax"/><use transform="matrix(0.05,0,0,0.05,15,0)" xlink:href="#av"/><use transform="matrix(0.05,0,0,0.05,18.95,0)" xlink:href="#aO"/><use transform="matrix(0.05,0,0,0.05,22.9,0)" xlink:href="#av"/><use transform="matrix(0.05,0,0,0.05,26.849999999999994,0)" xlink:href="#at"/><use transform="matrix(0.05,0,0,0.05,35.849999999999994,0)" xlink:href="#aU"/><use transform="matrix(0.05,0,0,0.05,45.849999999999994,0)" xlink:href="#as"/></g><g id="P"><use transform="matrix(0.05,0,0,0.05,0,0)" xlink:href="#aq"/><use transform="matrix(0.05,0,0,0.05,14.950000000000001,0)" xlink:href="#ap"/><use transform="matrix(0.05,0,0,0.05,24.950000000000003,0)" xlink:href="#av"/><use transform="matrix(0.05,0,0,0.05,28.900000000000002,0)" xlink:href="#at"/></g><g id="Q"><use transform="matrix(0.05,0,0,0.05,0,0)" xlink:href="#aw"/><use transform="matrix(0.05,0,0,0.05,10,0)" xlink:href="#aA"/><use transform="matrix(0.05,0,0,0.05,20,0)" xlink:href="#aw"/></g><path d="M3 75V52h41v-290H3v-23h71V75H3" id="bb"/><g id="R"><use transform="matrix(0.05,0,0,0.05,0,0)" xlink:href="#aq"/><use transform="matrix(0.05,0,0,0.05,14.950000000000001,0)" xlink:href="#aA"/><use transform="matrix(0.05,0,0,0.05,24.950000000000003,0)" xlink:href="#aN"/><use transform="matrix(0.05,0,0,0.05,34.95,0)" xlink:href="#av"/><use transform="matrix(0.05,0,0,0.05,38.900000000000006,0)" xlink:href="#aM"/><use transform="matrix(0.05,0,0,0.05,43.900000000000006,0)" xlink:href="#av"/><use transform="matrix(0.05,0,0,0.05,47.85000000000001,0)" xlink:href="#aU"/><use transform="matrix(0.05,0,0,0.05,57.85,0)" xlink:href="#as"/><use transform="matrix(0.05,0,0,0.05,67.85000000000001,0)" xlink:href="#bb"/></g><g id="S"><use transform="matrix(0.05,0,0,0.05,0,0)" xlink:href="#aA"/><use transform="matrix(0.05,0,0,0.05,10,0)" xlink:href="#aB"/><use transform="matrix(0.05,0,0,0.05,20,0)" xlink:href="#ax"/></g><g id="T"><use transform="matrix(0.05,0,0,0.05,0,0)" xlink:href="#ba"/><use transform="matrix(0.05,0,0,0.05,5,0)" xlink:href="#at"/><use transform="matrix(0.05,0,0,0.05,14,0)" xlink:href="#ax"/><use transform="matrix(0.05,0,0,0.05,19,0)" xlink:href="#aA"/><use transform="matrix(0.05,0,0,0.05,29,0)" xlink:href="#az"/><use transform="matrix(0.05,0,0,0.05,38,0)" xlink:href="#aI"/><use transform="matrix(0.05,0,0,0.05,47,0)" xlink:href="#ap"/><use transform="matrix(0.05,0,0,0.05,57,0)" xlink:href="#aG"/><use transform="matrix(0.05,0,0,0.05,67,0)" xlink:href="#as"/></g><g id="U"><use transform="matrix(0.05,0,0,0.05,0,0)" xlink:href="#aW"/><use transform="matrix(0.05,0,0,0.05,10,0)" xlink:href="#aA"/><use transform="matrix(0.05,0,0,0.05,20,0)" xlink:href="#aB"/><use transform="matrix(0.05,0,0,0.05,30,0)" xlink:href="#aC"/></g><g id="V"><use transform="matrix(0.05,0,0,0.05,0,0)" xlink:href="#aO"/><use transform="matrix(0.05,0,0,0.05,3.95,0)" xlink:href="#ap"/></g><g id="W"><use transform="matrix(0.05,0,0,0.05,0,0)" xlink:href="#aX"/><use transform="matrix(0.05,0,0,0.05,9,0)" xlink:href="#ap"/><use transform="matrix(0.05,0,0,0.05,19,0)" xlink:href="#aO"/><use transform="matrix(0.05,0,0,0.05,22.95,0)" xlink:href="#as"/><use transform="matrix(0.05,0,0,0.05,32.95,0)" xlink:href="#aB"/><use transform="matrix(0.05,0,0,0.05,42.95,0)" xlink:href="#aC"/></g><g id="X"><use transform="matrix(0.05,0,0,0.05,0,0)" xlink:href="#aC"/><use transform="matrix(0.05,0,0,0.05,5.95,0)" xlink:href="#as"/><use transform="matrix(0.05,0,0,0.05,15.949999999999998,0)" xlink:href="#ax"/><use transform="matrix(0.05,0,0,0.05,20.95,0)" xlink:href="#aA"/><use transform="matrix(0.05,0,0,0.05,30.950000000000003,0)" xlink:href="#aB"/><use transform="matrix(0.05,0,0,0.05,40.95,0)" xlink:href="#aC"/><use transform="matrix(0.05,0,0,0.05,46.900000000000006,0)" xlink:href="#bb"/></g><g id="Y"><use transform="matrix(0.05,0,0,0.05,0,0)" xlink:href="#av"/><use transform="matrix(0.05,0,0,0.05,3.95,0)" xlink:href="#aw"/><use transform="matrix(0.05,0,0,0.05,13.949999999999998,0)" xlink:href="#aA"/><use transform="matrix(0.05,0,0,0.05,23.95,0)" xlink:href="#aB"/><use transform="matrix(0.05,0,0,0.05,33.95,0)" xlink:href="#ax"/></g><path d="M68-38c1 34 0 65-14 84H32c9-13 17-26 17-46H33v-38h35" id="bc"/><g id="Z"><use transform="matrix(0.05,0,0,0.05,0,0)" xlink:href="#aB"/><use transform="matrix(0.05,0,0,0.05,10,0)" xlink:href="#ax"/><use transform="matrix(0.05,0,0,0.05,15,0)" xlink:href="#av"/><use transform="matrix(0.05,0,0,0.05,18.95,0)" xlink:href="#aO"/><use transform="matrix(0.05,0,0,0.05,22.9,0)" xlink:href="#av"/><use transform="matrix(0.05,0,0,0.05,26.849999999999994,0)" xlink:href="#at"/><use transform="matrix(0.05,0,0,0.05,35.849999999999994,0)" xlink:href="#aU"/><use transform="matrix(0.05,0,0,0.05,45.849999999999994,0)" xlink:href="#as"/><use transform="matrix(0.05,0,0,0.05,55.849999999999994,0)" xlink:href="#bc"/></g><path d="M179-190L93 31C79 59 56 82 12 73V49c39 6 53-20 64-50L1-190h34L92-34l54-156h33" id="bd"/><g id="aa"><use transform="matrix(0.05,0,0,0.05,0,0)" xlink:href="#aC"/><use transform="matrix(0.05,0,0,0.05,5.95,0)" xlink:href="#as"/><use transform="matrix(0.05,0,0,0.05,15.949999999999998,0)" xlink:href="#aw"/><use transform="matrix(0.05,0,0,0.05,25.950000000000003,0)" xlink:href="#aX"/><use transform="matrix(0.05,0,0,0.05,34.95,0)" xlink:href="#aA"/><use transform="matrix(0.05,0,0,0.05,44.95,0)" xlink:href="#bd"/><use transform="matrix(0.05,0,0,0.05,53.95,0)" xlink:href="#aU"/><use transform="matrix(0.05,0,0,0.05,63.95,0)" xlink:href="#as"/></g><g id="ab"><use transform="matrix(0.05,0,0,0.05,0,0)" xlink:href="#as"/><use transform="matrix(0.05,0,0,0.05,10,0)" xlink:href="#ax"/></g><g id="ac"><use transform="matrix(0.05,0,0,0.05,0,0)" xlink:href="#aY"/><use transform="matrix(0.05,0,0,0.05,10,0)" xlink:href="#aB"/><use transform="matrix(0.05,0,0,0.05,20,0)" xlink:href="#av"/></g><g id="ad"><use transform="matrix(0.05,0,0,0.05,0,0)" xlink:href="#aW"/><use transform="matrix(0.05,0,0,0.05,10,0)" xlink:href="#as"/><use transform="matrix(0.05,0,0,0.05,20,0)" xlink:href="#aB"/><use transform="matrix(0.05,0,0,0.05,30,0)" xlink:href="#ax"/></g><path d="M100-194c63 0 86 42 84 106H49c0 40 14 67 53 68 26 1 43-12 49-29l28 8c-11 28-37 45-77 45C44 4 14-33 15-96c1-61 26-98 85-98zm52 81c6-60-76-77-97-28-3 7-6 17-6 28h103zm-32-149c12 18 30 30 39 51-31 2-38-20-57-30-20 10-27 32-59 30 9-22 29-33 41-51h36" id="be"/><g id="ae"><use transform="matrix(0.05,0,0,0.05,0,0)" xlink:href="#be"/><use transform="matrix(0.05,0,0,0.05,10,0)" xlink:href="#ax"/><use transform="matrix(0.05,0,0,0.05,15,0)" xlink:href="#aC"/><use transform="matrix(0.05,0,0,0.05,20.95,0)" xlink:href="#as"/></g><g id="af"><use transform="matrix(0.05,0,0,0.05,0,0)" xlink:href="#aq"/><use transform="matrix(0.05,0,0,0.05,14.950000000000001,0)" xlink:href="#aA"/><use transform="matrix(0.05,0,0,0.05,24.950000000000003,0)" xlink:href="#aN"/><use transform="matrix(0.05,0,0,0.05,34.95,0)" xlink:href="#av"/><use transform="matrix(0.05,0,0,0.05,38.900000000000006,0)" xlink:href="#aM"/><use transform="matrix(0.05,0,0,0.05,43.900000000000006,0)" xlink:href="#av"/><use transform="matrix(0.05,0,0,0.05,47.85000000000001,0)" xlink:href="#aU"/><use transform="matrix(0.05,0,0,0.05,57.85,0)" xlink:href="#as"/><use transform="matrix(0.05,0,0,0.05,67.85000000000001,0)" xlink:href="#bb"/></g><path d="M212-179c-10-28-35-45-73-45-59 0-87 40-87 99 0 60 29 101 89 101 43 0 62-24 78-52l27 14C228-24 195 4 139 4 59 4 22-46 18-125c-6-104 99-153 187-111 19 9 31 26 39 46" id="bf"/><g id="ag"><use transform="matrix(0.06172839506172839,0,0,0.06172839506172839,0,0)" xlink:href="#bf"/><use transform="matrix(0.06172839506172839,0,0,0.06172839506172839,15.987654320987653,0)" xlink:href="#aO"/><use transform="matrix(0.06172839506172839,0,0,0.06172839506172839,20.864197530864196,0)" xlink:href="#ap"/><use transform="matrix(0.06172839506172839,0,0,0.06172839506172839,33.20987654320987,0)" xlink:href="#at"/><use transform="matrix(0.06172839506172839,0,0,0.06172839506172839,44.32098765432099,0)" xlink:href="#at"/><use transform="matrix(0.06172839506172839,0,0,0.06172839506172839,55.4320987654321,0)" xlink:href="#as"/></g></defs></g></svg>