<svg xmlns="http://www.w3.org/2000/svg" xmlns:xlink="http://www.w3.org/1999/xlink" xmlns:lucid="lucid" width="3062" height="2301"><g transform="translate(41 801)" lucid:page-tab-id="0_0"><path d="M-500-1000h3500v2500H-500z" fill="#fff"/><path d="M120-654a6 6 0 0 1 6-6h328a6 6 0 0 1 6 6v208a6 6 0 0 1-6 6H126a6 6 0 0 1-6-6z" stroke="#3a414a" stroke-width="2" fill="#fff"/><use xlink:href="#a" transform="matrix(1,0,0,1,128,-652) translate(115.07499999999999 105.60000000000001)"/><path d="M800-654a6 6 0 0 1 6-6h328a6 6 0 0 1 6 6v208a6 6 0 0 1-6 6H806a6 6 0 0 1-6-6z" stroke="#3a414a" stroke-width="2" fill="#fff"/><use xlink:href="#b" transform="matrix(1,0,0,1,808,-652) translate(139 105.60000000000001)"/><path d="M596.96-605.7H462v-1.94h134.96zm201.04 0H663.04v-1.94H798z" stroke="#5e5e5e" stroke-width=".05" fill="#5e5e5e"/><path d="M462.03-605.7H461v-1.94h1.03z" fill="#5e5e5e"/><path stroke="#5e5e5e" stroke-width=".05" fill="#5e5e5e"/><path d="M799-605.7h-1.03v-1.94H799z" fill="#5e5e5e"/><path stroke="#5e5e5e" stroke-width=".05" fill="#5e5e5e"/><use xlink:href="#c" transform="matrix(1,0,0,1,460.99992275641034,-602.666666826934) translate(0 14.4)"/><use xlink:href="#d" transform="matrix(1,0,0,1,772.5000227564101,-632.266666826934) translate(0 14.4)"/><use xlink:href="#e" transform="matrix(1,0,0,1,596.9629357193731,-617.3333334936008) translate(0.005000000000002558 14.222222222222223)"/><path d="M578.74-484.36H462v-1.95h116.74zm219.26 0H681.26v-1.95H798z" stroke="#5e5e5e" stroke-width=".05" fill="#5e5e5e"/><path d="M462.03-484.36H461v-1.95h1.03z" fill="#5e5e5e"/><path stroke="#5e5e5e" stroke-width=".05" fill="#5e5e5e"/><path d="M799-484.36h-1.03v-1.95H799z" fill="#5e5e5e"/><path stroke="#5e5e5e" stroke-width=".05" fill="#5e5e5e"/><use xlink:href="#d" transform="matrix(1,0,0,1,460.499981089745,-481.33333060896524) translate(0 14.4)"/><use xlink:href="#c" transform="matrix(1,0,0,1,789.0000810897448,-510.93333060896526) translate(0 14.4)"/><use xlink:href="#f" transform="matrix(1,0,0,1,578.7407718304856,-495.999997275632) translate(0.005000000000002558 14.222222222222223)"/><use xlink:href="#g" transform="matrix(1,0,0,1,578.7407718304856,-495.999997275632) translate(63.116111111111124 14.222222222222223)"/><path d="M500-774a6 6 0 0 1 6-6h268a6 6 0 0 1 6 6v68a6 6 0 0 1-6 6H506a6 6 0 0 1-6-6z" fill="#fff"/><use xlink:href="#h" transform="matrix(1,0,0,1,500,-780) translate(94.05499999999999 44.4)"/><path d="M1860-614a6 6 0 0 1 6-6h385.33a6 6 0 0 1 6 6v184a6 6 0 0 1-6 6H1866a6 6 0 0 1-6-6z" stroke="#3a414a" stroke-width="2" fill="#fff"/><use xlink:href="#i" transform="matrix(1,0,0,1,1868,-612) translate(163.55 93.60000000000001)"/><path d="M1340-134a6 6 0 0 1 6-6h385.33a6 6 0 0 1 6 6V50a6 6 0 0 1-6 6H1346a6 6 0 0 1-6-6z" stroke="#3a414a" stroke-width="2" fill="#fff"/><use xlink:href="#j" transform="matrix(1,0,0,1,1348,-132) translate(168.1 93.60000000000001)"/><path d="M1860-134a6 6 0 0 1 6-6h385.33a6 6 0 0 1 6 6V50a6 6 0 0 1-6 6H1866a6 6 0 0 1-6-6z" stroke="#3a414a" stroke-width="2" fill="#fff"/><use xlink:href="#k" transform="matrix(1,0,0,1,1868,-132) translate(156.575 93.60000000000001)"/><path d="M2380-134a6 6 0 0 1 6-6h385.33a6 6 0 0 1 6 6V50a6 6 0 0 1-6 6H2386a6 6 0 0 1-6-6z" stroke="#3a414a" stroke-width="2" fill="#fff"/><use xlink:href="#l" transform="matrix(1,0,0,1,2388,-132) translate(167.525 93.60000000000001)"/><path d="M1538.67-142v-134a6 6 0 0 1 6-6h364a6 6 0 0 0 6-6v-119" stroke="#5e5e5e" stroke-width="2" fill="none"/><path d="M1539.64-141h-1.95v-1.03h1.94z" stroke="#5e5e5e" stroke-width=".05" fill="#5e5e5e"/><path d="M1914.67-421l7.5 13h-15z" stroke="#5e5e5e" stroke-width="2" fill="#fff"/><path d="M2058.67-142v-265" stroke="#5e5e5e" stroke-width="2" fill="none"/><path d="M2059.64-141h-1.95v-1.03h1.94z" stroke="#5e5e5e" stroke-width=".05" fill="#5e5e5e"/><path d="M2058.67-421l7.5 13h-15z" stroke="#5e5e5e" stroke-width="2" fill="#fff"/><path d="M2578.67-142v-134a6 6 0 0 0-6-6H2182a6 6 0 0 1-6-6v-119" stroke="#5e5e5e" stroke-width="2" fill="none"/><path d="M2579.64-141h-1.95v-1.03h1.94z" stroke="#5e5e5e" stroke-width=".05" fill="#5e5e5e"/><path d="M2176-421l7.5 13h-15z" stroke="#5e5e5e" stroke-width="2" fill="#fff"/><path d="M2500-640h295.6l44.4 44.4V-418h-340z" stroke="#3a414a" stroke-width="2" fill="#fff"/><path d="M2795.6-639.05v43.45h43.45" stroke="#3a414a" stroke-width="2" fill="#fff"/><use xlink:href="#m" transform="matrix(1,0,0,1,2505,-635) translate(0 100.525)"/><use xlink:href="#n" transform="matrix(1,0,0,1,2505,-635) translate(20.95 100.525)"/><use xlink:href="#o" transform="matrix(1,0,0,1,2505,-635) translate(39.9 100.525)"/><use xlink:href="#p" transform="matrix(1,0,0,1,2505,-635) translate(95.85 100.525)"/><use xlink:href="#q" transform="matrix(1,0,0,1,2505,-635) translate(135.85 100.525)"/><use xlink:href="#r" transform="matrix(1,0,0,1,2505,-635) translate(160.85 100.525)"/><use xlink:href="#s" transform="matrix(1,0,0,1,2505,-635) translate(210.75 100.525)"/><use xlink:href="#t" transform="matrix(1,0,0,1,2505,-635) translate(239.75 100.525)"/><use xlink:href="#u" transform="matrix(1,0,0,1,2505,-635) translate(274.75 100.525)"/><use xlink:href="#v" transform="matrix(1,0,0,1,2505,-635) translate(0 122.125)"/><use xlink:href="#q" transform="matrix(1,0,0,1,2505,-635) translate(78.9 122.125)"/><use xlink:href="#w" transform="matrix(1,0,0,1,2505,-635) translate(103.9 122.125)"/><use xlink:href="#x" transform="matrix(1,0,0,1,2505,-635) translate(142.8 122.125)"/><use xlink:href="#y" transform="matrix(1,0,0,1,2505,-635) translate(176.8 122.125)"/><use xlink:href="#z" transform="matrix(1,0,0,1,2505,-635) translate(216.75 122.125)"/><use xlink:href="#A" transform="matrix(1,0,0,1,2505,-635) translate(241.75 122.125)"/><path d="M2498-529h-9.94m-9.95 0h-19.88m-9.94 0h-19.9m-9.94 0h-19.88m-9.95 0h-19.88m-9.94 0h-19.9m-9.94 0h-19.88m-9.95 0h-19.88m-9.94 0h-9.95" stroke="#5e5e5e" stroke-width="2" fill="none"/><path d="M2499-528.02h-1.03V-530h1.03zM2259.36-528.02h-1.03V-530h1.03z" stroke="#5e5e5e" stroke-width=".05" fill="#5e5e5e"/><path d="M1980-714a6 6 0 0 1 6-6h148a6 6 0 0 1 6 6v28a6 6 0 0 1-6 6h-148a6 6 0 0 1-6-6z" fill="#fff"/><use xlink:href="#B" transform="matrix(1,0,0,1,1980,-720) translate(46.08 24.4)"/><path d="M460-15a6 6 0 0 1 6-6h348a6 6 0 0 1 6 6v165a6 6 0 0 1-6 6H466a6 6 0 0 1-6-6z" stroke="#3a414a" stroke-width="2" fill="#fff"/><path d="M460 16.6h360M460 75.7h360" stroke="#3a414a" stroke-width="2" fill="none"/><use xlink:href="#C" transform="matrix(1,0,0,1,468,-13) translate(121.57499999999999 14.6)"/><use xlink:href="#D" transform="matrix(1,0,0,1,472,24.6) translate(0 25.6)"/><use xlink:href="#E" transform="matrix(1,0,0,1,472,24.6) translate(10.95 25.6)"/><use xlink:href="#F" transform="matrix(1,0,0,1,472,83.7) translate(0 25.299999999999997)"/><use xlink:href="#G" transform="matrix(1,0,0,1,472,83.7) translate(15.5 25.299999999999997)"/><use xlink:href="#F" transform="matrix(1,0,0,1,472,83.7) translate(0 46.9)"/><use xlink:href="#H" transform="matrix(1,0,0,1,472,83.7) translate(15.5 46.9)"/><path d="M60 366a6 6 0 0 1 6-6h348a6 6 0 0 1 6 6v187a6 6 0 0 1-6 6H66a6 6 0 0 1-6-6z" stroke="#3a414a" stroke-width="2" fill="#fff"/><path d="M60 397.6h360M60 499.9h360" stroke="#3a414a" stroke-width="2" fill="none"/><use xlink:href="#I" transform="matrix(1,0,0,1,68,368) translate(131.075 14.6)"/><use xlink:href="#F" transform="matrix(1,0,0,1,72,405.6) translate(0 25.5)"/><use xlink:href="#J" transform="matrix(1,0,0,1,72,405.6) translate(15.5 25.5)"/><use xlink:href="#K" transform="matrix(1,0,0,1,72,405.6) translate(69.35 25.5)"/><use xlink:href="#F" transform="matrix(1,0,0,1,72,405.6) translate(0 47.1)"/><use xlink:href="#L" transform="matrix(1,0,0,1,72,405.6) translate(15.5 47.1)"/><use xlink:href="#F" transform="matrix(1,0,0,1,72,405.6) translate(0 68.7)"/><use xlink:href="#M" transform="matrix(1,0,0,1,72,405.6) translate(15.5 68.7)"/><path d="M820 386a6 6 0 0 1 6-6h348a6 6 0 0 1 6 6v187a6 6 0 0 1-6 6H826a6 6 0 0 1-6-6z" stroke="#3a414a" stroke-width="2" fill="#fff"/><path d="M820 417.6h360M820 519.9h360" stroke="#3a414a" stroke-width="2" fill="none"/><use xlink:href="#N" transform="matrix(1,0,0,1,828,388) translate(127.57499999999999 14.6)"/><use xlink:href="#F" transform="matrix(1,0,0,1,832,425.6) translate(0 25.5)"/><use xlink:href="#O" transform="matrix(1,0,0,1,832,425.6) translate(15.5 25.5)"/><use xlink:href="#K" transform="matrix(1,0,0,1,832,425.6) translate(72.45 25.5)"/><use xlink:href="#F" transform="matrix(1,0,0,1,832,425.6) translate(0 47.1)"/><use xlink:href="#P" transform="matrix(1,0,0,1,832,425.6) translate(15.5 47.1)"/><use xlink:href="#K" transform="matrix(1,0,0,1,832,425.6) translate(60.45 47.1)"/><use xlink:href="#F" transform="matrix(1,0,0,1,832,425.6) translate(0 68.7)"/><use xlink:href="#M" transform="matrix(1,0,0,1,832,425.6) translate(15.5 68.7)"/><path d="M240 358v-10.44m0-10.45v-20.88m0-10.44v-20.9m0-10.44V264l.07-.94.22-.9.35-.88.5-.8.6-.72.72-.6.8-.5.88-.37.9-.23.95-.07h10.37m10.37 0h20.74m10.37 0h20.74m10.36 0h20.74m10.37 0h20.75m10.37 0h20.73m10.37 0h20.74m10.37 0h20.75m10.37 0h20.74m10.37 0H526l.94-.07.9-.22.88-.35.8-.5.72-.6.6-.72.5-.8.37-.88.23-.9.07-.95v-8.78m0-8.78v-17.56m0-8.77v-17.55m0-8.78V173" stroke="#5e5e5e" stroke-width="2" fill="none"/><path d="M240.97 359h-1.94v-1.03h1.94z" stroke="#5e5e5e" stroke-width=".05" fill="#5e5e5e"/><path d="M532 159l7.5 13h-15z" stroke="#5e5e5e" stroke-width="2" fill="#5e5e5e"/><path d="M1000 378v-11.56m0-11.55v-23.12m0-11.56v-23.1m0-11.56V274l-.07-.94-.22-.9-.35-.88-.5-.8-.6-.72-.72-.6-.8-.5-.88-.37-.9-.23-.95-.07h-9.53m-9.53 0h-19.06m-9.53 0h-19.07m-9.53 0H898.7m-9.54 0H870.1m-9.53 0H841.5m-9.52 0H812.9m-9.52 0h-19.06m-9.53 0h-19.07m-9.53 0h-9.53l-.94-.07-.92-.22-.86-.35-.8-.5-.72-.6-.6-.72-.5-.8-.36-.88-.22-.9-.07-.95v-9.9m0-9.88v-19.78m0-9.9v-19.77m0-9.9V173" stroke="#5e5e5e" stroke-width="2" fill="none"/><path d="M1000.98 379H999v-1.03h1.96z" stroke="#5e5e5e" stroke-width=".05" fill="#5e5e5e"/><path d="M730.67 159l7.5 13h-15z" stroke="#5e5e5e" stroke-width="2" fill="#5e5e5e"/><path d="M540-114a6 6 0 0 1 6-6h148a6 6 0 0 1 6 6v28a6 6 0 0 1-6 6H546a6 6 0 0 1-6-6z" fill="#fff"/><use xlink:href="#Q" transform="matrix(1,0,0,1,540,-120) translate(35.60499999999999 24.4)"/><path d="M1580 341.48a6 6 0 0 1 6-6h348a6 6 0 0 1 6 6v188a6 6 0 0 1-6 6h-348a6 6 0 0 1-6-6z" stroke="#3a414a" stroke-width="2" fill="#fff"/><path d="M1580 373.08h360m-360 81.1h360" stroke="#3a414a" stroke-width="2" fill="none"/><use xlink:href="#R" transform="matrix(1,0,0,1,1588,343.4767441860465) translate(141.55 14.6)"/><use xlink:href="#F" transform="matrix(1,0,0,1,1592,462.17674418604656) translate(0 36.6)"/><use xlink:href="#S" transform="matrix(1,0,0,1,1592,462.17674418604656) translate(15.5 36.6)"/><use xlink:href="#T" transform="matrix(1,0,0,1,1592,462.17674418604656) translate(151.35000000000002 36.6)"/><path d="M2300 341.48a6 6 0 0 1 6-6h348a6 6 0 0 1 6 6v188a6 6 0 0 1-6 6h-348a6 6 0 0 1-6-6z" stroke="#3a414a" stroke-width="2" fill="#fff"/><path d="M2300 373.08h360m-360 81.1h360" stroke="#3a414a" stroke-width="2" fill="none"/><use xlink:href="#U" transform="matrix(1,0,0,1,2308,343.4767441860465) translate(149.575 14.6)"/><use xlink:href="#F" transform="matrix(1,0,0,1,2312,462.17674418604656) translate(0 36.6)"/><use xlink:href="#V" transform="matrix(1,0,0,1,2312,462.17674418604656) translate(15.5 36.6)"/><use xlink:href="#T" transform="matrix(1,0,0,1,2312,462.17674418604656) translate(104.20000000000002 36.6)"/><path d="M1942 435.48h9.87m9.86 0h19.73m9.87 0h19.73m9.87 0h19.73m9.87 0h19.73m9.87 0h19.73m9.86 0h19.74m9.86 0h19.74m9.86 0h19.73m9.87 0h19.73m9.87 0h19.73m9.87 0h19.73m9.87 0h9.86" stroke="#5e5e5e" stroke-width="2" fill="none"/><path d="M1942.03 436.45H1941v-1.95h1.03z" stroke="#5e5e5e" stroke-width=".05" fill="#5e5e5e"/><path d="M2279.68 425.48l17.32 10-17.32 10" stroke="#5e5e5e" stroke-width="2" fill="none"/><path d="M2020 246a6 6 0 0 1 6-6h148a6 6 0 0 1 6 6v35.44a6 6 0 0 1-6 6h-148a6 6 0 0 1-6-6z" fill="#fff"/><use xlink:href="#W" transform="matrix(1,0,0,1,2020,240) translate(29.029999999999994 26.4)"/><path d="M500 949a6 6 0 0 1 6-6h348a6 6 0 0 1 6 6v144a6 6 0 0 1-6 6H506a6 6 0 0 1-6-6z" stroke="#3a414a" stroke-width="2" fill="#fff"/><path d="M500 980.6h360m-360 59.1h360" stroke="#3a414a" stroke-width="2" fill="none"/><use xlink:href="#X" transform="matrix(1,0,0,1,507.9999999999999,951) translate(74.39999999999999 14.6)"/><use xlink:href="#Y" transform="matrix(1,0,0,1,507.9999999999999,951) translate(166.25 14.6)"/><path d="M-20 1329a6 6 0 0 1 6-6h348a6 6 0 0 1 6 6v144a6 6 0 0 1-6 6H-14a6 6 0 0 1-6-6z" stroke="#3a414a" stroke-width="2" fill="#fff"/><path d="M-20 1360.6h360m-360 59.1h360" stroke="#3a414a" stroke-width="2" fill="none"/><use xlink:href="#Z" transform="matrix(1,0,0,1,-12,1331) translate(148.05 14.6)"/><path d="M500 1329a6 6 0 0 1 6-6h348a6 6 0 0 1 6 6v144a6 6 0 0 1-6 6H506a6 6 0 0 1-6-6z" stroke="#3a414a" stroke-width="2" fill="#fff"/><path d="M500 1360.6h360m-360 59.1h360" stroke="#3a414a" stroke-width="2" fill="none"/><use xlink:href="#aa" transform="matrix(1,0,0,1,507.9999999999999,1331) translate(132.55 14.6)"/><path d="M960 1329a6 6 0 0 1 6-6h348a6 6 0 0 1 6 6v144a6 6 0 0 1-6 6H966a6 6 0 0 1-6-6z" stroke="#3a414a" stroke-width="2" fill="#fff"/><path d="M960 1360.6h360m-360 59.1h360" stroke="#3a414a" stroke-width="2" fill="none"/><g><use xlink:href="#ab" transform="matrix(1,0,0,1,968,1331) translate(129.625 14.6)"/></g><path d="M160 1321v-104a6 6 0 0 1 6-6h401.33a6 6 0 0 0 6-6v-74.25" stroke="#5e5e5e" stroke-width="2" fill="none"/><path d="M160.97 1322h-1.94v-1.03h1.94z" stroke="#5e5e5e" stroke-width=".05" fill="#5e5e5e"/><path d="M573.33 1101.4l-14.85 14.86 14.85 14.85 14.85-14.84z" stroke="#5e5e5e" stroke-width="2" fill="#fff"/><path d="M680 1321v-190.25" stroke="#5e5e5e" stroke-width="2" fill="none"/><path d="M680.98 1322H679v-1.03H681z" stroke="#5e5e5e" stroke-width=".05" fill="#5e5e5e"/><path d="M680 1101.4l-14.85 14.86L680 1131.1l14.85-14.84z" stroke="#5e5e5e" stroke-width="2" fill="#fff"/><path d="M1140 1321v-104a6 6 0 0 0-6-6H794a6 6 0 0 1-6-6v-74.25" stroke="#5e5e5e" stroke-width="2" fill="none"/><path d="M1140.97 1322h-1.94v-1.03h1.94z" stroke="#5e5e5e" stroke-width=".05" fill="#5e5e5e"/><path d="M788 1101.4l-14.85 14.86L788 1131.1l14.85-14.84z" stroke="#5e5e5e" stroke-width="2" fill="#fff"/><path d="M600 866a6 6 0 0 1 6-6h148a6 6 0 0 1 6 6v28a6 6 0 0 1-6 6H606a6 6 0 0 1-6-6z" fill="#fff"/><g><use xlink:href="#ac" transform="matrix(1,0,0,1,599.9999999999999,860) translate(31.554999999999993 24.4)"/></g><path d="M2180 949a6 6 0 0 1 6-6h348a6 6 0 0 1 6 6v144a6 6 0 0 1-6 6h-348a6 6 0 0 1-6-6z" stroke="#3a414a" stroke-width="2" fill="#fff"/><path d="M2180 980.6h360m-360 59.1h360" stroke="#3a414a" stroke-width="2" fill="none"/><g><use xlink:href="#ad" transform="matrix(1,0,0,1,2188,951) translate(116.64999999999999 14.6)"/><use xlink:href="#ae" transform="matrix(1,0,0,1,2188,951) translate(182.5 14.6)"/></g><path d="M1660 1329a6 6 0 0 1 6-6h348a6 6 0 0 1 6 6v144a6 6 0 0 1-6 6h-348a6 6 0 0 1-6-6z" stroke="#3a414a" stroke-width="2" fill="#fff"/><path d="M1660 1360.6h360m-360 59.1h360" stroke="#3a414a" stroke-width="2" fill="none"/><g><use xlink:href="#af" transform="matrix(1,0,0,1,1668,1331) translate(150.525 14.6)"/></g><path d="M2180 1329a6 6 0 0 1 6-6h348a6 6 0 0 1 6 6v144a6 6 0 0 1-6 6h-348a6 6 0 0 1-6-6z" stroke="#3a414a" stroke-width="2" fill="#fff"/><path d="M2180 1360.6h360m-360 59.1h360" stroke="#3a414a" stroke-width="2" fill="none"/><g><use xlink:href="#ag" transform="matrix(1,0,0,1,2188,1331) translate(156 14.6)"/></g><path d="M2640 1329a6 6 0 0 1 6-6h348a6 6 0 0 1 6 6v144a6 6 0 0 1-6 6h-348a6 6 0 0 1-6-6z" stroke="#3a414a" stroke-width="2" fill="#fff"/><path d="M2640 1360.6h360m-360 59.1h360" stroke="#3a414a" stroke-width="2" fill="none"/><g><use xlink:href="#ah" transform="matrix(1,0,0,1,2648,1331) translate(154.025 14.6)"/></g><path d="M1840 1321v-104a6 6 0 0 1 6-6h401.33a6 6 0 0 0 6-6v-74.25" stroke="#5e5e5e" stroke-width="2" fill="none"/><path d="M1840.97 1322h-1.94v-1.03h1.94z" stroke="#5e5e5e" stroke-width=".05" fill="#5e5e5e"/><path d="M2253.33 1101.4l-14.85 14.86 14.85 14.85 14.85-14.84z" stroke="#5e5e5e" stroke-width="2" fill="#5e5e5e"/><path d="M2360 1321v-190.25" stroke="#5e5e5e" stroke-width="2" fill="none"/><path d="M2360.97 1322h-1.94v-1.03h1.94z" stroke="#5e5e5e" stroke-width=".05" fill="#5e5e5e"/><path d="M2360 1101.4l-14.85 14.86 14.85 14.85 14.85-14.84z" stroke="#5e5e5e" stroke-width="2" fill="#5e5e5e"/><path d="M2820 1321v-104a6 6 0 0 0-6-6h-340a6 6 0 0 1-6-6v-74.25" stroke="#5e5e5e" stroke-width="2" fill="none"/><path d="M2820.97 1322h-1.94v-1.03h1.94z" stroke="#5e5e5e" stroke-width=".05" fill="#5e5e5e"/><path d="M2468 1101.4l-14.85 14.86 14.85 14.85 14.85-14.84z" stroke="#5e5e5e" stroke-width="2" fill="#5e5e5e"/><path d="M2280 866a6 6 0 0 1 6-6h148a6 6 0 0 1 6 6v28a6 6 0 0 1-6 6h-148a6 6 0 0 1-6-6z" fill="#fff"/><g><use xlink:href="#ai" transform="matrix(1,0,0,1,2280,860) translate(30.10499999999999 24.4)"/></g><defs><path d="M24-248c93 1 206-16 204 79-1 75-69 88-152 82V0H24v-248zm52 121c47 0 100 7 100-41 0-47-54-39-100-39v80" id="aj"/><path d="M135-150c-39-12-60 13-60 57V0H25l-1-190h47c2 13-1 29 3 40 6-28 27-53 61-41v41" id="ak"/><path d="M110-194c64 0 96 36 96 99 0 64-35 99-97 99-61 0-95-36-95-99 0-62 34-99 96-99zm-1 164c35 0 45-28 45-65 0-40-10-65-43-65-34 0-45 26-45 65 0 36 10 65 43 65" id="al"/><path d="M121-226c-27-7-43 5-38 36h38v33H83V0H34v-157H6v-33h28c-9-59 32-81 87-68v32" id="am"/><path d="M185-48c-13 30-37 53-82 52C43 2 14-33 14-96s30-98 90-98c62 0 83 45 84 108H66c0 31 8 55 39 56 18 0 30-7 34-22zm-45-69c5-46-57-63-70-21-2 6-4 13-4 21h74" id="an"/><path d="M137-138c1-29-70-34-71-4 15 46 118 7 119 86 1 83-164 76-172 9l43-7c4 19 20 25 44 25 33 8 57-30 24-41C81-84 22-81 20-136c-2-80 154-74 161-7" id="ao"/><path d="M85 4C-2 5 27-109 22-190h50c7 57-23 150 33 157 60-5 35-97 40-157h50l1 190h-47c-2-12 1-28-3-38-12 25-28 42-61 42" id="ap"/><g id="a"><use transform="matrix(0.05,0,0,0.05,0,0)" xlink:href="#aj"/><use transform="matrix(0.05,0,0,0.05,12,0)" xlink:href="#ak"/><use transform="matrix(0.05,0,0,0.05,19,0)" xlink:href="#al"/><use transform="matrix(0.05,0,0,0.05,29.950000000000003,0)" xlink:href="#am"/><use transform="matrix(0.05,0,0,0.05,35.900000000000006,0)" xlink:href="#an"/><use transform="matrix(0.05,0,0,0.05,45.900000000000006,0)" xlink:href="#ao"/><use transform="matrix(0.05,0,0,0.05,55.900000000000006,0)" xlink:href="#ao"/><use transform="matrix(0.05,0,0,0.05,65.9,0)" xlink:href="#an"/><use transform="matrix(0.05,0,0,0.05,75.9,0)" xlink:href="#ap"/><use transform="matrix(0.05,0,0,0.05,86.85000000000001,0)" xlink:href="#ak"/></g><path d="M91-269v-5l44-45h46v8l-60 42H91zM24 0v-248h195v40H76v63h132v40H76v65h150V0H24" id="aq"/><path d="M25 0v-261h50V0H25" id="ar"/><path d="M185-48c-13 30-37 53-82 52C43 2 14-33 14-96s30-98 90-98c62 0 83 45 84 108H66c0 31 8 55 39 56 18 0 30-7 34-22zm-45-69c5-46-57-63-70-21-2 6-4 13-4 21h74zm-30-91l-59-48v-8h45l44 51v5h-30" id="as"/><path d="M128 0H69L1-190h53L99-40l48-150h52" id="at"/><g id="b"><use transform="matrix(0.05,0,0,0.05,0,0)" xlink:href="#aq"/><use transform="matrix(0.05,0,0,0.05,12,0)" xlink:href="#ar"/><use transform="matrix(0.05,0,0,0.05,17,0)" xlink:href="#as"/><use transform="matrix(0.05,0,0,0.05,27,0)" xlink:href="#at"/><use transform="matrix(0.05,0,0,0.05,37,0)" xlink:href="#an"/></g><path d="M27 0v-27h64v-190l-56 39v-29l58-41h29v221h61V0H27" id="au"/><use transform="matrix(0.05,0,0,0.05,0,0)" xlink:href="#au" id="c"/><path d="M33 0v-38h34V0H33" id="av"/><path d="M80-196l47-18 7 23-49 13 32 44-20 13-27-46-27 45-21-12 33-44-49-13 8-23 47 19-2-53h23" id="aw"/><g id="d"><use transform="matrix(0.05,0,0,0.05,0,0)" xlink:href="#au"/><use transform="matrix(0.05,0,0,0.05,10,0)" xlink:href="#av"/><use transform="matrix(0.05,0,0,0.05,15,0)" xlink:href="#av"/><use transform="matrix(0.05,0,0,0.05,20,0)" xlink:href="#aw"/></g><path fill="#333" d="M115-3C79 11 28 4 28-45v-112H4v-33h27l15-45h31v45h36v33H77v99c-1 23 16 31 38 25v30" id="ax"/><path fill="#333" d="M185-48c-13 30-37 53-82 52C43 2 14-33 14-96s30-98 90-98c62 0 83 45 84 108H66c0 31 8 55 39 56 18 0 30-7 34-22zm-45-69c5-46-57-63-70-21-2 6-4 13-4 21h74" id="ay"/><path fill="#333" d="M133-34C117-15 103 5 69 4 32 3 11-16 11-54c-1-60 55-63 116-61 1-26-3-47-28-47-18 1-26 9-28 27l-52-2c7-38 36-58 82-57s74 22 75 68l1 82c-1 14 12 18 25 15v27c-30 8-71 5-69-32zm-48 3c29 0 43-24 42-57-32 0-66-3-65 30 0 17 8 27 23 27" id="az"/><path fill="#333" d="M190-63c-7 42-38 67-86 67-59 0-84-38-90-98-12-110 154-137 174-36l-49 2c-2-19-15-32-35-32-30 0-35 28-38 64-6 74 65 87 74 30" id="aA"/><path fill="#333" d="M114-157C55-157 80-60 75 0H25v-261h50l-1 109c12-26 28-41 61-42 86-1 58 113 63 194h-50c-7-57 23-157-34-157" id="aB"/><path fill="#333" d="M137-138c1-29-70-34-71-4 15 46 118 7 119 86 1 83-164 76-172 9l43-7c4 19 20 25 44 25 33 8 57-30 24-41C81-84 22-81 20-136c-2-80 154-74 161-7" id="aC"/><g id="e"><use transform="matrix(0.04938271604938272,0,0,0.04938271604938272,0,0)" xlink:href="#ax"/><use transform="matrix(0.04938271604938272,0,0,0.04938271604938272,5.8765432098765435,0)" xlink:href="#ay"/><use transform="matrix(0.04938271604938272,0,0,0.04938271604938272,15.753086419753087,0)" xlink:href="#az"/><use transform="matrix(0.04938271604938272,0,0,0.04938271604938272,25.629629629629633,0)" xlink:href="#aA"/><use transform="matrix(0.04938271604938272,0,0,0.04938271604938272,35.50617283950618,0)" xlink:href="#aB"/><use transform="matrix(0.04938271604938272,0,0,0.04938271604938272,46.320987654320994,0)" xlink:href="#ay"/><use transform="matrix(0.04938271604938272,0,0,0.04938271604938272,56.19753086419754,0)" xlink:href="#aC"/></g><path fill="#333" d="M24 0v-248h52v208h133V0H24" id="aD"/><path fill="#333" d="M135-150c-39-12-60 13-60 57V0H25l-1-190h47c2 13-1 29 3 40 6-28 27-53 61-41v41" id="aE"/><path fill="#333" d="M135-194c87-1 58 113 63 194h-50c-7-57 23-157-34-157-59 0-34 97-39 157H25l-1-190h47c2 12-1 28 3 38 12-26 28-41 61-42" id="aF"/><g id="f"><use transform="matrix(0.04938271604938272,0,0,0.04938271604938272,0,0)" xlink:href="#aD"/><use transform="matrix(0.04938271604938272,0,0,0.04938271604938272,10.814814814814815,0)" xlink:href="#ay"/><use transform="matrix(0.04938271604938272,0,0,0.04938271604938272,20.69135802469136,0)" xlink:href="#az"/><use transform="matrix(0.04938271604938272,0,0,0.04938271604938272,30.567901234567906,0)" xlink:href="#aE"/><use transform="matrix(0.04938271604938272,0,0,0.04938271604938272,37.48148148148149,0)" xlink:href="#aF"/><use transform="matrix(0.04938271604938272,0,0,0.04938271604938272,48.296296296296305,0)" xlink:href="#aC"/></g><path fill="#333" d="M121-226c-27-7-43 5-38 36h38v33H83V0H34v-157H6v-33h28c-9-59 32-81 87-68v32" id="aG"/><path fill="#333" d="M110-194c64 0 96 36 96 99 0 64-35 99-97 99-61 0-95-36-95-99 0-62 34-99 96-99zm-1 164c35 0 45-28 45-65 0-40-10-65-43-65-34 0-45 26-45 65 0 36 10 65 43 65" id="aH"/><path fill="#333" d="M220-157c-53 9-28 100-34 157h-49v-107c1-27-5-49-29-50C55-147 81-57 75 0H25l-1-190h47c2 12-1 28 3 38 10-53 101-56 108 0 13-22 24-43 59-42 82 1 51 116 57 194h-49v-107c-1-25-5-48-29-50" id="aI"/><g id="g"><use transform="matrix(0.04938271604938272,0,0,0.04938271604938272,0,0)" xlink:href="#aG"/><use transform="matrix(0.04938271604938272,0,0,0.04938271604938272,5.8765432098765435,0)" xlink:href="#aE"/><use transform="matrix(0.04938271604938272,0,0,0.04938271604938272,12.790123456790125,0)" xlink:href="#aH"/><use transform="matrix(0.04938271604938272,0,0,0.04938271604938272,23.604938271604937,0)" xlink:href="#aI"/></g><path d="M205 0l-28-72H64L36 0H1l101-248h38L239 0h-34zm-38-99l-47-123c-12 45-31 82-46 123h93" id="aJ"/><path d="M135-143c-3-34-86-38-87 0 15 53 115 12 119 90S17 21 10-45l28-5c4 36 97 45 98 0-10-56-113-15-118-90-4-57 82-63 122-42 12 7 21 19 24 35" id="aK"/><path d="M100-194c62-1 85 37 85 99 1 63-27 99-86 99S16-35 15-95c0-66 28-99 85-99zM99-20c44 1 53-31 53-75 0-43-8-75-51-75s-53 32-53 75 10 74 51 75" id="aL"/><path d="M96-169c-40 0-48 33-48 73s9 75 48 75c24 0 41-14 43-38l32 2c-6 37-31 61-74 61-59 0-76-41-82-99-10-93 101-131 147-64 4 7 5 14 7 22l-32 3c-4-21-16-35-41-35" id="aM"/><path d="M24-231v-30h32v30H24zM24 0v-190h32V0H24" id="aN"/><path d="M141-36C126-15 110 5 73 4 37 3 15-17 15-53c-1-64 63-63 125-63 3-35-9-54-41-54-24 1-41 7-42 31l-33-3c5-37 33-52 76-52 45 0 72 20 72 64v82c-1 20 7 32 28 27v20c-31 9-61-2-59-35zM48-53c0 20 12 33 32 33 41-3 63-29 60-74-43 2-92-5-92 41" id="aO"/><path d="M59-47c-2 24 18 29 38 22v24C64 9 27 4 27-40v-127H5v-23h24l9-43h21v43h35v23H59v120" id="aP"/><path d="M117-194c89-4 53 116 60 194h-32v-121c0-31-8-49-39-48C34-167 62-67 57 0H25l-1-190h30c1 10-1 24 2 32 11-22 29-35 61-36" id="aQ"/><g id="h"><use transform="matrix(0.05,0,0,0.05,0,0)" xlink:href="#aJ"/><use transform="matrix(0.05,0,0,0.05,12,0)" xlink:href="#aK"/><use transform="matrix(0.05,0,0,0.05,21,0)" xlink:href="#aK"/><use transform="matrix(0.05,0,0,0.05,30,0)" xlink:href="#aL"/><use transform="matrix(0.05,0,0,0.05,40,0)" xlink:href="#aM"/><use transform="matrix(0.05,0,0,0.05,49,0)" xlink:href="#aN"/><use transform="matrix(0.05,0,0,0.05,52.95,0)" xlink:href="#aO"/><use transform="matrix(0.05,0,0,0.05,62.95,0)" xlink:href="#aP"/><use transform="matrix(0.05,0,0,0.05,67.95,0)" xlink:href="#aN"/><use transform="matrix(0.05,0,0,0.05,71.9,0)" xlink:href="#aL"/><use transform="matrix(0.05,0,0,0.05,81.9,0)" xlink:href="#aQ"/></g><path d="M98-208l-15 77h118l-8 40H76L58 0H6l48-248h174l-8 40H98" id="aR"/><path d="M124-194c51 0 84 22 84 74C207-44 167 4 94 4 43 4 11-23 11-74c0-74 41-120 113-120zM99-30c46 0 58-42 58-86 0-27-11-44-37-44-44 0-55 40-57 84-1 27 10 45 36 46" id="aS"/><path d="M84-151c13-25 34-51 72-40l-8 41C67-170 71-64 56 0H6l36-190h47" id="aT"/><path d="M255-194c90 0 29 129 24 194h-49l25-136c-7-39-53-14-60 9-12 38-18 85-28 127h-49l25-136c2-29-39-23-50-7C69-108 68-47 56 0H6l36-190h48c-1 10-6 24-4 32 12-20 27-36 57-36s46 15 50 41c14-21 29-41 62-41" id="aU"/><path d="M114-194c63-2 87 48 72 110H63c-3 28 1 55 31 54 21-1 32-13 37-29l44 13C160-14 137 4 91 4 41 4 11-22 11-73c0-71 33-119 103-121zm30 77c14-47-50-61-67-22-3 6-6 13-8 22h75" id="aV"/><g id="i"><use transform="matrix(0.05,0,0,0.05,0,0)" xlink:href="#aR"/><use transform="matrix(0.05,0,0,0.05,10.950000000000001,0)" xlink:href="#aS"/><use transform="matrix(0.05,0,0,0.05,21.900000000000002,0)" xlink:href="#aT"/><use transform="matrix(0.05,0,0,0.05,28.900000000000002,0)" xlink:href="#aU"/><use transform="matrix(0.05,0,0,0.05,44.900000000000006,0)" xlink:href="#aV"/></g><path d="M240-174c0 40-23 61-54 70L253 0h-59l-57-94H76V0H24v-248c93 4 217-23 216 74zM76-134c48-2 112 12 112-38 0-48-66-32-112-35v73" id="aW"/><path d="M135-194c87-1 58 113 63 194h-50c-7-57 23-157-34-157-59 0-34 97-39 157H25l-1-190h47c2 12-1 28 3 38 12-26 28-41 61-42" id="aX"/><path d="M88-194c31-1 46 15 58 34l-1-101h50l1 261h-48c-2-10 0-23-3-31C134-8 116 4 84 4 32 4 16-41 15-95c0-56 19-97 73-99zm17 164c33 0 40-30 41-66 1-37-9-64-41-64s-38 30-39 65c0 43 13 65 39 65" id="aY"/><g id="j"><use transform="matrix(0.05,0,0,0.05,0,0)" xlink:href="#aW"/><use transform="matrix(0.05,0,0,0.05,12.950000000000001,0)" xlink:href="#al"/><use transform="matrix(0.05,0,0,0.05,23.900000000000002,0)" xlink:href="#aX"/><use transform="matrix(0.05,0,0,0.05,34.85,0)" xlink:href="#aY"/></g><path d="M136-208V0H84v-208H4v-40h212v40h-80" id="aZ"/><path d="M25-224v-37h50v37H25zM25 0v-190h50V0H25" id="ba"/><path d="M133-34C117-15 103 5 69 4 32 3 11-16 11-54c-1-60 55-63 116-61 1-26-3-47-28-47-18 1-26 9-28 27l-52-2c7-38 36-58 82-57s74 22 75 68l1 82c-1 14 12 18 25 15v27c-30 8-71 5-69-32zm-48 3c29 0 43-24 42-57-32 0-66-3-65 30 0 17 8 27 23 27" id="bb"/><path d="M195-6C206 82 75 100 31 46c-4-6-6-13-8-21l49-6c3 16 16 24 34 25 40 0 42-37 40-79-11 22-30 35-61 35-53 0-70-43-70-97 0-56 18-96 73-97 30 0 46 14 59 34l2-30h47zm-90-29c32 0 41-27 41-63 0-35-9-62-40-62-32 0-39 29-40 63 0 36 9 62 39 62" id="bc"/><g id="k"><use transform="matrix(0.05,0,0,0.05,0,0)" xlink:href="#aZ"/><use transform="matrix(0.05,0,0,0.05,9.950000000000001,0)" xlink:href="#ak"/><use transform="matrix(0.05,0,0,0.05,16.950000000000003,0)" xlink:href="#ba"/><use transform="matrix(0.05,0,0,0.05,21.950000000000003,0)" xlink:href="#bb"/><use transform="matrix(0.05,0,0,0.05,31.950000000000003,0)" xlink:href="#aX"/><use transform="matrix(0.05,0,0,0.05,42.900000000000006,0)" xlink:href="#bc"/><use transform="matrix(0.05,0,0,0.05,53.85,0)" xlink:href="#ar"/><use transform="matrix(0.05,0,0,0.05,58.85,0)" xlink:href="#an"/></g><path d="M67-125c0 53 21 87 73 88 37 1 54-22 65-47l45 17C233-25 199 4 140 4 58 4 20-42 15-125 8-235 124-281 211-232c18 10 29 29 36 50l-46 12c-8-25-30-41-62-41-52 0-71 34-72 86" id="bd"/><path d="M185-48c-13 30-37 53-82 52C43 2 14-33 14-96s30-98 90-98c62 0 83 45 84 108H66c0 31 8 55 39 56 18 0 30-7 34-22zm-45-69c5-46-57-63-70-21-2 6-4 13-4 21h74zm-67-91v-5l45-51h45v8l-60 48H73" id="be"/><g id="l"><use transform="matrix(0.05,0,0,0.05,0,0)" xlink:href="#bd"/><use transform="matrix(0.05,0,0,0.05,12.950000000000001,0)" xlink:href="#bb"/><use transform="matrix(0.05,0,0,0.05,22.950000000000003,0)" xlink:href="#ak"/><use transform="matrix(0.05,0,0,0.05,29.950000000000003,0)" xlink:href="#ak"/><use transform="matrix(0.05,0,0,0.05,36.95,0)" xlink:href="#be"/></g><path d="M185-189c-5-48-123-54-124 2 14 75 158 14 163 119 3 78-121 87-175 55-17-10-28-26-33-46l33-7c5 56 141 63 141-1 0-78-155-14-162-118-5-82 145-84 179-34 5 7 8 16 11 25" id="bf"/><g id="m"><use transform="matrix(0.05,0,0,0.05,0,0)" xlink:href="#bf"/><use transform="matrix(0.05,0,0,0.05,12,0)" xlink:href="#aN"/></g><path d="M24 0v-261h32V0H24" id="bg"/><g id="n"><use transform="matrix(0.05,0,0,0.05,0,0)" xlink:href="#bg"/><use transform="matrix(0.05,0,0,0.05,3.95,0)" xlink:href="#aO"/></g><path d="M100-194c63 0 86 42 84 106H49c0 40 14 67 53 68 26 1 43-12 49-29l28 8c-11 28-37 45-77 45C44 4 14-33 15-96c1-61 26-98 85-98zm52 81c6-60-76-77-97-28-3 7-6 17-6 28h103" id="bh"/><g id="o"><use transform="matrix(0.05,0,0,0.05,0,0)" xlink:href="#aM"/><use transform="matrix(0.05,0,0,0.05,9,0)" xlink:href="#bg"/><use transform="matrix(0.05,0,0,0.05,12.949999999999998,0)" xlink:href="#aO"/><use transform="matrix(0.05,0,0,0.05,22.95,0)" xlink:href="#aK"/><use transform="matrix(0.05,0,0,0.05,31.950000000000003,0)" xlink:href="#aK"/><use transform="matrix(0.05,0,0,0.05,40.95,0)" xlink:href="#bh"/></g><path d="M85-194c31 0 48 13 60 33l-1-100h32l1 261h-30c-2-10 0-23-3-31C134-8 116 4 85 4 32 4 16-35 15-94c0-66 23-100 70-100zm9 24c-40 0-46 34-46 75 0 40 6 74 45 74 42 0 51-32 51-76 0-42-9-74-50-73" id="bi"/><g id="p"><use transform="matrix(0.05,0,0,0.05,0,0)" xlink:href="#bi"/><use transform="matrix(0.05,0,0,0.05,10,0)" xlink:href="#aL"/><use transform="matrix(0.05,0,0,0.05,20,0)" xlink:href="#aQ"/><use transform="matrix(0.05,0,0,0.05,30,0)" xlink:href="#aP"/></g><g id="q"><use transform="matrix(0.05,0,0,0.05,0,0)" xlink:href="#aL"/><use transform="matrix(0.05,0,0,0.05,10,0)" xlink:href="#aQ"/></g><path d="M106-169C34-169 62-67 57 0H25v-261h32l-1 103c12-21 28-36 61-36 89 0 53 116 60 194h-32v-121c2-32-8-49-39-48" id="bj"/><path d="M100-194c63 0 86 42 84 106H49c0 40 14 67 53 68 26 1 43-12 49-29l28 8c-11 28-37 45-77 45C44 4 14-33 15-96c1-61 26-98 85-98zm52 81c6-60-76-77-97-28-3 7-6 17-6 28h103zm-74-98c8-23 27-35 38-54h36v5l-58 49H78" id="bk"/><path d="M114-163C36-179 61-72 57 0H25l-1-190h30c1 12-1 29 2 39 6-27 23-49 58-41v29" id="bl"/><g id="r"><use transform="matrix(0.05,0,0,0.05,0,0)" xlink:href="#bj"/><use transform="matrix(0.05,0,0,0.05,10,0)" xlink:href="#bk"/><use transform="matrix(0.05,0,0,0.05,20,0)" xlink:href="#bl"/><use transform="matrix(0.05,0,0,0.05,25.950000000000003,0)" xlink:href="#aN"/><use transform="matrix(0.05,0,0,0.05,29.899999999999995,0)" xlink:href="#aP"/><use transform="matrix(0.05,0,0,0.05,34.9,0)" xlink:href="#bh"/></g><g id="s"><use transform="matrix(0.05,0,0,0.05,0,0)" xlink:href="#bh"/><use transform="matrix(0.05,0,0,0.05,10,0)" xlink:href="#aK"/><use transform="matrix(0.05,0,0,0.05,19,0)" xlink:href="#aP"/></g><path d="M84 4C-5 8 30-112 23-190h32v120c0 31 7 50 39 49 72-2 45-101 50-169h31l1 190h-30c-1-10 1-25-2-33-11 22-28 36-60 37" id="bm"/><g id="t"><use transform="matrix(0.05,0,0,0.05,0,0)" xlink:href="#bm"/><use transform="matrix(0.05,0,0,0.05,10,0)" xlink:href="#aQ"/><use transform="matrix(0.05,0,0,0.05,20,0)" xlink:href="#bh"/></g><g id="u"><use transform="matrix(0.05,0,0,0.05,0,0)" xlink:href="#aM"/><use transform="matrix(0.05,0,0,0.05,9,0)" xlink:href="#bg"/><use transform="matrix(0.05,0,0,0.05,12.949999999999998,0)" xlink:href="#aO"/><use transform="matrix(0.05,0,0,0.05,22.95,0)" xlink:href="#aK"/><use transform="matrix(0.05,0,0,0.05,31.950000000000003,0)" xlink:href="#aK"/><use transform="matrix(0.05,0,0,0.05,40.95,0)" xlink:href="#bh"/></g><path d="M115-194c53 0 69 39 70 98 0 66-23 100-70 100C84 3 66-7 56-30L54 0H23l1-261h32v101c10-23 28-34 59-34zm-8 174c40 0 45-34 45-75 0-40-5-75-45-74-42 0-51 32-51 76 0 43 10 73 51 73" id="bn"/><path d="M68-36c1 33-1 63-14 82H32c9-13 17-26 17-46H33v-36h35zM33-154v-36h35v36H33" id="bo"/><g id="v"><use transform="matrix(0.05,0,0,0.05,0,0)" xlink:href="#aO"/><use transform="matrix(0.05,0,0,0.05,10,0)" xlink:href="#bn"/><use transform="matrix(0.05,0,0,0.05,20,0)" xlink:href="#aK"/><use transform="matrix(0.05,0,0,0.05,29,0)" xlink:href="#aP"/><use transform="matrix(0.05,0,0,0.05,34,0)" xlink:href="#bl"/><use transform="matrix(0.05,0,0,0.05,39.95,0)" xlink:href="#aO"/><use transform="matrix(0.05,0,0,0.05,49.95,0)" xlink:href="#aN"/><use transform="matrix(0.05,0,0,0.05,53.900000000000006,0)" xlink:href="#aP"/><use transform="matrix(0.05,0,0,0.05,58.900000000000006,0)" xlink:href="#bh"/><use transform="matrix(0.05,0,0,0.05,68.9,0)" xlink:href="#bo"/></g><g id="w"><use transform="matrix(0.05,0,0,0.05,0,0)" xlink:href="#bk"/><use transform="matrix(0.05,0,0,0.05,10,0)" xlink:href="#aM"/><use transform="matrix(0.05,0,0,0.05,19,0)" xlink:href="#bl"/><use transform="matrix(0.05,0,0,0.05,24.95,0)" xlink:href="#aN"/><use transform="matrix(0.05,0,0,0.05,28.899999999999995,0)" xlink:href="#aP"/></g><g id="x"><use transform="matrix(0.05,0,0,0.05,0,0)" xlink:href="#aK"/><use transform="matrix(0.05,0,0,0.05,9,0)" xlink:href="#aL"/><use transform="matrix(0.05,0,0,0.05,19,0)" xlink:href="#aQ"/></g><path d="M210-169c-67 3-38 105-44 169h-31v-121c0-29-5-50-35-48C34-165 62-65 56 0H25l-1-190h30c1 10-1 24 2 32 10-44 99-50 107 0 11-21 27-35 58-36 85-2 47 119 55 194h-31v-121c0-29-5-49-35-48" id="bp"/><g id="y"><use transform="matrix(0.05,0,0,0.05,0,0)" xlink:href="#aQ"/><use transform="matrix(0.05,0,0,0.05,10,0)" xlink:href="#aL"/><use transform="matrix(0.05,0,0,0.05,20,0)" xlink:href="#bp"/></g><g id="z"><use transform="matrix(0.05,0,0,0.05,0,0)" xlink:href="#bh"/><use transform="matrix(0.05,0,0,0.05,10,0)" xlink:href="#aQ"/></g><path d="M145-31C134-9 116 4 85 4 32 4 16-35 15-94c0-59 17-99 70-100 32-1 48 14 60 33 0-11-1-24 2-32h30l-1 268h-32zM93-21c41 0 51-33 51-76s-8-73-50-73c-40 0-46 35-46 75s5 74 45 74" id="bq"/><g id="A"><use transform="matrix(0.05,0,0,0.05,0,0)" xlink:href="#aN"/><use transform="matrix(0.05,0,0,0.05,3.95,0)" xlink:href="#aP"/><use transform="matrix(0.05,0,0,0.05,8.95,0)" xlink:href="#aO"/><use transform="matrix(0.05,0,0,0.05,18.95,0)" xlink:href="#bg"/><use transform="matrix(0.05,0,0,0.05,22.9,0)" xlink:href="#aN"/><use transform="matrix(0.05,0,0,0.05,26.849999999999994,0)" xlink:href="#bq"/><use transform="matrix(0.05,0,0,0.05,36.849999999999994,0)" xlink:href="#bm"/><use transform="matrix(0.05,0,0,0.05,46.849999999999994,0)" xlink:href="#bh"/></g><path d="M197 0v-115H63V0H30v-248h33v105h134v-105h34V0h-34" id="br"/><path d="M177-190C167-65 218 103 67 71c-23-6-38-20-44-43l32-5c15 47 100 32 89-28v-30C133-14 115 1 83 1 29 1 15-40 15-95c0-56 16-97 71-98 29-1 48 16 59 35 1-10 0-23 2-32h30zM94-22c36 0 50-32 50-73 0-42-14-75-50-75-39 0-46 34-46 75s6 73 46 73" id="bs"/><g id="B"><use transform="matrix(0.05,0,0,0.05,0,0)" xlink:href="#br"/><use transform="matrix(0.05,0,0,0.05,12.950000000000001,0)" xlink:href="#bk"/><use transform="matrix(0.05,0,0,0.05,22.950000000000003,0)" xlink:href="#bl"/><use transform="matrix(0.05,0,0,0.05,28.900000000000002,0)" xlink:href="#aN"/><use transform="matrix(0.05,0,0,0.05,32.85,0)" xlink:href="#aP"/><use transform="matrix(0.05,0,0,0.05,37.85,0)" xlink:href="#aO"/><use transform="matrix(0.05,0,0,0.05,47.85,0)" xlink:href="#bs"/><use transform="matrix(0.05,0,0,0.05,57.85,0)" xlink:href="#bh"/></g><path d="M135-194c53 0 70 44 70 98 0 56-19 98-73 100-31 1-45-17-59-34 3 33 2 69 2 105H25l-1-265h48c2 10 0 23 3 31 11-24 29-35 60-35zM114-30c33 0 39-31 40-66 0-38-9-64-40-64-56 0-55 130 0 130" id="bt"/><path d="M115-3C79 11 28 4 28-45v-112H4v-33h27l15-45h31v45h36v33H77v99c-1 23 16 31 38 25v30" id="bu"/><g id="C"><use transform="matrix(0.05,0,0,0.05,0,0)" xlink:href="#aj"/><use transform="matrix(0.05,0,0,0.05,12,0)" xlink:href="#ak"/><use transform="matrix(0.05,0,0,0.05,19,0)" xlink:href="#al"/><use transform="matrix(0.05,0,0,0.05,29.950000000000003,0)" xlink:href="#bt"/><use transform="matrix(0.05,0,0,0.05,40.900000000000006,0)" xlink:href="#ak"/><use transform="matrix(0.05,0,0,0.05,47.900000000000006,0)" xlink:href="#ba"/><use transform="matrix(0.05,0,0,0.05,52.900000000000006,0)" xlink:href="#be"/><use transform="matrix(0.05,0,0,0.05,62.900000000000006,0)" xlink:href="#bu"/><use transform="matrix(0.05,0,0,0.05,68.85000000000001,0)" xlink:href="#bb"/><use transform="matrix(0.05,0,0,0.05,78.85000000000001,0)" xlink:href="#ba"/><use transform="matrix(0.05,0,0,0.05,83.85000000000001,0)" xlink:href="#ak"/><use transform="matrix(0.05,0,0,0.05,90.85000000000001,0)" xlink:href="#an"/></g><path d="M16-82v-28h88v28H16" id="bv"/><use transform="matrix(0.05,0,0,0.05,0,0)" xlink:href="#bv" id="D"/><path d="M30-248c87 1 191-15 191 75 0 78-77 80-158 76V0H30v-248zm33 125c57 0 124 11 124-50 0-59-68-47-124-48v98" id="bw"/><path d="M115-194c55 1 70 41 70 98S169 2 115 4C84 4 66-9 55-30l1 105H24l-1-265h31l2 30c10-21 28-34 59-34zm-8 174c40 0 45-34 45-75s-6-73-45-74c-42 0-51 32-51 76 0 43 10 73 51 73" id="bx"/><path d="M33-154v-36h34v36H33zM33 0v-36h34V0H33" id="by"/><g id="E"><use transform="matrix(0.05,0,0,0.05,0,0)" xlink:href="#aQ"/><use transform="matrix(0.05,0,0,0.05,10,0)" xlink:href="#aL"/><use transform="matrix(0.05,0,0,0.05,20,0)" xlink:href="#bp"/><use transform="matrix(0.05,0,0,0.05,34.95,0)" xlink:href="#bn"/><use transform="matrix(0.05,0,0,0.05,44.95,0)" xlink:href="#bl"/><use transform="matrix(0.05,0,0,0.05,50.900000000000006,0)" xlink:href="#bh"/><use transform="matrix(0.05,0,0,0.05,60.900000000000006,0)" xlink:href="#bw"/><use transform="matrix(0.05,0,0,0.05,72.9,0)" xlink:href="#bl"/><use transform="matrix(0.05,0,0,0.05,78.85000000000001,0)" xlink:href="#aL"/><use transform="matrix(0.05,0,0,0.05,88.85000000000001,0)" xlink:href="#bx"/><use transform="matrix(0.05,0,0,0.05,98.85000000000001,0)" xlink:href="#bl"/><use transform="matrix(0.05,0,0,0.05,104.80000000000001,0)" xlink:href="#aN"/><use transform="matrix(0.05,0,0,0.05,108.75,0)" xlink:href="#bk"/><use transform="matrix(0.05,0,0,0.05,118.75,0)" xlink:href="#aP"/><use transform="matrix(0.05,0,0,0.05,123.75,0)" xlink:href="#bk"/><use transform="matrix(0.05,0,0,0.05,133.75,0)" xlink:href="#aK"/><use transform="matrix(0.05,0,0,0.05,142.75,0)" xlink:href="#by"/><use transform="matrix(0.05,0,0,0.05,147.75,0)" xlink:href="#aN"/><use transform="matrix(0.05,0,0,0.05,151.7,0)" xlink:href="#aQ"/><use transform="matrix(0.05,0,0,0.05,161.7,0)" xlink:href="#aP"/></g><path d="M118-107v75H92v-75H18v-26h74v-75h26v75h74v26h-74" id="bz"/><use transform="matrix(0.05,0,0,0.05,0,0)" xlink:href="#bz" id="F"/><path d="M87 75C49 33 22-17 22-94c0-76 28-126 65-167h31c-38 41-64 92-64 168S80 34 118 75H87" id="bA"/><path d="M33-261c38 41 65 92 65 168S71 34 33 75H2C39 34 66-17 66-93S39-220 2-261h31" id="bB"/><g id="G"><use transform="matrix(0.05,0,0,0.05,0,0)" xlink:href="#aO"/><use transform="matrix(0.05,0,0,0.05,10,0)" xlink:href="#aM"/><use transform="matrix(0.05,0,0,0.05,19,0)" xlink:href="#bj"/><use transform="matrix(0.05,0,0,0.05,29,0)" xlink:href="#bh"/><use transform="matrix(0.05,0,0,0.05,39,0)" xlink:href="#aP"/><use transform="matrix(0.05,0,0,0.05,44,0)" xlink:href="#bh"/><use transform="matrix(0.05,0,0,0.05,54,0)" xlink:href="#bl"/><use transform="matrix(0.05,0,0,0.05,59.95,0)" xlink:href="#bA"/><use transform="matrix(0.05,0,0,0.05,65.9,0)" xlink:href="#bx"/><use transform="matrix(0.05,0,0,0.05,75.9,0)" xlink:href="#bl"/><use transform="matrix(0.05,0,0,0.05,81.85000000000001,0)" xlink:href="#aL"/><use transform="matrix(0.05,0,0,0.05,91.85000000000001,0)" xlink:href="#bx"/><use transform="matrix(0.05,0,0,0.05,101.85000000000001,0)" xlink:href="#bl"/><use transform="matrix(0.05,0,0,0.05,107.80000000000001,0)" xlink:href="#aN"/><use transform="matrix(0.05,0,0,0.05,111.75,0)" xlink:href="#bk"/><use transform="matrix(0.05,0,0,0.05,121.75,0)" xlink:href="#aP"/><use transform="matrix(0.05,0,0,0.05,126.75,0)" xlink:href="#bk"/><use transform="matrix(0.05,0,0,0.05,136.75,0)" xlink:href="#bB"/></g><path d="M108 0H70L1-190h34L89-25l56-165h34" id="bC"/><g id="H"><use transform="matrix(0.05,0,0,0.05,0,0)" xlink:href="#bC"/><use transform="matrix(0.05,0,0,0.05,9,0)" xlink:href="#bh"/><use transform="matrix(0.05,0,0,0.05,19,0)" xlink:href="#aQ"/><use transform="matrix(0.05,0,0,0.05,29,0)" xlink:href="#bi"/><use transform="matrix(0.05,0,0,0.05,39,0)" xlink:href="#bl"/><use transform="matrix(0.05,0,0,0.05,44.95,0)" xlink:href="#bh"/><use transform="matrix(0.05,0,0,0.05,54.95,0)" xlink:href="#bA"/><use transform="matrix(0.05,0,0,0.05,60.900000000000006,0)" xlink:href="#bx"/><use transform="matrix(0.05,0,0,0.05,70.9,0)" xlink:href="#bl"/><use transform="matrix(0.05,0,0,0.05,76.85000000000001,0)" xlink:href="#aL"/><use transform="matrix(0.05,0,0,0.05,86.85000000000001,0)" xlink:href="#bx"/><use transform="matrix(0.05,0,0,0.05,96.85000000000001,0)" xlink:href="#bl"/><use transform="matrix(0.05,0,0,0.05,102.80000000000001,0)" xlink:href="#aN"/><use transform="matrix(0.05,0,0,0.05,106.75,0)" xlink:href="#bk"/><use transform="matrix(0.05,0,0,0.05,116.75,0)" xlink:href="#aP"/><use transform="matrix(0.05,0,0,0.05,121.75,0)" xlink:href="#bk"/><use transform="matrix(0.05,0,0,0.05,131.75,0)" xlink:href="#bB"/></g><g id="I"><use transform="matrix(0.05,0,0,0.05,0,0)" xlink:href="#aj"/><use transform="matrix(0.05,0,0,0.05,12,0)" xlink:href="#an"/><use transform="matrix(0.05,0,0,0.05,22,0)" xlink:href="#ak"/><use transform="matrix(0.05,0,0,0.05,29,0)" xlink:href="#ao"/><use transform="matrix(0.05,0,0,0.05,39,0)" xlink:href="#al"/><use transform="matrix(0.05,0,0,0.05,49.95,0)" xlink:href="#aX"/><use transform="matrix(0.05,0,0,0.05,60.900000000000006,0)" xlink:href="#aX"/><use transform="matrix(0.05,0,0,0.05,71.85000000000001,0)" xlink:href="#an"/></g><g id="J"><use transform="matrix(0.05,0,0,0.05,0,0)" xlink:href="#bl"/><use transform="matrix(0.05,0,0,0.05,5.95,0)" xlink:href="#bk"/><use transform="matrix(0.05,0,0,0.05,15.949999999999998,0)" xlink:href="#bh"/><use transform="matrix(0.05,0,0,0.05,25.950000000000003,0)" xlink:href="#bg"/><use transform="matrix(0.05,0,0,0.05,29.899999999999995,0)" xlink:href="#bg"/><use transform="matrix(0.05,0,0,0.05,33.85,0)" xlink:href="#bh"/><use transform="matrix(0.05,0,0,0.05,43.85,0)" xlink:href="#by"/></g><g id="K"><use transform="matrix(0.05,0,0,0.05,0,0)" xlink:href="#bn"/><use transform="matrix(0.05,0,0,0.05,10,0)" xlink:href="#aL"/><use transform="matrix(0.05,0,0,0.05,20,0)" xlink:href="#aL"/><use transform="matrix(0.05,0,0,0.05,30,0)" xlink:href="#bg"/></g><g id="L"><use transform="matrix(0.05,0,0,0.05,0,0)" xlink:href="#aP"/><use transform="matrix(0.05,0,0,0.05,5,0)" xlink:href="#aO"/><use transform="matrix(0.05,0,0,0.05,15,0)" xlink:href="#aQ"/><use transform="matrix(0.05,0,0,0.05,25,0)" xlink:href="#bs"/><use transform="matrix(0.05,0,0,0.05,35,0)" xlink:href="#aN"/><use transform="matrix(0.05,0,0,0.05,38.95,0)" xlink:href="#bn"/><use transform="matrix(0.05,0,0,0.05,48.95,0)" xlink:href="#bg"/><use transform="matrix(0.05,0,0,0.05,52.900000000000006,0)" xlink:href="#bh"/><use transform="matrix(0.05,0,0,0.05,62.900000000000006,0)" xlink:href="#by"/><use transform="matrix(0.05,0,0,0.05,67.9,0)" xlink:href="#bn"/><use transform="matrix(0.05,0,0,0.05,77.9,0)" xlink:href="#aL"/><use transform="matrix(0.05,0,0,0.05,87.9,0)" xlink:href="#aL"/><use transform="matrix(0.05,0,0,0.05,97.9,0)" xlink:href="#bg"/></g><g id="M"><use transform="matrix(0.05,0,0,0.05,0,0)" xlink:href="#aN"/><use transform="matrix(0.05,0,0,0.05,3.95,0)" xlink:href="#aQ"/><use transform="matrix(0.05,0,0,0.05,13.949999999999998,0)" xlink:href="#aP"/><use transform="matrix(0.05,0,0,0.05,18.95,0)" xlink:href="#aO"/><use transform="matrix(0.05,0,0,0.05,28.950000000000003,0)" xlink:href="#aQ"/><use transform="matrix(0.05,0,0,0.05,38.95,0)" xlink:href="#bs"/><use transform="matrix(0.05,0,0,0.05,48.95,0)" xlink:href="#aN"/><use transform="matrix(0.05,0,0,0.05,52.900000000000006,0)" xlink:href="#bn"/><use transform="matrix(0.05,0,0,0.05,62.900000000000006,0)" xlink:href="#bg"/><use transform="matrix(0.05,0,0,0.05,66.85000000000001,0)" xlink:href="#bh"/><use transform="matrix(0.05,0,0,0.05,76.85000000000001,0)" xlink:href="#by"/><use transform="matrix(0.05,0,0,0.05,81.85000000000001,0)" xlink:href="#bn"/><use transform="matrix(0.05,0,0,0.05,91.85000000000001,0)" xlink:href="#aL"/><use transform="matrix(0.05,0,0,0.05,101.85000000000001,0)" xlink:href="#aL"/><use transform="matrix(0.05,0,0,0.05,111.85000000000001,0)" xlink:href="#bg"/></g><path d="M24 0v-248h195v40H76v63h132v40H76v65h150V0H24" id="bD"/><g id="N"><use transform="matrix(0.05,0,0,0.05,0,0)" xlink:href="#bD"/><use transform="matrix(0.05,0,0,0.05,12,0)" xlink:href="#aX"/><use transform="matrix(0.05,0,0,0.05,22.950000000000003,0)" xlink:href="#bu"/><use transform="matrix(0.05,0,0,0.05,28.900000000000002,0)" xlink:href="#ak"/><use transform="matrix(0.05,0,0,0.05,35.900000000000006,0)" xlink:href="#an"/><use transform="matrix(0.05,0,0,0.05,45.900000000000006,0)" xlink:href="#bt"/><use transform="matrix(0.05,0,0,0.05,56.85,0)" xlink:href="#ak"/><use transform="matrix(0.05,0,0,0.05,63.85,0)" xlink:href="#ba"/><use transform="matrix(0.05,0,0,0.05,68.85000000000001,0)" xlink:href="#ao"/><use transform="matrix(0.05,0,0,0.05,78.85000000000001,0)" xlink:href="#an"/></g><g id="O"><use transform="matrix(0.05,0,0,0.05,0,0)" xlink:href="#aO"/><use transform="matrix(0.05,0,0,0.05,10,0)" xlink:href="#aM"/><use transform="matrix(0.05,0,0,0.05,19,0)" xlink:href="#aP"/><use transform="matrix(0.05,0,0,0.05,24,0)" xlink:href="#aN"/><use transform="matrix(0.05,0,0,0.05,27.950000000000003,0)" xlink:href="#bC"/><use transform="matrix(0.05,0,0,0.05,36.95,0)" xlink:href="#bh"/><use transform="matrix(0.05,0,0,0.05,46.95,0)" xlink:href="#by"/></g><g id="P"><use transform="matrix(0.05,0,0,0.05,0,0)" xlink:href="#bx"/><use transform="matrix(0.05,0,0,0.05,10,0)" xlink:href="#bp"/><use transform="matrix(0.05,0,0,0.05,24.950000000000003,0)" xlink:href="#bh"/><use transform="matrix(0.05,0,0,0.05,34.95,0)" xlink:href="#by"/></g><path d="M233-177c-1 41-23 64-60 70L243 0h-38l-65-103H63V0H30v-248c88 3 205-21 203 71zM63-129c60-2 137 13 137-47 0-61-80-42-137-45v92" id="bE"/><g id="Q"><use transform="matrix(0.05,0,0,0.05,0,0)" xlink:href="#bE"/><use transform="matrix(0.05,0,0,0.05,12.950000000000001,0)" xlink:href="#bk"/><use transform="matrix(0.05,0,0,0.05,22.950000000000003,0)" xlink:href="#aO"/><use transform="matrix(0.05,0,0,0.05,32.95,0)" xlink:href="#bg"/><use transform="matrix(0.05,0,0,0.05,36.900000000000006,0)" xlink:href="#aN"/><use transform="matrix(0.05,0,0,0.05,40.85000000000001,0)" xlink:href="#aK"/><use transform="matrix(0.05,0,0,0.05,49.85000000000001,0)" xlink:href="#aO"/><use transform="matrix(0.05,0,0,0.05,59.85,0)" xlink:href="#aP"/><use transform="matrix(0.05,0,0,0.05,64.85000000000001,0)" xlink:href="#aN"/><use transform="matrix(0.05,0,0,0.05,68.80000000000001,0)" xlink:href="#aL"/><use transform="matrix(0.05,0,0,0.05,78.80000000000001,0)" xlink:href="#aQ"/></g><g id="R"><use transform="matrix(0.05,0,0,0.05,0,0)" xlink:href="#aj"/><use transform="matrix(0.05,0,0,0.05,12,0)" xlink:href="#an"/><use transform="matrix(0.05,0,0,0.05,22,0)" xlink:href="#ak"/><use transform="matrix(0.05,0,0,0.05,29,0)" xlink:href="#ao"/><use transform="matrix(0.05,0,0,0.05,39,0)" xlink:href="#al"/><use transform="matrix(0.05,0,0,0.05,49.95,0)" xlink:href="#aX"/></g><path d="M-5 72V49h209v23H-5" id="bF"/><path d="M143 0L79-87 56-68V0H24v-261h32v163l83-92h37l-77 82L181 0h-38" id="bG"/><g id="S"><use transform="matrix(0.05,0,0,0.05,0,0)" xlink:href="#bj"/><use transform="matrix(0.05,0,0,0.05,10,0)" xlink:href="#aO"/><use transform="matrix(0.05,0,0,0.05,20,0)" xlink:href="#aK"/><use transform="matrix(0.05,0,0,0.05,29,0)" xlink:href="#bF"/><use transform="matrix(0.05,0,0,0.05,39,0)" xlink:href="#bl"/><use transform="matrix(0.05,0,0,0.05,44.95,0)" xlink:href="#bh"/><use transform="matrix(0.05,0,0,0.05,54.95,0)" xlink:href="#aO"/><use transform="matrix(0.05,0,0,0.05,64.95,0)" xlink:href="#bi"/><use transform="matrix(0.05,0,0,0.05,74.95,0)" xlink:href="#bA"/><use transform="matrix(0.05,0,0,0.05,80.9,0)" xlink:href="#bn"/><use transform="matrix(0.05,0,0,0.05,90.9,0)" xlink:href="#aL"/><use transform="matrix(0.05,0,0,0.05,100.9,0)" xlink:href="#aL"/><use transform="matrix(0.05,0,0,0.05,110.9,0)" xlink:href="#bG"/><use transform="matrix(0.05,0,0,0.05,119.9,0)" xlink:href="#bB"/><use transform="matrix(0.05,0,0,0.05,125.85000000000001,0)" xlink:href="#by"/></g><g id="T"><use transform="matrix(0.05,0,0,0.05,0,0)" xlink:href="#bn"/><use transform="matrix(0.05,0,0,0.05,10,0)" xlink:href="#aL"/><use transform="matrix(0.05,0,0,0.05,20,0)" xlink:href="#aL"/><use transform="matrix(0.05,0,0,0.05,30,0)" xlink:href="#bg"/></g><path d="M182-130c37 4 62 22 62 59C244 23 116-4 24 0v-248c84 5 203-23 205 63 0 31-19 50-47 55zM76-148c40-3 101 13 101-30 0-44-60-28-101-31v61zm0 110c48-3 116 14 116-37 0-48-69-32-116-35v72" id="bH"/><path d="M147 0L96-86 75-71V0H25v-261h50v150l67-79h53l-66 74L201 0h-54" id="bI"/><g id="U"><use transform="matrix(0.05,0,0,0.05,0,0)" xlink:href="#bH"/><use transform="matrix(0.05,0,0,0.05,12.950000000000001,0)" xlink:href="#al"/><use transform="matrix(0.05,0,0,0.05,23.900000000000002,0)" xlink:href="#al"/><use transform="matrix(0.05,0,0,0.05,34.85,0)" xlink:href="#bI"/></g><g id="V"><use transform="matrix(0.05,0,0,0.05,0,0)" xlink:href="#aO"/><use transform="matrix(0.05,0,0,0.05,10,0)" xlink:href="#bF"/><use transform="matrix(0.05,0,0,0.05,20,0)" xlink:href="#bg"/><use transform="matrix(0.05,0,0,0.05,23.95,0)" xlink:href="#bm"/><use transform="matrix(0.05,0,0,0.05,33.95,0)" xlink:href="#bA"/><use transform="matrix(0.05,0,0,0.05,39.900000000000006,0)" xlink:href="#bg"/><use transform="matrix(0.05,0,0,0.05,43.85000000000001,0)" xlink:href="#aN"/><use transform="matrix(0.05,0,0,0.05,47.80000000000001,0)" xlink:href="#bC"/><use transform="matrix(0.05,0,0,0.05,56.80000000000001,0)" xlink:href="#bl"/><use transform="matrix(0.05,0,0,0.05,62.750000000000014,0)" xlink:href="#bh"/><use transform="matrix(0.05,0,0,0.05,72.75000000000001,0)" xlink:href="#bB"/><use transform="matrix(0.05,0,0,0.05,78.70000000000002,0)" xlink:href="#by"/></g><path d="M30-248c118-7 216 8 213 122C240-48 200 0 122 0H30v-248zM63-27c89 8 146-16 146-99s-60-101-146-95v194" id="bJ"/><g id="W"><use transform="matrix(0.05,0,0,0.05,0,0)" xlink:href="#bJ"/><use transform="matrix(0.05,0,0,0.05,12.950000000000001,0)" xlink:href="#bk"/><use transform="matrix(0.05,0,0,0.05,22.950000000000003,0)" xlink:href="#bx"/><use transform="matrix(0.05,0,0,0.05,32.95,0)" xlink:href="#bh"/><use transform="matrix(0.05,0,0,0.05,42.95,0)" xlink:href="#aQ"/><use transform="matrix(0.05,0,0,0.05,52.95,0)" xlink:href="#bi"/><use transform="matrix(0.05,0,0,0.05,62.95,0)" xlink:href="#aO"/><use transform="matrix(0.05,0,0,0.05,72.95,0)" xlink:href="#aQ"/><use transform="matrix(0.05,0,0,0.05,82.95,0)" xlink:href="#aM"/><use transform="matrix(0.05,0,0,0.05,91.95,0)" xlink:href="#bh"/></g><path d="M24-248c120-7 223 5 221 122C244-46 201 0 124 0H24v-248zM76-40c74 7 117-18 117-86 0-67-45-88-117-82v168" id="bK"/><g id="X"><use transform="matrix(0.05,0,0,0.05,0,0)" xlink:href="#bK"/><use transform="matrix(0.05,0,0,0.05,12.950000000000001,0)" xlink:href="#an"/><use transform="matrix(0.05,0,0,0.05,22.950000000000003,0)" xlink:href="#at"/><use transform="matrix(0.05,0,0,0.05,32.95,0)" xlink:href="#an"/><use transform="matrix(0.05,0,0,0.05,42.95,0)" xlink:href="#ar"/><use transform="matrix(0.05,0,0,0.05,47.95,0)" xlink:href="#al"/><use transform="matrix(0.05,0,0,0.05,58.900000000000006,0)" xlink:href="#bt"/><use transform="matrix(0.05,0,0,0.05,69.85000000000001,0)" xlink:href="#an"/><use transform="matrix(0.05,0,0,0.05,79.85000000000001,0)" xlink:href="#ak"/></g><path d="M275 0h-61l-44-196L126 0H64L0-248h53L97-49l45-199h58l43 199 44-199h52" id="bL"/><g id="Y"><use transform="matrix(0.05,0,0,0.05,0,0)" xlink:href="#bL"/><use transform="matrix(0.05,0,0,0.05,16.599999999999998,0)" xlink:href="#al"/><use transform="matrix(0.05,0,0,0.05,27.549999999999997,0)" xlink:href="#ak"/><use transform="matrix(0.05,0,0,0.05,34.55,0)" xlink:href="#bI"/><use transform="matrix(0.05,0,0,0.05,44.55,0)" xlink:href="#ao"/><use transform="matrix(0.05,0,0,0.05,54.54999999999999,0)" xlink:href="#bu"/><use transform="matrix(0.05,0,0,0.05,60.5,0)" xlink:href="#bb"/><use transform="matrix(0.05,0,0,0.05,70.5,0)" xlink:href="#bu"/><use transform="matrix(0.05,0,0,0.05,76.45,0)" xlink:href="#ba"/><use transform="matrix(0.05,0,0,0.05,81.45,0)" xlink:href="#al"/><use transform="matrix(0.05,0,0,0.05,92.4,0)" xlink:href="#aX"/></g><path d="M24 0v-248h52v208h133V0H24" id="bM"/><path d="M220-157c-53 9-28 100-34 157h-49v-107c1-27-5-49-29-50C55-147 81-57 75 0H25l-1-190h47c2 12-1 28 3 38 10-53 101-56 108 0 13-22 24-43 59-42 82 1 51 116 57 194h-49v-107c-1-25-5-48-29-50" id="bN"/><g id="Z"><use transform="matrix(0.05,0,0,0.05,0,0)" xlink:href="#bM"/><use transform="matrix(0.05,0,0,0.05,10.950000000000001,0)" xlink:href="#bb"/><use transform="matrix(0.05,0,0,0.05,20.950000000000003,0)" xlink:href="#bN"/><use transform="matrix(0.05,0,0,0.05,36.95,0)" xlink:href="#bt"/></g><path d="M199 0l-22-63H83L61 0H9l90-248h61L250 0h-51zm-33-102l-36-108c-10 38-24 72-36 108h72" id="bO"/><path d="M190-63c-7 42-38 67-86 67-59 0-84-38-90-98-12-110 154-137 174-36l-49 2c-2-19-15-32-35-32-30 0-35 28-38 64-6 74 65 87 74 30" id="bP"/><path d="M114-157C55-157 80-60 75 0H25v-261h50l-1 109c12-26 28-41 61-42 86-1 58 113 63 194h-50c-7-57 23-157-34-157" id="bQ"/><g id="aa"><use transform="matrix(0.05,0,0,0.05,0,0)" xlink:href="#bO"/><use transform="matrix(0.05,0,0,0.05,12.950000000000001,0)" xlink:href="#ak"/><use transform="matrix(0.05,0,0,0.05,19.950000000000003,0)" xlink:href="#bN"/><use transform="matrix(0.05,0,0,0.05,35.95,0)" xlink:href="#bP"/><use transform="matrix(0.05,0,0,0.05,45.95,0)" xlink:href="#bQ"/><use transform="matrix(0.05,0,0,0.05,56.900000000000006,0)" xlink:href="#bb"/><use transform="matrix(0.05,0,0,0.05,66.9,0)" xlink:href="#ba"/><use transform="matrix(0.05,0,0,0.05,71.9,0)" xlink:href="#ak"/></g><g id="ab"><use transform="matrix(0.05,0,0,0.05,0,0)" xlink:href="#bd"/><use transform="matrix(0.05,0,0,0.05,12.950000000000001,0)" xlink:href="#al"/><use transform="matrix(0.05,0,0,0.05,23.900000000000002,0)" xlink:href="#bN"/><use transform="matrix(0.05,0,0,0.05,39.900000000000006,0)" xlink:href="#bt"/><use transform="matrix(0.05,0,0,0.05,50.85000000000001,0)" xlink:href="#ap"/><use transform="matrix(0.05,0,0,0.05,61.80000000000001,0)" xlink:href="#bu"/><use transform="matrix(0.05,0,0,0.05,67.75000000000001,0)" xlink:href="#an"/><use transform="matrix(0.05,0,0,0.05,77.75000000000001,0)" xlink:href="#ak"/></g><g id="ac"><use transform="matrix(0.05,0,0,0.05,0,0)" xlink:href="#aJ"/><use transform="matrix(0.05,0,0,0.05,12,0)" xlink:href="#bs"/><use transform="matrix(0.05,0,0,0.05,22,0)" xlink:href="#bs"/><use transform="matrix(0.05,0,0,0.05,32,0)" xlink:href="#bl"/><use transform="matrix(0.05,0,0,0.05,37.95,0)" xlink:href="#bk"/><use transform="matrix(0.05,0,0,0.05,47.95,0)" xlink:href="#bs"/><use transform="matrix(0.05,0,0,0.05,57.95,0)" xlink:href="#aO"/><use transform="matrix(0.05,0,0,0.05,67.95,0)" xlink:href="#aP"/><use transform="matrix(0.05,0,0,0.05,72.95,0)" xlink:href="#aN"/><use transform="matrix(0.05,0,0,0.05,76.9,0)" xlink:href="#aL"/><use transform="matrix(0.05,0,0,0.05,86.9,0)" xlink:href="#aQ"/></g><path d="M186 0v-106H76V0H24v-248h52v99h110v-99h50V0h-50" id="bR"/><g id="ad"><use transform="matrix(0.05,0,0,0.05,0,0)" xlink:href="#bR"/><use transform="matrix(0.05,0,0,0.05,12.950000000000001,0)" xlink:href="#ap"/><use transform="matrix(0.05,0,0,0.05,23.900000000000002,0)" xlink:href="#bN"/><use transform="matrix(0.05,0,0,0.05,39.900000000000006,0)" xlink:href="#bb"/><use transform="matrix(0.05,0,0,0.05,49.900000000000006,0)" xlink:href="#aX"/></g><path d="M123 10C108 53 80 86 19 72V37c35 8 53-11 59-39L3-190h52l48 148c12-52 28-100 44-148h51" id="bS"/><g id="ae"><use transform="matrix(0.05,0,0,0.05,0,0)" xlink:href="#bH"/><use transform="matrix(0.05,0,0,0.05,12.950000000000001,0)" xlink:href="#al"/><use transform="matrix(0.05,0,0,0.05,23.900000000000002,0)" xlink:href="#aY"/><use transform="matrix(0.05,0,0,0.05,34.85,0)" xlink:href="#bS"/></g><g id="af"><use transform="matrix(0.05,0,0,0.05,0,0)" xlink:href="#bM"/><use transform="matrix(0.05,0,0,0.05,10.950000000000001,0)" xlink:href="#ba"/><use transform="matrix(0.05,0,0,0.05,15.950000000000001,0)" xlink:href="#at"/><use transform="matrix(0.05,0,0,0.05,25.950000000000003,0)" xlink:href="#an"/><use transform="matrix(0.05,0,0,0.05,35.95,0)" xlink:href="#ak"/></g><g id="ag"><use transform="matrix(0.05,0,0,0.05,0,0)" xlink:href="#bD"/><use transform="matrix(0.05,0,0,0.05,12,0)" xlink:href="#bS"/><use transform="matrix(0.05,0,0,0.05,22,0)" xlink:href="#an"/></g><g id="ah"><use transform="matrix(0.05,0,0,0.05,0,0)" xlink:href="#bO"/><use transform="matrix(0.05,0,0,0.05,12.950000000000001,0)" xlink:href="#ak"/><use transform="matrix(0.05,0,0,0.05,19.950000000000003,0)" xlink:href="#bN"/></g><path d="M212-179c-10-28-35-45-73-45-59 0-87 40-87 99 0 60 29 101 89 101 43 0 62-24 78-52l27 14C228-24 195 4 139 4 59 4 22-46 18-125c-6-104 99-153 187-111 19 9 31 26 39 46" id="bT"/><g id="ai"><use transform="matrix(0.05,0,0,0.05,0,0)" xlink:href="#bT"/><use transform="matrix(0.05,0,0,0.05,12.950000000000001,0)" xlink:href="#aL"/><use transform="matrix(0.05,0,0,0.05,22.950000000000003,0)" xlink:href="#bp"/><use transform="matrix(0.05,0,0,0.05,37.900000000000006,0)" xlink:href="#bx"/><use transform="matrix(0.05,0,0,0.05,47.900000000000006,0)" xlink:href="#aL"/><use transform="matrix(0.05,0,0,0.05,57.900000000000006,0)" xlink:href="#aK"/><use transform="matrix(0.05,0,0,0.05,66.9,0)" xlink:href="#aN"/><use transform="matrix(0.05,0,0,0.05,70.85000000000001,0)" xlink:href="#aP"/><use transform="matrix(0.05,0,0,0.05,75.85000000000001,0)" xlink:href="#aN"/><use transform="matrix(0.05,0,0,0.05,79.80000000000001,0)" xlink:href="#aL"/><use transform="matrix(0.05,0,0,0.05,89.80000000000001,0)" xlink:href="#aQ"/></g></defs></g></svg>