<svg xmlns="http://www.w3.org/2000/svg" xmlns:xlink="http://www.w3.org/1999/xlink" xmlns:lucid="lucid" width="1421" height="660"><g transform="translate(-1620 -851)" lucid:page-tab-id="0_0"><path d="M-500-1000h3500v2500H-500z" fill="#fff"/><path d="M2180 949a6 6 0 0 1 6-6h348a6 6 0 0 1 6 6v144a6 6 0 0 1-6 6h-348a6 6 0 0 1-6-6z" stroke="#3a414a" stroke-width="2" fill="#fff"/><path d="M2180 980.6h360m-360 59.1h360" stroke="#3a414a" stroke-width="2" fill="none"/><use xlink:href="#a" transform="matrix(1,0,0,1,2188,951) translate(116.64999999999999 14.6)"/><use xlink:href="#b" transform="matrix(1,0,0,1,2188,951) translate(182.5 14.6)"/><path d="M1660 1329a6 6 0 0 1 6-6h348a6 6 0 0 1 6 6v144a6 6 0 0 1-6 6h-348a6 6 0 0 1-6-6z" stroke="#3a414a" stroke-width="2" fill="#fff"/><path d="M1660 1360.6h360m-360 59.1h360" stroke="#3a414a" stroke-width="2" fill="none"/><use xlink:href="#c" transform="matrix(1,0,0,1,1668,1331) translate(150.525 14.6)"/><path d="M2180 1329a6 6 0 0 1 6-6h348a6 6 0 0 1 6 6v144a6 6 0 0 1-6 6h-348a6 6 0 0 1-6-6z" stroke="#3a414a" stroke-width="2" fill="#fff"/><path d="M2180 1360.6h360m-360 59.1h360" stroke="#3a414a" stroke-width="2" fill="none"/><use xlink:href="#d" transform="matrix(1,0,0,1,2188,1331) translate(156 14.6)"/><path d="M2640 1329a6 6 0 0 1 6-6h348a6 6 0 0 1 6 6v144a6 6 0 0 1-6 6h-348a6 6 0 0 1-6-6z" stroke="#3a414a" stroke-width="2" fill="#fff"/><path d="M2640 1360.6h360m-360 59.1h360" stroke="#3a414a" stroke-width="2" fill="none"/><use xlink:href="#e" transform="matrix(1,0,0,1,2648,1331) translate(154.025 14.6)"/><path d="M1840 1321v-104a6 6 0 0 1 6-6h401.33a6 6 0 0 0 6-6v-74.25" stroke="#5e5e5e" stroke-width="2" fill="none"/><path d="M1840.97 1322h-1.94v-1.03h1.94z" stroke="#5e5e5e" stroke-width=".05" fill="#5e5e5e"/><path d="M2253.33 1101.4l-14.85 14.86 14.85 14.85 14.85-14.84z" stroke="#5e5e5e" stroke-width="2" fill="#5e5e5e"/><path d="M2360 1321v-190.25" stroke="#5e5e5e" stroke-width="2" fill="none"/><path d="M2360.97 1322h-1.94v-1.03h1.94z" stroke="#5e5e5e" stroke-width=".05" fill="#5e5e5e"/><path d="M2360 1101.4l-14.85 14.86 14.85 14.85 14.85-14.84z" stroke="#5e5e5e" stroke-width="2" fill="#5e5e5e"/><path d="M2820 1321v-104a6 6 0 0 0-6-6h-340a6 6 0 0 1-6-6v-74.25" stroke="#5e5e5e" stroke-width="2" fill="none"/><path d="M2820.97 1322h-1.94v-1.03h1.94z" stroke="#5e5e5e" stroke-width=".05" fill="#5e5e5e"/><path d="M2468 1101.4l-14.85 14.86 14.85 14.85 14.85-14.84z" stroke="#5e5e5e" stroke-width="2" fill="#5e5e5e"/><path d="M2280 866a6 6 0 0 1 6-6h148a6 6 0 0 1 6 6v28a6 6 0 0 1-6 6h-148a6 6 0 0 1-6-6z" fill="#fff"/><use xlink:href="#f" transform="matrix(1,0,0,1,2280,860) translate(30.10499999999999 24.4)"/><defs><path d="M186 0v-106H76V0H24v-248h52v99h110v-99h50V0h-50" id="g"/><path d="M85 4C-2 5 27-109 22-190h50c7 57-23 150 33 157 60-5 35-97 40-157h50l1 190h-47c-2-12 1-28-3-38-12 25-28 42-61 42" id="h"/><path d="M220-157c-53 9-28 100-34 157h-49v-107c1-27-5-49-29-50C55-147 81-57 75 0H25l-1-190h47c2 12-1 28 3 38 10-53 101-56 108 0 13-22 24-43 59-42 82 1 51 116 57 194h-49v-107c-1-25-5-48-29-50" id="i"/><path d="M133-34C117-15 103 5 69 4 32 3 11-16 11-54c-1-60 55-63 116-61 1-26-3-47-28-47-18 1-26 9-28 27l-52-2c7-38 36-58 82-57s74 22 75 68l1 82c-1 14 12 18 25 15v27c-30 8-71 5-69-32zm-48 3c29 0 43-24 42-57-32 0-66-3-65 30 0 17 8 27 23 27" id="j"/><path d="M135-194c87-1 58 113 63 194h-50c-7-57 23-157-34-157-59 0-34 97-39 157H25l-1-190h47c2 12-1 28 3 38 12-26 28-41 61-42" id="k"/><g id="a"><use transform="matrix(0.05,0,0,0.05,0,0)" xlink:href="#g"/><use transform="matrix(0.05,0,0,0.05,12.950000000000001,0)" xlink:href="#h"/><use transform="matrix(0.05,0,0,0.05,23.900000000000002,0)" xlink:href="#i"/><use transform="matrix(0.05,0,0,0.05,39.900000000000006,0)" xlink:href="#j"/><use transform="matrix(0.05,0,0,0.05,49.900000000000006,0)" xlink:href="#k"/></g><path d="M182-130c37 4 62 22 62 59C244 23 116-4 24 0v-248c84 5 203-23 205 63 0 31-19 50-47 55zM76-148c40-3 101 13 101-30 0-44-60-28-101-31v61zm0 110c48-3 116 14 116-37 0-48-69-32-116-35v72" id="l"/><path d="M110-194c64 0 96 36 96 99 0 64-35 99-97 99-61 0-95-36-95-99 0-62 34-99 96-99zm-1 164c35 0 45-28 45-65 0-40-10-65-43-65-34 0-45 26-45 65 0 36 10 65 43 65" id="m"/><path d="M88-194c31-1 46 15 58 34l-1-101h50l1 261h-48c-2-10 0-23-3-31C134-8 116 4 84 4 32 4 16-41 15-95c0-56 19-97 73-99zm17 164c33 0 40-30 41-66 1-37-9-64-41-64s-38 30-39 65c0 43 13 65 39 65" id="n"/><path d="M123 10C108 53 80 86 19 72V37c35 8 53-11 59-39L3-190h52l48 148c12-52 28-100 44-148h51" id="o"/><g id="b"><use transform="matrix(0.05,0,0,0.05,0,0)" xlink:href="#l"/><use transform="matrix(0.05,0,0,0.05,12.950000000000001,0)" xlink:href="#m"/><use transform="matrix(0.05,0,0,0.05,23.900000000000002,0)" xlink:href="#n"/><use transform="matrix(0.05,0,0,0.05,34.85,0)" xlink:href="#o"/></g><path d="M24 0v-248h52v208h133V0H24" id="p"/><path d="M25-224v-37h50v37H25zM25 0v-190h50V0H25" id="q"/><path d="M128 0H69L1-190h53L99-40l48-150h52" id="r"/><path d="M185-48c-13 30-37 53-82 52C43 2 14-33 14-96s30-98 90-98c62 0 83 45 84 108H66c0 31 8 55 39 56 18 0 30-7 34-22zm-45-69c5-46-57-63-70-21-2 6-4 13-4 21h74" id="s"/><path d="M135-150c-39-12-60 13-60 57V0H25l-1-190h47c2 13-1 29 3 40 6-28 27-53 61-41v41" id="t"/><g id="c"><use transform="matrix(0.05,0,0,0.05,0,0)" xlink:href="#p"/><use transform="matrix(0.05,0,0,0.05,10.950000000000001,0)" xlink:href="#q"/><use transform="matrix(0.05,0,0,0.05,15.950000000000001,0)" xlink:href="#r"/><use transform="matrix(0.05,0,0,0.05,25.950000000000003,0)" xlink:href="#s"/><use transform="matrix(0.05,0,0,0.05,35.95,0)" xlink:href="#t"/></g><path d="M24 0v-248h195v40H76v63h132v40H76v65h150V0H24" id="u"/><g id="d"><use transform="matrix(0.05,0,0,0.05,0,0)" xlink:href="#u"/><use transform="matrix(0.05,0,0,0.05,12,0)" xlink:href="#o"/><use transform="matrix(0.05,0,0,0.05,22,0)" xlink:href="#s"/></g><path d="M199 0l-22-63H83L61 0H9l90-248h61L250 0h-51zm-33-102l-36-108c-10 38-24 72-36 108h72" id="v"/><g id="e"><use transform="matrix(0.05,0,0,0.05,0,0)" xlink:href="#v"/><use transform="matrix(0.05,0,0,0.05,12.950000000000001,0)" xlink:href="#t"/><use transform="matrix(0.05,0,0,0.05,19.950000000000003,0)" xlink:href="#i"/></g><path d="M212-179c-10-28-35-45-73-45-59 0-87 40-87 99 0 60 29 101 89 101 43 0 62-24 78-52l27 14C228-24 195 4 139 4 59 4 22-46 18-125c-6-104 99-153 187-111 19 9 31 26 39 46" id="w"/><path d="M100-194c62-1 85 37 85 99 1 63-27 99-86 99S16-35 15-95c0-66 28-99 85-99zM99-20c44 1 53-31 53-75 0-43-8-75-51-75s-53 32-53 75 10 74 51 75" id="x"/><path d="M210-169c-67 3-38 105-44 169h-31v-121c0-29-5-50-35-48C34-165 62-65 56 0H25l-1-190h30c1 10-1 24 2 32 10-44 99-50 107 0 11-21 27-35 58-36 85-2 47 119 55 194h-31v-121c0-29-5-49-35-48" id="y"/><path d="M115-194c55 1 70 41 70 98S169 2 115 4C84 4 66-9 55-30l1 105H24l-1-265h31l2 30c10-21 28-34 59-34zm-8 174c40 0 45-34 45-75s-6-73-45-74c-42 0-51 32-51 76 0 43 10 73 51 73" id="z"/><path d="M135-143c-3-34-86-38-87 0 15 53 115 12 119 90S17 21 10-45l28-5c4 36 97 45 98 0-10-56-113-15-118-90-4-57 82-63 122-42 12 7 21 19 24 35" id="A"/><path d="M24-231v-30h32v30H24zM24 0v-190h32V0H24" id="B"/><path d="M59-47c-2 24 18 29 38 22v24C64 9 27 4 27-40v-127H5v-23h24l9-43h21v43h35v23H59v120" id="C"/><path d="M117-194c89-4 53 116 60 194h-32v-121c0-31-8-49-39-48C34-167 62-67 57 0H25l-1-190h30c1 10-1 24 2 32 11-22 29-35 61-36" id="D"/><g id="f"><use transform="matrix(0.05,0,0,0.05,0,0)" xlink:href="#w"/><use transform="matrix(0.05,0,0,0.05,12.950000000000001,0)" xlink:href="#x"/><use transform="matrix(0.05,0,0,0.05,22.950000000000003,0)" xlink:href="#y"/><use transform="matrix(0.05,0,0,0.05,37.900000000000006,0)" xlink:href="#z"/><use transform="matrix(0.05,0,0,0.05,47.900000000000006,0)" xlink:href="#x"/><use transform="matrix(0.05,0,0,0.05,57.900000000000006,0)" xlink:href="#A"/><use transform="matrix(0.05,0,0,0.05,66.9,0)" xlink:href="#B"/><use transform="matrix(0.05,0,0,0.05,70.85000000000001,0)" xlink:href="#C"/><use transform="matrix(0.05,0,0,0.05,75.85000000000001,0)" xlink:href="#B"/><use transform="matrix(0.05,0,0,0.05,79.80000000000001,0)" xlink:href="#x"/><use transform="matrix(0.05,0,0,0.05,89.80000000000001,0)" xlink:href="#D"/></g></defs></g></svg>