<svg xmlns="http://www.w3.org/2000/svg" xmlns:xlink="http://www.w3.org/1999/xlink" xmlns:lucid="lucid" width="2113" height="910"><g transform="translate(1308 -2452)" lucid:page-tab-id="0_0"><path d="M-1500 2000h6500v3500h-6500z" fill="#fff"/><path d="M-1051 2557.9c41.87 0 75.8 33.93 75.8 75.78 0 41.86-33.93 75.8-75.8 75.8h-53.2c-41.87 0-75.8-33.94-75.8-75.8 0-41.85 33.93-75.78 75.8-75.78z" stroke="#3a414a" stroke-width="4" fill="#fff"/><use xlink:href="#a" transform="matrix(1,0,0,1,-1168,2569.8947368421054) translate(66.525 66.4)"/><path d="M-821.6 2526a6 6 0 0 1 6-6h192.8a6 6 0 0 1 6 6v215.37a6 6 0 0 1-6 6h-192.8a6 6 0 0 1-6-6z" stroke="#3a414a" stroke-width="4" fill="#fff"/><use xlink:href="#b" transform="matrix(1,0,0,1,-809.6,2532) translate(33.575 103.65)"/><use xlink:href="#c" transform="matrix(1,0,0,1,-809.6,2532) translate(95.42500000000001 103.65)"/><path d="M-313.62 2524.46a5.4 5.4 0 0 1 8.04 0l94.36 104.77a6.66 6.66 0 0 1 0 8.9l-94.36 104.78a5.4 5.4 0 0 1-8.04 0l-94.36-104.76a6.66 6.66 0 0 1 0-8.9z" stroke="#3a414a" stroke-width="4" fill="#fff"/><use xlink:href="#d" transform="matrix(1,0,0,1,-400,2532) translate(22.64999999999999 103.65)"/><use xlink:href="#e" transform="matrix(1,0,0,1,-400,2532) translate(60.599999999999994 103.65)"/><use xlink:href="#f" transform="matrix(1,0,0,1,-400,2532) translate(75.6 103.65)"/><use xlink:href="#g" transform="matrix(1,0,0,1,-400,2532) translate(120.45 103.65)"/><use xlink:href="#h" transform="matrix(1,0,0,1,-400,2532) translate(145.45 103.65)"/><path d="M-412 3018.63a6 6 0 0 1 6-6h192.8a6 6 0 0 1 6 6V3234a6 6 0 0 1-6 6H-406a6 6 0 0 1-6-6z" stroke="#3a414a" stroke-width="4" fill="#fff"/><use xlink:href="#i" transform="matrix(1,0,0,1,-400,3024.6315789473683) translate(60 103.65)"/><path d="M-796 3018.63a6 6 0 0 1 6-6h33.92c62.78 0 113.68 50.9 113.68 113.7 0 62.77-50.9 113.67-113.68 113.67H-790a6 6 0 0 1-6-6z" stroke="#3a414a" stroke-width="4" fill="#fff"/><use xlink:href="#j" transform="matrix(1,0,0,1,-784,3024.6315789473683) translate(6.574999999999996 103.65)"/><use xlink:href="#k" transform="matrix(1,0,0,1,-784,3024.6315789473683) translate(79.525 103.65)"/><use xlink:href="#l" transform="matrix(1,0,0,1,-784,3024.6315789473683) translate(94.525 103.65)"/><path d="M48.8 2526a6 6 0 0 1 6-6h192.8a6 6 0 0 1 6 6v215.37a6 6 0 0 1-6 6H54.8a6 6 0 0 1-6-6z" stroke="#3a414a" stroke-width="4" fill="#fff"/><use xlink:href="#m" transform="matrix(1,0,0,1,60.80000000000004,2532) translate(44.599999999999994 103.65)"/><use xlink:href="#g" transform="matrix(1,0,0,1,60.80000000000004,2532) translate(92.45 103.65)"/><use xlink:href="#n" transform="matrix(1,0,0,1,60.80000000000004,2532) translate(117.45 103.65)"/><path d="M664.2 2557.9c41.87 0 75.8 33.93 75.8 75.78 0 41.86-33.93 75.8-75.8 75.8H611c-41.87 0-75.8-33.94-75.8-75.8 0-41.85 33.93-75.78 75.8-75.78z" stroke="#3a414a" stroke-width="4" fill="#fff"/><use xlink:href="#o" transform="matrix(1,0,0,1,547.1999999999999,2569.8947368421054) translate(78.05 66.4)"/><path d="M-971.2 2633.68h128.6" stroke="#5e5e5e" stroke-width="4" fill="none"/><path d="M-971.15 2635.66h-2.1l.05-1.97-.05-2h2.1z" stroke="#5e5e5e" stroke-width=".05" fill="#5e5e5e"/><path d="M-827.6 2633.68l-13 7.5v-15z" stroke="#5e5e5e" stroke-width="4" fill="#5e5e5e"/><path d="M-612.8 2633.68h182.1" stroke="#5e5e5e" stroke-width="4" fill="none"/><path d="M-612.75 2635.66h-2.05v-3.95h2.05z" stroke="#5e5e5e" stroke-width=".05" fill="#5e5e5e"/><path d="M-415.7 2633.68l-13 7.5v-15z" stroke="#5e5e5e" stroke-width="4" fill="#5e5e5e"/><path d="M-95.14 2635.66H-205.5v-3.95h110.36zm122.95 0h-93.36v-3.95H27.8z" stroke="#5e5e5e" stroke-width=".05" fill="#5e5e5e"/><path d="M-205.45 2635.66h-2.3l.16-.7.1-1.28-.1-1.26-.15-.7h2.3z" fill="#5e5e5e"/><path stroke="#5e5e5e" stroke-width=".05" fill="#5e5e5e"/><path d="M42.8 2633.68l-13 7.5v-15z" fill="#5e5e5e"/><path d="M46.75 2633.68l-18.91 10.93v-21.84zm-14.96 4.08l7.05-4.08-7.07-4.07z" stroke="#5e5e5e" stroke-width=".05" fill="#5e5e5e"/><use xlink:href="#p" transform="matrix(1,0,0,1,-95.13932935899416,2623.0175438596493) translate(0.005000000000000782 14.222222222222223)"/><path d="M-307.63 2991.64h-3.94v-102.3h3.94zm0-123.64h-3.94v-119.3h3.94z" stroke="#5e5e5e" stroke-width=".05" fill="#5e5e5e"/><path d="M-310.84 2746.6l1.24.1 1.24-.1.74-.2v2.36h-3.95v-2.35z" fill="#5e5e5e"/><path stroke="#5e5e5e" stroke-width=".05" fill="#5e5e5e"/><path d="M-309.6 3006.63l-7.5-13h15z" fill="#5e5e5e"/><path d="M-309.6 3010.58l-10.92-18.9h21.84zm-4.08-14.96l4.08 7.06 4.08-7.06z" stroke="#5e5e5e" stroke-width=".05" fill="#5e5e5e"/><use xlink:href="#q" transform="matrix(1,0,0,1,-326.8098765432099,2868.0015075553633) translate(0.004999999999999005 14.222222222222223)"/><path d="M-416 3126.32h-205.4" stroke="#5e5e5e" stroke-width="4" fill="none"/><path d="M-414 3128.3h-2.05v-3.96h2.05z" stroke="#5e5e5e" stroke-width=".05" fill="#5e5e5e"/><path d="M-636.4 3126.32l13-7.5v15z" stroke="#5e5e5e" stroke-width="4" fill="#5e5e5e"/><path d="M-719.2 3014.66v-246.3" stroke="#5e5e5e" stroke-width="4" fill="none"/><path d="M-717.23 3014.6v2.74l-3.76-1.3-.17-.04v-1.4z" stroke="#5e5e5e" stroke-width=".05" fill="#5e5e5e"/><path d="M-719.2 2753.37l7.5 13h-15z" stroke="#5e5e5e" stroke-width="4" fill="#5e5e5e"/><path d="M257.6 2633.68h256.6" stroke="#5e5e5e" stroke-width="4" fill="none"/><path d="M257.65 2635.66h-2.05v-3.95h2.05z" stroke="#5e5e5e" stroke-width=".05" fill="#5e5e5e"/><path d="M529.2 2633.68l-13 7.5v-15z" stroke="#5e5e5e" stroke-width="4" fill="#5e5e5e"/><defs><path d="M30-248c118-7 216 8 213 122C240-48 200 0 122 0H30v-248zM63-27c89 8 146-16 146-99s-60-101-146-95v194" id="r"/><path d="M100-194c63 0 86 42 84 106H49c0 40 14 67 53 68 26 1 43-12 49-29l28 8c-11 28-37 45-77 45C44 4 14-33 15-96c1-61 26-98 85-98zm52 81c6-60-76-77-97-28-3 7-6 17-6 28h103zm-74-98c8-23 27-35 38-54h36v5l-58 49H78" id="s"/><path d="M115-194c53 0 69 39 70 98 0 66-23 100-70 100C84 3 66-7 56-30L54 0H23l1-261h32v101c10-23 28-34 59-34zm-8 174c40 0 45-34 45-75 0-40-5-75-45-74-42 0-51 32-51 76 0 43 10 73 51 73" id="t"/><path d="M84 4C-5 8 30-112 23-190h32v120c0 31 7 50 39 49 72-2 45-101 50-169h31l1 190h-30c-1-10 1-25-2-33-11 22-28 36-60 37" id="u"/><path d="M59-47c-2 24 18 29 38 22v24C64 9 27 4 27-40v-127H5v-23h24l9-43h21v43h35v23H59v120" id="v"/><g id="a"><use transform="matrix(0.05,0,0,0.05,0,0)" xlink:href="#r"/><use transform="matrix(0.05,0,0,0.05,12.950000000000001,0)" xlink:href="#s"/><use transform="matrix(0.05,0,0,0.05,22.950000000000003,0)" xlink:href="#t"/><use transform="matrix(0.05,0,0,0.05,32.95,0)" xlink:href="#u"/><use transform="matrix(0.05,0,0,0.05,42.95,0)" xlink:href="#v"/></g><path d="M205 0l-28-72H64L36 0H1l101-248h38L239 0h-34zm-38-99l-47-123c-12 45-31 82-46 123h93" id="w"/><path d="M24 0v-261h32V0H24" id="x"/><path d="M141-36C126-15 110 5 73 4 37 3 15-17 15-53c-1-64 63-63 125-63 3-35-9-54-41-54-24 1-41 7-42 31l-33-3c5-37 33-52 76-52 45 0 72 20 72 64v82c-1 20 7 32 28 27v20c-31 9-61-2-59-35zM48-53c0 20 12 33 32 33 41-3 63-29 60-74-43 2-92-5-92 41" id="y"/><path d="M114-163C36-179 61-72 57 0H25l-1-190h30c1 12-1 29 2 39 6-27 23-49 58-41v29" id="z"/><path d="M210-169c-67 3-38 105-44 169h-31v-121c0-29-5-50-35-48C34-165 62-65 56 0H25l-1-190h30c1 10-1 24 2 32 10-44 99-50 107 0 11-21 27-35 58-36 85-2 47 119 55 194h-31v-121c0-29-5-49-35-48" id="A"/><path d="M100-194c63 0 86 42 84 106H49c0 40 14 67 53 68 26 1 43-12 49-29l28 8c-11 28-37 45-77 45C44 4 14-33 15-96c1-61 26-98 85-98zm52 81c6-60-76-77-97-28-3 7-6 17-6 28h103" id="B"/><g id="b"><use transform="matrix(0.05,0,0,0.05,0,0)" xlink:href="#w"/><use transform="matrix(0.05,0,0,0.05,12,0)" xlink:href="#x"/><use transform="matrix(0.05,0,0,0.05,15.949999999999998,0)" xlink:href="#y"/><use transform="matrix(0.05,0,0,0.05,25.950000000000003,0)" xlink:href="#z"/><use transform="matrix(0.05,0,0,0.05,31.899999999999995,0)" xlink:href="#A"/><use transform="matrix(0.05,0,0,0.05,46.85,0)" xlink:href="#B"/></g><path d="M185-189c-5-48-123-54-124 2 14 75 158 14 163 119 3 78-121 87-175 55-17-10-28-26-33-46l33-7c5 56 141 63 141-1 0-78-155-14-162-118-5-82 145-84 179-34 5 7 8 16 11 25" id="C"/><path d="M100-194c62-1 85 37 85 99 1 63-27 99-86 99S16-35 15-95c0-66 28-99 85-99zM99-20c44 1 53-31 53-75 0-43-8-75-51-75s-53 32-53 75 10 74 51 75" id="D"/><path d="M117-194c89-4 53 116 60 194h-32v-121c0-31-8-49-39-48C34-167 62-67 57 0H25l-1-190h30c1 10-1 24 2 32 11-22 29-35 61-36" id="E"/><g id="c"><use transform="matrix(0.05,0,0,0.05,0,0)" xlink:href="#C"/><use transform="matrix(0.05,0,0,0.05,12,0)" xlink:href="#D"/><use transform="matrix(0.05,0,0,0.05,22,0)" xlink:href="#E"/><use transform="matrix(0.05,0,0,0.05,32,0)" xlink:href="#E"/><use transform="matrix(0.05,0,0,0.05,42,0)" xlink:href="#B"/></g><path d="M30-248c87 1 191-15 191 75 0 78-77 80-158 76V0H30v-248zm33 125c57 0 124 11 124-50 0-59-68-47-124-48v98" id="F"/><path d="M100-194c63 0 86 42 84 106H49c0 40 14 67 53 68 26 1 43-12 49-29l28 8c-11 28-37 45-77 45C44 4 14-33 15-96c1-61 26-98 85-98zm52 81c6-60-76-77-97-28-3 7-6 17-6 28h103zm-32-149c12 18 30 30 39 51-31 2-38-20-57-30-20 10-27 32-59 30 9-22 29-33 41-51h36" id="G"/><g id="d"><use transform="matrix(0.05,0,0,0.05,0,0)" xlink:href="#F"/><use transform="matrix(0.05,0,0,0.05,12,0)" xlink:href="#z"/><use transform="matrix(0.05,0,0,0.05,17.95,0)" xlink:href="#G"/><use transform="matrix(0.05,0,0,0.05,27.950000000000003,0)" xlink:href="#v"/></g><path d="M141-36C126-15 110 5 73 4 37 3 15-17 15-53c-1-64 63-63 125-63 3-35-9-54-41-54-24 1-41 7-42 31l-33-3c5-37 33-52 76-52 45 0 72 20 72 64v82c-1 20 7 32 28 27v20c-31 9-61-2-59-35zM48-53c0 20 12 33 32 33 41-3 63-29 60-74-43 2-92-5-92 41zm62-158l-58-49v-5h36c12 19 30 32 38 54h-16" id="H"/><use transform="matrix(0.05,0,0,0.05,0,0)" xlink:href="#H" id="e"/><path d="M135-143c-3-34-86-38-87 0 15 53 115 12 119 90S17 21 10-45l28-5c4 36 97 45 98 0-10-56-113-15-118-90-4-57 82-63 122-42 12 7 21 19 24 35" id="I"/><path d="M24-231v-30h32v30H24zM24 0v-190h32V0H24" id="J"/><g id="f"><use transform="matrix(0.05,0,0,0.05,0,0)" xlink:href="#I"/><use transform="matrix(0.05,0,0,0.05,9,0)" xlink:href="#D"/><use transform="matrix(0.05,0,0,0.05,19,0)" xlink:href="#z"/><use transform="matrix(0.05,0,0,0.05,24.95,0)" xlink:href="#v"/><use transform="matrix(0.05,0,0,0.05,29.950000000000003,0)" xlink:href="#J"/><use transform="matrix(0.05,0,0,0.05,33.9,0)" xlink:href="#z"/></g><path d="M85-194c31 0 48 13 60 33l-1-100h32l1 261h-30c-2-10 0-23-3-31C134-8 116 4 85 4 32 4 16-35 15-94c0-66 23-100 70-100zm9 24c-40 0-46 34-46 75 0 40 6 74 45 74 42 0 51-32 51-76 0-42-9-74-50-73" id="K"/><g id="g"><use transform="matrix(0.05,0,0,0.05,0,0)" xlink:href="#K"/><use transform="matrix(0.05,0,0,0.05,10,0)" xlink:href="#u"/></g><g id="h"><use transform="matrix(0.05,0,0,0.05,0,0)" xlink:href="#x"/><use transform="matrix(0.05,0,0,0.05,3.95,0)" xlink:href="#J"/><use transform="matrix(0.05,0,0,0.05,7.9,0)" xlink:href="#v"/></g><path d="M9 0v-24l116-142H16v-24h144v24L44-24h123V0H9" id="L"/><g id="i"><use transform="matrix(0.05,0,0,0.05,0,0)" xlink:href="#C"/><use transform="matrix(0.05,0,0,0.05,12,0)" xlink:href="#E"/><use transform="matrix(0.05,0,0,0.05,22,0)" xlink:href="#D"/><use transform="matrix(0.05,0,0,0.05,32,0)" xlink:href="#D"/><use transform="matrix(0.05,0,0,0.05,42,0)" xlink:href="#L"/><use transform="matrix(0.05,0,0,0.05,51,0)" xlink:href="#B"/></g><g id="j"><use transform="matrix(0.05,0,0,0.05,0,0)" xlink:href="#w"/><use transform="matrix(0.05,0,0,0.05,12,0)" xlink:href="#v"/><use transform="matrix(0.05,0,0,0.05,17,0)" xlink:href="#v"/><use transform="matrix(0.05,0,0,0.05,22,0)" xlink:href="#B"/><use transform="matrix(0.05,0,0,0.05,32,0)" xlink:href="#E"/><use transform="matrix(0.05,0,0,0.05,42,0)" xlink:href="#K"/><use transform="matrix(0.05,0,0,0.05,52,0)" xlink:href="#z"/><use transform="matrix(0.05,0,0,0.05,57.95,0)" xlink:href="#B"/></g><path d="M99-251c64 0 84 50 84 122C183-37 130 33 47-8c-14-7-20-23-25-40l30-5c6 39 69 39 84 7 9-19 16-44 16-74-10 22-31 35-62 35-49 0-73-33-73-83 0-54 28-83 82-83zm-1 141c31-1 51-18 51-49 0-36-14-67-51-67-34 0-49 23-49 58 0 34 15 58 49 58" id="M"/><use transform="matrix(0.05,0,0,0.05,0,0)" xlink:href="#M" id="k"/><g id="l"><use transform="matrix(0.05,0,0,0.05,0,0)" xlink:href="#A"/><use transform="matrix(0.05,0,0,0.05,14.950000000000001,0)" xlink:href="#J"/><use transform="matrix(0.05,0,0,0.05,18.900000000000002,0)" xlink:href="#E"/></g><g id="m"><use transform="matrix(0.05,0,0,0.05,0,0)" xlink:href="#C"/><use transform="matrix(0.05,0,0,0.05,12,0)" xlink:href="#D"/><use transform="matrix(0.05,0,0,0.05,22,0)" xlink:href="#z"/><use transform="matrix(0.05,0,0,0.05,27.950000000000003,0)" xlink:href="#v"/><use transform="matrix(0.05,0,0,0.05,32.95,0)" xlink:href="#J"/><use transform="matrix(0.05,0,0,0.05,36.900000000000006,0)" xlink:href="#z"/></g><path d="M30 0v-248h33v221h125V0H30" id="N"/><g id="n"><use transform="matrix(0.05,0,0,0.05,0,0)" xlink:href="#N"/><use transform="matrix(0.05,0,0,0.05,10,0)" xlink:href="#J"/><use transform="matrix(0.05,0,0,0.05,13.949999999999998,0)" xlink:href="#v"/></g><path d="M63-220v92h138v28H63V0H30v-248h175v28H63" id="O"/><g id="o"><use transform="matrix(0.05,0,0,0.05,0,0)" xlink:href="#O"/><use transform="matrix(0.05,0,0,0.05,10.950000000000001,0)" xlink:href="#J"/><use transform="matrix(0.05,0,0,0.05,14.9,0)" xlink:href="#E"/></g><path fill="#333" d="M140-251c80 0 125 45 125 126S219 4 139 4C58 4 15-44 15-125s44-126 125-126zm-1 214c52 0 73-35 73-88 0-50-21-86-72-86-52 0-73 35-73 86s22 88 72 88" id="P"/><path fill="#333" d="M85 4C-2 5 27-109 22-190h50c7 57-23 150 33 157 60-5 35-97 40-157h50l1 190h-47c-2-12 1-28-3-38-12 25-28 42-61 42" id="Q"/><path fill="#333" d="M25-224v-37h50v37H25zM25 0v-190h50V0H25" id="R"/><g id="p"><use transform="matrix(0.04938271604938272,0,0,0.04938271604938272,0,0)" xlink:href="#P"/><use transform="matrix(0.04938271604938272,0,0,0.04938271604938272,13.827160493827162,0)" xlink:href="#Q"/><use transform="matrix(0.04938271604938272,0,0,0.04938271604938272,24.641975308641975,0)" xlink:href="#R"/></g><path fill="#333" d="M175 0L67-191c6 58 2 128 3 191H24v-248h59L193-55c-6-58-2-129-3-193h46V0h-61" id="S"/><path fill="#333" d="M110-194c64 0 96 36 96 99 0 64-35 99-97 99-61 0-95-36-95-99 0-62 34-99 96-99zm-1 164c35 0 45-28 45-65 0-40-10-65-43-65-34 0-45 26-45 65 0 36 10 65 43 65" id="T"/><path fill="#333" d="M135-194c87-1 58 113 63 194h-50c-7-57 23-157-34-157-59 0-34 97-39 157H25l-1-190h47c2 12-1 28 3 38 12-26 28-41 61-42" id="U"/><g id="q"><use transform="matrix(0.04938271604938272,0,0,0.04938271604938272,0,0)" xlink:href="#S"/><use transform="matrix(0.04938271604938272,0,0,0.04938271604938272,12.790123456790125,0)" xlink:href="#T"/><use transform="matrix(0.04938271604938272,0,0,0.04938271604938272,23.60493827160494,0)" xlink:href="#U"/></g></defs></g></svg>