<svg xmlns="http://www.w3.org/2000/svg" xmlns:xlink="http://www.w3.org/1999/xlink" xmlns:lucid="lucid" width="3870" height="1872"><g transform="translate(1280 -527)" lucid:page-tab-id="0_0"><path d="M-1500 0h6500v5500h-6500z" fill="#fff"/><path d="M1080 1880v-214a6 6 0 0 1 6-6h57v220zM1080 1880h63v200h-63zM1143 2320h-57a6 6 0 0 1-6-6v-234h63z" stroke="#3a414a" stroke-width="4" fill="#fff"/><path d="M1143 1660h594a6 6 0 0 1 6 6v214h-600zM1143 1880h600v200h-600zM1743 2080v234a6 6 0 0 1-6 6h-594v-240z" stroke="#3a414a" stroke-width="4" fill="none"/><use xlink:href="#a" transform="matrix(-1.8369701987210297e-16,-1,1,-1.8369701987210297e-16,1080,1880) translate(46.888888888888886 39.5)"/><use xlink:href="#a" transform="matrix(-1.8369701987210297e-16,-1,1,-1.8369701987210297e-16,1080,2080) translate(36.888888888888886 39.5)"/><use xlink:href="#a" transform="matrix(-1.8369701987210297e-16,-1,1,-1.8369701987210297e-16,1080.0000000000002,2320) translate(56.888888888888886 39.5)"/><path d="M-1220 486a6 6 0 0 1 6-6H94a6 6 0 0 1 6 6v308a6 6 0 0 1-6 6h-1308a6 6 0 0 1-6-6z" fill="none"/><use xlink:href="#b" transform="matrix(1,0,0,1,-1220,480) translate(4.3333333333332575 144)"/><use xlink:href="#c" transform="matrix(1,0,0,1,-1220,480) translate(199.44444444444437 144)"/><use xlink:href="#d" transform="matrix(1,0,0,1,-1220,480) translate(416.66666666666663 144)"/><use xlink:href="#e" transform="matrix(1,0,0,1,-1220,480) translate(589.8888888888889 144)"/><use xlink:href="#f" transform="matrix(1,0,0,1,-1220,480) translate(645.4444444444445 144)"/><use xlink:href="#g" transform="matrix(1,0,0,1,-1220,480) translate(825.2222222222223 144)"/><use xlink:href="#h" transform="matrix(1,0,0,1,-1220,480) translate(1102.7777777777778 144)"/><use xlink:href="#i" transform="matrix(1,0,0,1,-1220,480) translate(1193.7777777777778 144)"/><use xlink:href="#j" transform="matrix(1,0,0,1,-1220,480) translate(461.22222222222223 192)"/><use xlink:href="#k" transform="matrix(1,0,0,1,-1220,480) translate(516.7777777777778 192)"/><use xlink:href="#l" transform="matrix(1,0,0,1,-1220,480) translate(710 192)"/><path d="M-852.5 800c64.9 0 117.5 52.6 117.5 117.5S-787.6 1035-852.5 1035h-210c-64.9 0-117.5-52.6-117.5-117.5s52.6-117.5 117.5-117.5z" stroke="#3a414a" stroke-width="4" fill="#fff"/><use xlink:href="#m" transform="matrix(1,0,0,1,-1175,805) translate(77.12962962962962 120.01041666666667)"/><path d="M20 757.5h576l64 64v256H20z" stroke="#3a414a" stroke-width="4" fill="#fff"/><path d="M596 759.4v62.1h62.1" stroke="#3a414a" stroke-width="4" fill="#fff"/><use xlink:href="#n" transform="matrix(1,0,0,1,25,762.5) translate(0 162.78125)"/><use xlink:href="#o" transform="matrix(1,0,0,1,25,762.5) translate(142.11111111111111 162.78125)"/><use xlink:href="#p" transform="matrix(1,0,0,1,25,762.5) translate(184.22222222222223 162.78125)"/><use xlink:href="#q" transform="matrix(1,0,0,1,25,762.5) translate(237.44444444444446 162.78125)"/><use xlink:href="#r" transform="matrix(1,0,0,1,25,762.5) translate(322.7777777777778 162.78125)"/><path d="M-731 917.5h20.75m20.75 0h41.5m20.75 0h41.5m20.75 0h41.5m20.75 0h41.5m20.75 0h41.5m20.75 0h41.5m20.75 0h41.5m20.75 0h41.5m20.75 0h41.5m20.75 0h41.5m20.75 0h41.5m20.75 0H16" stroke="#5e5e5e" stroke-width="4" fill="none"/><path d="M-730.95 919.48h-2.1l.05-1.98-.04-1.98h2.1zM18 919.48h-2.05v-3.96H18z" stroke="#5e5e5e" stroke-width=".05" fill="#5e5e5e"/><path d="M-1180 1169.75a6 6 0 0 1 6-6h433a6 6 0 0 1 6 6v340.5a6 6 0 0 1-6 6h-433a6 6 0 0 1-6-6z" stroke="#3a414a" stroke-width="4" fill="#fff"/><use xlink:href="#s" transform="matrix(1,0,0,1,-1175,1168.75) translate(93.12962962962959 182.01041666666669)"/><path d="M20 1180h576l64 64v256H20z" stroke="#3a414a" stroke-width="4" fill="#fff"/><path d="M596 1181.9v62.1h62.1" stroke="#3a414a" stroke-width="4" fill="#fff"/><use xlink:href="#t" transform="matrix(1,0,0,1,25,1185) translate(0 138.5625)"/><use xlink:href="#u" transform="matrix(1,0,0,1,25,1185) translate(84.33333333333334 138.5625)"/><use xlink:href="#j" transform="matrix(1,0,0,1,25,1185) translate(213.11111111111111 138.5625)"/><use xlink:href="#k" transform="matrix(1,0,0,1,25,1185) translate(268.6666666666667 138.5625)"/><use xlink:href="#v" transform="matrix(1,0,0,1,25,1185) translate(461.8888888888889 138.5625)"/><use xlink:href="#w" transform="matrix(1,0,0,1,25,1185) translate(517.4444444444445 138.5625)"/><use xlink:href="#x" transform="matrix(1,0,0,1,25,1185) translate(0 186.5625)"/><use xlink:href="#y" transform="matrix(1,0,0,1,25,1185) translate(151 186.5625)"/><use xlink:href="#z" transform="matrix(1,0,0,1,25,1185) translate(248.77777777777777 186.5625)"/><use xlink:href="#l" transform="matrix(1,0,0,1,25,1185) translate(290.8888888888889 186.5625)"/><path d="M16 1340H-4.75m-20.75 0H-67m-20.75 0h-41.5m-20.75 0h-41.5m-20.75 0h-41.5m-20.75 0H-316m-20.75 0h-41.5m-20.75 0h-41.5m-20.75 0h-41.5m-20.75 0H-565m-20.75 0h-41.5m-20.75 0h-41.5m-20.75 0H-731" stroke="#5e5e5e" stroke-width="4" fill="none"/><path d="M18 1341.97h-2.05v-3.94H18zM-730.95 1341.97H-733v-3.94h2.05z" stroke="#5e5e5e" stroke-width=".05" fill="#5e5e5e"/><path d="M-942.32 1603.57a8.1 8.1 0 0 1 9.64 0l192.86 142.86a4.44 4.44 0 0 1 0 7.14l-192.86 142.86a8.1 8.1 0 0 1-9.64 0l-192.86-142.86a4.44 4.44 0 0 1 0-7.14z" stroke="#3a414a" stroke-width="4" fill="#fff"/><use xlink:href="#A" transform="matrix(1,0,0,1,-1135,1605) translate(95.505 155.94791666666669)"/><path d="M20 1640h576l64 64v256H20z" stroke="#3a414a" stroke-width="4" fill="#fff"/><path d="M596 1641.9v62.1h62.1" stroke="#3a414a" stroke-width="4" fill="#fff"/><use xlink:href="#n" transform="matrix(1,0,0,1,25,1645) translate(0 90.125)"/><use xlink:href="#j" transform="matrix(1,0,0,1,25,1645) translate(142.11111111111111 90.125)"/><use xlink:href="#B" transform="matrix(1,0,0,1,25,1645) translate(197.66666666666669 90.125)"/><use xlink:href="#w" transform="matrix(1,0,0,1,25,1645) translate(313.11111111111114 90.125)"/><use xlink:href="#C" transform="matrix(1,0,0,1,25,1645) translate(0 138.125)"/><use xlink:href="#y" transform="matrix(1,0,0,1,25,1645) translate(197.55555555555557 138.125)"/><use xlink:href="#z" transform="matrix(1,0,0,1,25,1645) translate(295.33333333333337 138.125)"/><use xlink:href="#D" transform="matrix(1,0,0,1,25,1645) translate(337.44444444444446 138.125)"/><use xlink:href="#E" transform="matrix(1,0,0,1,25,1645) translate(421.77777777777777 138.125)"/><use xlink:href="#F" transform="matrix(1,0,0,1,25,1645) translate(0 186.125)"/><use xlink:href="#G" transform="matrix(1,0,0,1,25,1645) translate(148.55555555555554 186.125)"/><use xlink:href="#H" transform="matrix(1,0,0,1,25,1645) translate(226.33333333333331 186.125)"/><use xlink:href="#I" transform="matrix(1,0,0,1,25,1645) translate(332.88888888888886 186.125)"/><use xlink:href="#J" transform="matrix(1,0,0,1,25,1645) translate(408.4444444444444 186.125)"/><use xlink:href="#K" transform="matrix(1,0,0,1,25,1645) translate(0 234.125)"/><use xlink:href="#L" transform="matrix(1,0,0,1,25,1645) translate(88.88888888888889 234.125)"/><use xlink:href="#M" transform="matrix(1,0,0,1,25,1645) translate(168.77777777777777 234.125)"/><path d="M-734 1750h19.22m19.23 0h38.46m19.24 0h38.46m19.24 0h38.46m19.23 0H-484m19.22 0h38.46m19.24 0h38.46m19.23 0h38.47m19.23 0h38.46m19.24 0h38.46m19.23 0h38.45m19.23 0h38.46m19.24 0h38.46m19.23 0H16" stroke="#5e5e5e" stroke-width="4" fill="none"/><path d="M-733.96 1751.97h-2.4l.23-.77.12-1.2-.13-1.2-.22-.77h2.4zM18 1751.97h-2.05v-3.94H18z" stroke="#5e5e5e" stroke-width=".05" fill="#5e5e5e"/><path d="M-1060 2026a6 6 0 0 1 6-6h134c77.32 0 140 62.68 140 140s-62.68 140-140 140h-134a6 6 0 0 1-6-6z" stroke="#3a414a" stroke-width="4" fill="#fff"/><g><use xlink:href="#N" transform="matrix(1,0,0,1,-1055,2025) translate(55.14814814814815 143.91666666666669)"/></g><path d="M20 2040h576l64 64v256H20z" stroke="#3a414a" stroke-width="4" fill="#fff"/><path d="M596 2041.9v62.1h62.1" stroke="#3a414a" stroke-width="4" fill="#fff"/><g><use xlink:href="#n" transform="matrix(1,0,0,1,25,2045) translate(0 138.5625)"/><use xlink:href="#z" transform="matrix(1,0,0,1,25,2045) translate(142.11111111111111 138.5625)"/><use xlink:href="#O" transform="matrix(1,0,0,1,25,2045) translate(184.22222222222223 138.5625)"/><use xlink:href="#P" transform="matrix(1,0,0,1,25,2045) translate(346.44444444444446 138.5625)"/><use xlink:href="#Q" transform="matrix(1,0,0,1,25,2045) translate(402 138.5625)"/><use xlink:href="#R" transform="matrix(1,0,0,1,25,2045) translate(521.8888888888889 138.5625)"/><use xlink:href="#z" transform="matrix(1,0,0,1,25,2045) translate(0 186.5625)"/><use xlink:href="#r" transform="matrix(1,0,0,1,25,2045) translate(42.111111111111114 186.5625)"/></g><path d="M-776 2160h20.3m20.32 0h40.6m20.32 0h40.6m20.32 0h40.62m20.3 0H-512m20.3 0h40.62m20.3 0h40.63m20.3 0h40.62m20.3 0h40.62m20.3 0h40.62m20.3 0h40.62m20.3 0h40.62m20.3 0h40.63m20.3 0H16" stroke="#5e5e5e" stroke-width="4" fill="none"/><path d="M-775.95 2161.97h-2.1l.05-1.96-.02-1.97h2.07zM18 2161.97h-2.05v-3.94H18z" stroke="#5e5e5e" stroke-width=".05" fill="#5e5e5e"/><path d="M940 763.5a6 6 0 0 1 6-6h488a6 6 0 0 1 6 6V1060c-83.5-50.52-135.5-50.52-167-50.52-50 0-116.5 50.52-166.5 50.52-31 0-83.5 0-166.5-50.52z" stroke="#000" stroke-width="4" fill="#fff"/><g><use xlink:href="#S" transform="matrix(1,0,0,1,945,762.5) translate(154 130.71875)"/></g><path d="M1780 740h556l64 64v256h-620z" stroke="#3a414a" stroke-width="4" fill="#fff"/><path d="M2336 741.9V804h62.1" stroke="#3a414a" stroke-width="4" fill="#fff"/><g><use xlink:href="#n" transform="matrix(1,0,0,1,1785,745) translate(0 114.34375)"/><use xlink:href="#j" transform="matrix(1,0,0,1,1785,745) translate(142.11111111111111 114.34375)"/><use xlink:href="#T" transform="matrix(1,0,0,1,1785,745) translate(197.66666666666669 114.34375)"/><use xlink:href="#U" transform="matrix(1,0,0,1,1785,745) translate(384.2222222222223 114.34375)"/><use xlink:href="#V" transform="matrix(1,0,0,1,1785,745) translate(439.7777777777778 114.34375)"/><use xlink:href="#W" transform="matrix(1,0,0,1,1785,745) translate(564.1111111111112 114.34375)"/><use xlink:href="#U" transform="matrix(1,0,0,1,1785,745) translate(0 162.34375)"/><use xlink:href="#X" transform="matrix(1,0,0,1,1785,745) translate(55.55555555555556 162.34375)"/><use xlink:href="#U" transform="matrix(1,0,0,1,1785,745) translate(164.22222222222223 162.34375)"/><use xlink:href="#x" transform="matrix(1,0,0,1,1785,745) translate(219.77777777777777 162.34375)"/><use xlink:href="#e" transform="matrix(1,0,0,1,1785,745) translate(370.77777777777777 162.34375)"/><use xlink:href="#Y" transform="matrix(1,0,0,1,1785,745) translate(426.3333333333333 162.34375)"/><use xlink:href="#Z" transform="matrix(1,0,0,1,1785,745) translate(0 210.34375)"/><use xlink:href="#y" transform="matrix(1,0,0,1,1785,745) translate(195.33333333333337 210.34375)"/><use xlink:href="#z" transform="matrix(1,0,0,1,1785,745) translate(293.11111111111114 210.34375)"/><use xlink:href="#r" transform="matrix(1,0,0,1,1785,745) translate(335.2222222222223 210.34375)"/></g><path d="M1444 908.9h18.44m18.45 0h36.88m18.44 0h36.9m18.44 0h36.88m18.45 0h36.88m18.44 0h36.9m18.44 0H1776" stroke="#5e5e5e" stroke-width="4" fill="none"/><path d="M1444.05 910.9H1442v-3.96h2.05zM1778 910.9h-2.05v-3.96h2.05z" stroke="#5e5e5e" stroke-width=".05" fill="#5e5e5e"/><path d="M1060 1226a6 6 0 0 1 6-6h228a6 6 0 0 1 6 6v144a13.14 13.14 0 0 1-4.53 9.93l-110.94 96.14a6.92 6.92 0 0 1-9.06 0l-110.94-96.14a13.14 13.14 0 0 1-4.53-9.93z" stroke="#3a414a" stroke-width="4" fill="#fff"/><g><use xlink:href="#aa" transform="matrix(1,0,0,1,1065,1225) translate(32.888888888888886 110.125)"/><use xlink:href="#ab" transform="matrix(1,0,0,1,1065,1225) translate(119.44444444444444 110.125)"/><use xlink:href="#ac" transform="matrix(1,0,0,1,1065,1225) translate(70.56055555555555 158.125)"/></g><path d="M1304 1349.04l612 .96" stroke="#5e5e5e" stroke-width="4" fill="none"/><path d="M1304.05 1347.06v3.95H1302v-3.94zM1918 1348.03v3.94h-2.05v-3.95z" stroke="#5e5e5e" stroke-width=".05" fill="#5e5e5e"/><path d="M1920 1201.88h260.75l59.25 59.24v237h-320z" stroke="#3a414a" stroke-width="4" fill="#fff"/><path d="M2180.75 1203.78v57.35h57.34" stroke="#3a414a" stroke-width="4" fill="#fff"/><g><use xlink:href="#n" transform="matrix(1,0,0,1,1925,1206.875) translate(0 81.328125)"/><use xlink:href="#ad" transform="matrix(1,0,0,1,1925,1206.875) translate(142.11111111111111 81.328125)"/><use xlink:href="#k" transform="matrix(1,0,0,1,1925,1206.875) translate(0 129.328125)"/><use xlink:href="#ae" transform="matrix(1,0,0,1,1925,1206.875) translate(193.22222222222223 129.328125)"/><use xlink:href="#af" transform="matrix(1,0,0,1,1925,1206.875) translate(257.55555555555554 129.328125)"/><use xlink:href="#ag" transform="matrix(1,0,0,1,1925,1206.875) translate(0 177.328125)"/><use xlink:href="#ah" transform="matrix(1,0,0,1,1925,1206.875) translate(153.11111111111111 177.328125)"/><use xlink:href="#w" transform="matrix(1,0,0,1,1925,1206.875) translate(219.66666666666669 177.328125)"/><use xlink:href="#ai" transform="matrix(1,0,0,1,1925,1206.875) translate(0 225.328125)"/><use xlink:href="#aj" transform="matrix(1,0,0,1,1925,1206.875) translate(100 225.328125)"/></g><path d="M2120 1850h328l52 52v208h-380z" stroke="#3a414a" stroke-width="4" fill="#fff"/><path d="M2448 1851.9v50.1h50.1" stroke="#3a414a" stroke-width="4" fill="#fff"/><g><use xlink:href="#ak" transform="matrix(1,0,0,1,2125,1855) translate(0 86.6875)"/><use xlink:href="#al" transform="matrix(1,0,0,1,2125,1855) translate(157.55555555555557 86.6875)"/><use xlink:href="#am" transform="matrix(1,0,0,1,2125,1855) translate(0 134.6875)"/><use xlink:href="#an" transform="matrix(1,0,0,1,2125,1855) translate(173.11111111111111 134.6875)"/><use xlink:href="#ao" transform="matrix(1,0,0,1,2125,1855) translate(0 182.6875)"/><use xlink:href="#ap" transform="matrix(1,0,0,1,2125,1855) translate(155.22222222222223 182.6875)"/></g><path d="M1747 1990h369" stroke="#5e5e5e" stroke-width="4" fill="none"/><path d="M1747.05 1991.97H1745v-3.94h2.05zM2118 1991.97h-2.05v-3.94h2.05z" stroke="#5e5e5e" stroke-width=".05" fill="#5e5e5e"/><defs><path d="M212-179c-10-28-35-45-73-45-59 0-87 40-87 99 0 60 29 101 89 101 43 0 62-24 78-52l27 14C228-24 195 4 139 4 59 4 22-46 18-125c-6-104 99-153 187-111 19 9 31 26 39 46" id="aq"/><path d="M100-194c62-1 85 37 85 99 1 63-27 99-86 99S16-35 15-95c0-66 28-99 85-99zM99-20c44 1 53-31 53-75 0-43-8-75-51-75s-53 32-53 75 10 74 51 75" id="ar"/><path d="M84 4C-5 8 30-112 23-190h32v120c0 31 7 50 39 49 72-2 45-101 50-169h31l1 190h-30c-1-10 1-25-2-33-11 22-28 36-60 37" id="as"/><path d="M24 0v-261h32V0H24" id="at"/><path d="M24-231v-30h32v30H24zM24 0v-190h32V0H24" id="au"/><path d="M114-163C36-179 61-72 57 0H25l-1-190h30c1 12-1 29 2 39 6-27 23-49 58-41v29" id="av"/><g id="a"><use transform="matrix(0.1111111111111111,0,0,0.1111111111111111,0,0)" xlink:href="#aq"/><use transform="matrix(0.1111111111111111,0,0,0.1111111111111111,28.777777777777775,0)" xlink:href="#ar"/><use transform="matrix(0.1111111111111111,0,0,0.1111111111111111,51,0)" xlink:href="#as"/><use transform="matrix(0.1111111111111111,0,0,0.1111111111111111,73.22222222222223,0)" xlink:href="#at"/><use transform="matrix(0.1111111111111111,0,0,0.1111111111111111,82,0)" xlink:href="#ar"/><use transform="matrix(0.1111111111111111,0,0,0.1111111111111111,104.22222222222223,0)" xlink:href="#au"/><use transform="matrix(0.1111111111111111,0,0,0.1111111111111111,113,0)" xlink:href="#av"/></g><path d="M63-220v92h138v28H63V0H30v-248h175v28H63" id="aw"/><path d="M206 0h-36l-40-164L89 0H53L-1-190h32L70-26l43-164h34l41 164 42-164h31" id="ax"/><path d="M96-169c-40 0-48 33-48 73s9 75 48 75c24 0 41-14 43-38l32 2c-6 37-31 61-74 61-59 0-76-41-82-99-10-93 101-131 147-64 4 7 5 14 7 22l-32 3c-4-21-16-35-41-35" id="ay"/><path d="M106-169C34-169 62-67 57 0H25v-261h32l-1 103c12-21 28-36 61-36 89 0 53 116 60 194h-32v-121c2-32-8-49-39-48" id="az"/><path d="M141-36C126-15 110 5 73 4 37 3 15-17 15-53c-1-64 63-63 125-63 3-35-9-54-41-54-24 1-41 7-42 31l-33-3c5-37 33-52 76-52 45 0 72 20 72 64v82c-1 20 7 32 28 27v20c-31 9-61-2-59-35zM48-53c0 20 12 33 32 33 41-3 63-29 60-74-43 2-92-5-92 41" id="aA"/><path d="M59-47c-2 24 18 29 38 22v24C64 9 27 4 27-40v-127H5v-23h24l9-43h21v43h35v23H59v120" id="aB"/><path d="M33-154v-36h34v36H33zM33 0v-36h34V0H33" id="aC"/><g id="b"><use transform="matrix(0.1111111111111111,0,0,0.1111111111111111,0,0)" xlink:href="#aw"/><use transform="matrix(0.1111111111111111,0,0,0.1111111111111111,24.333333333333332,0)" xlink:href="#at"/><use transform="matrix(0.1111111111111111,0,0,0.1111111111111111,33.11111111111111,0)" xlink:href="#ar"/><use transform="matrix(0.1111111111111111,0,0,0.1111111111111111,55.33333333333333,0)" xlink:href="#ax"/><use transform="matrix(0.1111111111111111,0,0,0.1111111111111111,84.1111111111111,0)" xlink:href="#ay"/><use transform="matrix(0.1111111111111111,0,0,0.1111111111111111,104.1111111111111,0)" xlink:href="#az"/><use transform="matrix(0.1111111111111111,0,0,0.1111111111111111,126.33333333333333,0)" xlink:href="#aA"/><use transform="matrix(0.1111111111111111,0,0,0.1111111111111111,148.55555555555554,0)" xlink:href="#av"/><use transform="matrix(0.1111111111111111,0,0,0.1111111111111111,161.77777777777777,0)" xlink:href="#aB"/><use transform="matrix(0.1111111111111111,0,0,0.1111111111111111,172.88888888888889,0)" xlink:href="#aC"/></g><path d="M30-248c118-7 216 8 213 122C240-48 200 0 122 0H30v-248zM63-27c89 8 146-16 146-99s-60-101-146-95v194" id="aD"/><path d="M177-190C167-65 218 103 67 71c-23-6-38-20-44-43l32-5c15 47 100 32 89-28v-30C133-14 115 1 83 1 29 1 15-40 15-95c0-56 16-97 71-98 29-1 48 16 59 35 1-10 0-23 2-32h30zM94-22c36 0 50-32 50-73 0-42-14-75-50-75-39 0-46 34-46 75s6 73 46 73" id="aE"/><path d="M210-169c-67 3-38 105-44 169h-31v-121c0-29-5-50-35-48C34-165 62-65 56 0H25l-1-190h30c1 10-1 24 2 32 10-44 99-50 107 0 11-21 27-35 58-36 85-2 47 119 55 194h-31v-121c0-29-5-49-35-48" id="aF"/><path d="M100-194c63 0 86 42 84 106H49c0 40 14 67 53 68 26 1 43-12 49-29l28 8c-11 28-37 45-77 45C44 4 14-33 15-96c1-61 26-98 85-98zm52 81c6-60-76-77-97-28-3 7-6 17-6 28h103" id="aG"/><g id="c"><use transform="matrix(0.1111111111111111,0,0,0.1111111111111111,0,0)" xlink:href="#aD"/><use transform="matrix(0.1111111111111111,0,0,0.1111111111111111,28.777777777777775,0)" xlink:href="#au"/><use transform="matrix(0.1111111111111111,0,0,0.1111111111111111,37.55555555555555,0)" xlink:href="#aA"/><use transform="matrix(0.1111111111111111,0,0,0.1111111111111111,59.77777777777777,0)" xlink:href="#aE"/><use transform="matrix(0.1111111111111111,0,0,0.1111111111111111,82,0)" xlink:href="#av"/><use transform="matrix(0.1111111111111111,0,0,0.1111111111111111,95.22222222222223,0)" xlink:href="#aA"/><use transform="matrix(0.1111111111111111,0,0,0.1111111111111111,117.44444444444446,0)" xlink:href="#aF"/><use transform="matrix(0.1111111111111111,0,0,0.1111111111111111,150.66666666666669,0)" xlink:href="#aF"/><use transform="matrix(0.1111111111111111,0,0,0.1111111111111111,183.8888888888889,0)" xlink:href="#aG"/></g><path d="M115-194c55 1 70 41 70 98S169 2 115 4C84 4 66-9 55-30l1 105H24l-1-265h31l2 30c10-21 28-34 59-34zm-8 174c40 0 45-34 45-75s-6-73-45-74c-42 0-51 32-51 76 0 43 10 73 51 73" id="aH"/><path d="M135-143c-3-34-86-38-87 0 15 53 115 12 119 90S17 21 10-45l28-5c4 36 97 45 98 0-10-56-113-15-118-90-4-57 82-63 122-42 12 7 21 19 24 35" id="aI"/><path d="M100-194c63 0 86 42 84 106H49c0 40 14 67 53 68 26 1 43-12 49-29l28 8c-11 28-37 45-77 45C44 4 14-33 15-96c1-61 26-98 85-98zm52 81c6-60-76-77-97-28-3 7-6 17-6 28h103zm-74-98c8-23 27-35 38-54h36v5l-58 49H78" id="aJ"/><g id="d"><use transform="matrix(0.1111111111111111,0,0,0.1111111111111111,0,0)" xlink:href="#ay"/><use transform="matrix(0.1111111111111111,0,0,0.1111111111111111,20,0)" xlink:href="#ar"/><use transform="matrix(0.1111111111111111,0,0,0.1111111111111111,42.22222222222222,0)" xlink:href="#aF"/><use transform="matrix(0.1111111111111111,0,0,0.1111111111111111,75.44444444444444,0)" xlink:href="#aH"/><use transform="matrix(0.1111111111111111,0,0,0.1111111111111111,97.66666666666666,0)" xlink:href="#ar"/><use transform="matrix(0.1111111111111111,0,0,0.1111111111111111,119.88888888888889,0)" xlink:href="#aI"/><use transform="matrix(0.1111111111111111,0,0,0.1111111111111111,139.88888888888889,0)" xlink:href="#aJ"/></g><path d="M85-194c31 0 48 13 60 33l-1-100h32l1 261h-30c-2-10 0-23-3-31C134-8 116 4 85 4 32 4 16-35 15-94c0-66 23-100 70-100zm9 24c-40 0-46 34-46 75 0 40 6 74 45 74 42 0 51-32 51-76 0-42-9-74-50-73" id="aK"/><g id="e"><use transform="matrix(0.1111111111111111,0,0,0.1111111111111111,0,0)" xlink:href="#aK"/><use transform="matrix(0.1111111111111111,0,0,0.1111111111111111,22.22222222222222,0)" xlink:href="#aG"/></g><path d="M179-190L93 31C79 59 56 82 12 73V49c39 6 53-20 64-50L1-190h34L92-34l54-156h33" id="aL"/><path d="M115-194c53 0 69 39 70 98 0 66-23 100-70 100C84 3 66-7 56-30L54 0H23l1-261h32v101c10-23 28-34 59-34zm-8 174c40 0 45-34 45-75 0-40-5-75-45-74-42 0-51 32-51 76 0 43 10 73 51 73" id="aM"/><g id="f"><use transform="matrix(0.1111111111111111,0,0,0.1111111111111111,0,0)" xlink:href="#aI"/><use transform="matrix(0.1111111111111111,0,0,0.1111111111111111,20,0)" xlink:href="#aL"/><use transform="matrix(0.1111111111111111,0,0,0.1111111111111111,40,0)" xlink:href="#aF"/><use transform="matrix(0.1111111111111111,0,0,0.1111111111111111,73.22222222222223,0)" xlink:href="#aM"/><use transform="matrix(0.1111111111111111,0,0,0.1111111111111111,95.44444444444446,0)" xlink:href="#ar"/><use transform="matrix(0.1111111111111111,0,0,0.1111111111111111,117.66666666666669,0)" xlink:href="#at"/><use transform="matrix(0.1111111111111111,0,0,0.1111111111111111,126.44444444444446,0)" xlink:href="#aG"/><use transform="matrix(0.1111111111111111,0,0,0.1111111111111111,148.66666666666669,0)" xlink:href="#aI"/></g><path d="M117-194c89-4 53 116 60 194h-32v-121c0-31-8-49-39-48C34-167 62-67 57 0H25l-1-190h30c1 10-1 24 2 32 11-22 29-35 61-36" id="aN"/><path d="M108 0H70L1-190h34L89-25l56-165h34" id="aO"/><g id="g"><use transform="matrix(0.1111111111111111,0,0,0.1111111111111111,0,0)" xlink:href="#ay"/><use transform="matrix(0.1111111111111111,0,0,0.1111111111111111,20,0)" xlink:href="#ar"/><use transform="matrix(0.1111111111111111,0,0,0.1111111111111111,42.22222222222222,0)" xlink:href="#aN"/><use transform="matrix(0.1111111111111111,0,0,0.1111111111111111,64.44444444444444,0)" xlink:href="#aO"/><use transform="matrix(0.1111111111111111,0,0,0.1111111111111111,84.44444444444444,0)" xlink:href="#aG"/><use transform="matrix(0.1111111111111111,0,0,0.1111111111111111,106.66666666666666,0)" xlink:href="#aN"/><use transform="matrix(0.1111111111111111,0,0,0.1111111111111111,128.88888888888889,0)" xlink:href="#aB"/><use transform="matrix(0.1111111111111111,0,0,0.1111111111111111,140,0)" xlink:href="#au"/><use transform="matrix(0.1111111111111111,0,0,0.1111111111111111,148.77777777777777,0)" xlink:href="#ar"/><use transform="matrix(0.1111111111111111,0,0,0.1111111111111111,171,0)" xlink:href="#aN"/><use transform="matrix(0.1111111111111111,0,0,0.1111111111111111,193.22222222222223,0)" xlink:href="#aN"/><use transform="matrix(0.1111111111111111,0,0,0.1111111111111111,215.44444444444446,0)" xlink:href="#aG"/><use transform="matrix(0.1111111111111111,0,0,0.1111111111111111,237.6666666666667,0)" xlink:href="#at"/><use transform="matrix(0.1111111111111111,0,0,0.1111111111111111,246.44444444444449,0)" xlink:href="#aI"/></g><g id="h"><use transform="matrix(0.1111111111111111,0,0,0.1111111111111111,0,0)" xlink:href="#aH"/><use transform="matrix(0.1111111111111111,0,0,0.1111111111111111,22.22222222222222,0)" xlink:href="#ar"/><use transform="matrix(0.1111111111111111,0,0,0.1111111111111111,44.44444444444444,0)" xlink:href="#as"/><use transform="matrix(0.1111111111111111,0,0,0.1111111111111111,66.66666666666666,0)" xlink:href="#av"/></g><g id="i"><use transform="matrix(0.1111111111111111,0,0,0.1111111111111111,0,0)" xlink:href="#aK"/><use transform="matrix(0.1111111111111111,0,0,0.1111111111111111,22.22222222222222,0)" xlink:href="#aJ"/><use transform="matrix(0.1111111111111111,0,0,0.1111111111111111,44.44444444444444,0)" xlink:href="#ay"/><use transform="matrix(0.1111111111111111,0,0,0.1111111111111111,64.44444444444444,0)" xlink:href="#av"/><use transform="matrix(0.1111111111111111,0,0,0.1111111111111111,77.66666666666666,0)" xlink:href="#au"/><use transform="matrix(0.1111111111111111,0,0,0.1111111111111111,86.44444444444443,0)" xlink:href="#av"/><use transform="matrix(0.1111111111111111,0,0,0.1111111111111111,99.66666666666666,0)" xlink:href="#aG"/></g><g id="j"><use transform="matrix(0.1111111111111111,0,0,0.1111111111111111,0,0)" xlink:href="#as"/><use transform="matrix(0.1111111111111111,0,0,0.1111111111111111,22.22222222222222,0)" xlink:href="#aN"/></g><g id="k"><use transform="matrix(0.1111111111111111,0,0,0.1111111111111111,0,0)" xlink:href="#aH"/><use transform="matrix(0.1111111111111111,0,0,0.1111111111111111,22.22222222222222,0)" xlink:href="#av"/><use transform="matrix(0.1111111111111111,0,0,0.1111111111111111,35.44444444444444,0)" xlink:href="#ar"/><use transform="matrix(0.1111111111111111,0,0,0.1111111111111111,57.666666666666664,0)" xlink:href="#ay"/><use transform="matrix(0.1111111111111111,0,0,0.1111111111111111,77.66666666666666,0)" xlink:href="#aG"/><use transform="matrix(0.1111111111111111,0,0,0.1111111111111111,99.88888888888889,0)" xlink:href="#aI"/><use transform="matrix(0.1111111111111111,0,0,0.1111111111111111,119.88888888888889,0)" xlink:href="#aI"/><use transform="matrix(0.1111111111111111,0,0,0.1111111111111111,139.88888888888889,0)" xlink:href="#as"/><use transform="matrix(0.1111111111111111,0,0,0.1111111111111111,162.11111111111111,0)" xlink:href="#aI"/></g><path d="M100-194c63 0 86 42 84 106H49c0 40 14 67 53 68 26 1 43-12 49-29l28 8c-11 28-37 45-77 45C44 4 14-33 15-96c1-61 26-98 85-98zm52 81c6-60-76-77-97-28-3 7-6 17-6 28h103zm-36-98l-58-49v-5h36c12 19 30 32 38 54h-16" id="aP"/><g id="l"><use transform="matrix(0.1111111111111111,0,0,0.1111111111111111,0,0)" xlink:href="#aI"/><use transform="matrix(0.1111111111111111,0,0,0.1111111111111111,20,0)" xlink:href="#aL"/><use transform="matrix(0.1111111111111111,0,0,0.1111111111111111,40,0)" xlink:href="#aI"/><use transform="matrix(0.1111111111111111,0,0,0.1111111111111111,60,0)" xlink:href="#aB"/><use transform="matrix(0.1111111111111111,0,0,0.1111111111111111,71.11111111111111,0)" xlink:href="#aP"/><use transform="matrix(0.1111111111111111,0,0,0.1111111111111111,93.33333333333334,0)" xlink:href="#aF"/><use transform="matrix(0.1111111111111111,0,0,0.1111111111111111,126.55555555555557,0)" xlink:href="#aG"/></g><path d="M127-220V0H93v-220H8v-28h204v28h-85" id="aQ"/><g id="m"><use transform="matrix(0.14814814814814817,0,0,0.14814814814814817,0,0)" xlink:href="#aQ"/><use transform="matrix(0.14814814814814817,0,0,0.14814814814814817,26.518518518518523,0)" xlink:href="#aG"/><use transform="matrix(0.14814814814814817,0,0,0.14814814814814817,56.14814814814815,0)" xlink:href="#av"/><use transform="matrix(0.14814814814814817,0,0,0.14814814814814817,73.77777777777779,0)" xlink:href="#aF"/><use transform="matrix(0.14814814814814817,0,0,0.14814814814814817,118.07407407407409,0)" xlink:href="#au"/><use transform="matrix(0.14814814814814817,0,0,0.14814814814814817,129.7777777777778,0)" xlink:href="#aN"/><use transform="matrix(0.14814814814814817,0,0,0.14814814814814817,159.40740740740748,0)" xlink:href="#aA"/><use transform="matrix(0.14814814814814817,0,0,0.14814814814814817,189.03703703703707,0)" xlink:href="#aB"/><use transform="matrix(0.14814814814814817,0,0,0.14814814814814817,203.85185185185188,0)" xlink:href="#aG"/><use transform="matrix(0.14814814814814817,0,0,0.14814814814814817,233.48148148148152,0)" xlink:href="#as"/><use transform="matrix(0.14814814814814817,0,0,0.14814814814814817,263.11111111111114,0)" xlink:href="#av"/></g><path d="M33 0v-248h34V0H33" id="aR"/><path d="M145-31C134-9 116 4 85 4 32 4 16-35 15-94c0-59 17-99 70-100 32-1 48 14 60 33 0-11-1-24 2-32h30l-1 268h-32zM93-21c41 0 51-33 51-76s-8-73-50-73c-40 0-46 35-46 75s5 74 45 74" id="aS"/><g id="n"><use transform="matrix(0.1111111111111111,0,0,0.1111111111111111,0,0)" xlink:href="#aR"/><use transform="matrix(0.1111111111111111,0,0,0.1111111111111111,11.11111111111111,0)" xlink:href="#aN"/><use transform="matrix(0.1111111111111111,0,0,0.1111111111111111,33.33333333333333,0)" xlink:href="#aK"/><use transform="matrix(0.1111111111111111,0,0,0.1111111111111111,55.55555555555555,0)" xlink:href="#au"/><use transform="matrix(0.1111111111111111,0,0,0.1111111111111111,64.33333333333333,0)" xlink:href="#aS"/><use transform="matrix(0.1111111111111111,0,0,0.1111111111111111,86.55555555555554,0)" xlink:href="#as"/><use transform="matrix(0.1111111111111111,0,0,0.1111111111111111,108.77777777777777,0)" xlink:href="#aG"/></g><g id="o"><use transform="matrix(0.1111111111111111,0,0,0.1111111111111111,0,0)" xlink:href="#at"/><use transform="matrix(0.1111111111111111,0,0,0.1111111111111111,8.777777777777777,0)" xlink:href="#aA"/></g><path d="M101-234c-31-9-42 10-38 44h38v23H63V0H32v-167H5v-23h27c-7-52 17-82 69-68v24" id="aT"/><g id="p"><use transform="matrix(0.1111111111111111,0,0,0.1111111111111111,0,0)" xlink:href="#aT"/><use transform="matrix(0.1111111111111111,0,0,0.1111111111111111,11.11111111111111,0)" xlink:href="#au"/><use transform="matrix(0.1111111111111111,0,0,0.1111111111111111,19.888888888888886,0)" xlink:href="#aN"/></g><path d="M47-170H22l-4-78h33" id="aU"/><g id="q"><use transform="matrix(0.1111111111111111,0,0,0.1111111111111111,0,0)" xlink:href="#aK"/><use transform="matrix(0.1111111111111111,0,0,0.1111111111111111,22.22222222222222,0)" xlink:href="#aU"/><use transform="matrix(0.1111111111111111,0,0,0.1111111111111111,29.777777777777775,0)" xlink:href="#as"/><use transform="matrix(0.1111111111111111,0,0,0.1111111111111111,52,0)" xlink:href="#aN"/></g><g id="r"><use transform="matrix(0.1111111111111111,0,0,0.1111111111111111,0,0)" xlink:href="#aH"/><use transform="matrix(0.1111111111111111,0,0,0.1111111111111111,22.22222222222222,0)" xlink:href="#av"/><use transform="matrix(0.1111111111111111,0,0,0.1111111111111111,35.44444444444444,0)" xlink:href="#ar"/><use transform="matrix(0.1111111111111111,0,0,0.1111111111111111,57.666666666666664,0)" xlink:href="#ay"/><use transform="matrix(0.1111111111111111,0,0,0.1111111111111111,77.66666666666666,0)" xlink:href="#aG"/><use transform="matrix(0.1111111111111111,0,0,0.1111111111111111,99.88888888888889,0)" xlink:href="#aI"/><use transform="matrix(0.1111111111111111,0,0,0.1111111111111111,119.88888888888889,0)" xlink:href="#aI"/><use transform="matrix(0.1111111111111111,0,0,0.1111111111111111,139.88888888888889,0)" xlink:href="#as"/><use transform="matrix(0.1111111111111111,0,0,0.1111111111111111,162.11111111111111,0)" xlink:href="#aI"/></g><path d="M30-248c87 1 191-15 191 75 0 78-77 80-158 76V0H30v-248zm33 125c57 0 124 11 124-50 0-59-68-47-124-48v98" id="aV"/><g id="s"><use transform="matrix(0.14814814814814817,0,0,0.14814814814814817,0,0)" xlink:href="#aV"/><use transform="matrix(0.14814814814814817,0,0,0.14814814814814817,35.55555555555556,0)" xlink:href="#av"/><use transform="matrix(0.14814814814814817,0,0,0.14814814814814817,53.18518518518519,0)" xlink:href="#ar"/><use transform="matrix(0.14814814814814817,0,0,0.14814814814814817,82.81481481481482,0)" xlink:href="#ay"/><use transform="matrix(0.14814814814814817,0,0,0.14814814814814817,109.4814814814815,0)" xlink:href="#aG"/><use transform="matrix(0.14814814814814817,0,0,0.14814814814814817,139.11111111111114,0)" xlink:href="#aI"/><use transform="matrix(0.14814814814814817,0,0,0.14814814814814817,165.77777777777783,0)" xlink:href="#aI"/><use transform="matrix(0.14814814814814817,0,0,0.14814814814814817,192.4444444444445,0)" xlink:href="#as"/><use transform="matrix(0.14814814814814817,0,0,0.14814814814814817,222.07407407407413,0)" xlink:href="#aI"/></g><path d="M232-93c-1 65-40 97-104 97C67 4 28-28 28-90v-158h33c8 89-33 224 67 224 102 0 64-133 71-224h33v155" id="aW"/><g id="t"><use transform="matrix(0.1111111111111111,0,0,0.1111111111111111,0,0)" xlink:href="#aW"/><use transform="matrix(0.1111111111111111,0,0,0.1111111111111111,28.777777777777775,0)" xlink:href="#aN"/><use transform="matrix(0.1111111111111111,0,0,0.1111111111111111,51,0)" xlink:href="#aG"/></g><path d="M68-38c1 34 0 65-14 84H32c9-13 17-26 17-46H33v-38h35" id="aX"/><g id="u"><use transform="matrix(0.1111111111111111,0,0,0.1111111111111111,0,0)" xlink:href="#aA"/><use transform="matrix(0.1111111111111111,0,0,0.1111111111111111,22.22222222222222,0)" xlink:href="#ay"/><use transform="matrix(0.1111111111111111,0,0,0.1111111111111111,42.22222222222222,0)" xlink:href="#aB"/><use transform="matrix(0.1111111111111111,0,0,0.1111111111111111,53.33333333333333,0)" xlink:href="#au"/><use transform="matrix(0.1111111111111111,0,0,0.1111111111111111,62.11111111111111,0)" xlink:href="#ar"/><use transform="matrix(0.1111111111111111,0,0,0.1111111111111111,84.33333333333333,0)" xlink:href="#aN"/><use transform="matrix(0.1111111111111111,0,0,0.1111111111111111,106.55555555555554,0)" xlink:href="#aX"/></g><g id="v"><use transform="matrix(0.1111111111111111,0,0,0.1111111111111111,0,0)" xlink:href="#ar"/><use transform="matrix(0.1111111111111111,0,0,0.1111111111111111,22.22222222222222,0)" xlink:href="#as"/></g><g id="w"><use transform="matrix(0.1111111111111111,0,0,0.1111111111111111,0,0)" xlink:href="#as"/><use transform="matrix(0.1111111111111111,0,0,0.1111111111111111,22.22222222222222,0)" xlink:href="#aN"/><use transform="matrix(0.1111111111111111,0,0,0.1111111111111111,44.44444444444444,0)" xlink:href="#aG"/></g><g id="x"><use transform="matrix(0.1111111111111111,0,0,0.1111111111111111,0,0)" xlink:href="#aT"/><use transform="matrix(0.1111111111111111,0,0,0.1111111111111111,11.11111111111111,0)" xlink:href="#ar"/><use transform="matrix(0.1111111111111111,0,0,0.1111111111111111,33.33333333333333,0)" xlink:href="#aN"/><use transform="matrix(0.1111111111111111,0,0,0.1111111111111111,55.55555555555555,0)" xlink:href="#ay"/><use transform="matrix(0.1111111111111111,0,0,0.1111111111111111,75.55555555555554,0)" xlink:href="#aB"/><use transform="matrix(0.1111111111111111,0,0,0.1111111111111111,86.66666666666666,0)" xlink:href="#au"/><use transform="matrix(0.1111111111111111,0,0,0.1111111111111111,95.44444444444443,0)" xlink:href="#ar"/><use transform="matrix(0.1111111111111111,0,0,0.1111111111111111,117.66666666666666,0)" xlink:href="#aN"/></g><g id="y"><use transform="matrix(0.1111111111111111,0,0,0.1111111111111111,0,0)" xlink:href="#aK"/><use transform="matrix(0.1111111111111111,0,0,0.1111111111111111,22.22222222222222,0)" xlink:href="#aA"/><use transform="matrix(0.1111111111111111,0,0,0.1111111111111111,44.44444444444444,0)" xlink:href="#aN"/><use transform="matrix(0.1111111111111111,0,0,0.1111111111111111,66.66666666666666,0)" xlink:href="#aI"/></g><g id="z"><use transform="matrix(0.1111111111111111,0,0,0.1111111111111111,0,0)" xlink:href="#at"/><use transform="matrix(0.1111111111111111,0,0,0.1111111111111111,8.777777777777777,0)" xlink:href="#aG"/></g><g id="A"><use transform="matrix(0.14814814814814817,0,0,0.14814814814814817,0,0)" xlink:href="#aD"/><use transform="matrix(0.14814814814814817,0,0,0.14814814814814817,38.370370370370374,0)" xlink:href="#aJ"/><use transform="matrix(0.14814814814814817,0,0,0.14814814814814817,68,0)" xlink:href="#ay"/><use transform="matrix(0.14814814814814817,0,0,0.14814814814814817,94.66666666666669,0)" xlink:href="#au"/><use transform="matrix(0.14814814814814817,0,0,0.14814814814814817,106.37037037037038,0)" xlink:href="#aI"/><use transform="matrix(0.14814814814814817,0,0,0.14814814814814817,133.03703703703707,0)" xlink:href="#au"/><use transform="matrix(0.14814814814814817,0,0,0.14814814814814817,144.74074074074076,0)" xlink:href="#ar"/><use transform="matrix(0.14814814814814817,0,0,0.14814814814814817,174.37037037037038,0)" xlink:href="#aN"/></g><path d="M141 0L90-78 38 0H4l68-98-65-92h35l48 74 47-74h35l-64 92 68 98h-35" id="aY"/><g id="B"><use transform="matrix(0.1111111111111111,0,0,0.1111111111111111,0,0)" xlink:href="#ay"/><use transform="matrix(0.1111111111111111,0,0,0.1111111111111111,20,0)" xlink:href="#az"/><use transform="matrix(0.1111111111111111,0,0,0.1111111111111111,42.22222222222222,0)" xlink:href="#ar"/><use transform="matrix(0.1111111111111111,0,0,0.1111111111111111,64.44444444444444,0)" xlink:href="#au"/><use transform="matrix(0.1111111111111111,0,0,0.1111111111111111,73.22222222222221,0)" xlink:href="#aY"/><use transform="matrix(0.1111111111111111,0,0,0.1111111111111111,93.22222222222221,0)" xlink:href="#aX"/></g><g id="C"><use transform="matrix(0.1111111111111111,0,0,0.1111111111111111,0,0)" xlink:href="#aI"/><use transform="matrix(0.1111111111111111,0,0,0.1111111111111111,20,0)" xlink:href="#aJ"/><use transform="matrix(0.1111111111111111,0,0,0.1111111111111111,42.22222222222222,0)" xlink:href="#aH"/><use transform="matrix(0.1111111111111111,0,0,0.1111111111111111,64.44444444444444,0)" xlink:href="#aA"/><use transform="matrix(0.1111111111111111,0,0,0.1111111111111111,86.66666666666666,0)" xlink:href="#av"/><use transform="matrix(0.1111111111111111,0,0,0.1111111111111111,99.88888888888889,0)" xlink:href="#aA"/><use transform="matrix(0.1111111111111111,0,0,0.1111111111111111,122.1111111111111,0)" xlink:href="#aB"/><use transform="matrix(0.1111111111111111,0,0,0.1111111111111111,133.22222222222223,0)" xlink:href="#au"/><use transform="matrix(0.1111111111111111,0,0,0.1111111111111111,142,0)" xlink:href="#ar"/><use transform="matrix(0.1111111111111111,0,0,0.1111111111111111,164.22222222222223,0)" xlink:href="#aN"/></g><path d="M33 0v-38h34V0H33" id="aZ"/><g id="D"><use transform="matrix(0.1111111111111111,0,0,0.1111111111111111,0,0)" xlink:href="#aT"/><use transform="matrix(0.1111111111111111,0,0,0.1111111111111111,11.11111111111111,0)" xlink:href="#at"/><use transform="matrix(0.1111111111111111,0,0,0.1111111111111111,19.888888888888886,0)" xlink:href="#as"/><use transform="matrix(0.1111111111111111,0,0,0.1111111111111111,42.11111111111111,0)" xlink:href="#aY"/><use transform="matrix(0.1111111111111111,0,0,0.1111111111111111,62.11111111111111,0)" xlink:href="#aZ"/></g><g id="E"><use transform="matrix(0.1111111111111111,0,0,0.1111111111111111,0,0)" xlink:href="#aD"/><use transform="matrix(0.1111111111111111,0,0,0.1111111111111111,28.777777777777775,0)" xlink:href="#aA"/><use transform="matrix(0.1111111111111111,0,0,0.1111111111111111,51,0)" xlink:href="#aN"/><use transform="matrix(0.1111111111111111,0,0,0.1111111111111111,73.22222222222223,0)" xlink:href="#aI"/></g><g id="F"><use transform="matrix(0.1111111111111111,0,0,0.1111111111111111,0,0)" xlink:href="#at"/><use transform="matrix(0.1111111111111111,0,0,0.1111111111111111,8.777777777777777,0)" xlink:href="#aA"/><use transform="matrix(0.1111111111111111,0,0,0.1111111111111111,31,0)" xlink:href="#aS"/><use transform="matrix(0.1111111111111111,0,0,0.1111111111111111,53.22222222222222,0)" xlink:href="#as"/><use transform="matrix(0.1111111111111111,0,0,0.1111111111111111,75.44444444444444,0)" xlink:href="#aG"/><use transform="matrix(0.1111111111111111,0,0,0.1111111111111111,97.66666666666666,0)" xlink:href="#at"/><use transform="matrix(0.1111111111111111,0,0,0.1111111111111111,106.44444444444443,0)" xlink:href="#at"/><use transform="matrix(0.1111111111111111,0,0,0.1111111111111111,115.22222222222219,0)" xlink:href="#aG"/></g><g id="G"><use transform="matrix(0.1111111111111111,0,0,0.1111111111111111,0,0)" xlink:href="#as"/><use transform="matrix(0.1111111111111111,0,0,0.1111111111111111,22.22222222222222,0)" xlink:href="#aN"/><use transform="matrix(0.1111111111111111,0,0,0.1111111111111111,44.44444444444444,0)" xlink:href="#aG"/></g><g id="H"><use transform="matrix(0.1111111111111111,0,0,0.1111111111111111,0,0)" xlink:href="#aI"/><use transform="matrix(0.1111111111111111,0,0,0.1111111111111111,20,0)" xlink:href="#aG"/><use transform="matrix(0.1111111111111111,0,0,0.1111111111111111,42.22222222222222,0)" xlink:href="#as"/><use transform="matrix(0.1111111111111111,0,0,0.1111111111111111,64.44444444444444,0)" xlink:href="#at"/><use transform="matrix(0.1111111111111111,0,0,0.1111111111111111,73.22222222222221,0)" xlink:href="#aG"/></g><g id="I"><use transform="matrix(0.1111111111111111,0,0,0.1111111111111111,0,0)" xlink:href="#aK"/><use transform="matrix(0.1111111111111111,0,0,0.1111111111111111,22.22222222222222,0)" xlink:href="#aG"/><use transform="matrix(0.1111111111111111,0,0,0.1111111111111111,44.44444444444444,0)" xlink:href="#aI"/></g><g id="J"><use transform="matrix(0.1111111111111111,0,0,0.1111111111111111,0,0)" xlink:href="#aA"/><use transform="matrix(0.1111111111111111,0,0,0.1111111111111111,22.22222222222222,0)" xlink:href="#at"/><use transform="matrix(0.1111111111111111,0,0,0.1111111111111111,31,0)" xlink:href="#aB"/><use transform="matrix(0.1111111111111111,0,0,0.1111111111111111,42.111111111111114,0)" xlink:href="#aG"/><use transform="matrix(0.1111111111111111,0,0,0.1111111111111111,64.33333333333334,0)" xlink:href="#av"/><use transform="matrix(0.1111111111111111,0,0,0.1111111111111111,77.55555555555557,0)" xlink:href="#aN"/><use transform="matrix(0.1111111111111111,0,0,0.1111111111111111,99.7777777777778,0)" xlink:href="#aA"/><use transform="matrix(0.1111111111111111,0,0,0.1111111111111111,122.00000000000001,0)" xlink:href="#aB"/><use transform="matrix(0.1111111111111111,0,0,0.1111111111111111,133.11111111111114,0)" xlink:href="#au"/><use transform="matrix(0.1111111111111111,0,0,0.1111111111111111,141.8888888888889,0)" xlink:href="#aO"/><use transform="matrix(0.1111111111111111,0,0,0.1111111111111111,161.8888888888889,0)" xlink:href="#aG"/><use transform="matrix(0.1111111111111111,0,0,0.1111111111111111,184.11111111111114,0)" xlink:href="#aI"/></g><g id="K"><use transform="matrix(0.1111111111111111,0,0,0.1111111111111111,0,0)" xlink:href="#aH"/><use transform="matrix(0.1111111111111111,0,0,0.1111111111111111,22.22222222222222,0)" xlink:href="#aG"/><use transform="matrix(0.1111111111111111,0,0,0.1111111111111111,44.44444444444444,0)" xlink:href="#as"/><use transform="matrix(0.1111111111111111,0,0,0.1111111111111111,66.66666666666666,0)" xlink:href="#aB"/></g><path d="M100-194c63 0 86 42 84 106H49c0 40 14 67 53 68 26 1 43-12 49-29l28 8c-11 28-37 45-77 45C44 4 14-33 15-96c1-61 26-98 85-98zm52 81c6-60-76-77-97-28-3 7-6 17-6 28h103zm-32-149c12 18 30 30 39 51-31 2-38-20-57-30-20 10-27 32-59 30 9-22 29-33 41-51h36" id="ba"/><g id="L"><use transform="matrix(0.1111111111111111,0,0,0.1111111111111111,0,0)" xlink:href="#ba"/><use transform="matrix(0.1111111111111111,0,0,0.1111111111111111,22.22222222222222,0)" xlink:href="#aB"/><use transform="matrix(0.1111111111111111,0,0,0.1111111111111111,33.33333333333333,0)" xlink:href="#av"/><use transform="matrix(0.1111111111111111,0,0,0.1111111111111111,46.55555555555555,0)" xlink:href="#aG"/></g><g id="M"><use transform="matrix(0.1111111111111111,0,0,0.1111111111111111,0,0)" xlink:href="#ay"/><use transform="matrix(0.1111111111111111,0,0,0.1111111111111111,20,0)" xlink:href="#az"/><use transform="matrix(0.1111111111111111,0,0,0.1111111111111111,42.22222222222222,0)" xlink:href="#ar"/><use transform="matrix(0.1111111111111111,0,0,0.1111111111111111,64.44444444444444,0)" xlink:href="#aI"/><use transform="matrix(0.1111111111111111,0,0,0.1111111111111111,84.44444444444444,0)" xlink:href="#au"/><use transform="matrix(0.1111111111111111,0,0,0.1111111111111111,93.22222222222221,0)" xlink:href="#aG"/></g><path d="M233-177c-1 41-23 64-60 70L243 0h-38l-65-103H63V0H30v-248c88 3 205-21 203 71zM63-129c60-2 137 13 137-47 0-61-80-42-137-45v92" id="bb"/><g id="N"><use transform="matrix(0.14814814814814817,0,0,0.14814814814814817,0,0)" xlink:href="#bb"/><use transform="matrix(0.14814814814814817,0,0,0.14814814814814817,38.370370370370374,0)" xlink:href="#aG"/><use transform="matrix(0.14814814814814817,0,0,0.14814814814814817,68,0)" xlink:href="#aB"/><use transform="matrix(0.14814814814814817,0,0,0.14814814814814817,82.81481481481481,0)" xlink:href="#aA"/><use transform="matrix(0.14814814814814817,0,0,0.14814814814814817,112.44444444444444,0)" xlink:href="#av"/><use transform="matrix(0.14814814814814817,0,0,0.14814814814814817,130.07407407407408,0)" xlink:href="#aK"/></g><g id="O"><use transform="matrix(0.1111111111111111,0,0,0.1111111111111111,0,0)" xlink:href="#aH"/><use transform="matrix(0.1111111111111111,0,0,0.1111111111111111,22.22222222222222,0)" xlink:href="#aA"/><use transform="matrix(0.1111111111111111,0,0,0.1111111111111111,44.44444444444444,0)" xlink:href="#aI"/><use transform="matrix(0.1111111111111111,0,0,0.1111111111111111,64.44444444444444,0)" xlink:href="#aI"/><use transform="matrix(0.1111111111111111,0,0,0.1111111111111111,84.44444444444444,0)" xlink:href="#aA"/><use transform="matrix(0.1111111111111111,0,0,0.1111111111111111,106.66666666666666,0)" xlink:href="#aE"/><use transform="matrix(0.1111111111111111,0,0,0.1111111111111111,128.88888888888889,0)" xlink:href="#aG"/></g><g id="P"><use transform="matrix(0.1111111111111111,0,0,0.1111111111111111,0,0)" xlink:href="#aK"/><use transform="matrix(0.1111111111111111,0,0,0.1111111111111111,22.22222222222222,0)" xlink:href="#as"/></g><g id="Q"><use transform="matrix(0.1111111111111111,0,0,0.1111111111111111,0,0)" xlink:href="#aB"/><use transform="matrix(0.1111111111111111,0,0,0.1111111111111111,11.11111111111111,0)" xlink:href="#aG"/><use transform="matrix(0.1111111111111111,0,0,0.1111111111111111,33.33333333333333,0)" xlink:href="#aF"/><use transform="matrix(0.1111111111111111,0,0,0.1111111111111111,66.55555555555554,0)" xlink:href="#aH"/><use transform="matrix(0.1111111111111111,0,0,0.1111111111111111,88.77777777777777,0)" xlink:href="#aI"/></g><g id="R"><use transform="matrix(0.1111111111111111,0,0,0.1111111111111111,0,0)" xlink:href="#aK"/><use transform="matrix(0.1111111111111111,0,0,0.1111111111111111,22.22222222222222,0)" xlink:href="#aA"/><use transform="matrix(0.1111111111111111,0,0,0.1111111111111111,44.44444444444444,0)" xlink:href="#aN"/><use transform="matrix(0.1111111111111111,0,0,0.1111111111111111,66.66666666666666,0)" xlink:href="#aI"/></g><g id="S"><use transform="matrix(0.1111111111111111,0,0,0.1111111111111111,0,0)" xlink:href="#aD"/><use transform="matrix(0.1111111111111111,0,0,0.1111111111111111,28.777777777777775,0)" xlink:href="#ar"/><use transform="matrix(0.1111111111111111,0,0,0.1111111111111111,51,0)" xlink:href="#ay"/><use transform="matrix(0.1111111111111111,0,0,0.1111111111111111,71,0)" xlink:href="#as"/><use transform="matrix(0.1111111111111111,0,0,0.1111111111111111,93.22222222222223,0)" xlink:href="#aF"/><use transform="matrix(0.1111111111111111,0,0,0.1111111111111111,126.44444444444446,0)" xlink:href="#aG"/><use transform="matrix(0.1111111111111111,0,0,0.1111111111111111,148.66666666666669,0)" xlink:href="#aN"/><use transform="matrix(0.1111111111111111,0,0,0.1111111111111111,170.8888888888889,0)" xlink:href="#aB"/></g><g id="T"><use transform="matrix(0.1111111111111111,0,0,0.1111111111111111,0,0)" xlink:href="#aK"/><use transform="matrix(0.1111111111111111,0,0,0.1111111111111111,22.22222222222222,0)" xlink:href="#ar"/><use transform="matrix(0.1111111111111111,0,0,0.1111111111111111,44.44444444444444,0)" xlink:href="#ay"/><use transform="matrix(0.1111111111111111,0,0,0.1111111111111111,64.44444444444444,0)" xlink:href="#as"/><use transform="matrix(0.1111111111111111,0,0,0.1111111111111111,86.66666666666666,0)" xlink:href="#aF"/><use transform="matrix(0.1111111111111111,0,0,0.1111111111111111,119.88888888888889,0)" xlink:href="#aG"/><use transform="matrix(0.1111111111111111,0,0,0.1111111111111111,142.11111111111111,0)" xlink:href="#aN"/><use transform="matrix(0.1111111111111111,0,0,0.1111111111111111,164.33333333333334,0)" xlink:href="#aB"/></g><g id="U"><use transform="matrix(0.1111111111111111,0,0,0.1111111111111111,0,0)" xlink:href="#aG"/><use transform="matrix(0.1111111111111111,0,0,0.1111111111111111,22.22222222222222,0)" xlink:href="#aN"/></g><g id="V"><use transform="matrix(0.1111111111111111,0,0,0.1111111111111111,0,0)" xlink:href="#aG"/><use transform="matrix(0.1111111111111111,0,0,0.1111111111111111,22.22222222222222,0)" xlink:href="#aN"/><use transform="matrix(0.1111111111111111,0,0,0.1111111111111111,44.44444444444444,0)" xlink:href="#aB"/><use transform="matrix(0.1111111111111111,0,0,0.1111111111111111,55.55555555555556,0)" xlink:href="#av"/><use transform="matrix(0.1111111111111111,0,0,0.1111111111111111,68.77777777777777,0)" xlink:href="#aJ"/><use transform="matrix(0.1111111111111111,0,0,0.1111111111111111,91,0)" xlink:href="#aG"/></g><g id="W"><use transform="matrix(0.1111111111111111,0,0,0.1111111111111111,0,0)" xlink:href="#ar"/><use transform="matrix(0.1111111111111111,0,0,0.1111111111111111,22.22222222222222,0)" xlink:href="#as"/></g><g id="X"><use transform="matrix(0.1111111111111111,0,0,0.1111111111111111,0,0)" xlink:href="#aI"/><use transform="matrix(0.1111111111111111,0,0,0.1111111111111111,20,0)" xlink:href="#ar"/><use transform="matrix(0.1111111111111111,0,0,0.1111111111111111,42.22222222222222,0)" xlink:href="#av"/><use transform="matrix(0.1111111111111111,0,0,0.1111111111111111,55.44444444444444,0)" xlink:href="#aB"/><use transform="matrix(0.1111111111111111,0,0,0.1111111111111111,66.55555555555556,0)" xlink:href="#au"/><use transform="matrix(0.1111111111111111,0,0,0.1111111111111111,75.33333333333333,0)" xlink:href="#aG"/></g><g id="Y"><use transform="matrix(0.1111111111111111,0,0,0.1111111111111111,0,0)" xlink:href="#aI"/><use transform="matrix(0.1111111111111111,0,0,0.1111111111111111,20,0)" xlink:href="#ar"/><use transform="matrix(0.1111111111111111,0,0,0.1111111111111111,42.22222222222222,0)" xlink:href="#aN"/></g><g id="Z"><use transform="matrix(0.1111111111111111,0,0,0.1111111111111111,0,0)" xlink:href="#aH"/><use transform="matrix(0.1111111111111111,0,0,0.1111111111111111,22.22222222222222,0)" xlink:href="#at"/><use transform="matrix(0.1111111111111111,0,0,0.1111111111111111,31,0)" xlink:href="#aA"/><use transform="matrix(0.1111111111111111,0,0,0.1111111111111111,53.22222222222222,0)" xlink:href="#ay"/><use transform="matrix(0.1111111111111111,0,0,0.1111111111111111,73.22222222222223,0)" xlink:href="#aG"/><use transform="matrix(0.1111111111111111,0,0,0.1111111111111111,95.44444444444446,0)" xlink:href="#aF"/><use transform="matrix(0.1111111111111111,0,0,0.1111111111111111,128.66666666666669,0)" xlink:href="#aG"/><use transform="matrix(0.1111111111111111,0,0,0.1111111111111111,150.8888888888889,0)" xlink:href="#aN"/><use transform="matrix(0.1111111111111111,0,0,0.1111111111111111,173.11111111111114,0)" xlink:href="#aB"/></g><path d="M30 0v-248h33v221h125V0H30" id="bc"/><g id="aa"><use transform="matrix(0.1111111111111111,0,0,0.1111111111111111,0,0)" xlink:href="#bc"/><use transform="matrix(0.1111111111111111,0,0,0.1111111111111111,22.22222222222222,0)" xlink:href="#au"/><use transform="matrix(0.1111111111111111,0,0,0.1111111111111111,31,0)" xlink:href="#aG"/><use transform="matrix(0.1111111111111111,0,0,0.1111111111111111,53.22222222222222,0)" xlink:href="#aN"/></g><g id="ab"><use transform="matrix(0.1111111111111111,0,0,0.1111111111111111,0,0)" xlink:href="#az"/><use transform="matrix(0.1111111111111111,0,0,0.1111111111111111,22.22222222222222,0)" xlink:href="#ar"/><use transform="matrix(0.1111111111111111,0,0,0.1111111111111111,44.44444444444444,0)" xlink:href="#av"/><use transform="matrix(0.1111111111111111,0,0,0.1111111111111111,57.666666666666664,0)" xlink:href="#aI"/></g><g id="ac"><use transform="matrix(0.1111111111111111,0,0,0.1111111111111111,0,0)" xlink:href="#aH"/><use transform="matrix(0.1111111111111111,0,0,0.1111111111111111,22.22222222222222,0)" xlink:href="#aA"/><use transform="matrix(0.1111111111111111,0,0,0.1111111111111111,44.44444444444444,0)" xlink:href="#aE"/><use transform="matrix(0.1111111111111111,0,0,0.1111111111111111,66.66666666666666,0)" xlink:href="#aG"/></g><g id="ad"><use transform="matrix(0.1111111111111111,0,0,0.1111111111111111,0,0)" xlink:href="#as"/><use transform="matrix(0.1111111111111111,0,0,0.1111111111111111,22.22222222222222,0)" xlink:href="#aN"/></g><g id="ae"><use transform="matrix(0.1111111111111111,0,0,0.1111111111111111,0,0)" xlink:href="#aS"/><use transform="matrix(0.1111111111111111,0,0,0.1111111111111111,22.22222222222222,0)" xlink:href="#as"/><use transform="matrix(0.1111111111111111,0,0,0.1111111111111111,44.44444444444444,0)" xlink:href="#au"/></g><g id="af"><use transform="matrix(0.1111111111111111,0,0,0.1111111111111111,0,0)" xlink:href="#aI"/><use transform="matrix(0.1111111111111111,0,0,0.1111111111111111,20,0)" xlink:href="#aG"/></g><g id="ag"><use transform="matrix(0.1111111111111111,0,0,0.1111111111111111,0,0)" xlink:href="#aH"/><use transform="matrix(0.1111111111111111,0,0,0.1111111111111111,22.22222222222222,0)" xlink:href="#ar"/><use transform="matrix(0.1111111111111111,0,0,0.1111111111111111,44.44444444444444,0)" xlink:href="#as"/><use transform="matrix(0.1111111111111111,0,0,0.1111111111111111,66.66666666666666,0)" xlink:href="#av"/><use transform="matrix(0.1111111111111111,0,0,0.1111111111111111,79.88888888888889,0)" xlink:href="#aI"/><use transform="matrix(0.1111111111111111,0,0,0.1111111111111111,99.88888888888889,0)" xlink:href="#as"/><use transform="matrix(0.1111111111111111,0,0,0.1111111111111111,122.1111111111111,0)" xlink:href="#au"/><use transform="matrix(0.1111111111111111,0,0,0.1111111111111111,130.88888888888889,0)" xlink:href="#aB"/></g><g id="ah"><use transform="matrix(0.1111111111111111,0,0,0.1111111111111111,0,0)" xlink:href="#aI"/><use transform="matrix(0.1111111111111111,0,0,0.1111111111111111,20,0)" xlink:href="#as"/><use transform="matrix(0.1111111111111111,0,0,0.1111111111111111,42.22222222222222,0)" xlink:href="#av"/></g><g id="ai"><use transform="matrix(0.1111111111111111,0,0,0.1111111111111111,0,0)" xlink:href="#aH"/><use transform="matrix(0.1111111111111111,0,0,0.1111111111111111,22.22222222222222,0)" xlink:href="#aA"/><use transform="matrix(0.1111111111111111,0,0,0.1111111111111111,44.44444444444444,0)" xlink:href="#aE"/><use transform="matrix(0.1111111111111111,0,0,0.1111111111111111,66.66666666666666,0)" xlink:href="#aG"/></g><g id="aj"><use transform="matrix(0.1111111111111111,0,0,0.1111111111111111,0,0)" xlink:href="#aG"/><use transform="matrix(0.1111111111111111,0,0,0.1111111111111111,22.22222222222222,0)" xlink:href="#aY"/><use transform="matrix(0.1111111111111111,0,0,0.1111111111111111,42.22222222222222,0)" xlink:href="#aB"/><use transform="matrix(0.1111111111111111,0,0,0.1111111111111111,53.33333333333333,0)" xlink:href="#aG"/><use transform="matrix(0.1111111111111111,0,0,0.1111111111111111,75.55555555555554,0)" xlink:href="#av"/><use transform="matrix(0.1111111111111111,0,0,0.1111111111111111,88.77777777777777,0)" xlink:href="#aN"/><use transform="matrix(0.1111111111111111,0,0,0.1111111111111111,111,0)" xlink:href="#aG"/></g><path d="M143 4C61 4 22-44 18-125c-5-107 100-154 193-111 17 8 29 25 37 43l-32 9c-13-25-37-40-76-40-61 0-88 39-88 99 0 61 29 100 91 101 35 0 62-11 79-27v-45h-74v-28h105v86C228-13 192 4 143 4" id="bd"/><g id="ak"><use transform="matrix(0.1111111111111111,0,0,0.1111111111111111,0,0)" xlink:href="#bd"/><use transform="matrix(0.1111111111111111,0,0,0.1111111111111111,31.11111111111111,0)" xlink:href="#av"/><use transform="matrix(0.1111111111111111,0,0,0.1111111111111111,44.33333333333333,0)" xlink:href="#ar"/><use transform="matrix(0.1111111111111111,0,0,0.1111111111111111,66.55555555555554,0)" xlink:href="#as"/><use transform="matrix(0.1111111111111111,0,0,0.1111111111111111,88.77777777777777,0)" xlink:href="#aH"/><use transform="matrix(0.1111111111111111,0,0,0.1111111111111111,111,0)" xlink:href="#aG"/><use transform="matrix(0.1111111111111111,0,0,0.1111111111111111,133.22222222222223,0)" xlink:href="#av"/></g><g id="al"><use transform="matrix(0.1111111111111111,0,0,0.1111111111111111,0,0)" xlink:href="#aK"/><use transform="matrix(0.1111111111111111,0,0,0.1111111111111111,22.22222222222222,0)" xlink:href="#aG"/><use transform="matrix(0.1111111111111111,0,0,0.1111111111111111,44.44444444444444,0)" xlink:href="#aI"/></g><g id="am"><use transform="matrix(0.1111111111111111,0,0,0.1111111111111111,0,0)" xlink:href="#aJ"/><use transform="matrix(0.1111111111111111,0,0,0.1111111111111111,22.22222222222222,0)" xlink:href="#at"/><use transform="matrix(0.1111111111111111,0,0,0.1111111111111111,31,0)" xlink:href="#aJ"/><use transform="matrix(0.1111111111111111,0,0,0.1111111111111111,53.22222222222222,0)" xlink:href="#aF"/><use transform="matrix(0.1111111111111111,0,0,0.1111111111111111,86.44444444444444,0)" xlink:href="#aG"/><use transform="matrix(0.1111111111111111,0,0,0.1111111111111111,108.66666666666666,0)" xlink:href="#aN"/><use transform="matrix(0.1111111111111111,0,0,0.1111111111111111,130.88888888888889,0)" xlink:href="#aB"/><use transform="matrix(0.1111111111111111,0,0,0.1111111111111111,142,0)" xlink:href="#aI"/></g><g id="an"><use transform="matrix(0.1111111111111111,0,0,0.1111111111111111,0,0)" xlink:href="#aK"/><use transform="matrix(0.1111111111111111,0,0,0.1111111111111111,22.22222222222222,0)" xlink:href="#aG"/></g><g id="ao"><use transform="matrix(0.1111111111111111,0,0,0.1111111111111111,0,0)" xlink:href="#aF"/><use transform="matrix(0.1111111111111111,0,0,0.1111111111111111,33.22222222222222,0)" xlink:href="#aA"/><use transform="matrix(0.1111111111111111,0,0,0.1111111111111111,55.44444444444444,0)" xlink:href="#aN"/><use transform="matrix(0.1111111111111111,0,0,0.1111111111111111,77.66666666666666,0)" xlink:href="#au"/><use transform="matrix(0.1111111111111111,0,0,0.1111111111111111,86.44444444444443,0)" xlink:href="#aP"/><use transform="matrix(0.1111111111111111,0,0,0.1111111111111111,108.66666666666666,0)" xlink:href="#av"/><use transform="matrix(0.1111111111111111,0,0,0.1111111111111111,121.88888888888889,0)" xlink:href="#aG"/></g><g id="ap"><use transform="matrix(0.1111111111111111,0,0,0.1111111111111111,0,0)" xlink:href="#aI"/><use transform="matrix(0.1111111111111111,0,0,0.1111111111111111,20,0)" xlink:href="#aJ"/><use transform="matrix(0.1111111111111111,0,0,0.1111111111111111,42.22222222222222,0)" xlink:href="#aF"/><use transform="matrix(0.1111111111111111,0,0,0.1111111111111111,75.44444444444444,0)" xlink:href="#aA"/><use transform="matrix(0.1111111111111111,0,0,0.1111111111111111,97.66666666666666,0)" xlink:href="#aN"/><use transform="matrix(0.1111111111111111,0,0,0.1111111111111111,119.88888888888889,0)" xlink:href="#aB"/><use transform="matrix(0.1111111111111111,0,0,0.1111111111111111,131,0)" xlink:href="#au"/><use transform="matrix(0.1111111111111111,0,0,0.1111111111111111,139.77777777777777,0)" xlink:href="#aS"/><use transform="matrix(0.1111111111111111,0,0,0.1111111111111111,162,0)" xlink:href="#as"/><use transform="matrix(0.1111111111111111,0,0,0.1111111111111111,184.22222222222223,0)" xlink:href="#aG"/></g></defs></g></svg>