<svg xmlns="http://www.w3.org/2000/svg" xmlns:xlink="http://www.w3.org/1999/xlink" xmlns:lucid="lucid" width="3684" height="1484"><g transform="translate(-1318 -2418)" lucid:page-tab-id="0_0"><path d="M1000 2000h4000v2000H1000z" fill="#fff"/><path d="M1340 2800v-354a6 6 0 0 1 6-6h57v360zM1340 2800h63v380h-63zM1340 3180h63v380h-63zM1403 3880h-57a6 6 0 0 1-6-6v-314h63z" stroke="#3a414a" stroke-width="4" fill="#fff"/><path d="M1403 2440h3571a6 6 0 0 1 6 6v354H1403zM1403 2800h3577v380H1403zM1403 3180h3577v380H1403zM4980 3560v314a6 6 0 0 1-6 6H1403v-320z" stroke="#3a414a" stroke-width="4" fill="none"/><use xlink:href="#a" transform="matrix(-1.8369701987210297e-16,-1,1,-1.8369701987210297e-16,1340.0000000000002,2800) translate(129.05555555555554 39.5)"/><use xlink:href="#b" transform="matrix(-1.8369701987210297e-16,-1,1,-1.8369701987210297e-16,1340.0000000000002,3180.0000000000005) translate(115.6111111111111 39.5)"/><use xlink:href="#c" transform="matrix(-1.8369701987210297e-16,-1,1,-1.8369701987210297e-16,1340.0000000000002,3560) translate(73.44444444444443 39.5)"/><use xlink:href="#d" transform="matrix(-1.8369701987210297e-16,-1,1,-1.8369701987210297e-16,1340,3880) translate(106.83333333333333 39.5)"/><path d="M1664.7 2940c30.54 0 55.3 24.76 55.3 55.3 0 30.53-24.76 55.28-55.3 55.28h-129.4c-30.54 0-55.3-24.75-55.3-55.3 0-30.53 24.76-55.28 55.3-55.28z" stroke="#3a414a" stroke-width="4" fill="#fff"/><use xlink:href="#e" transform="matrix(1,0,0,1,1492,2952) translate(14.777777777777771 32)"/><use xlink:href="#f" transform="matrix(1,0,0,1,1492,2952) translate(128 32)"/><use xlink:href="#g" transform="matrix(1,0,0,1,1492,2952) translate(36.33333333333333 80)"/><path d="M1743 2526a6 6 0 0 1 6-6h316.42a6 6 0 0 1 6 6v175.86a6 6 0 0 1-6 6H1749a6 6 0 0 1-6-6z" stroke="#3a414a" stroke-width="4" fill="#fff"/><use xlink:href="#h" transform="matrix(1,0,0,1,1755,2532) translate(21.5 88.375)"/><use xlink:href="#i" transform="matrix(1,0,0,1,1755,2532) translate(134.83333333333334 88.375)"/><use xlink:href="#j" transform="matrix(1,0,0,1,1755,2532) translate(190.3888888888889 88.375)"/><path d="M2200 2521.64a6 6 0 0 1 6-6h348a6 6 0 0 1 6 6v194c-60.12-33.4-97.56-33.4-120.24-33.4-36 0-83.88 33.4-119.88 33.4-22.32 0-60.12 0-119.88-33.4z" stroke="#3a414a" stroke-width="4" fill="#fff"/><use xlink:href="#k" transform="matrix(1,0,0,1,2212,2527.6433661704777) translate(45.5 54.34375)"/><use xlink:href="#l" transform="matrix(1,0,0,1,2212,2527.6433661704777) translate(247.05555555555557 54.34375)"/><use xlink:href="#m" transform="matrix(1,0,0,1,2212,2527.6433661704777) translate(119.72222222222223 102.34375)"/><path d="M2200 2934.2a6 6 0 0 1 6-6h316.42a6 6 0 0 1 6 6v122.2a6 6 0 0 1-6 6H2206a6 6 0 0 1-6-6z" stroke="#3a414a" stroke-width="4" fill="#fff"/><use xlink:href="#n" transform="matrix(1,0,0,1,2212,2940.1973684210525) translate(49.333333333333314 38.9375)"/><use xlink:href="#o" transform="matrix(1,0,0,1,2212,2940.1973684210525) translate(79.22222222222221 86.9375)"/><path d="M2740 2907.36a6 6 0 0 1 6-6h316.42a6 6 0 0 1 6 6v181.86c-54.85-31.37-89-31.37-109.7-31.37-32.83 0-76.5 31.37-109.36 31.37-20.36 0-54.84 0-109.36-31.37z" stroke="#3a414a" stroke-width="4" fill="#fff"/><use xlink:href="#k" transform="matrix(1,0,0,1,2752,2913.3595305832146) translate(29.5 48.625)"/><use xlink:href="#l" transform="matrix(1,0,0,1,2752,2913.3595305832146) translate(231.05555555555557 48.625)"/><use xlink:href="#p" transform="matrix(1,0,0,1,2752,2913.3595305832146) translate(53.722222222222214 96.625)"/><path d="M2740 3286a6 6 0 0 1 6-6h316.42a6 6 0 0 1 6 6v122.2a6 6 0 0 1-6 6H2746a6 6 0 0 1-6-6z" stroke="#3a414a" stroke-width="4" fill="#fff"/><use xlink:href="#q" transform="matrix(1,0,0,1,2752,3292) translate(44.833333333333314 63.21875)"/><path d="M1560 3282.07a6 6 0 0 1 6-6h316.42a6 6 0 0 1 6 6v181.86c-54.85-31.37-89-31.37-109.7-31.37-32.83 0-76.5 31.37-109.36 31.37-20.36 0-54.84 0-109.36-31.37z" stroke="#3a414a" stroke-width="4" fill="#fff"/><use xlink:href="#r" transform="matrix(1,0,0,1,1572,3288.0675675675675) translate(0.6111111111111143 73.5625)"/><use xlink:href="#s" transform="matrix(1,0,0,1,1572,3288.0675675675675) translate(151.2777777777778 73.5625)"/><use xlink:href="#m" transform="matrix(1,0,0,1,1572,3288.0675675675675) translate(206.83333333333334 73.5625)"/><path d="M3440 3622.07a6 6 0 0 1 6-6h316.42a6 6 0 0 1 6 6v175.86a6 6 0 0 1-6 6H3446a6 6 0 0 1-6-6z" stroke="#3a414a" stroke-width="4" fill="#fff"/><use xlink:href="#t" transform="matrix(1,0,0,1,3452,3628.0675675675675) translate(24.833333333333314 67.875)"/><use xlink:href="#u" transform="matrix(1,0,0,1,3452,3628.0675675675675) translate(215.72222222222223 67.875)"/><use xlink:href="#v" transform="matrix(1,0,0,1,3452,3628.0675675675675) translate(91.5 115.875)"/><path d="M2250.64 3603.08a10.05 10.05 0 0 1 10.3 0l173.9 103.84a3.58 3.58 0 0 1 0 6.16l-173.9 103.84a10.05 10.05 0 0 1-10.3 0l-173.9-103.84a3.58 3.58 0 0 1 0-6.16z" stroke="#3a414a" stroke-width="4" fill="#fff"/><use xlink:href="#w" transform="matrix(1,0,0,1,2083.5789473684213,3612) translate(73.33833333333332 81)"/><use xlink:href="#i" transform="matrix(1,0,0,1,2083.5789473684213,3612) translate(95.94944444444445 129)"/><use xlink:href="#m" transform="matrix(1,0,0,1,2083.5789473684213,3612) translate(151.505 129)"/><path d="M4379.48 2938.76c24.7 0 44.73 20.03 44.73 44.73 0 24.7-20.02 44.72-44.72 44.72h-238.96c-24.7 0-44.73-20.03-44.73-44.73 0-24.7 20.02-44.74 44.72-44.74z" stroke="#3a414a" stroke-width="4" fill="#fff"/><use xlink:href="#x" transform="matrix(1,0,0,1,4107.78947368421,2950.7596017069704) translate(25.999999999999986 40.25)"/><use xlink:href="#y" transform="matrix(1,0,0,1,4107.78947368421,2950.7596017069704) translate(152.55555555555554 40.25)"/><path d="M4060 3626a6 6 0 0 1 6-6h388a6 6 0 0 1 6 6v174c-66.8-30.06-108.4-30.06-133.6-30.06-40 0-93.2 30.06-133.2 30.06-24.8 0-66.8 0-133.2-30.06z" stroke="#3a414a" stroke-width="4" fill="#fff"/><use xlink:href="#z" transform="matrix(1,0,0,1,4072,3632) translate(59.333333333333314 71.6875)"/><use xlink:href="#A" transform="matrix(1,0,0,1,4072,3632) translate(201.2222222222222 71.6875)"/><path d="M3903.7 2938.76c24.7 0 44.72 20.03 44.72 44.73 0 24.7-20.03 44.72-44.73 44.72h-238.97c-24.7 0-44.73-20.03-44.73-44.73 0-24.7 20.03-44.74 44.73-44.74z" stroke="#3a414a" stroke-width="4" fill="#fff"/><use xlink:href="#B" transform="matrix(1,0,0,1,3632,2950.7596017069704) translate(17.111111111111086 40.25)"/><use xlink:href="#C" transform="matrix(1,0,0,1,3632,2950.7596017069704) translate(130.44444444444443 40.25)"/><path d="M4640 2878.95a6 6 0 0 1 6-6h306.95a6 6 0 0 1 6 6v139.63a10.9 10.9 0 0 1-5.07 9.2l-149.34 94.67a9.47 9.47 0 0 1-10.13 0l-149.33-94.66a10.9 10.9 0 0 1-5.07-9.22z" stroke="#3a414a" stroke-width="4" fill="#fff"/><use xlink:href="#D" transform="matrix(1,0,0,1,4652,2884.9539516861205) translate(17.7222222222222 74.9375)"/><use xlink:href="#E" transform="matrix(1,0,0,1,4652,2884.9539516861205) translate(201.83333333333334 74.9375)"/><use xlink:href="#F" transform="matrix(1,0,0,1,4652,2884.9539516861205) translate(56.44444444444444 122.9375)"/><use xlink:href="#G" transform="matrix(1,0,0,1,4652,2884.9539516861205) translate(84.22722222222222 170.9375)"/><path d="M1600 2936v-316.07a6 6 0 0 1 6-6h116" stroke="#5e5e5e" stroke-width="4" fill="none"/><path d="M1601.97 2938h-3.94v-2.05h3.94z" stroke="#5e5e5e" stroke-width=".05" fill="#5e5e5e"/><path d="M1737 2613.93l-13 7.5v-15z" stroke="#5e5e5e" stroke-width="4" fill="#5e5e5e"/><path d="M2075.42 2613.93h103.6" stroke="#5e5e5e" stroke-width="4" fill="none"/><path d="M2075.47 2615.9h-2.05v-3.94h2.05z" stroke="#5e5e5e" stroke-width=".05" fill="#5e5e5e"/><path d="M2194 2613.93l-13 7.5v-15z" stroke="#5e5e5e" stroke-width="4" fill="#5e5e5e"/><path d="M2380 2702.95v204.26" stroke="#5e5e5e" stroke-width="4" fill="none"/><path d="M2381.97 2703h-3.94v-1.3l3.94-1.5z" stroke="#5e5e5e" stroke-width=".05" fill="#5e5e5e"/><path d="M2380 2922.2l-7.5-13h15z" stroke="#5e5e5e" stroke-width="4" fill="#5e5e5e"/><path d="M1724 2995.3h455" stroke="#5e5e5e" stroke-width="4" fill="none"/><path d="M1724.05 2997.27h-2.14l.1-1.95-.03-2h2.08z" stroke="#5e5e5e" stroke-width=".05" fill="#5e5e5e"/><path d="M2194 2995.3l-13 7.5v-15z" stroke="#5e5e5e" stroke-width="4" fill="#5e5e5e"/><path d="M2532.42 2995.3h186.6" stroke="#5e5e5e" stroke-width="4" fill="none"/><path d="M2532.47 2997.27h-2.05v-3.95h2.05z" stroke="#5e5e5e" stroke-width=".05" fill="#5e5e5e"/><path d="M2734 2995.3l-13 7.5v-15z" stroke="#5e5e5e" stroke-width="4" fill="#5e5e5e"/><path d="M2904.2 3077.46V3259" stroke="#5e5e5e" stroke-width="4" fill="none"/><path d="M2906.2 3077.5h-3.96v-1.27l3.95-1.55z" stroke="#5e5e5e" stroke-width=".05" fill="#5e5e5e"/><path d="M2904.2 3274l-7.5-13h15z" stroke="#5e5e5e" stroke-width="4" fill="#5e5e5e"/><path d="M1724.2 3452.16V3704a6 6 0 0 0 6 6H2054" stroke="#5e5e5e" stroke-width="4" fill="none"/><path d="M1726.2 3452.22h-3.96v-1.28l3.95-1.55z" stroke="#5e5e5e" stroke-width=".05" fill="#5e5e5e"/><path d="M2068.97 3710l-13 7.5v-15z" stroke="#5e5e5e" stroke-width="4" fill="#5e5e5e"/><path d="M2736 3347.1h-474.2a6 6 0 0 0-6 6v227.56" stroke="#5e5e5e" stroke-width="4" fill="none"/><path d="M2738 3349.07h-2.05v-3.95h2.05z" stroke="#5e5e5e" stroke-width=".05" fill="#5e5e5e"/><path d="M2255.8 3595.65l-7.5-13h15z" stroke="#5e5e5e" stroke-width="4" fill="#5e5e5e"/><path d="M2880.58 3711.97H2440.6v-3.94h439.98zm538.43 0h-422.97v-3.94H3419z" stroke="#5e5e5e" stroke-width=".05" fill="#5e5e5e"/><path d="M2440.66 3711.97h-2.44l.27-.82.1-1.15-.1-1.15-.28-.82h2.44z" fill="#5e5e5e"/><path stroke="#5e5e5e" stroke-width=".05" fill="#5e5e5e"/><path d="M3434 3710l-13 7.5v-15z" fill="#5e5e5e"/><path d="M3437.95 3710l-18.9 10.92-.02-21.84zm-14.96 4.08l7.05-4.08-7.07-4.08z" stroke="#5e5e5e" stroke-width=".05" fill="#5e5e5e"/><g><use xlink:href="#H" transform="matrix(1,0,0,1,2880.5803909996753,3686) translate(0.005000000000002558 32)"/></g><path d="M3772.42 3710h266.6" stroke="#5e5e5e" stroke-width="4" fill="none"/><path d="M3772.47 3711.97h-2.05v-3.94h2.05z" stroke="#5e5e5e" stroke-width=".05" fill="#5e5e5e"/><path d="M4054 3710l-13 7.5v-15z" stroke="#5e5e5e" stroke-width="4" fill="#5e5e5e"/><path d="M4260 3616v-566.8" stroke="#5e5e5e" stroke-width="4" fill="none"/><path d="M4261.98 3618h-3.95v-2.05h3.95z" stroke="#5e5e5e" stroke-width=".05" fill="#5e5e5e"/><path d="M4260 3034.22l7.5 13h-15z" stroke="#5e5e5e" stroke-width="4" fill="#5e5e5e"/><path d="M4428.2 2983.5H4619" stroke="#5e5e5e" stroke-width="4" fill="none"/><path d="M4428.26 2985.46h-2.16l.1-1.92v-.38l-.1-1.65h2.16z" stroke="#5e5e5e" stroke-width=".05" fill="#5e5e5e"/><path d="M4634 2983.5l-13 7.5v-15z" stroke="#5e5e5e" stroke-width="4" fill="#5e5e5e"/><path d="M3140.4 3481.97h-736.1l-.72.06-.6.15-.6.24-.53.33-.48.4-.4.5-.34.53-.24.58-.16.6-.05.72v194.64h-3.96v-194.8l.1-1.17.28-1.22.48-1.15.66-1.07.8-.94.96-.82 1.07-.65 1.15-.5 1.2-.28 1.18-.1h736.28zm645.8-7.9l-.1 1.18-.3 1.22-.48 1.15-.65 1.07-.82.94-.95.82-1.07.65-1.15.5-1.22.28-1.17.1h-489.22v-3.95h489.05l.7-.06.62-.15.6-.24.52-.33.48-.4.4-.5.34-.53.23-.58.15-.6.06-.72v-424.7h3.95z" stroke="#5e5e5e" stroke-width=".05" fill="#5e5e5e"/><path d="M2400.2 3683.9l-3.96-2.36v-.87h3.95z" fill="#5e5e5e"/><path stroke="#5e5e5e" stroke-width=".05" fill="#5e5e5e"/><path d="M3791.7 3047.2h-15l7.5-12.98z" fill="#5e5e5e"/><path d="M3795.13 3049.18h-21.84l10.9-18.9zm-15-3.95h8.16l-4.1-7.06z" stroke="#5e5e5e" stroke-width=".05" fill="#5e5e5e"/><g><use xlink:href="#I" transform="matrix(1,0,0,1,3197.533239291291,3469.3333333333335) translate(0.004999999999999005 14.222222222222223)"/></g><g><use xlink:href="#J" transform="matrix(1,0,0,1,3140.4097825011672,3456) translate(0.0049999999999954525 32)"/></g><defs><path d="M212-179c-10-28-35-45-73-45-59 0-87 40-87 99 0 60 29 101 89 101 43 0 62-24 78-52l27 14C228-24 195 4 139 4 59 4 22-46 18-125c-6-104 99-153 187-111 19 9 31 26 39 46" id="K"/><path d="M24 0v-261h32V0H24" id="L"/><path d="M24-231v-30h32v30H24zM24 0v-190h32V0H24" id="M"/><path d="M100-194c63 0 86 42 84 106H49c0 40 14 67 53 68 26 1 43-12 49-29l28 8c-11 28-37 45-77 45C44 4 14-33 15-96c1-61 26-98 85-98zm52 81c6-60-76-77-97-28-3 7-6 17-6 28h103" id="N"/><path d="M117-194c89-4 53 116 60 194h-32v-121c0-31-8-49-39-48C34-167 62-67 57 0H25l-1-190h30c1 10-1 24 2 32 11-22 29-35 61-36" id="O"/><path d="M59-47c-2 24 18 29 38 22v24C64 9 27 4 27-40v-127H5v-23h24l9-43h21v43h35v23H59v120" id="P"/><g id="a"><use transform="matrix(0.1111111111111111,0,0,0.1111111111111111,0,0)" xlink:href="#K"/><use transform="matrix(0.1111111111111111,0,0,0.1111111111111111,28.777777777777775,0)" xlink:href="#L"/><use transform="matrix(0.1111111111111111,0,0,0.1111111111111111,37.55555555555555,0)" xlink:href="#M"/><use transform="matrix(0.1111111111111111,0,0,0.1111111111111111,46.33333333333333,0)" xlink:href="#N"/><use transform="matrix(0.1111111111111111,0,0,0.1111111111111111,68.55555555555554,0)" xlink:href="#O"/><use transform="matrix(0.1111111111111111,0,0,0.1111111111111111,90.77777777777777,0)" xlink:href="#P"/></g><path d="M137 0h-34L2-248h35l83 218 83-218h36" id="Q"/><path d="M85-194c31 0 48 13 60 33l-1-100h32l1 261h-30c-2-10 0-23-3-31C134-8 116 4 85 4 32 4 16-35 15-94c0-66 23-100 70-100zm9 24c-40 0-46 34-46 75 0 40 6 74 45 74 42 0 51-32 51-76 0-42-9-74-50-73" id="R"/><path d="M84 4C-5 8 30-112 23-190h32v120c0 31 7 50 39 49 72-2 45-101 50-169h31l1 190h-30c-1-10 1-25-2-33-11 22-28 36-60 37" id="S"/><path d="M114-163C36-179 61-72 57 0H25l-1-190h30c1 12-1 29 2 39 6-27 23-49 58-41v29" id="T"/><g id="b"><use transform="matrix(0.1111111111111111,0,0,0.1111111111111111,0,0)" xlink:href="#Q"/><use transform="matrix(0.1111111111111111,0,0,0.1111111111111111,24.444444444444443,0)" xlink:href="#N"/><use transform="matrix(0.1111111111111111,0,0,0.1111111111111111,46.666666666666664,0)" xlink:href="#O"/><use transform="matrix(0.1111111111111111,0,0,0.1111111111111111,68.88888888888889,0)" xlink:href="#R"/><use transform="matrix(0.1111111111111111,0,0,0.1111111111111111,91.11111111111111,0)" xlink:href="#N"/><use transform="matrix(0.1111111111111111,0,0,0.1111111111111111,113.33333333333334,0)" xlink:href="#S"/><use transform="matrix(0.1111111111111111,0,0,0.1111111111111111,135.55555555555557,0)" xlink:href="#T"/></g><path d="M240 0l2-218c-23 76-54 145-80 218h-23L58-218 59 0H30v-248h44l77 211c21-75 51-140 76-211h43V0h-30" id="U"/><path d="M141-36C126-15 110 5 73 4 37 3 15-17 15-53c-1-64 63-63 125-63 3-35-9-54-41-54-24 1-41 7-42 31l-33-3c5-37 33-52 76-52 45 0 72 20 72 64v82c-1 20 7 32 28 27v20c-31 9-61-2-59-35zM48-53c0 20 12 33 32 33 41-3 63-29 60-74-43 2-92-5-92 41" id="V"/><path d="M177-190C167-65 218 103 67 71c-23-6-38-20-44-43l32-5c15 47 100 32 89-28v-30C133-14 115 1 83 1 29 1 15-40 15-95c0-56 16-97 71-98 29-1 48 16 59 35 1-10 0-23 2-32h30zM94-22c36 0 50-32 50-73 0-42-14-75-50-75-39 0-46 34-46 75s6 73 46 73" id="W"/><path d="M210-169c-67 3-38 105-44 169h-31v-121c0-29-5-50-35-48C34-165 62-65 56 0H25l-1-190h30c1 10-1 24 2 32 10-44 99-50 107 0 11-21 27-35 58-36 85-2 47 119 55 194h-31v-121c0-29-5-49-35-48" id="X"/><g id="c"><use transform="matrix(0.1111111111111111,0,0,0.1111111111111111,0,0)" xlink:href="#U"/><use transform="matrix(0.1111111111111111,0,0,0.1111111111111111,33.22222222222222,0)" xlink:href="#V"/><use transform="matrix(0.1111111111111111,0,0,0.1111111111111111,55.44444444444444,0)" xlink:href="#O"/><use transform="matrix(0.1111111111111111,0,0,0.1111111111111111,77.66666666666666,0)" xlink:href="#V"/><use transform="matrix(0.1111111111111111,0,0,0.1111111111111111,99.88888888888889,0)" xlink:href="#W"/><use transform="matrix(0.1111111111111111,0,0,0.1111111111111111,122.1111111111111,0)" xlink:href="#N"/><use transform="matrix(0.1111111111111111,0,0,0.1111111111111111,144.33333333333334,0)" xlink:href="#X"/><use transform="matrix(0.1111111111111111,0,0,0.1111111111111111,177.55555555555557,0)" xlink:href="#N"/><use transform="matrix(0.1111111111111111,0,0,0.1111111111111111,199.7777777777778,0)" xlink:href="#O"/><use transform="matrix(0.1111111111111111,0,0,0.1111111111111111,222.00000000000003,0)" xlink:href="#P"/></g><path d="M100-194c63 0 86 42 84 106H49c0 40 14 67 53 68 26 1 43-12 49-29l28 8c-11 28-37 45-77 45C44 4 14-33 15-96c1-61 26-98 85-98zm52 81c6-60-76-77-97-28-3 7-6 17-6 28h103zm-74-98c8-23 27-35 38-54h36v5l-58 49H78" id="Y"/><g id="d"><use transform="matrix(0.1111111111111111,0,0,0.1111111111111111,0,0)" xlink:href="#K"/><use transform="matrix(0.1111111111111111,0,0,0.1111111111111111,28.777777777777775,0)" xlink:href="#T"/><use transform="matrix(0.1111111111111111,0,0,0.1111111111111111,42,0)" xlink:href="#Y"/><use transform="matrix(0.1111111111111111,0,0,0.1111111111111111,64.22222222222223,0)" xlink:href="#R"/><use transform="matrix(0.1111111111111111,0,0,0.1111111111111111,86.44444444444446,0)" xlink:href="#M"/><use transform="matrix(0.1111111111111111,0,0,0.1111111111111111,95.22222222222223,0)" xlink:href="#P"/></g><path d="M205 0l-28-72H64L36 0H1l101-248h38L239 0h-34zm-38-99l-47-123c-12 45-31 82-46 123h93" id="Z"/><path d="M115-194c55 1 70 41 70 98S169 2 115 4C84 4 66-9 55-30l1 105H24l-1-265h31l2 30c10-21 28-34 59-34zm-8 174c40 0 45-34 45-75s-6-73-45-74c-42 0-51 32-51 76 0 43 10 73 51 73" id="aa"/><g id="e"><use transform="matrix(0.1111111111111111,0,0,0.1111111111111111,0,0)" xlink:href="#Z"/><use transform="matrix(0.1111111111111111,0,0,0.1111111111111111,26.666666666666664,0)" xlink:href="#aa"/><use transform="matrix(0.1111111111111111,0,0,0.1111111111111111,48.888888888888886,0)" xlink:href="#aa"/><use transform="matrix(0.1111111111111111,0,0,0.1111111111111111,71.11111111111111,0)" xlink:href="#N"/><use transform="matrix(0.1111111111111111,0,0,0.1111111111111111,93.33333333333334,0)" xlink:href="#L"/></g><path d="M47-170H22l-4-78h33" id="ab"/><g id="f"><use transform="matrix(0.1111111111111111,0,0,0.1111111111111111,0,0)" xlink:href="#R"/><use transform="matrix(0.1111111111111111,0,0,0.1111111111111111,22.22222222222222,0)" xlink:href="#ab"/><use transform="matrix(0.1111111111111111,0,0,0.1111111111111111,29.777777777777775,0)" xlink:href="#S"/><use transform="matrix(0.1111111111111111,0,0,0.1111111111111111,52,0)" xlink:href="#O"/></g><path d="M108 0H70L1-190h34L89-25l56-165h34" id="ac"/><g id="g"><use transform="matrix(0.1111111111111111,0,0,0.1111111111111111,0,0)" xlink:href="#ac"/><use transform="matrix(0.1111111111111111,0,0,0.1111111111111111,20,0)" xlink:href="#N"/><use transform="matrix(0.1111111111111111,0,0,0.1111111111111111,42.22222222222222,0)" xlink:href="#O"/><use transform="matrix(0.1111111111111111,0,0,0.1111111111111111,64.44444444444444,0)" xlink:href="#R"/><use transform="matrix(0.1111111111111111,0,0,0.1111111111111111,86.66666666666666,0)" xlink:href="#N"/><use transform="matrix(0.1111111111111111,0,0,0.1111111111111111,108.88888888888889,0)" xlink:href="#S"/><use transform="matrix(0.1111111111111111,0,0,0.1111111111111111,131.11111111111111,0)" xlink:href="#T"/></g><path d="M96-169c-40 0-48 33-48 73s9 75 48 75c24 0 41-14 43-38l32 2c-6 37-31 61-74 61-59 0-76-41-82-99-10-93 101-131 147-64 4 7 5 14 7 22l-32 3c-4-21-16-35-41-35" id="ad"/><path d="M106-169C34-169 62-67 57 0H25v-261h32l-1 103c12-21 28-36 61-36 89 0 53 116 60 194h-32v-121c2-32-8-49-39-48" id="ae"/><g id="h"><use transform="matrix(0.1111111111111111,0,0,0.1111111111111111,0,0)" xlink:href="#Z"/><use transform="matrix(0.1111111111111111,0,0,0.1111111111111111,26.666666666666664,0)" xlink:href="#ad"/><use transform="matrix(0.1111111111111111,0,0,0.1111111111111111,46.666666666666664,0)" xlink:href="#ae"/><use transform="matrix(0.1111111111111111,0,0,0.1111111111111111,68.88888888888889,0)" xlink:href="#V"/><use transform="matrix(0.1111111111111111,0,0,0.1111111111111111,91.11111111111111,0)" xlink:href="#P"/></g><g id="i"><use transform="matrix(0.1111111111111111,0,0,0.1111111111111111,0,0)" xlink:href="#R"/><use transform="matrix(0.1111111111111111,0,0,0.1111111111111111,22.22222222222222,0)" xlink:href="#S"/></g><g id="j"><use transform="matrix(0.1111111111111111,0,0,0.1111111111111111,0,0)" xlink:href="#ad"/><use transform="matrix(0.1111111111111111,0,0,0.1111111111111111,20,0)" xlink:href="#L"/><use transform="matrix(0.1111111111111111,0,0,0.1111111111111111,28.777777777777775,0)" xlink:href="#M"/><use transform="matrix(0.1111111111111111,0,0,0.1111111111111111,37.55555555555556,0)" xlink:href="#N"/><use transform="matrix(0.1111111111111111,0,0,0.1111111111111111,59.77777777777777,0)" xlink:href="#O"/><use transform="matrix(0.1111111111111111,0,0,0.1111111111111111,82,0)" xlink:href="#P"/></g><path d="M63-220v92h138v28H63V0H30v-248h175v28H63" id="af"/><path d="M100-194c62-1 85 37 85 99 1 63-27 99-86 99S16-35 15-95c0-66 28-99 85-99zM99-20c44 1 53-31 53-75 0-43-8-75-51-75s-53 32-53 75 10 74 51 75" id="ag"/><g id="k"><use transform="matrix(0.1111111111111111,0,0,0.1111111111111111,0,0)" xlink:href="#af"/><use transform="matrix(0.1111111111111111,0,0,0.1111111111111111,24.333333333333332,0)" xlink:href="#ag"/><use transform="matrix(0.1111111111111111,0,0,0.1111111111111111,46.55555555555556,0)" xlink:href="#T"/><use transform="matrix(0.1111111111111111,0,0,0.1111111111111111,59.77777777777777,0)" xlink:href="#X"/><use transform="matrix(0.1111111111111111,0,0,0.1111111111111111,93,0)" xlink:href="#S"/><use transform="matrix(0.1111111111111111,0,0,0.1111111111111111,115.22222222222224,0)" xlink:href="#L"/><use transform="matrix(0.1111111111111111,0,0,0.1111111111111111,124,0)" xlink:href="#V"/><use transform="matrix(0.1111111111111111,0,0,0.1111111111111111,146.22222222222223,0)" xlink:href="#M"/><use transform="matrix(0.1111111111111111,0,0,0.1111111111111111,155,0)" xlink:href="#T"/><use transform="matrix(0.1111111111111111,0,0,0.1111111111111111,168.22222222222223,0)" xlink:href="#N"/></g><g id="l"><use transform="matrix(0.1111111111111111,0,0,0.1111111111111111,0,0)" xlink:href="#R"/><use transform="matrix(0.1111111111111111,0,0,0.1111111111111111,22.22222222222222,0)" xlink:href="#N"/></g><g id="m"><use transform="matrix(0.1111111111111111,0,0,0.1111111111111111,0,0)" xlink:href="#ad"/><use transform="matrix(0.1111111111111111,0,0,0.1111111111111111,20,0)" xlink:href="#T"/><use transform="matrix(0.1111111111111111,0,0,0.1111111111111111,33.22222222222222,0)" xlink:href="#Y"/><use transform="matrix(0.1111111111111111,0,0,0.1111111111111111,55.44444444444444,0)" xlink:href="#R"/><use transform="matrix(0.1111111111111111,0,0,0.1111111111111111,77.66666666666666,0)" xlink:href="#M"/><use transform="matrix(0.1111111111111111,0,0,0.1111111111111111,86.44444444444443,0)" xlink:href="#P"/></g><g id="n"><use transform="matrix(0.1111111111111111,0,0,0.1111111111111111,0,0)" xlink:href="#K"/><use transform="matrix(0.1111111111111111,0,0,0.1111111111111111,28.777777777777775,0)" xlink:href="#ag"/><use transform="matrix(0.1111111111111111,0,0,0.1111111111111111,51,0)" xlink:href="#X"/><use transform="matrix(0.1111111111111111,0,0,0.1111111111111111,84.22222222222223,0)" xlink:href="#X"/><use transform="matrix(0.1111111111111111,0,0,0.1111111111111111,117.44444444444446,0)" xlink:href="#V"/><use transform="matrix(0.1111111111111111,0,0,0.1111111111111111,139.66666666666669,0)" xlink:href="#O"/><use transform="matrix(0.1111111111111111,0,0,0.1111111111111111,161.8888888888889,0)" xlink:href="#R"/><use transform="matrix(0.1111111111111111,0,0,0.1111111111111111,184.11111111111114,0)" xlink:href="#N"/></g><g id="o"><use transform="matrix(0.1111111111111111,0,0,0.1111111111111111,0,0)" xlink:href="#W"/><use transform="matrix(0.1111111111111111,0,0,0.1111111111111111,22.22222222222222,0)" xlink:href="#Y"/><use transform="matrix(0.1111111111111111,0,0,0.1111111111111111,44.44444444444444,0)" xlink:href="#O"/><use transform="matrix(0.1111111111111111,0,0,0.1111111111111111,66.66666666666666,0)" xlink:href="#Y"/><use transform="matrix(0.1111111111111111,0,0,0.1111111111111111,88.88888888888889,0)" xlink:href="#T"/><use transform="matrix(0.1111111111111111,0,0,0.1111111111111111,102.11111111111111,0)" xlink:href="#Y"/><use transform="matrix(0.1111111111111111,0,0,0.1111111111111111,124.33333333333336,0)" xlink:href="#N"/></g><g id="p"><use transform="matrix(0.1111111111111111,0,0,0.1111111111111111,0,0)" xlink:href="#ad"/><use transform="matrix(0.1111111111111111,0,0,0.1111111111111111,20,0)" xlink:href="#ag"/><use transform="matrix(0.1111111111111111,0,0,0.1111111111111111,42.22222222222222,0)" xlink:href="#X"/><use transform="matrix(0.1111111111111111,0,0,0.1111111111111111,75.44444444444444,0)" xlink:href="#X"/><use transform="matrix(0.1111111111111111,0,0,0.1111111111111111,108.66666666666666,0)" xlink:href="#V"/><use transform="matrix(0.1111111111111111,0,0,0.1111111111111111,130.88888888888889,0)" xlink:href="#O"/><use transform="matrix(0.1111111111111111,0,0,0.1111111111111111,153.11111111111111,0)" xlink:href="#R"/><use transform="matrix(0.1111111111111111,0,0,0.1111111111111111,175.33333333333334,0)" xlink:href="#N"/></g><path d="M115-194c53 0 69 39 70 98 0 66-23 100-70 100C84 3 66-7 56-30L54 0H23l1-261h32v101c10-23 28-34 59-34zm-8 174c40 0 45-34 45-75 0-40-5-75-45-74-42 0-51 32-51 76 0 43 10 73 51 73" id="ah"/><g id="q"><use transform="matrix(0.1111111111111111,0,0,0.1111111111111111,0,0)" xlink:href="#Z"/><use transform="matrix(0.1111111111111111,0,0,0.1111111111111111,26.666666666666664,0)" xlink:href="#aa"/><use transform="matrix(0.1111111111111111,0,0,0.1111111111111111,48.888888888888886,0)" xlink:href="#aa"/><use transform="matrix(0.1111111111111111,0,0,0.1111111111111111,71.11111111111111,0)" xlink:href="#T"/><use transform="matrix(0.1111111111111111,0,0,0.1111111111111111,84.33333333333334,0)" xlink:href="#ag"/><use transform="matrix(0.1111111111111111,0,0,0.1111111111111111,106.55555555555557,0)" xlink:href="#ah"/><use transform="matrix(0.1111111111111111,0,0,0.1111111111111111,128.7777777777778,0)" xlink:href="#V"/><use transform="matrix(0.1111111111111111,0,0,0.1111111111111111,151.00000000000003,0)" xlink:href="#P"/><use transform="matrix(0.1111111111111111,0,0,0.1111111111111111,162.11111111111114,0)" xlink:href="#M"/><use transform="matrix(0.1111111111111111,0,0,0.1111111111111111,170.8888888888889,0)" xlink:href="#ag"/><use transform="matrix(0.1111111111111111,0,0,0.1111111111111111,193.11111111111114,0)" xlink:href="#O"/></g><path d="M100-194c63 0 86 42 84 106H49c0 40 14 67 53 68 26 1 43-12 49-29l28 8c-11 28-37 45-77 45C44 4 14-33 15-96c1-61 26-98 85-98zm52 81c6-60-76-77-97-28-3 7-6 17-6 28h103zm-36-98l-58-49v-5h36c12 19 30 32 38 54h-16" id="ai"/><path d="M135-143c-3-34-86-38-87 0 15 53 115 12 119 90S17 21 10-45l28-5c4 36 97 45 98 0-10-56-113-15-118-90-4-57 82-63 122-42 12 7 21 19 24 35" id="aj"/><g id="r"><use transform="matrix(0.1111111111111111,0,0,0.1111111111111111,0,0)" xlink:href="#K"/><use transform="matrix(0.1111111111111111,0,0,0.1111111111111111,28.777777777777775,0)" xlink:href="#T"/><use transform="matrix(0.1111111111111111,0,0,0.1111111111111111,42,0)" xlink:href="#M"/><use transform="matrix(0.1111111111111111,0,0,0.1111111111111111,50.77777777777778,0)" xlink:href="#P"/><use transform="matrix(0.1111111111111111,0,0,0.1111111111111111,61.888888888888886,0)" xlink:href="#ai"/><use transform="matrix(0.1111111111111111,0,0,0.1111111111111111,84.11111111111111,0)" xlink:href="#T"/><use transform="matrix(0.1111111111111111,0,0,0.1111111111111111,97.33333333333334,0)" xlink:href="#N"/><use transform="matrix(0.1111111111111111,0,0,0.1111111111111111,119.55555555555557,0)" xlink:href="#aj"/></g><g id="s"><use transform="matrix(0.1111111111111111,0,0,0.1111111111111111,0,0)" xlink:href="#R"/><use transform="matrix(0.1111111111111111,0,0,0.1111111111111111,22.22222222222222,0)" xlink:href="#N"/></g><path d="M233-177c-1 41-23 64-60 70L243 0h-38l-65-103H63V0H30v-248c88 3 205-21 203 71zM63-129c60-2 137 13 137-47 0-61-80-42-137-45v92" id="ak"/><g id="t"><use transform="matrix(0.1111111111111111,0,0,0.1111111111111111,0,0)" xlink:href="#ak"/><use transform="matrix(0.1111111111111111,0,0,0.1111111111111111,28.777777777777775,0)" xlink:href="#Y"/><use transform="matrix(0.1111111111111111,0,0,0.1111111111111111,51,0)" xlink:href="#R"/><use transform="matrix(0.1111111111111111,0,0,0.1111111111111111,73.22222222222223,0)" xlink:href="#V"/><use transform="matrix(0.1111111111111111,0,0,0.1111111111111111,95.44444444444446,0)" xlink:href="#ad"/><use transform="matrix(0.1111111111111111,0,0,0.1111111111111111,115.44444444444446,0)" xlink:href="#P"/><use transform="matrix(0.1111111111111111,0,0,0.1111111111111111,126.55555555555557,0)" xlink:href="#M"/><use transform="matrix(0.1111111111111111,0,0,0.1111111111111111,135.33333333333334,0)" xlink:href="#ag"/><use transform="matrix(0.1111111111111111,0,0,0.1111111111111111,157.55555555555557,0)" xlink:href="#O"/></g><g id="u"><use transform="matrix(0.1111111111111111,0,0,0.1111111111111111,0,0)" xlink:href="#R"/><use transform="matrix(0.1111111111111111,0,0,0.1111111111111111,22.22222222222222,0)" xlink:href="#N"/><use transform="matrix(0.1111111111111111,0,0,0.1111111111111111,44.44444444444444,0)" xlink:href="#aj"/></g><g id="v"><use transform="matrix(0.1111111111111111,0,0,0.1111111111111111,0,0)" xlink:href="#P"/><use transform="matrix(0.1111111111111111,0,0,0.1111111111111111,11.11111111111111,0)" xlink:href="#N"/><use transform="matrix(0.1111111111111111,0,0,0.1111111111111111,33.33333333333333,0)" xlink:href="#T"/><use transform="matrix(0.1111111111111111,0,0,0.1111111111111111,46.55555555555555,0)" xlink:href="#X"/><use transform="matrix(0.1111111111111111,0,0,0.1111111111111111,79.77777777777777,0)" xlink:href="#N"/><use transform="matrix(0.1111111111111111,0,0,0.1111111111111111,102,0)" xlink:href="#aj"/></g><path d="M101-234c-31-9-42 10-38 44h38v23H63V0H32v-167H5v-23h27c-7-52 17-82 69-68v24" id="al"/><g id="w"><use transform="matrix(0.1111111111111111,0,0,0.1111111111111111,0,0)" xlink:href="#Q"/><use transform="matrix(0.1111111111111111,0,0,0.1111111111111111,26.666666666666664,0)" xlink:href="#Y"/><use transform="matrix(0.1111111111111111,0,0,0.1111111111111111,48.888888888888886,0)" xlink:href="#T"/><use transform="matrix(0.1111111111111111,0,0,0.1111111111111111,62.11111111111111,0)" xlink:href="#M"/><use transform="matrix(0.1111111111111111,0,0,0.1111111111111111,70.88888888888889,0)" xlink:href="#al"/><use transform="matrix(0.1111111111111111,0,0,0.1111111111111111,82,0)" xlink:href="#M"/><use transform="matrix(0.1111111111111111,0,0,0.1111111111111111,90.77777777777777,0)" xlink:href="#ad"/><use transform="matrix(0.1111111111111111,0,0,0.1111111111111111,110.77777777777777,0)" xlink:href="#V"/><use transform="matrix(0.1111111111111111,0,0,0.1111111111111111,133,0)" xlink:href="#P"/><use transform="matrix(0.1111111111111111,0,0,0.1111111111111111,144.11111111111111,0)" xlink:href="#M"/><use transform="matrix(0.1111111111111111,0,0,0.1111111111111111,152.88888888888889,0)" xlink:href="#ag"/><use transform="matrix(0.1111111111111111,0,0,0.1111111111111111,175.11111111111111,0)" xlink:href="#O"/></g><g id="x"><use transform="matrix(0.1111111111111111,0,0,0.1111111111111111,0,0)" xlink:href="#Q"/><use transform="matrix(0.1111111111111111,0,0,0.1111111111111111,24.444444444444443,0)" xlink:href="#N"/><use transform="matrix(0.1111111111111111,0,0,0.1111111111111111,46.666666666666664,0)" xlink:href="#O"/><use transform="matrix(0.1111111111111111,0,0,0.1111111111111111,68.88888888888889,0)" xlink:href="#P"/><use transform="matrix(0.1111111111111111,0,0,0.1111111111111111,80,0)" xlink:href="#T"/><use transform="matrix(0.1111111111111111,0,0,0.1111111111111111,93.22222222222223,0)" xlink:href="#N"/></g><g id="y"><use transform="matrix(0.1111111111111111,0,0,0.1111111111111111,0,0)" xlink:href="#ac"/><use transform="matrix(0.1111111111111111,0,0,0.1111111111111111,20,0)" xlink:href="#V"/><use transform="matrix(0.1111111111111111,0,0,0.1111111111111111,42.22222222222222,0)" xlink:href="#L"/><use transform="matrix(0.1111111111111111,0,0,0.1111111111111111,51,0)" xlink:href="#M"/><use transform="matrix(0.1111111111111111,0,0,0.1111111111111111,59.77777777777777,0)" xlink:href="#R"/><use transform="matrix(0.1111111111111111,0,0,0.1111111111111111,82,0)" xlink:href="#Y"/><use transform="matrix(0.1111111111111111,0,0,0.1111111111111111,104.22222222222223,0)" xlink:href="#N"/></g><path d="M127-220V0H93v-220H8v-28h204v28h-85" id="am"/><g id="z"><use transform="matrix(0.1111111111111111,0,0,0.1111111111111111,0,0)" xlink:href="#am"/><use transform="matrix(0.1111111111111111,0,0,0.1111111111111111,19.888888888888886,0)" xlink:href="#N"/><use transform="matrix(0.1111111111111111,0,0,0.1111111111111111,42.11111111111111,0)" xlink:href="#T"/><use transform="matrix(0.1111111111111111,0,0,0.1111111111111111,55.33333333333333,0)" xlink:href="#X"/><use transform="matrix(0.1111111111111111,0,0,0.1111111111111111,88.55555555555554,0)" xlink:href="#N"/><use transform="matrix(0.1111111111111111,0,0,0.1111111111111111,110.77777777777777,0)" xlink:href="#aj"/></g><g id="A"><use transform="matrix(0.1111111111111111,0,0,0.1111111111111111,0,0)" xlink:href="#aj"/><use transform="matrix(0.1111111111111111,0,0,0.1111111111111111,20,0)" xlink:href="#M"/><use transform="matrix(0.1111111111111111,0,0,0.1111111111111111,28.777777777777775,0)" xlink:href="#W"/><use transform="matrix(0.1111111111111111,0,0,0.1111111111111111,51,0)" xlink:href="#O"/><use transform="matrix(0.1111111111111111,0,0,0.1111111111111111,73.22222222222223,0)" xlink:href="#Y"/><use transform="matrix(0.1111111111111111,0,0,0.1111111111111111,95.44444444444446,0)" xlink:href="#aj"/></g><g id="B"><use transform="matrix(0.1111111111111111,0,0,0.1111111111111111,0,0)" xlink:href="#Q"/><use transform="matrix(0.1111111111111111,0,0,0.1111111111111111,24.444444444444443,0)" xlink:href="#N"/><use transform="matrix(0.1111111111111111,0,0,0.1111111111111111,46.666666666666664,0)" xlink:href="#O"/><use transform="matrix(0.1111111111111111,0,0,0.1111111111111111,68.88888888888889,0)" xlink:href="#P"/><use transform="matrix(0.1111111111111111,0,0,0.1111111111111111,80,0)" xlink:href="#N"/></g><g id="C"><use transform="matrix(0.1111111111111111,0,0,0.1111111111111111,0,0)" xlink:href="#M"/><use transform="matrix(0.1111111111111111,0,0,0.1111111111111111,8.777777777777777,0)" xlink:href="#O"/><use transform="matrix(0.1111111111111111,0,0,0.1111111111111111,31,0)" xlink:href="#ac"/><use transform="matrix(0.1111111111111111,0,0,0.1111111111111111,51,0)" xlink:href="#V"/><use transform="matrix(0.1111111111111111,0,0,0.1111111111111111,73.22222222222223,0)" xlink:href="#L"/><use transform="matrix(0.1111111111111111,0,0,0.1111111111111111,82,0)" xlink:href="#M"/><use transform="matrix(0.1111111111111111,0,0,0.1111111111111111,90.77777777777777,0)" xlink:href="#R"/><use transform="matrix(0.1111111111111111,0,0,0.1111111111111111,113,0)" xlink:href="#Y"/><use transform="matrix(0.1111111111111111,0,0,0.1111111111111111,135.22222222222223,0)" xlink:href="#N"/></g><g id="D"><use transform="matrix(0.1111111111111111,0,0,0.1111111111111111,0,0)" xlink:href="#K"/><use transform="matrix(0.1111111111111111,0,0,0.1111111111111111,28.777777777777775,0)" xlink:href="#ag"/><use transform="matrix(0.1111111111111111,0,0,0.1111111111111111,51,0)" xlink:href="#O"/><use transform="matrix(0.1111111111111111,0,0,0.1111111111111111,73.22222222222223,0)" xlink:href="#P"/><use transform="matrix(0.1111111111111111,0,0,0.1111111111111111,84.33333333333334,0)" xlink:href="#M"/><use transform="matrix(0.1111111111111111,0,0,0.1111111111111111,93.11111111111111,0)" xlink:href="#O"/><use transform="matrix(0.1111111111111111,0,0,0.1111111111111111,115.33333333333336,0)" xlink:href="#S"/><use transform="matrix(0.1111111111111111,0,0,0.1111111111111111,137.55555555555557,0)" xlink:href="#N"/><use transform="matrix(0.1111111111111111,0,0,0.1111111111111111,159.7777777777778,0)" xlink:href="#T"/></g><g id="E"><use transform="matrix(0.1111111111111111,0,0,0.1111111111111111,0,0)" xlink:href="#ac"/><use transform="matrix(0.1111111111111111,0,0,0.1111111111111111,20,0)" xlink:href="#N"/><use transform="matrix(0.1111111111111111,0,0,0.1111111111111111,42.22222222222222,0)" xlink:href="#T"/><use transform="matrix(0.1111111111111111,0,0,0.1111111111111111,55.44444444444444,0)" xlink:href="#aj"/></g><g id="F"><use transform="matrix(0.1111111111111111,0,0,0.1111111111111111,0,0)" xlink:href="#aa"/><use transform="matrix(0.1111111111111111,0,0,0.1111111111111111,22.22222222222222,0)" xlink:href="#T"/><use transform="matrix(0.1111111111111111,0,0,0.1111111111111111,35.44444444444444,0)" xlink:href="#ag"/><use transform="matrix(0.1111111111111111,0,0,0.1111111111111111,57.666666666666664,0)" xlink:href="#ad"/><use transform="matrix(0.1111111111111111,0,0,0.1111111111111111,77.66666666666666,0)" xlink:href="#N"/><use transform="matrix(0.1111111111111111,0,0,0.1111111111111111,99.88888888888889,0)" xlink:href="#aj"/><use transform="matrix(0.1111111111111111,0,0,0.1111111111111111,119.88888888888889,0)" xlink:href="#aj"/><use transform="matrix(0.1111111111111111,0,0,0.1111111111111111,139.88888888888889,0)" xlink:href="#S"/><use transform="matrix(0.1111111111111111,0,0,0.1111111111111111,162.11111111111111,0)" xlink:href="#aj"/></g><g id="G"><use transform="matrix(0.1111111111111111,0,0,0.1111111111111111,0,0)" xlink:href="#aj"/><use transform="matrix(0.1111111111111111,0,0,0.1111111111111111,20,0)" xlink:href="#S"/><use transform="matrix(0.1111111111111111,0,0,0.1111111111111111,42.22222222222222,0)" xlink:href="#M"/><use transform="matrix(0.1111111111111111,0,0,0.1111111111111111,51,0)" xlink:href="#ac"/><use transform="matrix(0.1111111111111111,0,0,0.1111111111111111,71,0)" xlink:href="#V"/><use transform="matrix(0.1111111111111111,0,0,0.1111111111111111,93.22222222222223,0)" xlink:href="#O"/><use transform="matrix(0.1111111111111111,0,0,0.1111111111111111,115.44444444444446,0)" xlink:href="#P"/></g><path fill="#333" d="M147 0H94L2-248h55l64 206c17-72 42-137 63-206h54" id="an"/><path fill="#333" d="M133-34C117-15 103 5 69 4 32 3 11-16 11-54c-1-60 55-63 116-61 1-26-3-47-28-47-18 1-26 9-28 27l-52-2c7-38 36-58 82-57s74 22 75 68l1 82c-1 14 12 18 25 15v27c-30 8-71 5-69-32zm-48 3c29 0 43-24 42-57-32 0-66-3-65 30 0 17 8 27 23 27" id="ao"/><path fill="#333" d="M25 0v-261h50V0H25" id="ap"/><path fill="#333" d="M25-224v-37h50v37H25zM25 0v-190h50V0H25" id="aq"/><path fill="#333" d="M88-194c31-1 46 15 58 34l-1-101h50l1 261h-48c-2-10 0-23-3-31C134-8 116 4 84 4 32 4 16-41 15-95c0-56 19-97 73-99zm17 164c33 0 40-30 41-66 1-37-9-64-41-64s-38 30-39 65c0 43 13 65 39 65" id="ar"/><path fill="#333" d="M185-48c-13 30-37 53-82 52C43 2 14-33 14-96s30-98 90-98c62 0 83 45 84 108H66c0 31 8 55 39 56 18 0 30-7 34-22zm-45-69c5-46-57-63-70-21-2 6-4 13-4 21h74" id="as"/><g id="H"><use transform="matrix(0.1111111111111111,0,0,0.1111111111111111,0,0)" xlink:href="#an"/><use transform="matrix(0.1111111111111111,0,0,0.1111111111111111,24.444444444444443,0)" xlink:href="#ao"/><use transform="matrix(0.1111111111111111,0,0,0.1111111111111111,46.666666666666664,0)" xlink:href="#ap"/><use transform="matrix(0.1111111111111111,0,0,0.1111111111111111,57.77777777777777,0)" xlink:href="#aq"/><use transform="matrix(0.1111111111111111,0,0,0.1111111111111111,68.88888888888889,0)" xlink:href="#ar"/><use transform="matrix(0.1111111111111111,0,0,0.1111111111111111,93.22222222222221,0)" xlink:href="#as"/></g><path fill="#333" d="M175 0L67-191c6 58 2 128 3 191H24v-248h59L193-55c-6-58-2-129-3-193h46V0h-61" id="at"/><path fill="#333" d="M110-194c64 0 96 36 96 99 0 64-35 99-97 99-61 0-95-36-95-99 0-62 34-99 96-99zm-1 164c35 0 45-28 45-65 0-40-10-65-43-65-34 0-45 26-45 65 0 36 10 65 43 65" id="au"/><path fill="#333" d="M135-194c87-1 58 113 63 194h-50c-7-57 23-157-34-157-59 0-34 97-39 157H25l-1-190h47c2 12-1 28 3 38 12-26 28-41 61-42" id="av"/><g id="I"><use transform="matrix(0.04938271604938272,0,0,0.04938271604938272,0,0)" xlink:href="#at"/><use transform="matrix(0.04938271604938272,0,0,0.04938271604938272,12.790123456790125,0)" xlink:href="#au"/><use transform="matrix(0.04938271604938272,0,0,0.04938271604938272,23.60493827160494,0)" xlink:href="#av"/></g><path fill="#333" d="M24 0v-248h52V0H24" id="aw"/><path fill="#333" d="M128 0H69L1-190h53L99-40l48-150h52" id="ax"/><g id="J"><use transform="matrix(0.1111111111111111,0,0,0.1111111111111111,0,0)" xlink:href="#aw"/><use transform="matrix(0.1111111111111111,0,0,0.1111111111111111,11.11111111111111,0)" xlink:href="#av"/><use transform="matrix(0.1111111111111111,0,0,0.1111111111111111,35.44444444444444,0)" xlink:href="#ax"/><use transform="matrix(0.1111111111111111,0,0,0.1111111111111111,57.666666666666664,0)" xlink:href="#ao"/><use transform="matrix(0.1111111111111111,0,0,0.1111111111111111,79.88888888888889,0)" xlink:href="#ap"/><use transform="matrix(0.1111111111111111,0,0,0.1111111111111111,91,0)" xlink:href="#aq"/><use transform="matrix(0.1111111111111111,0,0,0.1111111111111111,102.11111111111111,0)" xlink:href="#ar"/><use transform="matrix(0.1111111111111111,0,0,0.1111111111111111,126.44444444444444,0)" xlink:href="#as"/></g></defs></g></svg>