<svg xmlns="http://www.w3.org/2000/svg" xmlns:xlink="http://www.w3.org/1999/xlink" xmlns:lucid="lucid" width="1208" height="753"><g transform="translate(-30 144)" lucid:page-tab-id="0_0"><path d="M-500-1000h3500v2500H-500z" fill="#fff"/><path d="M460-15a6 6 0 0 1 6-6h348a6 6 0 0 1 6 6v165a6 6 0 0 1-6 6H466a6 6 0 0 1-6-6z" stroke="#3a414a" stroke-width="2" fill="#fff"/><path d="M460 16.6h360M460 75.7h360" stroke="#3a414a" stroke-width="2" fill="none"/><use xlink:href="#a" transform="matrix(1,0,0,1,468,-13) translate(121.57499999999999 14.6)"/><use xlink:href="#b" transform="matrix(1,0,0,1,472,24.6) translate(0 25.6)"/><use xlink:href="#c" transform="matrix(1,0,0,1,472,24.6) translate(10.95 25.6)"/><use xlink:href="#d" transform="matrix(1,0,0,1,472,83.7) translate(0 25.299999999999997)"/><use xlink:href="#e" transform="matrix(1,0,0,1,472,83.7) translate(15.5 25.299999999999997)"/><use xlink:href="#d" transform="matrix(1,0,0,1,472,83.7) translate(0 46.9)"/><use xlink:href="#f" transform="matrix(1,0,0,1,472,83.7) translate(15.5 46.9)"/><path d="M60 366a6 6 0 0 1 6-6h348a6 6 0 0 1 6 6v187a6 6 0 0 1-6 6H66a6 6 0 0 1-6-6z" stroke="#3a414a" stroke-width="2" fill="#fff"/><path d="M60 397.6h360M60 499.9h360" stroke="#3a414a" stroke-width="2" fill="none"/><use xlink:href="#g" transform="matrix(1,0,0,1,68,368) translate(131.075 14.6)"/><use xlink:href="#d" transform="matrix(1,0,0,1,72,405.6) translate(0 25.5)"/><use xlink:href="#h" transform="matrix(1,0,0,1,72,405.6) translate(15.5 25.5)"/><use xlink:href="#i" transform="matrix(1,0,0,1,72,405.6) translate(69.35 25.5)"/><use xlink:href="#d" transform="matrix(1,0,0,1,72,405.6) translate(0 47.1)"/><use xlink:href="#j" transform="matrix(1,0,0,1,72,405.6) translate(15.5 47.1)"/><use xlink:href="#d" transform="matrix(1,0,0,1,72,405.6) translate(0 68.7)"/><use xlink:href="#k" transform="matrix(1,0,0,1,72,405.6) translate(15.5 68.7)"/><path d="M820 386a6 6 0 0 1 6-6h348a6 6 0 0 1 6 6v187a6 6 0 0 1-6 6H826a6 6 0 0 1-6-6z" stroke="#3a414a" stroke-width="2" fill="#fff"/><path d="M820 417.6h360M820 519.9h360" stroke="#3a414a" stroke-width="2" fill="none"/><use xlink:href="#l" transform="matrix(1,0,0,1,828,388) translate(127.57499999999999 14.6)"/><g><use xlink:href="#d" transform="matrix(1,0,0,1,832,425.6) translate(0 25.5)"/><use xlink:href="#m" transform="matrix(1,0,0,1,832,425.6) translate(15.5 25.5)"/><use xlink:href="#i" transform="matrix(1,0,0,1,832,425.6) translate(72.45 25.5)"/><use xlink:href="#d" transform="matrix(1,0,0,1,832,425.6) translate(0 47.1)"/><use xlink:href="#n" transform="matrix(1,0,0,1,832,425.6) translate(15.5 47.1)"/><use xlink:href="#i" transform="matrix(1,0,0,1,832,425.6) translate(60.45 47.1)"/><use xlink:href="#d" transform="matrix(1,0,0,1,832,425.6) translate(0 68.7)"/><use xlink:href="#k" transform="matrix(1,0,0,1,832,425.6) translate(15.5 68.7)"/></g><path d="M240 358v-10.44m0-10.45v-20.88m0-10.44v-20.9m0-10.44V264l.07-.94.22-.9.35-.88.5-.8.6-.72.72-.6.8-.5.88-.37.9-.23.95-.07h10.37m10.37 0h20.74m10.37 0h20.74m10.36 0h20.74m10.37 0h20.75m10.37 0h20.73m10.37 0h20.74m10.37 0h20.75m10.37 0h20.74m10.37 0H526l.94-.07.9-.22.88-.35.8-.5.72-.6.6-.72.5-.8.37-.88.23-.9.07-.95v-8.78m0-8.78v-17.56m0-8.77v-17.55m0-8.78V173" stroke="#5e5e5e" stroke-width="2" fill="none"/><path d="M240.97 359h-1.94v-1.03h1.94z" stroke="#5e5e5e" stroke-width=".05" fill="#5e5e5e"/><path d="M532 159l7.5 13h-15z" stroke="#5e5e5e" stroke-width="2" fill="#5e5e5e"/><path d="M1000 378v-11.56m0-11.55v-23.12m0-11.56v-23.1m0-11.56V274l-.07-.94-.22-.9-.35-.88-.5-.8-.6-.72-.72-.6-.8-.5-.88-.37-.9-.23-.95-.07h-9.53m-9.53 0h-19.06m-9.53 0h-19.07m-9.53 0H898.7m-9.54 0H870.1m-9.53 0H841.5m-9.52 0H812.9m-9.52 0h-19.06m-9.53 0h-19.07m-9.53 0h-9.53l-.94-.07-.92-.22-.86-.35-.8-.5-.72-.6-.6-.72-.5-.8-.36-.88-.22-.9-.07-.95v-9.9m0-9.88v-19.78m0-9.9v-19.77m0-9.9V173" stroke="#5e5e5e" stroke-width="2" fill="none"/><path d="M1000.98 379H999v-1.03h1.96z" stroke="#5e5e5e" stroke-width=".05" fill="#5e5e5e"/><path d="M730.67 159l7.5 13h-15z" stroke="#5e5e5e" stroke-width="2" fill="#5e5e5e"/><path d="M540-114a6 6 0 0 1 6-6h148a6 6 0 0 1 6 6v28a6 6 0 0 1-6 6H546a6 6 0 0 1-6-6z" fill="#fff"/><g><use xlink:href="#o" transform="matrix(1,0,0,1,540,-120) translate(35.60499999999999 24.4)"/></g><defs><path d="M24-248c93 1 206-16 204 79-1 75-69 88-152 82V0H24v-248zm52 121c47 0 100 7 100-41 0-47-54-39-100-39v80" id="p"/><path d="M135-150c-39-12-60 13-60 57V0H25l-1-190h47c2 13-1 29 3 40 6-28 27-53 61-41v41" id="q"/><path d="M110-194c64 0 96 36 96 99 0 64-35 99-97 99-61 0-95-36-95-99 0-62 34-99 96-99zm-1 164c35 0 45-28 45-65 0-40-10-65-43-65-34 0-45 26-45 65 0 36 10 65 43 65" id="r"/><path d="M135-194c53 0 70 44 70 98 0 56-19 98-73 100-31 1-45-17-59-34 3 33 2 69 2 105H25l-1-265h48c2 10 0 23 3 31 11-24 29-35 60-35zM114-30c33 0 39-31 40-66 0-38-9-64-40-64-56 0-55 130 0 130" id="s"/><path d="M25-224v-37h50v37H25zM25 0v-190h50V0H25" id="t"/><path d="M185-48c-13 30-37 53-82 52C43 2 14-33 14-96s30-98 90-98c62 0 83 45 84 108H66c0 31 8 55 39 56 18 0 30-7 34-22zm-45-69c5-46-57-63-70-21-2 6-4 13-4 21h74zm-67-91v-5l45-51h45v8l-60 48H73" id="u"/><path d="M115-3C79 11 28 4 28-45v-112H4v-33h27l15-45h31v45h36v33H77v99c-1 23 16 31 38 25v30" id="v"/><path d="M133-34C117-15 103 5 69 4 32 3 11-16 11-54c-1-60 55-63 116-61 1-26-3-47-28-47-18 1-26 9-28 27l-52-2c7-38 36-58 82-57s74 22 75 68l1 82c-1 14 12 18 25 15v27c-30 8-71 5-69-32zm-48 3c29 0 43-24 42-57-32 0-66-3-65 30 0 17 8 27 23 27" id="w"/><path d="M185-48c-13 30-37 53-82 52C43 2 14-33 14-96s30-98 90-98c62 0 83 45 84 108H66c0 31 8 55 39 56 18 0 30-7 34-22zm-45-69c5-46-57-63-70-21-2 6-4 13-4 21h74" id="x"/><g id="a"><use transform="matrix(0.05,0,0,0.05,0,0)" xlink:href="#p"/><use transform="matrix(0.05,0,0,0.05,12,0)" xlink:href="#q"/><use transform="matrix(0.05,0,0,0.05,19,0)" xlink:href="#r"/><use transform="matrix(0.05,0,0,0.05,29.950000000000003,0)" xlink:href="#s"/><use transform="matrix(0.05,0,0,0.05,40.900000000000006,0)" xlink:href="#q"/><use transform="matrix(0.05,0,0,0.05,47.900000000000006,0)" xlink:href="#t"/><use transform="matrix(0.05,0,0,0.05,52.900000000000006,0)" xlink:href="#u"/><use transform="matrix(0.05,0,0,0.05,62.900000000000006,0)" xlink:href="#v"/><use transform="matrix(0.05,0,0,0.05,68.85000000000001,0)" xlink:href="#w"/><use transform="matrix(0.05,0,0,0.05,78.85000000000001,0)" xlink:href="#t"/><use transform="matrix(0.05,0,0,0.05,83.85000000000001,0)" xlink:href="#q"/><use transform="matrix(0.05,0,0,0.05,90.85000000000001,0)" xlink:href="#x"/></g><path d="M16-82v-28h88v28H16" id="y"/><use transform="matrix(0.05,0,0,0.05,0,0)" xlink:href="#y" id="b"/><path d="M117-194c89-4 53 116 60 194h-32v-121c0-31-8-49-39-48C34-167 62-67 57 0H25l-1-190h30c1 10-1 24 2 32 11-22 29-35 61-36" id="z"/><path d="M100-194c62-1 85 37 85 99 1 63-27 99-86 99S16-35 15-95c0-66 28-99 85-99zM99-20c44 1 53-31 53-75 0-43-8-75-51-75s-53 32-53 75 10 74 51 75" id="A"/><path d="M210-169c-67 3-38 105-44 169h-31v-121c0-29-5-50-35-48C34-165 62-65 56 0H25l-1-190h30c1 10-1 24 2 32 10-44 99-50 107 0 11-21 27-35 58-36 85-2 47 119 55 194h-31v-121c0-29-5-49-35-48" id="B"/><path d="M115-194c53 0 69 39 70 98 0 66-23 100-70 100C84 3 66-7 56-30L54 0H23l1-261h32v101c10-23 28-34 59-34zm-8 174c40 0 45-34 45-75 0-40-5-75-45-74-42 0-51 32-51 76 0 43 10 73 51 73" id="C"/><path d="M114-163C36-179 61-72 57 0H25l-1-190h30c1 12-1 29 2 39 6-27 23-49 58-41v29" id="D"/><path d="M100-194c63 0 86 42 84 106H49c0 40 14 67 53 68 26 1 43-12 49-29l28 8c-11 28-37 45-77 45C44 4 14-33 15-96c1-61 26-98 85-98zm52 81c6-60-76-77-97-28-3 7-6 17-6 28h103" id="E"/><path d="M30-248c87 1 191-15 191 75 0 78-77 80-158 76V0H30v-248zm33 125c57 0 124 11 124-50 0-59-68-47-124-48v98" id="F"/><path d="M115-194c55 1 70 41 70 98S169 2 115 4C84 4 66-9 55-30l1 105H24l-1-265h31l2 30c10-21 28-34 59-34zm-8 174c40 0 45-34 45-75s-6-73-45-74c-42 0-51 32-51 76 0 43 10 73 51 73" id="G"/><path d="M24-231v-30h32v30H24zM24 0v-190h32V0H24" id="H"/><path d="M100-194c63 0 86 42 84 106H49c0 40 14 67 53 68 26 1 43-12 49-29l28 8c-11 28-37 45-77 45C44 4 14-33 15-96c1-61 26-98 85-98zm52 81c6-60-76-77-97-28-3 7-6 17-6 28h103zm-74-98c8-23 27-35 38-54h36v5l-58 49H78" id="I"/><path d="M59-47c-2 24 18 29 38 22v24C64 9 27 4 27-40v-127H5v-23h24l9-43h21v43h35v23H59v120" id="J"/><path d="M135-143c-3-34-86-38-87 0 15 53 115 12 119 90S17 21 10-45l28-5c4 36 97 45 98 0-10-56-113-15-118-90-4-57 82-63 122-42 12 7 21 19 24 35" id="K"/><path d="M33-154v-36h34v36H33zM33 0v-36h34V0H33" id="L"/><g id="c"><use transform="matrix(0.05,0,0,0.05,0,0)" xlink:href="#z"/><use transform="matrix(0.05,0,0,0.05,10,0)" xlink:href="#A"/><use transform="matrix(0.05,0,0,0.05,20,0)" xlink:href="#B"/><use transform="matrix(0.05,0,0,0.05,34.95,0)" xlink:href="#C"/><use transform="matrix(0.05,0,0,0.05,44.95,0)" xlink:href="#D"/><use transform="matrix(0.05,0,0,0.05,50.900000000000006,0)" xlink:href="#E"/><use transform="matrix(0.05,0,0,0.05,60.900000000000006,0)" xlink:href="#F"/><use transform="matrix(0.05,0,0,0.05,72.9,0)" xlink:href="#D"/><use transform="matrix(0.05,0,0,0.05,78.85000000000001,0)" xlink:href="#A"/><use transform="matrix(0.05,0,0,0.05,88.85000000000001,0)" xlink:href="#G"/><use transform="matrix(0.05,0,0,0.05,98.85000000000001,0)" xlink:href="#D"/><use transform="matrix(0.05,0,0,0.05,104.80000000000001,0)" xlink:href="#H"/><use transform="matrix(0.05,0,0,0.05,108.75,0)" xlink:href="#I"/><use transform="matrix(0.05,0,0,0.05,118.75,0)" xlink:href="#J"/><use transform="matrix(0.05,0,0,0.05,123.75,0)" xlink:href="#I"/><use transform="matrix(0.05,0,0,0.05,133.75,0)" xlink:href="#K"/><use transform="matrix(0.05,0,0,0.05,142.75,0)" xlink:href="#L"/><use transform="matrix(0.05,0,0,0.05,147.75,0)" xlink:href="#H"/><use transform="matrix(0.05,0,0,0.05,151.7,0)" xlink:href="#z"/><use transform="matrix(0.05,0,0,0.05,161.7,0)" xlink:href="#J"/></g><path d="M118-107v75H92v-75H18v-26h74v-75h26v75h74v26h-74" id="M"/><use transform="matrix(0.05,0,0,0.05,0,0)" xlink:href="#M" id="d"/><path d="M141-36C126-15 110 5 73 4 37 3 15-17 15-53c-1-64 63-63 125-63 3-35-9-54-41-54-24 1-41 7-42 31l-33-3c5-37 33-52 76-52 45 0 72 20 72 64v82c-1 20 7 32 28 27v20c-31 9-61-2-59-35zM48-53c0 20 12 33 32 33 41-3 63-29 60-74-43 2-92-5-92 41" id="N"/><path d="M96-169c-40 0-48 33-48 73s9 75 48 75c24 0 41-14 43-38l32 2c-6 37-31 61-74 61-59 0-76-41-82-99-10-93 101-131 147-64 4 7 5 14 7 22l-32 3c-4-21-16-35-41-35" id="O"/><path d="M106-169C34-169 62-67 57 0H25v-261h32l-1 103c12-21 28-36 61-36 89 0 53 116 60 194h-32v-121c2-32-8-49-39-48" id="P"/><path d="M87 75C49 33 22-17 22-94c0-76 28-126 65-167h31c-38 41-64 92-64 168S80 34 118 75H87" id="Q"/><path d="M33-261c38 41 65 92 65 168S71 34 33 75H2C39 34 66-17 66-93S39-220 2-261h31" id="R"/><g id="e"><use transform="matrix(0.05,0,0,0.05,0,0)" xlink:href="#N"/><use transform="matrix(0.05,0,0,0.05,10,0)" xlink:href="#O"/><use transform="matrix(0.05,0,0,0.05,19,0)" xlink:href="#P"/><use transform="matrix(0.05,0,0,0.05,29,0)" xlink:href="#E"/><use transform="matrix(0.05,0,0,0.05,39,0)" xlink:href="#J"/><use transform="matrix(0.05,0,0,0.05,44,0)" xlink:href="#E"/><use transform="matrix(0.05,0,0,0.05,54,0)" xlink:href="#D"/><use transform="matrix(0.05,0,0,0.05,59.95,0)" xlink:href="#Q"/><use transform="matrix(0.05,0,0,0.05,65.9,0)" xlink:href="#G"/><use transform="matrix(0.05,0,0,0.05,75.9,0)" xlink:href="#D"/><use transform="matrix(0.05,0,0,0.05,81.85000000000001,0)" xlink:href="#A"/><use transform="matrix(0.05,0,0,0.05,91.85000000000001,0)" xlink:href="#G"/><use transform="matrix(0.05,0,0,0.05,101.85000000000001,0)" xlink:href="#D"/><use transform="matrix(0.05,0,0,0.05,107.80000000000001,0)" xlink:href="#H"/><use transform="matrix(0.05,0,0,0.05,111.75,0)" xlink:href="#I"/><use transform="matrix(0.05,0,0,0.05,121.75,0)" xlink:href="#J"/><use transform="matrix(0.05,0,0,0.05,126.75,0)" xlink:href="#I"/><use transform="matrix(0.05,0,0,0.05,136.75,0)" xlink:href="#R"/></g><path d="M108 0H70L1-190h34L89-25l56-165h34" id="S"/><path d="M85-194c31 0 48 13 60 33l-1-100h32l1 261h-30c-2-10 0-23-3-31C134-8 116 4 85 4 32 4 16-35 15-94c0-66 23-100 70-100zm9 24c-40 0-46 34-46 75 0 40 6 74 45 74 42 0 51-32 51-76 0-42-9-74-50-73" id="T"/><g id="f"><use transform="matrix(0.05,0,0,0.05,0,0)" xlink:href="#S"/><use transform="matrix(0.05,0,0,0.05,9,0)" xlink:href="#E"/><use transform="matrix(0.05,0,0,0.05,19,0)" xlink:href="#z"/><use transform="matrix(0.05,0,0,0.05,29,0)" xlink:href="#T"/><use transform="matrix(0.05,0,0,0.05,39,0)" xlink:href="#D"/><use transform="matrix(0.05,0,0,0.05,44.95,0)" xlink:href="#E"/><use transform="matrix(0.05,0,0,0.05,54.95,0)" xlink:href="#Q"/><use transform="matrix(0.05,0,0,0.05,60.900000000000006,0)" xlink:href="#G"/><use transform="matrix(0.05,0,0,0.05,70.9,0)" xlink:href="#D"/><use transform="matrix(0.05,0,0,0.05,76.85000000000001,0)" xlink:href="#A"/><use transform="matrix(0.05,0,0,0.05,86.85000000000001,0)" xlink:href="#G"/><use transform="matrix(0.05,0,0,0.05,96.85000000000001,0)" xlink:href="#D"/><use transform="matrix(0.05,0,0,0.05,102.80000000000001,0)" xlink:href="#H"/><use transform="matrix(0.05,0,0,0.05,106.75,0)" xlink:href="#I"/><use transform="matrix(0.05,0,0,0.05,116.75,0)" xlink:href="#J"/><use transform="matrix(0.05,0,0,0.05,121.75,0)" xlink:href="#I"/><use transform="matrix(0.05,0,0,0.05,131.75,0)" xlink:href="#R"/></g><path d="M137-138c1-29-70-34-71-4 15 46 118 7 119 86 1 83-164 76-172 9l43-7c4 19 20 25 44 25 33 8 57-30 24-41C81-84 22-81 20-136c-2-80 154-74 161-7" id="U"/><path d="M135-194c87-1 58 113 63 194h-50c-7-57 23-157-34-157-59 0-34 97-39 157H25l-1-190h47c2 12-1 28 3 38 12-26 28-41 61-42" id="V"/><g id="g"><use transform="matrix(0.05,0,0,0.05,0,0)" xlink:href="#p"/><use transform="matrix(0.05,0,0,0.05,12,0)" xlink:href="#x"/><use transform="matrix(0.05,0,0,0.05,22,0)" xlink:href="#q"/><use transform="matrix(0.05,0,0,0.05,29,0)" xlink:href="#U"/><use transform="matrix(0.05,0,0,0.05,39,0)" xlink:href="#r"/><use transform="matrix(0.05,0,0,0.05,49.95,0)" xlink:href="#V"/><use transform="matrix(0.05,0,0,0.05,60.900000000000006,0)" xlink:href="#V"/><use transform="matrix(0.05,0,0,0.05,71.85000000000001,0)" xlink:href="#x"/></g><path d="M24 0v-261h32V0H24" id="W"/><g id="h"><use transform="matrix(0.05,0,0,0.05,0,0)" xlink:href="#D"/><use transform="matrix(0.05,0,0,0.05,5.95,0)" xlink:href="#I"/><use transform="matrix(0.05,0,0,0.05,15.949999999999998,0)" xlink:href="#E"/><use transform="matrix(0.05,0,0,0.05,25.950000000000003,0)" xlink:href="#W"/><use transform="matrix(0.05,0,0,0.05,29.899999999999995,0)" xlink:href="#W"/><use transform="matrix(0.05,0,0,0.05,33.85,0)" xlink:href="#E"/><use transform="matrix(0.05,0,0,0.05,43.85,0)" xlink:href="#L"/></g><g id="i"><use transform="matrix(0.05,0,0,0.05,0,0)" xlink:href="#C"/><use transform="matrix(0.05,0,0,0.05,10,0)" xlink:href="#A"/><use transform="matrix(0.05,0,0,0.05,20,0)" xlink:href="#A"/><use transform="matrix(0.05,0,0,0.05,30,0)" xlink:href="#W"/></g><path d="M177-190C167-65 218 103 67 71c-23-6-38-20-44-43l32-5c15 47 100 32 89-28v-30C133-14 115 1 83 1 29 1 15-40 15-95c0-56 16-97 71-98 29-1 48 16 59 35 1-10 0-23 2-32h30zM94-22c36 0 50-32 50-73 0-42-14-75-50-75-39 0-46 34-46 75s6 73 46 73" id="X"/><g id="j"><use transform="matrix(0.05,0,0,0.05,0,0)" xlink:href="#J"/><use transform="matrix(0.05,0,0,0.05,5,0)" xlink:href="#N"/><use transform="matrix(0.05,0,0,0.05,15,0)" xlink:href="#z"/><use transform="matrix(0.05,0,0,0.05,25,0)" xlink:href="#X"/><use transform="matrix(0.05,0,0,0.05,35,0)" xlink:href="#H"/><use transform="matrix(0.05,0,0,0.05,38.95,0)" xlink:href="#C"/><use transform="matrix(0.05,0,0,0.05,48.95,0)" xlink:href="#W"/><use transform="matrix(0.05,0,0,0.05,52.900000000000006,0)" xlink:href="#E"/><use transform="matrix(0.05,0,0,0.05,62.900000000000006,0)" xlink:href="#L"/><use transform="matrix(0.05,0,0,0.05,67.9,0)" xlink:href="#C"/><use transform="matrix(0.05,0,0,0.05,77.9,0)" xlink:href="#A"/><use transform="matrix(0.05,0,0,0.05,87.9,0)" xlink:href="#A"/><use transform="matrix(0.05,0,0,0.05,97.9,0)" xlink:href="#W"/></g><g id="k"><use transform="matrix(0.05,0,0,0.05,0,0)" xlink:href="#H"/><use transform="matrix(0.05,0,0,0.05,3.95,0)" xlink:href="#z"/><use transform="matrix(0.05,0,0,0.05,13.949999999999998,0)" xlink:href="#J"/><use transform="matrix(0.05,0,0,0.05,18.95,0)" xlink:href="#N"/><use transform="matrix(0.05,0,0,0.05,28.950000000000003,0)" xlink:href="#z"/><use transform="matrix(0.05,0,0,0.05,38.95,0)" xlink:href="#X"/><use transform="matrix(0.05,0,0,0.05,48.95,0)" xlink:href="#H"/><use transform="matrix(0.05,0,0,0.05,52.900000000000006,0)" xlink:href="#C"/><use transform="matrix(0.05,0,0,0.05,62.900000000000006,0)" xlink:href="#W"/><use transform="matrix(0.05,0,0,0.05,66.85000000000001,0)" xlink:href="#E"/><use transform="matrix(0.05,0,0,0.05,76.85000000000001,0)" xlink:href="#L"/><use transform="matrix(0.05,0,0,0.05,81.85000000000001,0)" xlink:href="#C"/><use transform="matrix(0.05,0,0,0.05,91.85000000000001,0)" xlink:href="#A"/><use transform="matrix(0.05,0,0,0.05,101.85000000000001,0)" xlink:href="#A"/><use transform="matrix(0.05,0,0,0.05,111.85000000000001,0)" xlink:href="#W"/></g><path d="M24 0v-248h195v40H76v63h132v40H76v65h150V0H24" id="Y"/><g id="l"><use transform="matrix(0.05,0,0,0.05,0,0)" xlink:href="#Y"/><use transform="matrix(0.05,0,0,0.05,12,0)" xlink:href="#V"/><use transform="matrix(0.05,0,0,0.05,22.950000000000003,0)" xlink:href="#v"/><use transform="matrix(0.05,0,0,0.05,28.900000000000002,0)" xlink:href="#q"/><use transform="matrix(0.05,0,0,0.05,35.900000000000006,0)" xlink:href="#x"/><use transform="matrix(0.05,0,0,0.05,45.900000000000006,0)" xlink:href="#s"/><use transform="matrix(0.05,0,0,0.05,56.85,0)" xlink:href="#q"/><use transform="matrix(0.05,0,0,0.05,63.85,0)" xlink:href="#t"/><use transform="matrix(0.05,0,0,0.05,68.85000000000001,0)" xlink:href="#U"/><use transform="matrix(0.05,0,0,0.05,78.85000000000001,0)" xlink:href="#x"/></g><g id="m"><use transform="matrix(0.05,0,0,0.05,0,0)" xlink:href="#N"/><use transform="matrix(0.05,0,0,0.05,10,0)" xlink:href="#O"/><use transform="matrix(0.05,0,0,0.05,19,0)" xlink:href="#J"/><use transform="matrix(0.05,0,0,0.05,24,0)" xlink:href="#H"/><use transform="matrix(0.05,0,0,0.05,27.950000000000003,0)" xlink:href="#S"/><use transform="matrix(0.05,0,0,0.05,36.95,0)" xlink:href="#E"/><use transform="matrix(0.05,0,0,0.05,46.95,0)" xlink:href="#L"/></g><g id="n"><use transform="matrix(0.05,0,0,0.05,0,0)" xlink:href="#G"/><use transform="matrix(0.05,0,0,0.05,10,0)" xlink:href="#B"/><use transform="matrix(0.05,0,0,0.05,24.950000000000003,0)" xlink:href="#E"/><use transform="matrix(0.05,0,0,0.05,34.95,0)" xlink:href="#L"/></g><path d="M233-177c-1 41-23 64-60 70L243 0h-38l-65-103H63V0H30v-248c88 3 205-21 203 71zM63-129c60-2 137 13 137-47 0-61-80-42-137-45v92" id="Z"/><g id="o"><use transform="matrix(0.05,0,0,0.05,0,0)" xlink:href="#Z"/><use transform="matrix(0.05,0,0,0.05,12.950000000000001,0)" xlink:href="#I"/><use transform="matrix(0.05,0,0,0.05,22.950000000000003,0)" xlink:href="#N"/><use transform="matrix(0.05,0,0,0.05,32.95,0)" xlink:href="#W"/><use transform="matrix(0.05,0,0,0.05,36.900000000000006,0)" xlink:href="#H"/><use transform="matrix(0.05,0,0,0.05,40.85000000000001,0)" xlink:href="#K"/><use transform="matrix(0.05,0,0,0.05,49.85000000000001,0)" xlink:href="#N"/><use transform="matrix(0.05,0,0,0.05,59.85,0)" xlink:href="#J"/><use transform="matrix(0.05,0,0,0.05,64.85000000000001,0)" xlink:href="#H"/><use transform="matrix(0.05,0,0,0.05,68.80000000000001,0)" xlink:href="#A"/><use transform="matrix(0.05,0,0,0.05,78.80000000000001,0)" xlink:href="#z"/></g></defs></g></svg>