<svg xmlns="http://www.w3.org/2000/svg" xmlns:xlink="http://www.w3.org/1999/xlink" xmlns:lucid="lucid" width="2582" height="1142"><g transform="translate(-159 -559)" lucid:page-tab-id="0_0"><path d="M0 500h3000v1500H0z" fill="#fff"/><path d="M860 606a6 6 0 0 1 6-6h308a6 6 0 0 1 6 6v208a6 6 0 0 1-6 6H866a6 6 0 0 1-6-6z" stroke="#3a414a" stroke-width="2" fill-opacity="0"/><use xlink:href="#a" transform="matrix(1,0,0,1,868,608) translate(110.05 15.6)"/><path d="M1240 586a6 6 0 0 1 6-6h88a6 6 0 0 1 6 6v8a14.48 14.48 0 0 1-4.24 10.24l-1.52 1.52A14.48 14.48 0 0 1 1324 610h-78a6 6 0 0 1-6-6z" fill="#fff"/><path d="M1340 580v20l-10 10h-90" stroke="#3a414a" stroke-width="2" fill="none"/><path d="M1240 586a6 6 0 0 1 6-6h688a6 6 0 0 1 6 6v488a6 6 0 0 1-6 6h-688a6 6 0 0 1-6-6zM1240 830h20m15 0h20m15 0h20m15 0h20m15 0h20m15 0h20m15 0h20m15 0h20m15 0h20m15 0h20m15 0h20m15 0h20m15 0h20m15 0h20m15 0h20m15 0h20m15 0h20m15 0h20m15 0h20m15 0h20" stroke="#3a414a" stroke-width="2" fill="none"/><use xlink:href="#b" transform="matrix(1,0,0,1,1248,580) translate(0 18.6)"/><use xlink:href="#c" transform="matrix(1,0,0,1,1252,618) translate(0 18.6)"/><use xlink:href="#d" transform="matrix(1,0,0,1,1252,838) translate(0 18.6)"/><path d="M1240 1186a6 6 0 0 1 6-6h88a6 6 0 0 1 6 6v8a14.48 14.48 0 0 1-4.24 10.24l-1.52 1.52A14.48 14.48 0 0 1 1324 1210h-78a6 6 0 0 1-6-6z" fill="#fff"/><path d="M1340 1180v20l-10 10h-90" stroke="#3a414a" stroke-width="2" fill="none"/><path d="M1240 1186a6 6 0 0 1 6-6h688a6 6 0 0 1 6 6v488a6 6 0 0 1-6 6h-688a6 6 0 0 1-6-6z" stroke="#3a414a" stroke-width="2" fill="none"/><use xlink:href="#e" transform="matrix(1,0,0,1,1248,1180) translate(0 18.6)"/><use xlink:href="#c" transform="matrix(1,0,0,1,1252,1218) translate(0 18.6)"/><path d="M2020 586a6 6 0 0 1 6-6h88a6 6 0 0 1 6 6v8a14.48 14.48 0 0 1-4.24 10.24l-1.52 1.52A14.48 14.48 0 0 1 2104 610h-78a6 6 0 0 1-6-6z" fill="#fff"/><path d="M2120 580v20l-10 10h-90" stroke="#3a414a" stroke-width="2" fill="none"/><path d="M2020 586a6 6 0 0 1 6-6h688a6 6 0 0 1 6 6v488a6 6 0 0 1-6 6h-688a6 6 0 0 1-6-6z" stroke="#3a414a" stroke-width="2" fill="none"/><use xlink:href="#f" transform="matrix(1,0,0,1,2028,580) translate(0 18.6)"/><use xlink:href="#c" transform="matrix(1,0,0,1,2032,618) translate(0 18.6)"/><path d="M779.75 639.75c0 10.9-8.84 19.75-19.75 19.75-10.9 0-19.75-8.84-19.75-19.75 0-10.9 8.84-19.75 19.75-19.75 10.9 0 19.75 8.84 19.75 19.75z" stroke="#3a414a" stroke-width="2" fill="#fff"/><path d="M760 659.5v49.3a20.7 20.7 0 0 0 3.2 11.07L800 778m-40-63.2L720 778m0-98.75h80" stroke="#3a414a" stroke-width="2" fill="none"/><path d="M720 626a6 6 0 0 1 6-6h68a6 6 0 0 1 6 6v168a6 6 0 0 1-6 6h-68a6 6 0 0 1-6-6z" fill="none"/><use xlink:href="#g" transform="matrix(1,0,0,1,640,778) translate(94.025 14.6)"/><path d="M540 741v9.86m0 9.86v19.73m0 9.86v19.73m0 9.87v19.72m0 9.86v19.73m0 9.87v19.72m0 9.86v19.72m0 9.86v19.73m0 9.86v19.72m0 9.86v19.74m0 9.86v19.72m0 9.87v19.7m0 9.87v19.73m0 9.86v19.72m0 9.87v19.72m0 9.86v19.72m0 9.87v19.72m0 9.86v19.73m0 9.86v19.7m0 9.88V1313m0 9.86v19.73m0 9.85v19.72m0 9.86v19.73m0 9.86v19.73m0 9.86v19.73m0 9.86v19.72m0 9.86v19.72m0 9.87v19.72m0 9.85v19.73m0 9.86v9.86M540 741.03V740M540 1598.97v1.03" stroke="#5e5e5e" stroke-width="2" fill="none"/><path d="M720 1260h136l24 24v96H720z" stroke="#3a414a" stroke-width="2" fill="#fff"/><path d="M856 1260.95V1284h23.05" stroke="#3a414a" stroke-width="2" fill="#fff"/><use xlink:href="#h" transform="matrix(1,0,0,1,725,1265) translate(0 48.775)"/><use xlink:href="#i" transform="matrix(1,0,0,1,725,1265) translate(54.95 48.775)"/><use xlink:href="#j" transform="matrix(1,0,0,1,725,1265) translate(64.95 48.775)"/><use xlink:href="#k" transform="matrix(1,0,0,1,725,1265) translate(0 70.375)"/><path d="M881.98 1319.8l10.18-2.04m10.18-2.04l20.36-4.08m10.18-2.04l20.36-4.08m10.18-2.05l20.37-4.08m10.17-2.05l20.36-4.08m10.18-2.04l20.37-4.1m10.18-2.03l20.36-4.08m10.2-2.04l20.35-4.08m10.18-2.04l20.36-4.1m10.17-2.03l20.36-4.08m10.18-2.04l20.38-4.07m10.18-2.05l20.36-4.08m10.18-2.04l20.36-4.08m10.18-2.04l10.18-2.04" stroke="#5e5e5e" stroke-width="2" fill="none"/><path d="M882.2 1320.75l-1.2.24v-2l.8-.16z" stroke="#5e5e5e" stroke-width=".05" fill="#5e5e5e"/><path d="M1279 1240.2l1-.2M881.65 1319.24l6.63-7.64m6.63-7.64l13.27-15.28m6.63-7.64l13.25-15.3m6.63-7.63l13.26-15.27m6.63-7.64l13.25-15.3m6.63-7.64l13.26-15.28m6.63-7.64l13.26-15.28m6.62-7.64l13.25-15.3m6.63-7.63l13.26-15.3m6.63-7.63l13.24-15.3m6.63-7.63l13.26-15.28m6.63-7.64l13.25-15.3m6.64-7.63l13.26-15.3m6.63-7.63l13.25-15.28m6.63-7.66l13.27-15.28m6.62-7.64l13.25-15.28m6.63-7.64l13.25-15.3m6.63-7.63l13.26-15.28m6.63-7.65l13.25-15.3m6.63-7.63l13.26-15.28m6.62-7.64l6.63-7.64" stroke="#5e5e5e" stroke-width="2" fill="none"/><path d="M882.4 1319.86l-1.4 1.63v-2.86z" stroke="#5e5e5e" stroke-width=".05" fill="#5e5e5e"/><path d="M1279.33 860.77l.67-.77M881.54 1319.16l5.4-8.37m5.4-8.4l10.83-16.74m5.4-8.37l10.82-16.76m5.4-8.38l10.8-16.74m5.4-8.38l10.83-16.75m5.4-8.38l10.8-16.75m5.42-8.37l10.8-16.75m5.42-8.38l10.8-16.75m5.42-8.37l10.8-16.75m5.4-8.37l10.82-16.75m5.4-8.38l10.82-16.74m5.4-8.38l10.82-16.75m5.4-8.37l10.82-16.75m5.4-8.36l10.82-16.75m5.4-8.4l10.82-16.74m5.4-8.37l10.8-16.76m5.42-8.37l10.8-16.75m5.42-8.38l10.8-16.75m5.42-8.38l10.8-16.75m5.42-8.37l10.8-16.75m5.42-8.38l10.8-16.74m5.42-8.38l10.8-16.75m5.42-8.37l10.8-16.75m5.4-8.37l10.83-16.74m5.4-8.38l10.8-16.75m5.4-8.37l10.83-16.75m5.4-8.36l10.82-16.75m5.4-8.4l5.4-8.36" stroke="#5e5e5e" stroke-width="2" fill="none"/><path d="M882.38 1319.67l-1.38 2.13v-3.02z" stroke="#5e5e5e" stroke-width=".05" fill="#5e5e5e"/><path d="M1319.44 640.86l.56-.86" stroke="#5e5e5e" stroke-width="2" fill="none"/><path d="M180 780h136l24 24v96H180z" stroke="#3a414a" stroke-width="2" fill="#fff"/><path d="M316 780.95V804h23.05" stroke="#3a414a" stroke-width="2" fill="#fff"/><use xlink:href="#l" transform="matrix(1,0,0,1,185,785) translate(0 17.8375)"/><use xlink:href="#m" transform="matrix(1,0,0,1,185,785) translate(66.85 17.8375)"/><use xlink:href="#n" transform="matrix(1,0,0,1,185,785) translate(0 39.4375)"/><use xlink:href="#o" transform="matrix(1,0,0,1,185,785) translate(55.95 39.4375)"/><use xlink:href="#p" transform="matrix(1,0,0,1,185,785) translate(0 61.0375)"/><use xlink:href="#q" transform="matrix(1,0,0,1,185,785) translate(62.300000000000004 61.0375)"/><use xlink:href="#r" transform="matrix(1,0,0,1,185,785) translate(0 82.63750000000002)"/><use xlink:href="#s" transform="matrix(1,0,0,1,185,785) translate(76.25 82.63750000000002)"/><use xlink:href="#t" transform="matrix(1,0,0,1,185,785) translate(0 104.23750000000001)"/><use xlink:href="#u" transform="matrix(1,0,0,1,185,785) translate(25 104.23750000000001)"/><path d="M341.47 840.9l4.7 8.94m4.73 8.95l9.43 17.9m4.72 8.95l9.43 17.9m4.7 8.96l9.44 17.9m4.72 8.96l9.43 17.9m4.72 8.96l9.42 17.9m4.72 8.96l9.43 17.9m4.7 8.96l9.45 17.9m4.7 8.95l9.44 17.9m4.72 8.95l9.43 17.9m4.73 8.96l9.43 17.9m4.7 8.97l9.45 17.9m4.72 8.95l9.43 17.9m4.72 8.96l9.43 17.9m4.72 8.96l4.7 8.95" stroke="#5e5e5e" stroke-width="2" fill="none"/><path d="M342.34 840.45l-1.34.7v-3.24z" stroke="#5e5e5e" stroke-width=".05" fill="#5e5e5e"/><path d="M539.52 1216.87l.48.9" stroke="#5e5e5e" stroke-width="2" fill="none"/><path d="M520 886a6 6 0 0 1 6-6h28a6 6 0 0 1 6 6v248a6 6 0 0 1-6 6h-28a6 6 0 0 1-6-6zM700 886a6 6 0 0 1 6-6h148a6 6 0 0 1 6 6v188a6 6 0 0 1-6 6H706a6 6 0 0 1-6-6z" stroke="#3a414a" stroke-width="2" fill="#fff"/><g><use xlink:href="#v" transform="matrix(1,0,0,1,700,880) translate(20.554999999999993 39.4)"/><use xlink:href="#w" transform="matrix(1,0,0,1,700,880) translate(103.45500000000001 39.4)"/><use xlink:href="#x" transform="matrix(1,0,0,1,700,880) translate(24.07999999999999 61)"/><use xlink:href="#y" transform="matrix(1,0,0,1,700,880) translate(121.98 61)"/><use xlink:href="#z" transform="matrix(1,0,0,1,700,880) translate(10.579999999999993 82.60000000000001)"/><use xlink:href="#A" transform="matrix(1,0,0,1,700,880) translate(75.48 82.60000000000001)"/><use xlink:href="#B" transform="matrix(1,0,0,1,700,880) translate(100.48 82.60000000000001)"/><use xlink:href="#C" transform="matrix(1,0,0,1,700,880) translate(14.079999999999993 104.20000000000002)"/><use xlink:href="#D" transform="matrix(1,0,0,1,700,880) translate(84.08 104.20000000000002)"/><use xlink:href="#E" transform="matrix(1,0,0,1,700,880) translate(10.055000000000001 125.80000000000001)"/><use xlink:href="#F" transform="matrix(1,0,0,1,700,880) translate(86.305 125.80000000000001)"/><use xlink:href="#G" transform="matrix(1,0,0,1,700,880) translate(7.0550000000000015 147.4)"/><use xlink:href="#H" transform="matrix(1,0,0,1,700,880) translate(42.055 147.4)"/><use xlink:href="#I" transform="matrix(1,0,0,1,700,880) translate(95.00500000000001 147.4)"/><use xlink:href="#J" transform="matrix(1,0,0,1,700,880) translate(139.005 147.4)"/><use xlink:href="#K" transform="matrix(1,0,0,1,700,880) translate(46.529999999999994 169)"/></g><path d="M698.03 980.24l-9.07 2.28m-9.07 2.28l-18.15 4.56m-9.07 2.28l-18.14 4.55m-9.07 2.27l-18.15 4.56m-9.07 2.28l-18.14 4.57m-9.06 2.27l-9.07 2.28" stroke="#5e5e5e" stroke-width="2" fill="none"/><path d="M699 981l-.76.2-.47-1.9 1.23-.3zM562.23 1015.36l-1.23.3v-2l.76-.2z" stroke="#5e5e5e" stroke-width=".05" fill="#5e5e5e"/><defs><path d="M212-179c-10-28-35-45-73-45-59 0-87 40-87 99 0 60 29 101 89 101 43 0 62-24 78-52l27 14C228-24 195 4 139 4 59 4 22-46 18-125c-6-104 99-153 187-111 19 9 31 26 39 46" id="L"/><path d="M100-194c62-1 85 37 85 99 1 63-27 99-86 99S16-35 15-95c0-66 28-99 85-99zM99-20c44 1 53-31 53-75 0-43-8-75-51-75s-53 32-53 75 10 74 51 75" id="M"/><path d="M117-194c89-4 53 116 60 194h-32v-121c0-31-8-49-39-48C34-167 62-67 57 0H25l-1-190h30c1 10-1 24 2 32 11-22 29-35 61-36" id="N"/><path d="M59-47c-2 24 18 29 38 22v24C64 9 27 4 27-40v-127H5v-23h24l9-43h21v43h35v23H59v120" id="O"/><path d="M100-194c63 0 86 42 84 106H49c0 40 14 67 53 68 26 1 43-12 49-29l28 8c-11 28-37 45-77 45C44 4 14-33 15-96c1-61 26-98 85-98zm52 81c6-60-76-77-97-28-3 7-6 17-6 28h103" id="P"/><path d="M84 4C-5 8 30-112 23-190h32v120c0 31 7 50 39 49 72-2 45-101 50-169h31l1 190h-30c-1-10 1-25-2-33-11 22-28 36-60 37" id="Q"/><path d="M114-163C36-179 61-72 57 0H25l-1-190h30c1 12-1 29 2 39 6-27 23-49 58-41v29" id="R"/><g id="a"><use transform="matrix(0.05,0,0,0.05,0,0)" xlink:href="#L"/><use transform="matrix(0.05,0,0,0.05,12.950000000000001,0)" xlink:href="#M"/><use transform="matrix(0.05,0,0,0.05,22.950000000000003,0)" xlink:href="#N"/><use transform="matrix(0.05,0,0,0.05,32.95,0)" xlink:href="#O"/><use transform="matrix(0.05,0,0,0.05,37.95,0)" xlink:href="#P"/><use transform="matrix(0.05,0,0,0.05,47.95,0)" xlink:href="#N"/><use transform="matrix(0.05,0,0,0.05,57.95,0)" xlink:href="#P"/><use transform="matrix(0.05,0,0,0.05,67.95,0)" xlink:href="#Q"/><use transform="matrix(0.05,0,0,0.05,77.95,0)" xlink:href="#R"/></g><path d="M205 0l-28-72H64L36 0H1l101-248h38L239 0h-34zm-38-99l-47-123c-12 45-31 82-46 123h93" id="S"/><path d="M24 0v-261h32V0H24" id="T"/><path d="M141-36C126-15 110 5 73 4 37 3 15-17 15-53c-1-64 63-63 125-63 3-35-9-54-41-54-24 1-41 7-42 31l-33-3c5-37 33-52 76-52 45 0 72 20 72 64v82c-1 20 7 32 28 27v20c-31 9-61-2-59-35zM48-53c0 20 12 33 32 33 41-3 63-29 60-74-43 2-92-5-92 41" id="U"/><path d="M24-231v-30h32v30H24zM24 0v-190h32V0H24" id="V"/><path d="M108 0H70L1-190h34L89-25l56-165h34" id="W"/><g id="b"><use transform="matrix(0.05,0,0,0.05,0,0)" xlink:href="#S"/><use transform="matrix(0.05,0,0,0.05,12,0)" xlink:href="#T"/><use transform="matrix(0.05,0,0,0.05,15.949999999999998,0)" xlink:href="#O"/><use transform="matrix(0.05,0,0,0.05,20.95,0)" xlink:href="#P"/><use transform="matrix(0.05,0,0,0.05,30.950000000000003,0)" xlink:href="#R"/><use transform="matrix(0.05,0,0,0.05,36.9,0)" xlink:href="#N"/><use transform="matrix(0.05,0,0,0.05,46.9,0)" xlink:href="#U"/><use transform="matrix(0.05,0,0,0.05,56.900000000000006,0)" xlink:href="#O"/><use transform="matrix(0.05,0,0,0.05,61.900000000000006,0)" xlink:href="#V"/><use transform="matrix(0.05,0,0,0.05,65.85,0)" xlink:href="#W"/><use transform="matrix(0.05,0,0,0.05,74.85,0)" xlink:href="#P"/></g><path d="M26 75v-336h71v23H56V52h41v23H26" id="X"/><path d="M85-194c31 0 48 13 60 33l-1-100h32l1 261h-30c-2-10 0-23-3-31C134-8 116 4 85 4 32 4 16-35 15-94c0-66 23-100 70-100zm9 24c-40 0-46 34-46 75 0 40 6 74 45 74 42 0 51-32 51-76 0-42-9-74-50-73" id="Y"/><path d="M3 75V52h41v-290H3v-23h71V75H3" id="Z"/><g id="c"><use transform="matrix(0.05,0,0,0.05,0,0)" xlink:href="#X"/><use transform="matrix(0.05,0,0,0.05,5,0)" xlink:href="#L"/><use transform="matrix(0.05,0,0,0.05,17.950000000000003,0)" xlink:href="#M"/><use transform="matrix(0.05,0,0,0.05,27.950000000000003,0)" xlink:href="#N"/><use transform="matrix(0.05,0,0,0.05,37.95,0)" xlink:href="#Y"/><use transform="matrix(0.05,0,0,0.05,47.95,0)" xlink:href="#V"/><use transform="matrix(0.05,0,0,0.05,51.900000000000006,0)" xlink:href="#O"/><use transform="matrix(0.05,0,0,0.05,56.900000000000006,0)" xlink:href="#V"/><use transform="matrix(0.05,0,0,0.05,60.85,0)" xlink:href="#M"/><use transform="matrix(0.05,0,0,0.05,70.85000000000001,0)" xlink:href="#N"/><use transform="matrix(0.05,0,0,0.05,80.85000000000001,0)" xlink:href="#Z"/></g><path d="M185-189c-5-48-123-54-124 2 14 75 158 14 163 119 3 78-121 87-175 55-17-10-28-26-33-46l33-7c5 56 141 63 141-1 0-78-155-14-162-118-5-82 145-84 179-34 5 7 8 16 11 25" id="aa"/><g id="d"><use transform="matrix(0.05,0,0,0.05,0,0)" xlink:href="#X"/><use transform="matrix(0.05,0,0,0.05,5,0)" xlink:href="#aa"/><use transform="matrix(0.05,0,0,0.05,17,0)" xlink:href="#V"/><use transform="matrix(0.05,0,0,0.05,20.95,0)" xlink:href="#N"/><use transform="matrix(0.05,0,0,0.05,30.950000000000003,0)" xlink:href="#M"/><use transform="matrix(0.05,0,0,0.05,40.95,0)" xlink:href="#N"/><use transform="matrix(0.05,0,0,0.05,50.95,0)" xlink:href="#Z"/></g><path d="M160-131c35 5 61 23 61 61C221 17 115-2 30 0v-248c76 3 177-17 177 60 0 33-19 50-47 57zm-97-11c50-1 110 9 110-42 0-47-63-36-110-37v79zm0 115c55-2 124 14 124-45 0-56-70-42-124-44v89" id="ab"/><path d="M96-169c-40 0-48 33-48 73s9 75 48 75c24 0 41-14 43-38l32 2c-6 37-31 61-74 61-59 0-76-41-82-99-10-93 101-131 147-64 4 7 5 14 7 22l-32 3c-4-21-16-35-41-35" id="ac"/><g id="e"><use transform="matrix(0.05,0,0,0.05,0,0)" xlink:href="#ab"/><use transform="matrix(0.05,0,0,0.05,12,0)" xlink:href="#M"/><use transform="matrix(0.05,0,0,0.05,22,0)" xlink:href="#Q"/><use transform="matrix(0.05,0,0,0.05,32,0)" xlink:href="#ac"/><use transform="matrix(0.05,0,0,0.05,41,0)" xlink:href="#T"/><use transform="matrix(0.05,0,0,0.05,44.95,0)" xlink:href="#P"/></g><path d="M140-251c81 0 123 46 123 126C263-46 219 4 140 4 59 4 17-45 17-125s42-126 123-126zm0 227c63 0 89-41 89-101s-29-99-89-99c-61 0-89 39-89 99S79-25 140-24" id="ad"/><path d="M115-194c55 1 70 41 70 98S169 2 115 4C84 4 66-9 55-30l1 105H24l-1-265h31l2 30c10-21 28-34 59-34zm-8 174c40 0 45-34 45-75s-6-73-45-74c-42 0-51 32-51 76 0 43 10 73 51 73" id="ae"/><g id="f"><use transform="matrix(0.05,0,0,0.05,0,0)" xlink:href="#ad"/><use transform="matrix(0.05,0,0,0.05,14,0)" xlink:href="#ae"/><use transform="matrix(0.05,0,0,0.05,24,0)" xlink:href="#O"/></g><g id="g"><use transform="matrix(0.05,0,0,0.05,0,0)" xlink:href="#S"/><use transform="matrix(0.05,0,0,0.05,12,0)" xlink:href="#ac"/><use transform="matrix(0.05,0,0,0.05,21,0)" xlink:href="#O"/><use transform="matrix(0.05,0,0,0.05,26,0)" xlink:href="#P"/><use transform="matrix(0.05,0,0,0.05,36,0)" xlink:href="#Q"/><use transform="matrix(0.05,0,0,0.05,46,0)" xlink:href="#R"/></g><path d="M143 4C61 4 22-44 18-125c-5-107 100-154 193-111 17 8 29 25 37 43l-32 9c-13-25-37-40-76-40-61 0-88 39-88 99 0 61 29 100 91 101 35 0 62-11 79-27v-45h-74v-28h105v86C228-13 192 4 143 4" id="af"/><g id="h"><use transform="matrix(0.05,0,0,0.05,0,0)" xlink:href="#af"/><use transform="matrix(0.05,0,0,0.05,14,0)" xlink:href="#Q"/><use transform="matrix(0.05,0,0,0.05,24,0)" xlink:href="#U"/><use transform="matrix(0.05,0,0,0.05,34,0)" xlink:href="#R"/><use transform="matrix(0.05,0,0,0.05,39.95,0)" xlink:href="#Y"/></g><path d="M33-154v-36h34v36H33zM33 0v-36h34V0H33" id="ag"/><use transform="matrix(0.05,0,0,0.05,0,0)" xlink:href="#ag" id="i"/><g id="j"><use transform="matrix(0.05,0,0,0.05,0,0)" xlink:href="#L"/><use transform="matrix(0.05,0,0,0.05,12.950000000000001,0)" xlink:href="#M"/><use transform="matrix(0.05,0,0,0.05,22.950000000000003,0)" xlink:href="#N"/><use transform="matrix(0.05,0,0,0.05,32.95,0)" xlink:href="#Y"/><use transform="matrix(0.05,0,0,0.05,42.95,0)" xlink:href="#V"/><use transform="matrix(0.05,0,0,0.05,46.900000000000006,0)" xlink:href="#O"/><use transform="matrix(0.05,0,0,0.05,51.900000000000006,0)" xlink:href="#V"/><use transform="matrix(0.05,0,0,0.05,55.85,0)" xlink:href="#M"/><use transform="matrix(0.05,0,0,0.05,65.85000000000001,0)" xlink:href="#N"/></g><path d="M115-194c53 0 69 39 70 98 0 66-23 100-70 100C84 3 66-7 56-30L54 0H23l1-261h32v101c10-23 28-34 59-34zm-8 174c40 0 45-34 45-75 0-40-5-75-45-74-42 0-51 32-51 76 0 43 10 73 51 73" id="ah"/><path d="M100-194c63 0 86 42 84 106H49c0 40 14 67 53 68 26 1 43-12 49-29l28 8c-11 28-37 45-77 45C44 4 14-33 15-96c1-61 26-98 85-98zm52 81c6-60-76-77-97-28-3 7-6 17-6 28h103zm-74-98c8-23 27-35 38-54h36v5l-58 49H78" id="ai"/><g id="k"><use transform="matrix(0.05,0,0,0.05,0,0)" xlink:href="#ah"/><use transform="matrix(0.05,0,0,0.05,10,0)" xlink:href="#M"/><use transform="matrix(0.05,0,0,0.05,20,0)" xlink:href="#M"/><use transform="matrix(0.05,0,0,0.05,30,0)" xlink:href="#T"/><use transform="matrix(0.05,0,0,0.05,33.95,0)" xlink:href="#ai"/><use transform="matrix(0.05,0,0,0.05,43.95,0)" xlink:href="#P"/><use transform="matrix(0.05,0,0,0.05,53.95,0)" xlink:href="#N"/><use transform="matrix(0.05,0,0,0.05,63.95,0)" xlink:href="#N"/><use transform="matrix(0.05,0,0,0.05,73.95,0)" xlink:href="#P"/></g><path d="M30 0v-248h33v221h125V0H30" id="aj"/><path d="M101-234c-31-9-42 10-38 44h38v23H63V0H32v-167H5v-23h27c-7-52 17-82 69-68v24" id="ak"/><g id="l"><use transform="matrix(0.05,0,0,0.05,0,0)" xlink:href="#aj"/><use transform="matrix(0.05,0,0,0.05,10,0)" xlink:href="#V"/><use transform="matrix(0.05,0,0,0.05,13.949999999999998,0)" xlink:href="#ak"/><use transform="matrix(0.05,0,0,0.05,18.95,0)" xlink:href="#P"/><use transform="matrix(0.05,0,0,0.05,28.950000000000003,0)" xlink:href="#T"/><use transform="matrix(0.05,0,0,0.05,32.9,0)" xlink:href="#V"/><use transform="matrix(0.05,0,0,0.05,36.85,0)" xlink:href="#N"/><use transform="matrix(0.05,0,0,0.05,46.85,0)" xlink:href="#P"/><use transform="matrix(0.05,0,0,0.05,56.85,0)" xlink:href="#ag"/></g><path d="M30-248c87 1 191-15 191 75 0 78-77 80-158 76V0H30v-248zm33 125c57 0 124 11 124-50 0-59-68-47-124-48v98" id="al"/><g id="m"><use transform="matrix(0.05,0,0,0.05,0,0)" xlink:href="#al"/><use transform="matrix(0.05,0,0,0.05,12,0)" xlink:href="#ai"/><use transform="matrix(0.05,0,0,0.05,22,0)" xlink:href="#R"/><use transform="matrix(0.05,0,0,0.05,27.950000000000003,0)" xlink:href="#V"/><use transform="matrix(0.05,0,0,0.05,31.899999999999995,0)" xlink:href="#M"/><use transform="matrix(0.05,0,0,0.05,41.9,0)" xlink:href="#Y"/><use transform="matrix(0.05,0,0,0.05,51.900000000000006,0)" xlink:href="#P"/></g><g id="n"><use transform="matrix(0.05,0,0,0.05,0,0)" xlink:href="#Y"/><use transform="matrix(0.05,0,0,0.05,10,0)" xlink:href="#Q"/><use transform="matrix(0.05,0,0,0.05,20,0)" xlink:href="#R"/><use transform="matrix(0.05,0,0,0.05,25.950000000000003,0)" xlink:href="#U"/><use transform="matrix(0.05,0,0,0.05,35.95,0)" xlink:href="#N"/><use transform="matrix(0.05,0,0,0.05,45.95,0)" xlink:href="#O"/></g><path d="M145-31C134-9 116 4 85 4 32 4 16-35 15-94c0-59 17-99 70-100 32-1 48 14 60 33 0-11-1-24 2-32h30l-1 268h-32zM93-21c41 0 51-33 51-76s-8-73-50-73c-40 0-46 35-46 75s5 74 45 74" id="am"/><g id="o"><use transform="matrix(0.05,0,0,0.05,0,0)" xlink:href="#T"/><use transform="matrix(0.05,0,0,0.05,3.95,0)" xlink:href="#U"/><use transform="matrix(0.05,0,0,0.05,13.949999999999998,0)" xlink:href="#am"/><use transform="matrix(0.05,0,0,0.05,23.95,0)" xlink:href="#Q"/><use transform="matrix(0.05,0,0,0.05,33.95,0)" xlink:href="#P"/><use transform="matrix(0.05,0,0,0.05,43.95,0)" xlink:href="#T"/><use transform="matrix(0.05,0,0,0.05,47.900000000000006,0)" xlink:href="#T"/><use transform="matrix(0.05,0,0,0.05,51.85,0)" xlink:href="#P"/></g><path d="M47-170H22l-4-78h33" id="an"/><g id="p"><use transform="matrix(0.05,0,0,0.05,0,0)" xlink:href="#T"/><use transform="matrix(0.05,0,0,0.05,3.95,0)" xlink:href="#an"/><use transform="matrix(0.05,0,0,0.05,7.3500000000000005,0)" xlink:href="#U"/><use transform="matrix(0.05,0,0,0.05,17.35,0)" xlink:href="#ac"/><use transform="matrix(0.05,0,0,0.05,26.35,0)" xlink:href="#O"/><use transform="matrix(0.05,0,0,0.05,31.35,0)" xlink:href="#P"/><use transform="matrix(0.05,0,0,0.05,41.35,0)" xlink:href="#Q"/><use transform="matrix(0.05,0,0,0.05,51.35,0)" xlink:href="#R"/></g><g id="q"><use transform="matrix(0.05,0,0,0.05,0,0)" xlink:href="#M"/><use transform="matrix(0.05,0,0,0.05,10,0)" xlink:href="#Q"/></g><path d="M210-169c-67 3-38 105-44 169h-31v-121c0-29-5-50-35-48C34-165 62-65 56 0H25l-1-190h30c1 10-1 24 2 32 10-44 99-50 107 0 11-21 27-35 58-36 85-2 47 119 55 194h-31v-121c0-29-5-49-35-48" id="ao"/><g id="r"><use transform="matrix(0.05,0,0,0.05,0,0)" xlink:href="#T"/><use transform="matrix(0.05,0,0,0.05,3.95,0)" xlink:href="#an"/><use transform="matrix(0.05,0,0,0.05,7.3500000000000005,0)" xlink:href="#ai"/><use transform="matrix(0.05,0,0,0.05,17.35,0)" xlink:href="#T"/><use transform="matrix(0.05,0,0,0.05,21.3,0)" xlink:href="#ai"/><use transform="matrix(0.05,0,0,0.05,31.3,0)" xlink:href="#ao"/><use transform="matrix(0.05,0,0,0.05,46.25,0)" xlink:href="#P"/><use transform="matrix(0.05,0,0,0.05,56.25,0)" xlink:href="#N"/><use transform="matrix(0.05,0,0,0.05,66.25,0)" xlink:href="#O"/></g><g id="s"><use transform="matrix(0.05,0,0,0.05,0,0)" xlink:href="#ae"/><use transform="matrix(0.05,0,0,0.05,10,0)" xlink:href="#U"/><use transform="matrix(0.05,0,0,0.05,20,0)" xlink:href="#R"/><use transform="matrix(0.05,0,0,0.05,25.950000000000003,0)" xlink:href="#O"/><use transform="matrix(0.05,0,0,0.05,30.950000000000003,0)" xlink:href="#V"/><use transform="matrix(0.05,0,0,0.05,34.9,0)" xlink:href="#ac"/><use transform="matrix(0.05,0,0,0.05,43.9,0)" xlink:href="#V"/><use transform="matrix(0.05,0,0,0.05,47.85,0)" xlink:href="#ae"/><use transform="matrix(0.05,0,0,0.05,57.85,0)" xlink:href="#P"/></g><g id="t"><use transform="matrix(0.05,0,0,0.05,0,0)" xlink:href="#U"/><use transform="matrix(0.05,0,0,0.05,10,0)" xlink:href="#Q"/></g><path d="M135-143c-3-34-86-38-87 0 15 53 115 12 119 90S17 21 10-45l28-5c4 36 97 45 98 0-10-56-113-15-118-90-4-57 82-63 122-42 12 7 21 19 24 35" id="ap"/><path d="M179-190L93 31C79 59 56 82 12 73V49c39 6 53-20 64-50L1-190h34L92-34l54-156h33" id="aq"/><path d="M100-194c63 0 86 42 84 106H49c0 40 14 67 53 68 26 1 43-12 49-29l28 8c-11 28-37 45-77 45C44 4 14-33 15-96c1-61 26-98 85-98zm52 81c6-60-76-77-97-28-3 7-6 17-6 28h103zm-36-98l-58-49v-5h36c12 19 30 32 38 54h-16" id="ar"/><g id="u"><use transform="matrix(0.05,0,0,0.05,0,0)" xlink:href="#ap"/><use transform="matrix(0.05,0,0,0.05,9,0)" xlink:href="#aq"/><use transform="matrix(0.05,0,0,0.05,18,0)" xlink:href="#ap"/><use transform="matrix(0.05,0,0,0.05,27,0)" xlink:href="#O"/><use transform="matrix(0.05,0,0,0.05,32,0)" xlink:href="#ar"/><use transform="matrix(0.05,0,0,0.05,42,0)" xlink:href="#ao"/><use transform="matrix(0.05,0,0,0.05,56.95,0)" xlink:href="#P"/></g><g id="v"><use transform="matrix(0.05,0,0,0.05,0,0)" xlink:href="#S"/><use transform="matrix(0.05,0,0,0.05,12,0)" xlink:href="#ac"/><use transform="matrix(0.05,0,0,0.05,21,0)" xlink:href="#O"/><use transform="matrix(0.05,0,0,0.05,26,0)" xlink:href="#V"/><use transform="matrix(0.05,0,0,0.05,29.950000000000003,0)" xlink:href="#W"/><use transform="matrix(0.05,0,0,0.05,38.95,0)" xlink:href="#U"/><use transform="matrix(0.05,0,0,0.05,48.95,0)" xlink:href="#O"/><use transform="matrix(0.05,0,0,0.05,53.95,0)" xlink:href="#V"/><use transform="matrix(0.05,0,0,0.05,57.900000000000006,0)" xlink:href="#M"/><use transform="matrix(0.05,0,0,0.05,67.9,0)" xlink:href="#N"/></g><path d="M141 0L90-78 38 0H4l68-98-65-92h35l48 74 47-74h35l-64 92 68 98h-35" id="as"/><g id="w"><use transform="matrix(0.05,0,0,0.05,0,0)" xlink:href="#ab"/><use transform="matrix(0.05,0,0,0.05,12,0)" xlink:href="#M"/><use transform="matrix(0.05,0,0,0.05,22,0)" xlink:href="#as"/><use transform="matrix(0.05,0,0,0.05,31,0)" xlink:href="#ag"/></g><path d="M233-177c-1 41-23 64-60 70L243 0h-38l-65-103H63V0H30v-248c88 3 205-21 203 71zM63-129c60-2 137 13 137-47 0-61-80-42-137-45v92" id="at"/><g id="x"><use transform="matrix(0.05,0,0,0.05,0,0)" xlink:href="#at"/><use transform="matrix(0.05,0,0,0.05,12.950000000000001,0)" xlink:href="#P"/><use transform="matrix(0.05,0,0,0.05,22.950000000000003,0)" xlink:href="#ae"/><use transform="matrix(0.05,0,0,0.05,32.95,0)" xlink:href="#R"/><use transform="matrix(0.05,0,0,0.05,38.900000000000006,0)" xlink:href="#ai"/><use transform="matrix(0.05,0,0,0.05,48.900000000000006,0)" xlink:href="#ap"/><use transform="matrix(0.05,0,0,0.05,57.900000000000006,0)" xlink:href="#P"/><use transform="matrix(0.05,0,0,0.05,67.9,0)" xlink:href="#N"/><use transform="matrix(0.05,0,0,0.05,77.9,0)" xlink:href="#O"/><use transform="matrix(0.05,0,0,0.05,82.9,0)" xlink:href="#P"/></g><g id="y"><use transform="matrix(0.05,0,0,0.05,0,0)" xlink:href="#T"/><use transform="matrix(0.05,0,0,0.05,3.95,0)" xlink:href="#U"/></g><g id="z"><use transform="matrix(0.05,0,0,0.05,0,0)" xlink:href="#ae"/><use transform="matrix(0.05,0,0,0.05,10,0)" xlink:href="#ai"/><use transform="matrix(0.05,0,0,0.05,20,0)" xlink:href="#R"/><use transform="matrix(0.05,0,0,0.05,25.950000000000003,0)" xlink:href="#V"/><use transform="matrix(0.05,0,0,0.05,29.899999999999995,0)" xlink:href="#M"/><use transform="matrix(0.05,0,0,0.05,39.9,0)" xlink:href="#Y"/><use transform="matrix(0.05,0,0,0.05,49.9,0)" xlink:href="#P"/></g><g id="A"><use transform="matrix(0.05,0,0,0.05,0,0)" xlink:href="#Y"/><use transform="matrix(0.05,0,0,0.05,10,0)" xlink:href="#P"/></g><g id="B"><use transform="matrix(0.05,0,0,0.05,0,0)" xlink:href="#O"/><use transform="matrix(0.05,0,0,0.05,5,0)" xlink:href="#P"/><use transform="matrix(0.05,0,0,0.05,15,0)" xlink:href="#ao"/><use transform="matrix(0.05,0,0,0.05,29.950000000000003,0)" xlink:href="#ae"/><use transform="matrix(0.05,0,0,0.05,39.95,0)" xlink:href="#ap"/></g><g id="C"><use transform="matrix(0.05,0,0,0.05,0,0)" xlink:href="#ae"/><use transform="matrix(0.05,0,0,0.05,10,0)" xlink:href="#P"/><use transform="matrix(0.05,0,0,0.05,20,0)" xlink:href="#N"/><use transform="matrix(0.05,0,0,0.05,30,0)" xlink:href="#Y"/><use transform="matrix(0.05,0,0,0.05,40,0)" xlink:href="#U"/><use transform="matrix(0.05,0,0,0.05,50,0)" xlink:href="#N"/><use transform="matrix(0.05,0,0,0.05,60,0)" xlink:href="#O"/></g><g id="D"><use transform="matrix(0.05,0,0,0.05,0,0)" xlink:href="#T"/><use transform="matrix(0.05,0,0,0.05,3.95,0)" xlink:href="#U"/><use transform="matrix(0.05,0,0,0.05,13.949999999999998,0)" xlink:href="#am"/><use transform="matrix(0.05,0,0,0.05,23.95,0)" xlink:href="#Q"/><use transform="matrix(0.05,0,0,0.05,33.95,0)" xlink:href="#P"/><use transform="matrix(0.05,0,0,0.05,43.95,0)" xlink:href="#T"/><use transform="matrix(0.05,0,0,0.05,47.900000000000006,0)" xlink:href="#T"/><use transform="matrix(0.05,0,0,0.05,51.85,0)" xlink:href="#P"/></g><g id="E"><use transform="matrix(0.05,0,0,0.05,0,0)" xlink:href="#T"/><use transform="matrix(0.05,0,0,0.05,3.95,0)" xlink:href="#an"/><use transform="matrix(0.05,0,0,0.05,7.3500000000000005,0)" xlink:href="#ai"/><use transform="matrix(0.05,0,0,0.05,17.35,0)" xlink:href="#T"/><use transform="matrix(0.05,0,0,0.05,21.3,0)" xlink:href="#ai"/><use transform="matrix(0.05,0,0,0.05,31.3,0)" xlink:href="#ao"/><use transform="matrix(0.05,0,0,0.05,46.25,0)" xlink:href="#P"/><use transform="matrix(0.05,0,0,0.05,56.25,0)" xlink:href="#N"/><use transform="matrix(0.05,0,0,0.05,66.25,0)" xlink:href="#O"/></g><g id="F"><use transform="matrix(0.05,0,0,0.05,0,0)" xlink:href="#P"/><use transform="matrix(0.05,0,0,0.05,10,0)" xlink:href="#ak"/><use transform="matrix(0.05,0,0,0.05,14.65,0)" xlink:href="#ak"/><use transform="matrix(0.05,0,0,0.05,19.65,0)" xlink:href="#P"/><use transform="matrix(0.05,0,0,0.05,29.649999999999995,0)" xlink:href="#ac"/><use transform="matrix(0.05,0,0,0.05,38.65,0)" xlink:href="#O"/><use transform="matrix(0.05,0,0,0.05,43.65,0)" xlink:href="#Q"/><use transform="matrix(0.05,0,0,0.05,53.650000000000006,0)" xlink:href="#P"/></g><g id="G"><use transform="matrix(0.05,0,0,0.05,0,0)" xlink:href="#Q"/><use transform="matrix(0.05,0,0,0.05,10,0)" xlink:href="#N"/><use transform="matrix(0.05,0,0,0.05,20,0)" xlink:href="#P"/></g><g id="H"><use transform="matrix(0.05,0,0,0.05,0,0)" xlink:href="#U"/><use transform="matrix(0.05,0,0,0.05,10,0)" xlink:href="#ac"/><use transform="matrix(0.05,0,0,0.05,19,0)" xlink:href="#O"/><use transform="matrix(0.05,0,0,0.05,24,0)" xlink:href="#V"/><use transform="matrix(0.05,0,0,0.05,27.950000000000003,0)" xlink:href="#M"/><use transform="matrix(0.05,0,0,0.05,37.95,0)" xlink:href="#N"/></g><g id="I"><use transform="matrix(0.05,0,0,0.05,0,0)" xlink:href="#Y"/><use transform="matrix(0.05,0,0,0.05,10,0)" xlink:href="#U"/><use transform="matrix(0.05,0,0,0.05,20,0)" xlink:href="#N"/><use transform="matrix(0.05,0,0,0.05,30,0)" xlink:href="#ap"/></g><g id="J"><use transform="matrix(0.05,0,0,0.05,0,0)" xlink:href="#T"/><use transform="matrix(0.05,0,0,0.05,3.95,0)" xlink:href="#P"/></g><g id="K"><use transform="matrix(0.05,0,0,0.05,0,0)" xlink:href="#ap"/><use transform="matrix(0.05,0,0,0.05,9,0)" xlink:href="#aq"/><use transform="matrix(0.05,0,0,0.05,18,0)" xlink:href="#ap"/><use transform="matrix(0.05,0,0,0.05,27,0)" xlink:href="#O"/><use transform="matrix(0.05,0,0,0.05,32,0)" xlink:href="#ar"/><use transform="matrix(0.05,0,0,0.05,42,0)" xlink:href="#ao"/><use transform="matrix(0.05,0,0,0.05,56.95,0)" xlink:href="#P"/></g></defs></g></svg>