<svg xmlns="http://www.w3.org/2000/svg" xmlns:xlink="http://www.w3.org/1999/xlink" xmlns:lucid="lucid" width="3123" height="2406"><g transform="translate(-258 -559)" lucid:page-tab-id="0_0"><path d="M0 500h3500v2500H0z" fill="#fff"/><path d="M1040 826a6 6 0 0 1 6-6h348a6 6 0 0 1 6 6v188a6 6 0 0 1-6 6h-348a6 6 0 0 1-6-6z" stroke="#3a414a" stroke-width="2" fill-opacity="0"/><use xlink:href="#a" transform="matrix(1,0,0,1,1048,828) translate(153.525 15.6)"/><path d="M2020 826a6 6 0 0 1 6-6h348a6 6 0 0 1 6 6v188a6 6 0 0 1-6 6h-348a6 6 0 0 1-6-6z" stroke="#3a414a" stroke-width="2" fill-opacity="0"/><use xlink:href="#b" transform="matrix(1,0,0,1,2028,828) translate(102.6 15.6)"/><use xlink:href="#c" transform="matrix(1,0,0,1,2028,828) translate(170.5 15.6)"/><path d="M3000 816a6 6 0 0 1 6-6h348a6 6 0 0 1 6 6v188a6 6 0 0 1-6 6h-348a6 6 0 0 1-6-6z" stroke="#3a414a" stroke-width="2" fill-opacity="0"/><use xlink:href="#d" transform="matrix(1,0,0,1,3008,818) translate(102.6 15.6)"/><use xlink:href="#c" transform="matrix(1,0,0,1,3008,818) translate(170.5 15.6)"/><path d="M340 1186a6 6 0 0 1 6-6h88a6 6 0 0 1 6 6v8a14.48 14.48 0 0 1-4.24 10.24l-1.52 1.52A14.48 14.48 0 0 1 424 1210h-78a6 6 0 0 1-6-6z" fill="#fff"/><path d="M440 1180v20l-10 10h-90" stroke="#3a414a" stroke-width="2" fill="none"/><path d="M340 1186a6 6 0 0 1 6-6h1948a6 6 0 0 1 6 6v288a6 6 0 0 1-6 6H346a6 6 0 0 1-6-6zM340 1330h20m15 0h20m15 0h20m15 0h20m15 0h20m15 0h20m15 0h20m15 0h20m15 0h20m15 0h20m15 0h20m15 0h20m15 0h20m15 0h20m15 0h20m15 0h20m15 0h20m15 0h20m15 0h20m15 0h20m15 0h20m15 0h20m15 0h20m15 0h20m15 0h20m15 0h20m15 0h20m15 0h20m15 0h20m15 0h20m15 0h20m15 0h20m15 0h20m15 0h20m15 0h20m15 0h20m15 0h20m15 0h20m15 0h20m15 0h20m15 0h20m15 0h20m15 0h20m15 0h20m15 0h20m15 0h20m15 0h20m15 0h20m15 0h20m15 0h20m15 0h20m15 0h20m15 0h20m15 0h20m15 0h20m15 0h20" stroke="#3a414a" stroke-width="2" fill="none"/><use xlink:href="#e" transform="matrix(1,0,0,1,348,1180) translate(0 18.6)"/><use xlink:href="#f" transform="matrix(1,0,0,1,352,1218) translate(0 19.444444444444443)"/><use xlink:href="#g" transform="matrix(1,0,0,1,352,1218) translate(66.5432098765432 19.444444444444443)"/><use xlink:href="#h" transform="matrix(1,0,0,1,352,1338) translate(0 19.444444444444443)"/><path d="M340 1606a6 6 0 0 1 6-6h88a6 6 0 0 1 6 6v8a14.48 14.48 0 0 1-4.24 10.24l-1.52 1.52A14.48 14.48 0 0 1 424 1630h-78a6 6 0 0 1-6-6z" fill="#fff"/><path d="M440 1600v20l-10 10h-90" stroke="#3a414a" stroke-width="4" fill="none"/><path d="M340 1606a6 6 0 0 1 6-6h1928a6 6 0 0 1 6 6v248a6 6 0 0 1-6 6H346a6 6 0 0 1-6-6zM340 1730h20m15 0h20m15 0h20m15 0h20m15 0h20m15 0h20m15 0h20m15 0h20m15 0h20m15 0h20m15 0h20m15 0h20m15 0h20m15 0h20m15 0h20m15 0h20m15 0h20m15 0h20m15 0h20m15 0h20m15 0h20m15 0h20m15 0h20m15 0h20m15 0h20m15 0h20m15 0h20m15 0h20m15 0h20m15 0h20m15 0h20m15 0h20m15 0h20m15 0h20m15 0h20m15 0h20m15 0h20m15 0h20m15 0h20m15 0h20m15 0h20m15 0h20m15 0h20m15 0h20m15 0h20m15 0h20m15 0h20m15 0h20m15 0h20m15 0h20m15 0h20m15 0h20m15 0h20m15 0h20m15 0h20m15 0h15" stroke="#3a414a" stroke-width="4" fill="none"/><use xlink:href="#e" transform="matrix(1,0,0,1,348,1600) translate(0 18.6)"/><use xlink:href="#i" transform="matrix(1,0,0,1,352,1638) translate(0 19.444444444444443)"/><use xlink:href="#g" transform="matrix(1,0,0,1,352,1638) translate(49.32098765432099 19.444444444444443)"/><use xlink:href="#h" transform="matrix(1,0,0,1,352,1738) translate(0 19.444444444444443)"/><path d="M280 2006a6 6 0 0 1 6-6h88a6 6 0 0 1 6 6v8a14.48 14.48 0 0 1-4.24 10.24l-1.52 1.52A14.48 14.48 0 0 1 364 2030h-78a6 6 0 0 1-6-6z" fill="#fff"/><path d="M380 2000v20l-10 10h-90" stroke="#3a414a" stroke-width="4" fill="none"/><path d="M280 2006a6 6 0 0 1 6-6h2908a6 6 0 0 1 6 6v508a6 6 0 0 1-6 6H286a6 6 0 0 1-6-6zM280 2260h20m15 0h20m15 0h20m15 0h20m15 0h20m15 0h20m15 0h20m15 0h20m15 0h20m15 0h20m15 0h20m15 0h20m15 0h20m15 0h20m15 0h20m15 0h20m15 0h20m15 0h20m15 0h20m15 0h20m15 0h20m15 0h20m15 0h20m15 0h20m15 0h20m15 0h20m15 0h20m15 0h20m15 0h20m15 0h20m15 0h20m15 0h20m15 0h20m15 0h20m15 0h20m15 0h20m15 0h20m15 0h20m15 0h20m15 0h20m15 0h20m15 0h20m15 0h20m15 0h20m15 0h20m15 0h20m15 0h20m15 0h20m15 0h20m15 0h20m15 0h20m15 0h20m15 0h20m15 0h20m15 0h20m15 0h20m15 0h20m15 0h20m15 0h20m15 0h20m15 0h20m15 0h20m15 0h20m15 0h20m15 0h20m15 0h20m15 0h20m15 0h20m15 0h20m15 0h20m15 0h20m15 0h20m15 0h20m15 0h20m15 0h20m15 0h20m15 0h20m15 0h20m15 0h20m15 0h20m15 0h20m15 0h20m15 0h20m15 0h15" stroke="#3a414a" stroke-width="4" fill="none"/><use xlink:href="#e" transform="matrix(1,0,0,1,288,2000) translate(0 18.6)"/><use xlink:href="#j" transform="matrix(1,0,0,1,292,2038) translate(0 18.6)"/><use xlink:href="#k" transform="matrix(1,0,0,1,292,2038) translate(59.95 18.6)"/><use xlink:href="#l" transform="matrix(1,0,0,1,292,2268) translate(0 18.6)"/><path d="M399.75 859.75c0 10.9-8.84 19.75-19.75 19.75-10.9 0-19.75-8.84-19.75-19.75 0-10.9 8.84-19.75 19.75-19.75 10.9 0 19.75 8.84 19.75 19.75z" stroke="#3a414a" stroke-width="2" fill="#fff"/><path d="M380 879.5v49.3a20.7 20.7 0 0 0 3.2 11.07L420 998m-40-63.2L340 998m0-98.75h80" stroke="#3a414a" stroke-width="2" fill="none"/><path d="M340 846a6 6 0 0 1 6-6h68a6 6 0 0 1 6 6v168a6 6 0 0 1-6 6h-68a6 6 0 0 1-6-6z" fill="none"/><use xlink:href="#m" transform="matrix(1,0,0,1,260,998) translate(97.075 14.6)"/><path d="M380 937.67v10.1m0 10.1v20.22m0 10.1v20.2m0 10.1v20.22m0 10.1v20.2m0 10.12v20.2m0 10.1v20.22m0 10.1V1160m0 10.1v20.2m0 10.12v20.2m0 10.1v20.22m0 10.1v20.22m0 10.1v20.2m0 10.12v20.2m0 10.1v20.22m0 10.1v20.22m0 10.1v20.2m0 10.12v20.2m0 10.1v20.22m0 10.1v20.22m0 10.1v20.2m0 10.1v20.22m0 10.1v20.22m0 10.1v20.2m0 10.12v20.2m0 10.1v20.22m0 10.1v20.22m0 10.1v20.2m0 10.12v20.2m0 10.1v20.22m0 10.1v20.22m0 10.1v20.2m0 10.12v20.2m0 10.1v20.22m0 10.1v20.2m0 10.12v20.2m0 10.12v10.1M380 937.7v-4.03M380 2028.97v1.03M1220 1022v10.1m0 10.1v20.18m0 10.1v20.2m0 10.1v20.18m0 10.1v20.18m0 10.1v20.2m0 10.1v20.18m0 10.1v20.18m0 10.1v20.2m0 10.1v20.18m0 10.1v20.18m0 10.1v20.2m0 10.1v20.18m0 10.1v20.2m0 10.08v20.2m0 10.1v20.18m0 10.1v20.2m0 10.08v20.2m0 10.1v20.18m0 10.1v20.2m0 10.08v20.2m0 10.1v20.18m0 10.1v20.2m0 10.08v20.2m0 10.1v20.18m0 10.1v20.2m0 10.1v20.18m0 10.1v20.18m0 10.1v20.2m0 10.1v20.18m0 10.1v20.18m0 10.1v20.2m0 10.1v20.18m0 10.1v20.18m0 10.1v20.2m0 10.1v20.18m0 10.1v10.1" stroke="#5e5e5e" stroke-width="2" fill="none"/><path d="M1220.97 1022.03h-1.94V1021h1.94z" stroke="#5e5e5e" stroke-width=".05" fill="#5e5e5e"/><path d="M1220 2112.3v1.03M2200 1022v10.1m0 10.07v20.18m0 10.08v20.17m0 10.1v20.16m0 10.1v20.16m0 10.1v20.16m0 10.1v20.16m0 10.1v20.16m0 10.1v20.16m0 10.1v20.16m0 10.1v20.16m0 10.08v20.18m0 10.08v20.18m0 10.08v20.18m0 10.08v20.17m0 10.1v20.17m0 10.1v20.16m0 10.1v20.16m0 10.08v20.17m0 10.1V1607m0 10.1v20.17m0 10.1v20.16m0 10.1v20.16m0 10.08v20.17m0 10.08v20.18m0 10.1v20.17m0 10.08v20.17m0 10.1v20.16m0 10.1v20.16m0 10.1v20.16m0 10.1v20.16m0 10.1v20.16m0 10.1v20.16m0 10.1v20.16m0 10.08v20.18m0 10.1v20.16m0 10.08v10.1" stroke="#5e5e5e" stroke-width="2" fill="none"/><path d="M2200.97 1022.03h-1.94V1021h1.94z" stroke="#5e5e5e" stroke-width=".05" fill="#5e5e5e"/><path d="M2200 2111.3v1.03M3180 1012v9.97m0 9.98v19.94m0 9.96v19.95m0 9.98v19.95m0 9.97v19.95m0 9.97v19.95m0 9.97v19.95m0 9.96v19.94m0 9.98v19.94m0 9.98v19.94m0 9.98v19.94m0 9.97v19.95m0 9.97V1381m0 9.97v19.95m0 9.97v19.94m0 9.97v19.96m0 9.97v19.95m0 9.97v19.94m0 9.97v19.94m0 10v19.93m0 9.97v19.95m0 9.97v19.95m0 9.97v19.95m0 9.96v19.95m0 9.98v19.95m0 9.97v19.95m0 9.97v19.94m0 9.98v19.94m0 9.98v19.94m0 9.98v19.94m0 9.98v19.94m0 9.97v19.96m0 9.97v19.95m0 9.97v19.95m0 9.97v19.95m0 9.97v19.94m0 9.97v19.95m0 9.98v9.97" stroke="#5e5e5e" stroke-width="2" fill="none"/><path d="M3180.97 1012.03h-1.94V1011h1.94z" stroke="#5e5e5e" stroke-width=".05" fill="#5e5e5e"/><path d="M3180 2118.97v1.03" stroke="#5e5e5e" stroke-width="2" fill="none"/><path d="M440 586a6 6 0 0 1 6-6h888a6 6 0 0 1 6 6v68a6 6 0 0 1-6 6H446a6 6 0 0 1-6-6z" fill="#fff"/><use xlink:href="#n" transform="matrix(1,0,0,1,440,580) translate(128.86919753086414 47.38888888888889)"/><use xlink:href="#o" transform="matrix(1,0,0,1,440,580) translate(272.2395679012345 47.38888888888889)"/><use xlink:href="#p" transform="matrix(1,0,0,1,440,580) translate(434.363024691358 47.38888888888889)"/><use xlink:href="#q" transform="matrix(1,0,0,1,440,580) translate(560.5358641975308 47.38888888888889)"/><use xlink:href="#r" transform="matrix(1,0,0,1,440,580) translate(639.9556172839507 47.38888888888889)"/><use xlink:href="#s" transform="matrix(1,0,0,1,440,580) translate(688.2642592592592 47.38888888888889)"/><path d="M717.9 1121.97H382v-3.94h335.9zm483.1 0H882.1v-3.94H1201z" stroke="#5e5e5e" stroke-width=".05" fill="#5e5e5e"/><path d="M382.05 1121.97H380v-3.94h2.05z" stroke="#5e5e5e" stroke-width=".05" fill="#5e5e5e"/><path d="M1216 1120l-13 7.5v-15z" fill="#5e5e5e"/><path d="M1219.95 1120l-18.9 10.92v-21.84zm-14.97 4.08l7.07-4.08-7.07-4.08z" stroke="#5e5e5e" stroke-width=".05" fill="#5e5e5e"/><use xlink:href="#t" transform="matrix(1,0,0,1,717.8888889117541,1104) translate(0.0049999999999954525 21.333333333333336)"/><use xlink:href="#u" transform="matrix(1,0,0,1,717.8888889117541,1104) translate(96.22722222222222 21.333333333333336)"/><path d="M1626.4 1157.97H1222v-3.94h404.4zm554.6 0h-387.4v-3.94H2181z" stroke="#5e5e5e" stroke-width=".05" fill="#5e5e5e"/><path d="M1222.05 1157.97H1220v-3.94h2.05z" stroke="#5e5e5e" stroke-width=".05" fill="#5e5e5e"/><path d="M2196 1156l-13 7.5v-15z" fill="#5e5e5e"/><path d="M2199.95 1156l-18.9 10.92-.02-21.84zm-14.96 4.08l7.05-4.08-7.07-4.08z" stroke="#5e5e5e" stroke-width=".05" fill="#5e5e5e"/><use xlink:href="#v" transform="matrix(1,0,0,1,1626.4074074074074,1140) translate(0.0049999999999954525 21.333333333333336)"/><use xlink:href="#u" transform="matrix(1,0,0,1,1626.4074074074074,1140) translate(99.19018518518519 21.333333333333336)"/><path d="M1258.97 1232.97H1239v-3.94h19.97zm59.94 0h-39.95v-3.94h39.96zm59.95 0h-39.96v-3.94h39.95zm59.93 0h-39.95v-3.94h39.95zm59.94 0h-39.96v-3.94h39.96zm59.94 0h-39.96v-3.94h39.96zm59.94 0h-39.96v-3.94h39.96zm33.73 0h-13.75v-3.94h13.75zm206.02 0h-39.96v-3.94h39.95zm59.94 0h-39.97v-3.94h39.96zm59.93 0h-39.96v-3.94h39.96zm59.93 0h-39.95v-3.94h39.96zm59.94 0h-39.96v-3.94h39.96zm59.94 0h-39.96v-3.94h39.96zm39.96 0h-19.98v-3.94H2198zm-399.6 0h-30.73v-3.94h30.74z" stroke="#5e5e5e" stroke-width=".05" fill="#5e5e5e"/><path d="M1237 1238.5l-13-7.5 13-7.5z" fill="#5e5e5e"/><path d="M1238.96 1241.92l-18.9-10.92 18.9-10.92zm-11-10.92l7.06 4.08v-8.16zM2200 1232.97h-2.05v-3.94h2.05z" stroke="#5e5e5e" stroke-width=".05" fill="#5e5e5e"/><use xlink:href="#w" transform="matrix(1,0,0,1,1652.3333333333333,1215) translate(0.005000000000002558 21.333333333333336)"/><use xlink:href="#x" transform="matrix(1,0,0,1,1652.3333333333333,1215) translate(75.41240740740741 21.333333333333336)"/><path d="M672.1 1267.97H399v-3.94h273.1zm545.9 0H927.9v-3.94H1218z" stroke="#5e5e5e" stroke-width=".05" fill="#5e5e5e"/><path d="M397 1273.5l-13-7.5 13-7.5z" fill="#5e5e5e"/><path d="M398.96 1276.92l-18.9-10.92 18.9-10.92zm-11-10.92l7.06 4.08v-8.16zM1220 1267.97h-2.05v-3.94h2.05z" stroke="#5e5e5e" stroke-width=".05" fill="#5e5e5e"/><use xlink:href="#y" transform="matrix(1,0,0,1,672.1111111303078,1250) translate(0.0049999999999954525 21.333333333333336)"/><use xlink:href="#z" transform="matrix(1,0,0,1,672.1111111303078,1250) translate(137.5605555555556 21.333333333333336)"/><use xlink:href="#A" transform="matrix(1,0,0,1,672.1111111303078,1250) translate(211.41240740740744 21.333333333333336)"/><path d="M1258.97 1387.97H1239v-3.94h19.97zm59.94 0h-39.95v-3.94h39.96zm59.95 0h-39.96v-3.94h39.95zm59.93 0h-39.95v-3.94h39.95zm59.94 0h-39.96v-3.94h39.96zm59.94 0h-39.96v-3.94h39.96zm59.94 0h-39.96v-3.94h39.96zm239.75 0h-39.96v-3.94h39.95zm59.94 0h-39.97v-3.94h39.96zm59.93 0h-39.96v-3.94h39.96zm59.93 0h-39.95v-3.94h39.96zm59.94 0h-39.96v-3.94h39.96zm59.94 0h-39.96v-3.94h39.96zm39.96 0h-19.98v-3.94H2198zm-399.6 0h-1.14v-3.94h1.15z" stroke="#5e5e5e" stroke-width=".05" fill="#5e5e5e"/><path d="M1237 1393.5l-13-7.5 13-7.5z" fill="#5e5e5e"/><path d="M1238.96 1396.92l-18.9-10.92 18.9-10.92zm-11-10.92l7.06 4.08v-8.16zM2200 1387.97h-2.05v-3.94h2.05z" stroke="#5e5e5e" stroke-width=".05" fill="#5e5e5e"/><use xlink:href="#w" transform="matrix(1,0,0,1,1622.7407407407406,1370) translate(0.0049999999999954525 21.333333333333336)"/><use xlink:href="#B" transform="matrix(1,0,0,1,1622.7407407407406,1370) translate(75.4124074074074 21.333333333333336)"/><path d="M717.9 1431.97H399v-3.94h318.9zm500.1 0H882.1v-3.94H1218z" stroke="#5e5e5e" stroke-width=".05" fill="#5e5e5e"/><path d="M397 1437.5l-13-7.5 13-7.5z" fill="#5e5e5e"/><path d="M398.96 1440.92l-18.9-10.92 18.9-10.92zm-11-10.92l7.06 4.08v-8.16zM1220 1431.97h-2.05v-3.94h2.05z" stroke="#5e5e5e" stroke-width=".05" fill="#5e5e5e"/><use xlink:href="#C" transform="matrix(1,0,0,1,717.8888889039649,1414) translate(0.0049999999999954525 21.333333333333336)"/><use xlink:href="#u" transform="matrix(1,0,0,1,717.8888889039649,1414) translate(96.22722222222222 21.333333333333336)"/><path d="M391.16 1540.97H381v-1.94h10.16zm30.48 0h-20.32v-1.94h20.32zm30.48 0H431.8v-1.94h20.32zm30.5 0h-20.33v-1.94h20.3zm30.47 0h-20.33v-1.94h20.32zm30.47 0h-20.32v-1.94h20.32zm30.48 0h-20.32v-1.94h20.32zm30.48 0H584.2v-1.94h20.33zm30.5 0h-20.34v-1.94H635zm30.47 0h-20.32v-1.94h20.32zm30.48 0h-20.32v-1.94h20.32zm30.48 0h-20.32v-1.94h20.32zm15.13 0h-4.98v-1.94h4.97zm137.27 0h-20.32v-1.94h20.32zm30.48 0h-20.32v-1.94h20.32zm30.48 0H919.5v-1.94h20.33zm30.5 0h-20.34v-1.94h20.32zm30.47 0h-20.32v-1.94h20.32zm30.48 0h-20.32v-1.94h20.32zm30.48 0h-20.32v-1.94h20.32zm30.48 0h-20.32v-1.94h20.32zm30.48 0h-20.32v-1.94h20.32zm30.5 0h-20.34v-1.94h20.33zm30.47 0h-20.33v-1.94h20.32zm20.3 0h-10.15v-1.94H1204z" stroke="#5e5e5e" stroke-width=".05" fill="#5e5e5e"/><path d="M381.03 1540.97H380v-1.94h1.03z" stroke="#5e5e5e" stroke-width=".05" fill="#5e5e5e"/><path d="M1218 1540l-13 7.5v-15z" fill="#5e5e5e"/><path d="M1219.95 1540l-15.9 9.2v-18.4zm-13.97 5.8l10.07-5.8-10.07-5.8z" stroke="#5e5e5e" stroke-width=".05" fill="#5e5e5e"/><use xlink:href="#D" transform="matrix(1,0,0,1,741.5925926049047,1523.9999999996985) translate(0.005000000000002558 21.333333333333336)"/><use xlink:href="#E" transform="matrix(1,0,0,1,741.5925926049047,1523.9999999996985) translate(51.78277777777779 21.333333333333336)"/><path d="M1638.22 1566.97H1222v-3.94h416.22zm542.8 0h-399.24v-3.94H2181z" stroke="#5e5e5e" stroke-width=".05" fill="#5e5e5e"/><path d="M1222.05 1566.97H1220v-3.94h2.05z" stroke="#5e5e5e" stroke-width=".05" fill="#5e5e5e"/><path d="M2196 1565l-13 7.5v-15z" fill="#5e5e5e"/><path d="M2199.95 1565l-18.9 10.92-.02-21.84zm-14.96 4.08l7.05-4.08-7.07-4.08z" stroke="#5e5e5e" stroke-width=".05" fill="#5e5e5e"/><use xlink:href="#F" transform="matrix(1,0,0,1,1638.2222222222222,1549) translate(0.0049999999999954525 21.333333333333336)"/><use xlink:href="#G" transform="matrix(1,0,0,1,1638.2222222222222,1549) translate(99.19018518518519 21.333333333333336)"/><path d="M1258.97 1639.97H1239v-3.94h19.97zm59.94 0h-39.95v-3.94h39.96zm59.95 0h-39.96v-3.94h39.95zm59.93 0h-39.95v-3.94h39.95zm59.94 0h-39.96v-3.94h39.96zm59.94 0h-39.96v-3.94h39.96zm59.94 0h-39.96v-3.94h39.96zm45.55 0h-25.57v-3.94h25.57zm134.26 0h-39.95v-3.94h39.96zm59.95 0h-39.96v-3.94h39.95zm59.94 0h-39.97v-3.94h39.96zm59.93 0h-39.96v-3.94h39.96zm59.93 0h-39.95v-3.94h39.96zm59.94 0h-39.96v-3.94h39.96zm59.94 0h-39.96v-3.94h39.96zm39.96 0h-19.98v-3.94H2198z" stroke="#5e5e5e" stroke-width=".05" fill="#5e5e5e"/><path d="M1237 1645.5l-13-7.5 13-7.5z" fill="#5e5e5e"/><path d="M1238.96 1648.92l-18.9-10.92 18.9-10.92zm-11-10.92l7.06 4.08v-8.16zM2200 1639.97h-2.05v-3.94h2.05z" stroke="#5e5e5e" stroke-width=".05" fill="#5e5e5e"/><use xlink:href="#D" transform="matrix(1,0,0,1,1664.148148148148,1622) translate(0.005000000000002558 21.333333333333336)"/><use xlink:href="#x" transform="matrix(1,0,0,1,1664.148148148148,1622) translate(51.78277777777779 21.333333333333336)"/><path d="M679.6 1695.97H399v-3.94h280.6zm538.4 0H920.4v-3.94H1218z" stroke="#5e5e5e" stroke-width=".05" fill="#5e5e5e"/><path d="M1220 1695.97h-2.05v-3.94h2.05z" stroke="#5e5e5e" stroke-width=".05" fill="#5e5e5e"/><path d="M397 1701.5l-13-7.5 13-7.5z" fill="#5e5e5e"/><path d="M398.96 1704.92l-18.9-10.92 18.9-10.92zm-11-10.92l7.06 4.08v-8.16z" stroke="#5e5e5e" stroke-width=".05" fill="#5e5e5e"/><use xlink:href="#y" transform="matrix(1,0,0,1,679.592592601035,1678) translate(0.0049999999999954525 21.333333333333336)"/><use xlink:href="#H" transform="matrix(1,0,0,1,679.592592601035,1678) translate(137.5605555555556 21.333333333333336)"/><path d="M1258.97 1769.97H1239v-3.94h19.97zm59.94 0h-39.95v-3.94h39.96zm59.95 0h-39.96v-3.94h39.95zm59.93 0h-39.95v-3.94h39.95zm59.94 0h-39.96v-3.94h39.96zm59.94 0h-39.96v-3.94h39.96zm59.94 0h-39.96v-3.94h39.96zm239.75 0h-39.96v-3.94h39.95zm59.94 0h-39.97v-3.94h39.96zm59.93 0h-39.96v-3.94h39.96zm59.93 0h-39.95v-3.94h39.96zm59.94 0h-39.96v-3.94h39.96zm59.94 0h-39.96v-3.94h39.96zm39.96 0h-19.98v-3.94H2198zm-399.6 0h-12.96v-3.94h12.97z" stroke="#5e5e5e" stroke-width=".05" fill="#5e5e5e"/><path d="M1237 1775.5l-13-7.5 13-7.5z" fill="#5e5e5e"/><path d="M1238.96 1778.92l-18.9-10.92 18.9-10.92zm-11-10.92l7.06 4.08v-8.16zM2200 1769.97h-2.05v-3.94h2.05z" stroke="#5e5e5e" stroke-width=".05" fill="#5e5e5e"/><use xlink:href="#D" transform="matrix(1,0,0,1,1634.5555555555557,1752) translate(0.0049999999999954525 21.333333333333336)"/><use xlink:href="#B" transform="matrix(1,0,0,1,1634.5555555555557,1752) translate(51.78277777777778 21.333333333333336)"/><path d="M717.9 1809.97H399v-3.94h318.9zm500.1 0H882.1v-3.94H1218z" stroke="#5e5e5e" stroke-width=".05" fill="#5e5e5e"/><path d="M397 1815.5l-13-7.5 13-7.5z" fill="#5e5e5e"/><path d="M398.96 1818.92l-18.9-10.92 18.9-10.92zm-11-10.92l7.06 4.08v-8.16zM1220 1809.97h-2.05v-3.94h2.05z" stroke="#5e5e5e" stroke-width=".05" fill="#5e5e5e"/><use xlink:href="#C" transform="matrix(1,0,0,1,717.8888888944671,1792) translate(0.0049999999999954525 21.333333333333336)"/><use xlink:href="#u" transform="matrix(1,0,0,1,717.8888888944671,1792) translate(96.22722222222222 21.333333333333336)"/><path d="M391.16 1904.97H381v-1.94h10.16zm30.48 0h-20.32v-1.94h20.32zm30.48 0H431.8v-1.94h20.32zm30.5 0h-20.33v-1.94h20.3zm30.47 0h-20.33v-1.94h20.32zm30.47 0h-20.32v-1.94h20.32zm30.48 0h-20.32v-1.94h20.32zm30.48 0H584.2v-1.94h20.33zm30.5 0h-20.34v-1.94H635zm30.47 0h-20.32v-1.94h20.32zm30.48 0h-20.32v-1.94h20.32zm16.17 0h-6v-1.94h6zm197.2 0h-20.32v-1.94h20.32zm30.48 0H919.5v-1.94h20.33zm30.5 0h-20.34v-1.94h20.32zm30.47 0h-20.32v-1.94h20.32zm30.48 0h-20.32v-1.94h20.32zm30.48 0h-20.32v-1.94h20.32zm30.48 0h-20.32v-1.94h20.32zm30.48 0h-20.32v-1.94h20.32zm30.5 0h-20.34v-1.94h20.33zm30.47 0h-20.33v-1.94h20.32zm20.3 0h-10.15v-1.94H1204z" stroke="#5e5e5e" stroke-width=".05" fill="#5e5e5e"/><path d="M381.03 1904.97H380v-1.94h1.03z" stroke="#5e5e5e" stroke-width=".05" fill="#5e5e5e"/><path d="M1218 1904l-13 7.5v-15z" fill="#5e5e5e"/><path d="M1219.95 1904l-15.9 9.2v-18.4zm-13.97 5.8l10.07-5.8-10.07-5.8z" stroke="#5e5e5e" stroke-width=".05" fill="#5e5e5e"/><use xlink:href="#I" transform="matrix(1,0,0,1,712.1481481513141,1887.9999999990953) translate(0.0049999999999954525 21.333333333333336)"/><use xlink:href="#E" transform="matrix(1,0,0,1,712.1481481513141,1887.9999999990953) translate(110.6716666666667 21.333333333333336)"/><path d="M1557.7 1935.97H1222v-3.94h335.7zm623.3 0h-318.7v-3.94H2181z" stroke="#5e5e5e" stroke-width=".05" fill="#5e5e5e"/><path d="M1222.05 1935.97H1220v-3.94h2.05z" stroke="#5e5e5e" stroke-width=".05" fill="#5e5e5e"/><path d="M2196 1934l-13 7.5v-15z" fill="#5e5e5e"/><path d="M2199.95 1934l-18.9 10.92-.02-21.84zm-14.96 4.08l7.05-4.08-7.07-4.08z" stroke="#5e5e5e" stroke-width=".05" fill="#5e5e5e"/><use xlink:href="#J" transform="matrix(1,0,0,1,1557.7037037037037,1918) translate(0.0049999999999954525 21.333333333333336)"/><use xlink:href="#K" transform="matrix(1,0,0,1,1557.7037037037037,1918) translate(161.2642592592593 21.333333333333336)"/><path d="M2584.33 1961.97H2202v-3.94h382.33zm576.68 0h-365.33v-3.94H3161z" stroke="#5e5e5e" stroke-width=".05" fill="#5e5e5e"/><path d="M2202.05 1961.97H2200v-3.94h2.05z" stroke="#5e5e5e" stroke-width=".05" fill="#5e5e5e"/><path d="M3176 1960l-13 7.5v-15z" fill="#5e5e5e"/><path d="M3179.95 1960l-18.9 10.92-.02-21.84zm-14.96 4.08l7.05-4.08-7.07-4.08z" stroke="#5e5e5e" stroke-width=".05" fill="#5e5e5e"/><use xlink:href="#L" transform="matrix(1,0,0,1,2584.3333333333335,1944) translate(0.0049999999999954525 21.333333333333336)"/><use xlink:href="#M" transform="matrix(1,0,0,1,2584.3333333333335,1944) translate(84.37537037037036 21.333333333333336)"/><use xlink:href="#N" transform="matrix(1,0,0,1,2584.3333333333335,1944) translate(122.8198148148148 21.333333333333336)"/><path d="M2238.97 2021.97H2219v-3.94h19.97zm59.94 0h-39.95v-3.94h39.96zm59.95 0h-39.96v-3.94h39.95zm59.93 0h-39.96v-3.94h39.96zm59.94 0h-39.96v-3.94h39.96zm59.94 0h-39.96v-3.94h39.96zm59.94 0h-39.96v-3.94h39.96zm59.94 0h-39.96v-3.94h39.96zm119.87 0h-39.95v-3.94h39.96zm59.95 0h-39.96v-3.94h39.95zm59.94 0h-39.97v-3.94h39.96zm59.93 0h-39.96v-3.94h39.96zm59.93 0h-39.95v-3.94h39.97zm59.94 0h-39.96v-3.94h39.96zm59.94 0h-39.96v-3.94h39.96zm39.96 0h-19.98v-3.94H3178zm-459.53 0h-4.8v-3.94h4.8z" stroke="#5e5e5e" stroke-width=".05" fill="#5e5e5e"/><path d="M2217 2027.5l-13-7.5 13-7.5z" fill="#5e5e5e"/><path d="M2218.97 2030.92l-18.92-10.92 18.9-10.92zm-11.02-10.92l7.07 4.08v-8.16zM3180 2021.97h-2.05v-3.94h2.05z" stroke="#5e5e5e" stroke-width=".05" fill="#5e5e5e"/><use xlink:href="#O" transform="matrix(1,0,0,1,2666.3333333333335,2003.9999999999995) translate(0.004999999999999005 21.333333333333336)"/><path d="M2629.37 2061.97H2202v-3.94h427.37zm531.64 0h-410.37v-3.94H3161z" stroke="#5e5e5e" stroke-width=".05" fill="#5e5e5e"/><path d="M2202.05 2061.97H2200v-3.94h2.05z" stroke="#5e5e5e" stroke-width=".05" fill="#5e5e5e"/><path d="M3176 2060l-13 7.5v-15z" fill="#5e5e5e"/><path d="M3179.95 2060l-18.9 10.92-.02-21.84zm-14.96 4.08l7.05-4.08-7.07-4.08z" stroke="#5e5e5e" stroke-width=".05" fill="#5e5e5e"/><use xlink:href="#P" transform="matrix(1,0,0,1,2629.3703703703704,2044) translate(0.005000000000002558 21.333333333333336)"/><path d="M3180 2122v19.9m0 19.9v39.8m0 19.9v39.78m0 19.9v39.8m0 19.9v39.8m0 19.88v39.8m0 19.9v39.8m0 19.9v39.78m0 19.9v39.8m0 19.9v39.8m0 19.9v39.78m0 19.9v39.8m0 19.9v39.78m0 19.9v19.9M3180 2122.05V2120M3180 2897.95v2.05M2200 2110.1v20.2m0 20.2v40.4m0 20.2v40.4m0 20.2v40.42m0 20.2v40.4m0 20.2v40.4m0 20.22v40.4m0 20.2v40.4m0 20.2v40.42m0 20.2v40.4m0 20.2v40.42m0 20.2v40.4m0 20.2v40.4m0 20.22v20.2M2200 2110.14v-2.05M2200 2897.95v2.05M1220 2098.17v20.48m0 20.47v40.94m0 20.47v40.95m0 20.47v40.94m0 20.47v40.94m0 20.48v40.95m0 20.47v40.94m0 20.47v40.96m0 20.47v40.94m0 20.48v40.94m0 20.46v40.95m0 20.48v40.94m0 20.48v40.94m0 20.47v40.96m0 20.47V2958M1220 2098.22v-2.05M1220 2957.95v2.05M380 2032v20.13m0 20.14v40.26m0 20.14v40.26m0 20.14v40.26m0 20.14v40.26m0 20.14v40.26m0 20.14v40.26m0 20.14v40.26m0 20.14v40.26m0 20.14v40.26m0 20.14v40.26m0 20.14v40.26m0 20.14v40.26m0 20.14v40.26m0 20.14v40.26m0 20.14V2938M380 2032.05V2030M380 2937.95v2.05" stroke="#5e5e5e" stroke-width="4" fill="none"/><path d="M2238.97 2121.97H2219v-3.94h19.97zm59.94 0h-39.95v-3.94h39.96zm59.95 0h-39.96v-3.94h39.95zm59.93 0h-39.96v-3.94h39.96zm59.94 0h-39.96v-3.94h39.96zm59.94 0h-39.96v-3.94h39.96zm59.94 0h-39.96v-3.94h39.96zm31.4 0h-11.42v-3.94H2630zm208.35 0h-39.96v-3.94h39.95zm59.94 0h-39.97v-3.94h39.96zm59.93 0h-39.96v-3.94h39.96zm59.93 0h-39.95v-3.94h39.97zm59.94 0h-39.96v-3.94h39.96zm59.94 0h-39.96v-3.94h39.96zm39.96 0h-19.98v-3.94H3178zm-399.6 0H2750v-3.94h28.4z" stroke="#5e5e5e" stroke-width=".05" fill="#5e5e5e"/><path d="M2217 2127.5l-13-7.5 13-7.5z" fill="#5e5e5e"/><path d="M2218.97 2130.92l-18.92-10.92 18.9-10.92zm-11.02-10.92l7.07 4.08v-8.16zM3180 2121.97h-2.05v-3.94h2.05z" stroke="#5e5e5e" stroke-width=".05" fill="#5e5e5e"/><use xlink:href="#Q" transform="matrix(1,0,0,1,2630,2104) translate(0.005000000000002558 21.333333333333336)"/><use xlink:href="#R" transform="matrix(1,0,0,1,2630,2104) translate(71.33833333333334 21.333333333333336)"/><path d="M1258.97 2177.97H1239v-3.94h19.97zm59.94 0h-39.95v-3.94h39.96zm59.95 0h-39.96v-3.94h39.95zm59.93 0h-39.95v-3.94h39.95zm55.22 0h-35.24v-3.94H1494zm484.23 0h-39.96v-3.94h39.96zm59.93 0h-39.95v-3.94h39.96zm59.94 0h-39.96v-3.94h39.96zm59.94 0h-39.96v-3.94h39.96zm39.96 0h-19.98v-3.94H2198z" stroke="#5e5e5e" stroke-width=".05" fill="#5e5e5e"/><path d="M1237 2183.5l-13-7.5 13-7.5z" fill="#5e5e5e"/><path d="M1238.96 2186.92l-18.9-10.92 18.9-10.92zm-11-10.92l7.06 4.08v-8.16zM2200 2177.97h-2.05v-3.94h2.05z" stroke="#5e5e5e" stroke-width=".05" fill="#5e5e5e"/><g><use xlink:href="#S" transform="matrix(1,0,0,1,1494,2160) translate(0.0049999999999954525 21.333333333333336)"/><use xlink:href="#T" transform="matrix(1,0,0,1,1494,2160) translate(156.67166666666665 21.333333333333336)"/><use xlink:href="#U" transform="matrix(1,0,0,1,1494,2160) translate(275.042037037037 21.333333333333336)"/><use xlink:href="#V" transform="matrix(1,0,0,1,1494,2160) translate(341.7087037037037 21.333333333333336)"/></g><path d="M704.63 2233.97H399v-3.94h305.63zm513.37 0H895.37v-3.94H1218z" stroke="#5e5e5e" stroke-width=".05" fill="#5e5e5e"/><path d="M397 2239.5l-13-7.5 13-7.5z" fill="#5e5e5e"/><path d="M398.96 2242.92l-18.9-10.92 18.9-10.92zm-11-10.92l7.06 4.08v-8.16zM1220 2233.97h-2.05v-3.94h2.05z" stroke="#5e5e5e" stroke-width=".05" fill="#5e5e5e"/><g><use xlink:href="#W" transform="matrix(1,0,0,1,704.6296296296296,2216) translate(0.0049999999999954525 21.333333333333336)"/><use xlink:href="#X" transform="matrix(1,0,0,1,704.6296296296296,2216) translate(100.44944444444445 21.333333333333336)"/></g><path d="M2238.97 2321.97H2219v-3.94h19.97zm59.94 0h-39.95v-3.94h39.96zm59.95 0h-39.96v-3.94h39.95zm59.93 0h-39.96v-3.94h39.96zm59.94 0h-39.96v-3.94h39.96zm59.94 0h-39.96v-3.94h39.96zm59.94 0h-39.96v-3.94h39.96zm59.94 0h-39.96v-3.94h39.96zm119.87 0h-39.95v-3.94h39.96zm59.95 0h-39.96v-3.94h39.95zm59.94 0h-39.97v-3.94h39.96zm59.93 0h-39.96v-3.94h39.96zm59.93 0h-39.95v-3.94h39.97zm59.94 0h-39.96v-3.94h39.96zm59.94 0h-39.96v-3.94h39.96zm39.96 0h-19.98v-3.94H3178zm-459.53 0h-2.65v-3.94h2.65z" stroke="#5e5e5e" stroke-width=".05" fill="#5e5e5e"/><path d="M2217 2327.5l-13-7.5 13-7.5z" fill="#5e5e5e"/><path d="M2218.97 2330.92l-18.92-10.92 18.9-10.92zm-11.02-10.92l7.07 4.08v-8.16zM3180 2321.97h-2.05v-3.94h2.05z" stroke="#5e5e5e" stroke-width=".05" fill="#5e5e5e"/><g><use xlink:href="#Y" transform="matrix(1,0,0,1,2664.185185185185,2304) translate(0.004999999999999005 21.333333333333336)"/></g><path d="M1258.97 2341.97H1239v-3.94h19.97zm59.94 0h-39.95v-3.94h39.96zm59.95 0h-39.96v-3.94h39.95zm59.93 0h-39.95v-3.94h39.95zm59.94 0h-39.96v-3.94h39.96zm59.94 0h-39.96v-3.94h39.96zm359.63 0h-39.97v-3.94h39.96zm59.93 0h-39.96v-3.94h39.96zm59.93 0h-39.95v-3.94h39.96zm59.94 0h-39.96v-3.94h39.96zm59.94 0h-39.96v-3.94h39.96zm39.96 0h-19.98v-3.94H2198z" stroke="#5e5e5e" stroke-width=".05" fill="#5e5e5e"/><path d="M1237 2347.5l-13-7.5 13-7.5z" fill="#5e5e5e"/><path d="M1238.96 2350.92l-18.9-10.92 18.9-10.92zm-11-10.92l7.06 4.08v-8.16zM2200 2341.97h-2.05v-3.94h2.05z" stroke="#5e5e5e" stroke-width=".05" fill="#5e5e5e"/><g><use xlink:href="#Z" transform="matrix(1,0,0,1,1561.3703703703704,2324) translate(0.0049999999999954525 21.333333333333336)"/><use xlink:href="#M" transform="matrix(1,0,0,1,1561.3703703703704,2324) translate(85.85685185185186 21.333333333333336)"/><use xlink:href="#aa" transform="matrix(1,0,0,1,1561.3703703703704,2324) translate(124.3012962962963 21.333333333333336)"/><use xlink:href="#ab" transform="matrix(1,0,0,1,1561.3703703703704,2324) translate(153.93092592592592 21.333333333333336)"/></g><path d="M704.2 2601.97H399v-3.94h305.2zm513.8 0H895.8v-3.94H1218z" stroke="#5e5e5e" stroke-width=".05" fill="#5e5e5e"/><path d="M397 2607.5l-13-7.5 13-7.5z" fill="#5e5e5e"/><path d="M398.96 2610.92l-18.9-10.92 18.9-10.92zm-11-10.92l7.06 4.08v-8.16zM1220 2601.97h-2.05v-3.94h2.05z" stroke="#5e5e5e" stroke-width=".05" fill="#5e5e5e"/><g><use xlink:href="#ac" transform="matrix(1,0,0,1,704.2037037037037,2581.3333333333335) translate(0.0049999999999954525 24.888888888888893)"/><use xlink:href="#ad" transform="matrix(1,0,0,1,704.2037037037037,2581.3333333333335) translate(112.26425925925926 24.888888888888893)"/></g><path d="M1200 1106a6 6 0 0 1 6-6h28a6 6 0 0 1 6 6v1508a6 6 0 0 1-6 6h-28a6 6 0 0 1-6-6zM2180 1146a6 6 0 0 1 6-6h28a6 6 0 0 1 6 6v1388a6 6 0 0 1-6 6h-28a6 6 0 0 1-6-6zM3160 1946a6 6 0 0 1 6-6h28a6 6 0 0 1 6 6v388a6 6 0 0 1-6 6h-28a6 6 0 0 1-6-6z" stroke="#3a414a" stroke-width="4" fill="#fff"/><defs><path d="M30-248c118-7 216 8 213 122C240-48 200 0 122 0H30v-248zM63-27c89 8 146-16 146-99s-60-101-146-95v194" id="ae"/><path d="M205 0l-28-72H64L36 0H1l101-248h38L239 0h-34zm-38-99l-47-123c-12 45-31 82-46 123h93" id="af"/><path d="M160-131c35 5 61 23 61 61C221 17 115-2 30 0v-248c76 3 177-17 177 60 0 33-19 50-47 57zm-97-11c50-1 110 9 110-42 0-47-63-36-110-37v79zm0 115c55-2 124 14 124-45 0-56-70-42-124-44v89" id="ag"/><g id="a"><use transform="matrix(0.05,0,0,0.05,0,0)" xlink:href="#ae"/><use transform="matrix(0.05,0,0,0.05,12.950000000000001,0)" xlink:href="#af"/><use transform="matrix(0.05,0,0,0.05,24.950000000000003,0)" xlink:href="#ag"/></g><path d="M185-189c-5-48-123-54-124 2 14 75 158 14 163 119 3 78-121 87-175 55-17-10-28-26-33-46l33-7c5 56 141 63 141-1 0-78-155-14-162-118-5-82 145-84 179-34 5 7 8 16 11 25" id="ah"/><path d="M100-194c63 0 86 42 84 106H49c0 40 14 67 53 68 26 1 43-12 49-29l28 8c-11 28-37 45-77 45C44 4 14-33 15-96c1-61 26-98 85-98zm52 81c6-60-76-77-97-28-3 7-6 17-6 28h103" id="ai"/><path d="M114-163C36-179 61-72 57 0H25l-1-190h30c1 12-1 29 2 39 6-27 23-49 58-41v29" id="aj"/><path d="M108 0H70L1-190h34L89-25l56-165h34" id="ak"/><path d="M84 4C-5 8 30-112 23-190h32v120c0 31 7 50 39 49 72-2 45-101 50-169h31l1 190h-30c-1-10 1-25-2-33-11 22-28 36-60 37" id="al"/><g id="b"><use transform="matrix(0.05,0,0,0.05,0,0)" xlink:href="#ah"/><use transform="matrix(0.05,0,0,0.05,12,0)" xlink:href="#ai"/><use transform="matrix(0.05,0,0,0.05,22,0)" xlink:href="#aj"/><use transform="matrix(0.05,0,0,0.05,27.950000000000003,0)" xlink:href="#ak"/><use transform="matrix(0.05,0,0,0.05,36.95,0)" xlink:href="#ai"/><use transform="matrix(0.05,0,0,0.05,46.95,0)" xlink:href="#al"/><use transform="matrix(0.05,0,0,0.05,56.95,0)" xlink:href="#aj"/></g><path d="M141-36C126-15 110 5 73 4 37 3 15-17 15-53c-1-64 63-63 125-63 3-35-9-54-41-54-24 1-41 7-42 31l-33-3c5-37 33-52 76-52 45 0 72 20 72 64v82c-1 20 7 32 28 27v20c-31 9-61-2-59-35zM48-53c0 20 12 33 32 33 41-3 63-29 60-74-43 2-92-5-92 41" id="am"/><path d="M117-194c89-4 53 116 60 194h-32v-121c0-31-8-49-39-48C34-167 62-67 57 0H25l-1-190h30c1 10-1 24 2 32 11-22 29-35 61-36" id="an"/><path d="M96-169c-40 0-48 33-48 73s9 75 48 75c24 0 41-14 43-38l32 2c-6 37-31 61-74 61-59 0-76-41-82-99-10-93 101-131 147-64 4 7 5 14 7 22l-32 3c-4-21-16-35-41-35" id="ao"/><path d="M24-231v-30h32v30H24zM24 0v-190h32V0H24" id="ap"/><g id="c"><use transform="matrix(0.05,0,0,0.05,0,0)" xlink:href="#ag"/><use transform="matrix(0.05,0,0,0.05,12,0)" xlink:href="#am"/><use transform="matrix(0.05,0,0,0.05,22,0)" xlink:href="#an"/><use transform="matrix(0.05,0,0,0.05,32,0)" xlink:href="#ao"/><use transform="matrix(0.05,0,0,0.05,41,0)" xlink:href="#am"/><use transform="matrix(0.05,0,0,0.05,51,0)" xlink:href="#ap"/><use transform="matrix(0.05,0,0,0.05,54.95,0)" xlink:href="#aj"/><use transform="matrix(0.05,0,0,0.05,60.900000000000006,0)" xlink:href="#ai"/></g><path d="M212-179c-10-28-35-45-73-45-59 0-87 40-87 99 0 60 29 101 89 101 43 0 62-24 78-52l27 14C228-24 195 4 139 4 59 4 22-46 18-125c-6-104 99-153 187-111 19 9 31 26 39 46" id="aq"/><path d="M100-194c62-1 85 37 85 99 1 63-27 99-86 99S16-35 15-95c0-66 28-99 85-99zM99-20c44 1 53-31 53-75 0-43-8-75-51-75s-53 32-53 75 10 74 51 75" id="ar"/><path d="M210-169c-67 3-38 105-44 169h-31v-121c0-29-5-50-35-48C34-165 62-65 56 0H25l-1-190h30c1 10-1 24 2 32 10-44 99-50 107 0 11-21 27-35 58-36 85-2 47 119 55 194h-31v-121c0-29-5-49-35-48" id="as"/><path d="M115-194c55 1 70 41 70 98S169 2 115 4C84 4 66-9 55-30l1 105H24l-1-265h31l2 30c10-21 28-34 59-34zm-8 174c40 0 45-34 45-75s-6-73-45-74c-42 0-51 32-51 76 0 43 10 73 51 73" id="at"/><path d="M59-47c-2 24 18 29 38 22v24C64 9 27 4 27-40v-127H5v-23h24l9-43h21v43h35v23H59v120" id="au"/><g id="d"><use transform="matrix(0.05,0,0,0.05,0,0)" xlink:href="#aq"/><use transform="matrix(0.05,0,0,0.05,12.950000000000001,0)" xlink:href="#ar"/><use transform="matrix(0.05,0,0,0.05,22.950000000000003,0)" xlink:href="#as"/><use transform="matrix(0.05,0,0,0.05,37.900000000000006,0)" xlink:href="#at"/><use transform="matrix(0.05,0,0,0.05,47.900000000000006,0)" xlink:href="#au"/><use transform="matrix(0.05,0,0,0.05,52.900000000000006,0)" xlink:href="#ai"/></g><path d="M24 0v-261h32V0H24" id="av"/><g id="e"><use transform="matrix(0.05,0,0,0.05,0,0)" xlink:href="#af"/><use transform="matrix(0.05,0,0,0.05,12,0)" xlink:href="#av"/><use transform="matrix(0.05,0,0,0.05,15.949999999999998,0)" xlink:href="#au"/><use transform="matrix(0.05,0,0,0.05,20.95,0)" xlink:href="#ai"/><use transform="matrix(0.05,0,0,0.05,30.950000000000003,0)" xlink:href="#aj"/><use transform="matrix(0.05,0,0,0.05,36.9,0)" xlink:href="#an"/><use transform="matrix(0.05,0,0,0.05,46.9,0)" xlink:href="#am"/><use transform="matrix(0.05,0,0,0.05,56.900000000000006,0)" xlink:href="#au"/><use transform="matrix(0.05,0,0,0.05,61.900000000000006,0)" xlink:href="#ap"/><use transform="matrix(0.05,0,0,0.05,65.85,0)" xlink:href="#ak"/><use transform="matrix(0.05,0,0,0.05,74.85,0)" xlink:href="#ai"/></g><path d="M26 75v-336h71v23H56V52h41v23H26" id="aw"/><g id="f"><use transform="matrix(0.06172839506172839,0,0,0.06172839506172839,0,0)" xlink:href="#aw"/><use transform="matrix(0.06172839506172839,0,0,0.06172839506172839,6.172839506172839,0)" xlink:href="#aq"/><use transform="matrix(0.06172839506172839,0,0,0.06172839506172839,22.160493827160494,0)" xlink:href="#am"/><use transform="matrix(0.06172839506172839,0,0,0.06172839506172839,34.50617283950617,0)" xlink:href="#aj"/><use transform="matrix(0.06172839506172839,0,0,0.06172839506172839,41.85185185185185,0)" xlink:href="#au"/><use transform="matrix(0.06172839506172839,0,0,0.06172839506172839,48.02469135802469,0)" xlink:href="#ai"/></g><path d="M140-251c81 0 123 46 123 126C263-46 219 4 140 4 59 4 17-45 17-125s42-126 123-126zm0 227c63 0 89-41 89-101s-29-99-89-99c-61 0-89 39-89 99S79-25 140-24" id="ax"/><path d="M194 0L95-120 63-95V0H30v-248h33v124l119-124h40L117-140 236 0h-42" id="ay"/><path d="M3 75V52h41v-290H3v-23h71V75H3" id="az"/><g id="g"><use transform="matrix(0.06172839506172839,0,0,0.06172839506172839,0,0)" xlink:href="#ax"/><use transform="matrix(0.06172839506172839,0,0,0.06172839506172839,17.28395061728395,0)" xlink:href="#ay"/><use transform="matrix(0.06172839506172839,0,0,0.06172839506172839,32.09876543209876,0)" xlink:href="#az"/></g><g id="h"><use transform="matrix(0.06172839506172839,0,0,0.06172839506172839,0,0)" xlink:href="#aw"/><use transform="matrix(0.06172839506172839,0,0,0.06172839506172839,6.172839506172839,0)" xlink:href="#ah"/><use transform="matrix(0.06172839506172839,0,0,0.06172839506172839,20.98765432098765,0)" xlink:href="#ap"/><use transform="matrix(0.06172839506172839,0,0,0.06172839506172839,25.864197530864196,0)" xlink:href="#an"/><use transform="matrix(0.06172839506172839,0,0,0.06172839506172839,38.20987654320987,0)" xlink:href="#ar"/><use transform="matrix(0.06172839506172839,0,0,0.06172839506172839,50.55555555555555,0)" xlink:href="#an"/><use transform="matrix(0.06172839506172839,0,0,0.06172839506172839,62.90123456790123,0)" xlink:href="#az"/></g><path d="M30-248c87 1 191-15 191 75 0 78-77 80-158 76V0H30v-248zm33 125c57 0 124 11 124-50 0-59-68-47-124-48v98" id="aA"/><path d="M33 0v-248h34V0H33" id="aB"/><path d="M190 0L58-211 59 0H30v-248h39L202-35l-2-213h31V0h-41" id="aC"/><g id="i"><use transform="matrix(0.06172839506172839,0,0,0.06172839506172839,0,0)" xlink:href="#aw"/><use transform="matrix(0.06172839506172839,0,0,0.06172839506172839,6.172839506172839,0)" xlink:href="#aA"/><use transform="matrix(0.06172839506172839,0,0,0.06172839506172839,20.98765432098765,0)" xlink:href="#aB"/><use transform="matrix(0.06172839506172839,0,0,0.06172839506172839,27.16049382716049,0)" xlink:href="#aC"/></g><path d="M63-220v92h138v28H63V0H30v-248h175v28H63" id="aD"/><path d="M85-194c31 0 48 13 60 33l-1-100h32l1 261h-30c-2-10 0-23-3-31C134-8 116 4 85 4 32 4 16-35 15-94c0-66 23-100 70-100zm9 24c-40 0-46 34-46 75 0 40 6 74 45 74 42 0 51-32 51-76 0-42-9-74-50-73" id="aE"/><path d="M135-143c-3-34-86-38-87 0 15 53 115 12 119 90S17 21 10-45l28-5c4 36 97 45 98 0-10-56-113-15-118-90-4-57 82-63 122-42 12 7 21 19 24 35" id="aF"/><g id="j"><use transform="matrix(0.05,0,0,0.05,0,0)" xlink:href="#aw"/><use transform="matrix(0.05,0,0,0.05,5,0)" xlink:href="#aD"/><use transform="matrix(0.05,0,0,0.05,15.950000000000001,0)" xlink:href="#ar"/><use transform="matrix(0.05,0,0,0.05,25.950000000000003,0)" xlink:href="#an"/><use transform="matrix(0.05,0,0,0.05,35.95,0)" xlink:href="#aE"/><use transform="matrix(0.05,0,0,0.05,45.95,0)" xlink:href="#aF"/></g><g id="k"><use transform="matrix(0.05,0,0,0.05,0,0)" xlink:href="#ax"/><use transform="matrix(0.05,0,0,0.05,14,0)" xlink:href="#ay"/><use transform="matrix(0.05,0,0,0.05,26,0)" xlink:href="#az"/></g><g id="l"><use transform="matrix(0.05,0,0,0.05,0,0)" xlink:href="#aw"/><use transform="matrix(0.05,0,0,0.05,5,0)" xlink:href="#ah"/><use transform="matrix(0.05,0,0,0.05,17,0)" xlink:href="#ap"/><use transform="matrix(0.05,0,0,0.05,20.95,0)" xlink:href="#an"/><use transform="matrix(0.05,0,0,0.05,30.950000000000003,0)" xlink:href="#ar"/><use transform="matrix(0.05,0,0,0.05,40.95,0)" xlink:href="#an"/><use transform="matrix(0.05,0,0,0.05,50.95,0)" xlink:href="#az"/></g><g id="m"><use transform="matrix(0.05,0,0,0.05,0,0)" xlink:href="#aq"/><use transform="matrix(0.05,0,0,0.05,12.950000000000001,0)" xlink:href="#av"/><use transform="matrix(0.05,0,0,0.05,16.900000000000002,0)" xlink:href="#ap"/><use transform="matrix(0.05,0,0,0.05,20.85,0)" xlink:href="#ai"/><use transform="matrix(0.05,0,0,0.05,30.85,0)" xlink:href="#an"/><use transform="matrix(0.05,0,0,0.05,40.85,0)" xlink:href="#au"/></g><path d="M177-190C167-65 218 103 67 71c-23-6-38-20-44-43l32-5c15 47 100 32 89-28v-30C133-14 115 1 83 1 29 1 15-40 15-95c0-56 16-97 71-98 29-1 48 16 59 35 1-10 0-23 2-32h30zM94-22c36 0 50-32 50-73 0-42-14-75-50-75-39 0-46 34-46 75s6 73 46 73" id="aG"/><path d="M33-154v-36h34v36H33zM33 0v-36h34V0H33" id="aH"/><g id="n"><use transform="matrix(0.08641975308641976,0,0,0.08641975308641976,0,0)" xlink:href="#as"/><use transform="matrix(0.08641975308641976,0,0,0.08641975308641976,25.83950617283951,0)" xlink:href="#ai"/><use transform="matrix(0.08641975308641976,0,0,0.08641975308641976,43.12345679012346,0)" xlink:href="#aF"/><use transform="matrix(0.08641975308641976,0,0,0.08641975308641976,58.67901234567902,0)" xlink:href="#aF"/><use transform="matrix(0.08641975308641976,0,0,0.08641975308641976,74.23456790123458,0)" xlink:href="#am"/><use transform="matrix(0.08641975308641976,0,0,0.08641975308641976,91.51851851851853,0)" xlink:href="#aG"/><use transform="matrix(0.08641975308641976,0,0,0.08641975308641976,108.80246913580248,0)" xlink:href="#ai"/><use transform="matrix(0.08641975308641976,0,0,0.08641975308641976,126.08641975308643,0)" xlink:href="#aH"/></g><path d="M101-234c-31-9-42 10-38 44h38v23H63V0H32v-167H5v-23h27c-7-52 17-82 69-68v24" id="aI"/><g id="o"><use transform="matrix(0.08641975308641976,0,0,0.08641975308641976,0,0)" xlink:href="#ap"/><use transform="matrix(0.08641975308641976,0,0,0.08641975308641976,6.8271604938271615,0)" xlink:href="#an"/><use transform="matrix(0.08641975308641976,0,0,0.08641975308641976,24.111111111111114,0)" xlink:href="#aI"/><use transform="matrix(0.08641975308641976,0,0,0.08641975308641976,32.75308641975309,0)" xlink:href="#ar"/><use transform="matrix(0.08641975308641976,0,0,0.08641975308641976,50.037037037037045,0)" xlink:href="#aj"/><use transform="matrix(0.08641975308641976,0,0,0.08641975308641976,60.32098765432099,0)" xlink:href="#as"/><use transform="matrix(0.08641975308641976,0,0,0.08641975308641976,86.1604938271605,0)" xlink:href="#am"/><use transform="matrix(0.08641975308641976,0,0,0.08641975308641976,103.44444444444443,0)" xlink:href="#au"/><use transform="matrix(0.08641975308641976,0,0,0.08641975308641976,112.08641975308642,0)" xlink:href="#ap"/><use transform="matrix(0.08641975308641976,0,0,0.08641975308641976,118.91358024691357,0)" xlink:href="#ar"/><use transform="matrix(0.08641975308641976,0,0,0.08641975308641976,136.19753086419755,0)" xlink:href="#an"/></g><path d="M179-190L93 31C79 59 56 82 12 73V49c39 6 53-20 64-50L1-190h34L92-34l54-156h33" id="aJ"/><path d="M100-194c63 0 86 42 84 106H49c0 40 14 67 53 68 26 1 43-12 49-29l28 8c-11 28-37 45-77 45C44 4 14-33 15-96c1-61 26-98 85-98zm52 81c6-60-76-77-97-28-3 7-6 17-6 28h103zm-74-98c8-23 27-35 38-54h36v5l-58 49H78" id="aK"/><g id="p"><use transform="matrix(0.08641975308641976,0,0,0.08641975308641976,0,0)" xlink:href="#ai"/><use transform="matrix(0.08641975308641976,0,0,0.08641975308641976,17.283950617283953,0)" xlink:href="#an"/><use transform="matrix(0.08641975308641976,0,0,0.08641975308641976,34.567901234567906,0)" xlink:href="#ak"/><use transform="matrix(0.08641975308641976,0,0,0.08641975308641976,50.12345679012346,0)" xlink:href="#ar"/><use transform="matrix(0.08641975308641976,0,0,0.08641975308641976,67.40740740740742,0)" xlink:href="#aJ"/><use transform="matrix(0.08641975308641976,0,0,0.08641975308641976,82.96296296296298,0)" xlink:href="#aK"/><use transform="matrix(0.08641975308641976,0,0,0.08641975308641976,100.24691358024693,0)" xlink:href="#ai"/></g><g id="q"><use transform="matrix(0.08641975308641976,0,0,0.08641975308641976,0,0)" xlink:href="#ai"/><use transform="matrix(0.08641975308641976,0,0,0.08641975308641976,17.283950617283953,0)" xlink:href="#an"/><use transform="matrix(0.08641975308641976,0,0,0.08641975308641976,34.567901234567906,0)" xlink:href="#au"/><use transform="matrix(0.08641975308641976,0,0,0.08641975308641976,43.20987654320988,0)" xlink:href="#aj"/><use transform="matrix(0.08641975308641976,0,0,0.08641975308641976,53.49382716049383,0)" xlink:href="#ai"/></g><g id="r"><use transform="matrix(0.08641975308641976,0,0,0.08641975308641976,0,0)" xlink:href="#av"/><use transform="matrix(0.08641975308641976,0,0,0.08641975308641976,6.8271604938271615,0)" xlink:href="#ai"/><use transform="matrix(0.08641975308641976,0,0,0.08641975308641976,24.111111111111114,0)" xlink:href="#aF"/></g><path d="M115-194c53 0 69 39 70 98 0 66-23 100-70 100C84 3 66-7 56-30L54 0H23l1-261h32v101c10-23 28-34 59-34zm-8 174c40 0 45-34 45-75 0-40-5-75-45-74-42 0-51 32-51 76 0 43 10 73 51 73" id="aL"/><path d="M24-231v-30h32v30H24zM-9 49c24 4 33-6 33-30v-209h32V24c2 40-23 58-65 49V49" id="aM"/><g id="s"><use transform="matrix(0.08641975308641976,0,0,0.08641975308641976,0,0)" xlink:href="#ar"/><use transform="matrix(0.08641975308641976,0,0,0.08641975308641976,17.283950617283953,0)" xlink:href="#aL"/><use transform="matrix(0.08641975308641976,0,0,0.08641975308641976,34.567901234567906,0)" xlink:href="#aM"/><use transform="matrix(0.08641975308641976,0,0,0.08641975308641976,41.39506172839506,0)" xlink:href="#ai"/><use transform="matrix(0.08641975308641976,0,0,0.08641975308641976,58.679012345679006,0)" xlink:href="#au"/><use transform="matrix(0.08641975308641976,0,0,0.08641975308641976,67.32098765432099,0)" xlink:href="#aF"/></g><path fill="#333" d="M24 0v-248h52V0H24" id="aN"/><path fill="#333" d="M135-194c87-1 58 113 63 194h-50c-7-57 23-157-34-157-59 0-34 97-39 157H25l-1-190h47c2 12-1 28 3 38 12-26 28-41 61-42" id="aO"/><path fill="#333" d="M137-138c1-29-70-34-71-4 15 46 118 7 119 86 1 83-164 76-172 9l43-7c4 19 20 25 44 25 33 8 57-30 24-41C81-84 22-81 20-136c-2-80 154-74 161-7" id="aP"/><path fill="#333" d="M185-48c-13 30-37 53-82 52C43 2 14-33 14-96s30-98 90-98c62 0 83 45 84 108H66c0 31 8 55 39 56 18 0 30-7 34-22zm-45-69c5-46-57-63-70-21-2 6-4 13-4 21h74zm-67-91v-5l45-51h45v8l-60 48H73" id="aQ"/><path fill="#333" d="M135-150c-39-12-60 13-60 57V0H25l-1-190h47c2 13-1 29 3 40 6-28 27-53 61-41v41" id="aR"/><path fill="#333" d="M185-48c-13 30-37 53-82 52C43 2 14-33 14-96s30-98 90-98c62 0 83 45 84 108H66c0 31 8 55 39 56 18 0 30-7 34-22zm-45-69c5-46-57-63-70-21-2 6-4 13-4 21h74" id="aS"/><g id="t"><use transform="matrix(0.07407407407407408,0,0,0.07407407407407408,0,0)" xlink:href="#aN"/><use transform="matrix(0.07407407407407408,0,0,0.07407407407407408,7.407407407407408,0)" xlink:href="#aO"/><use transform="matrix(0.07407407407407408,0,0,0.07407407407407408,23.629629629629633,0)" xlink:href="#aP"/><use transform="matrix(0.07407407407407408,0,0,0.07407407407407408,38.44444444444445,0)" xlink:href="#aQ"/><use transform="matrix(0.07407407407407408,0,0,0.07407407407407408,53.25925925925927,0)" xlink:href="#aR"/><use transform="matrix(0.07407407407407408,0,0,0.07407407407407408,63.62962962962964,0)" xlink:href="#aS"/><use transform="matrix(0.07407407407407408,0,0,0.07407407407407408,78.44444444444446,0)" xlink:href="#aR"/></g><path fill="#333" d="M67-125c0 53 21 87 73 88 37 1 54-22 65-47l45 17C233-25 199 4 140 4 58 4 20-42 15-125 8-235 124-281 211-232c18 10 29 29 36 50l-46 12c-8-25-30-41-62-41-52 0-71 34-72 86" id="aT"/><path fill="#333" d="M133-34C117-15 103 5 69 4 32 3 11-16 11-54c-1-60 55-63 116-61 1-26-3-47-28-47-18 1-26 9-28 27l-52-2c7-38 36-58 82-57s74 22 75 68l1 82c-1 14 12 18 25 15v27c-30 8-71 5-69-32zm-48 3c29 0 43-24 42-57-32 0-66-3-65 30 0 17 8 27 23 27" id="aU"/><path fill="#333" d="M115-3C79 11 28 4 28-45v-112H4v-33h27l15-45h31v45h36v33H77v99c-1 23 16 31 38 25v30" id="aV"/><g id="u"><use transform="matrix(0.07407407407407408,0,0,0.07407407407407408,0,0)" xlink:href="#aT"/><use transform="matrix(0.07407407407407408,0,0,0.07407407407407408,19.185185185185187,0)" xlink:href="#aU"/><use transform="matrix(0.07407407407407408,0,0,0.07407407407407408,34,0)" xlink:href="#aR"/><use transform="matrix(0.07407407407407408,0,0,0.07407407407407408,44.370370370370374,0)" xlink:href="#aV"/><use transform="matrix(0.07407407407407408,0,0,0.07407407407407408,53.18518518518519,0)" xlink:href="#aS"/></g><path fill="#333" d="M147 0H94L2-248h55l64 206c17-72 42-137 63-206h54" id="aW"/><path fill="#333" d="M25-224v-37h50v37H25zM25 0v-190h50V0H25" id="aX"/><path fill="#333" d="M121-226c-27-7-43 5-38 36h38v33H83V0H34v-157H6v-33h28c-9-59 32-81 87-68v32" id="aY"/><g id="v"><use transform="matrix(0.07407407407407408,0,0,0.07407407407407408,0,0)" xlink:href="#aW"/><use transform="matrix(0.07407407407407408,0,0,0.07407407407407408,17.77777777777778,0)" xlink:href="#aQ"/><use transform="matrix(0.07407407407407408,0,0,0.07407407407407408,32.592592592592595,0)" xlink:href="#aR"/><use transform="matrix(0.07407407407407408,0,0,0.07407407407407408,42.96296296296297,0)" xlink:href="#aX"/><use transform="matrix(0.07407407407407408,0,0,0.07407407407407408,50.370370370370374,0)" xlink:href="#aY"/><use transform="matrix(0.07407407407407408,0,0,0.07407407407407408,59.185185185185205,0)" xlink:href="#aX"/><use transform="matrix(0.07407407407407408,0,0,0.07407407407407408,66.59259259259261,0)" xlink:href="#aS"/><use transform="matrix(0.07407407407407408,0,0,0.07407407407407408,81.40740740740742,0)" xlink:href="#aR"/></g><g id="w"><use transform="matrix(0.07407407407407408,0,0,0.07407407407407408,0,0)" xlink:href="#aT"/><use transform="matrix(0.07407407407407408,0,0,0.07407407407407408,19.185185185185187,0)" xlink:href="#aU"/><use transform="matrix(0.07407407407407408,0,0,0.07407407407407408,34,0)" xlink:href="#aR"/><use transform="matrix(0.07407407407407408,0,0,0.07407407407407408,44.370370370370374,0)" xlink:href="#aV"/><use transform="matrix(0.07407407407407408,0,0,0.07407407407407408,53.18518518518519,0)" xlink:href="#aS"/></g><path fill="#333" d="M140-251c80 0 125 45 125 126S219 4 139 4C58 4 15-44 15-125s44-126 125-126zm-1 214c52 0 73-35 73-88 0-50-21-86-72-86-52 0-73 35-73 86s22 88 72 88" id="aZ"/><path fill="#333" d="M195 0l-88-114-31 24V0H24v-248h52v113l112-113h60L142-143 257 0h-62" id="ba"/><g id="x"><use transform="matrix(0.07407407407407408,0,0,0.07407407407407408,0,0)" xlink:href="#aZ"/><use transform="matrix(0.07407407407407408,0,0,0.07407407407407408,20.740740740740744,0)" xlink:href="#ba"/></g><path fill="#333" d="M24-248c120-7 223 5 221 122C244-46 201 0 124 0H24v-248zM76-40c74 7 117-18 117-86 0-67-45-88-117-82v168" id="bb"/><path fill="#333" d="M220-157c-53 9-28 100-34 157h-49v-107c1-27-5-49-29-50C55-147 81-57 75 0H25l-1-190h47c2 12-1 28 3 38 10-53 101-56 108 0 13-22 24-43 59-42 82 1 51 116 57 194h-49v-107c-1-25-5-48-29-50" id="bc"/><path fill="#333" d="M88-194c31-1 46 15 58 34l-1-101h50l1 261h-48c-2-10 0-23-3-31C134-8 116 4 84 4 32 4 16-41 15-95c0-56 19-97 73-99zm17 164c33 0 40-30 41-66 1-37-9-64-41-64s-38 30-39 65c0 43 13 65 39 65" id="bd"/><g id="y"><use transform="matrix(0.07407407407407408,0,0,0.07407407407407408,0,0)" xlink:href="#bb"/><use transform="matrix(0.07407407407407408,0,0,0.07407407407407408,19.185185185185187,0)" xlink:href="#aS"/><use transform="matrix(0.07407407407407408,0,0,0.07407407407407408,34,0)" xlink:href="#bc"/><use transform="matrix(0.07407407407407408,0,0,0.07407407407407408,57.70370370370371,0)" xlink:href="#aU"/><use transform="matrix(0.07407407407407408,0,0,0.07407407407407408,72.51851851851853,0)" xlink:href="#aO"/><use transform="matrix(0.07407407407407408,0,0,0.07407407407407408,88.74074074074078,0)" xlink:href="#bd"/><use transform="matrix(0.07407407407407408,0,0,0.07407407407407408,104.96296296296299,0)" xlink:href="#aS"/><use transform="matrix(0.07407407407407408,0,0,0.07407407407407408,119.7777777777778,0)" xlink:href="#aR"/></g><path fill="#333" d="M110-194c64 0 96 36 96 99 0 64-35 99-97 99-61 0-95-36-95-99 0-62 34-99 96-99zm-1 164c35 0 45-28 45-65 0-40-10-65-43-65-34 0-45 26-45 65 0 36 10 65 43 65" id="be"/><g id="z"><use transform="matrix(0.07407407407407408,0,0,0.07407407407407408,0,0)" xlink:href="#aT"/><use transform="matrix(0.07407407407407408,0,0,0.07407407407407408,19.185185185185187,0)" xlink:href="#be"/><use transform="matrix(0.07407407407407408,0,0,0.07407407407407408,35.40740740740741,0)" xlink:href="#bd"/><use transform="matrix(0.07407407407407408,0,0,0.07407407407407408,51.62962962962963,0)" xlink:href="#aS"/></g><path fill="#333" d="M24-248c93 1 206-16 204 79-1 75-69 88-152 82V0H24v-248zm52 121c47 0 100 7 100-41 0-47-54-39-100-39v80" id="bf"/><path fill="#333" d="M175 0L67-191c6 58 2 128 3 191H24v-248h59L193-55c-6-58-2-129-3-193h46V0h-61" id="bg"/><g id="A"><use transform="matrix(0.07407407407407408,0,0,0.07407407407407408,0,0)" xlink:href="#bf"/><use transform="matrix(0.07407407407407408,0,0,0.07407407407407408,17.77777777777778,0)" xlink:href="#aN"/><use transform="matrix(0.07407407407407408,0,0,0.07407407407407408,25.185185185185187,0)" xlink:href="#bg"/></g><path fill="#333" d="M128 0H69L1-190h53L99-40l48-150h52" id="bh"/><path fill="#333" d="M25 0v-261h50V0H25" id="bi"/><g id="B"><use transform="matrix(0.07407407407407408,0,0,0.07407407407407408,0,0)" xlink:href="#aN"/><use transform="matrix(0.07407407407407408,0,0,0.07407407407407408,7.407407407407408,0)" xlink:href="#aO"/><use transform="matrix(0.07407407407407408,0,0,0.07407407407407408,23.629629629629633,0)" xlink:href="#bh"/><use transform="matrix(0.07407407407407408,0,0,0.07407407407407408,38.44444444444445,0)" xlink:href="#aU"/><use transform="matrix(0.07407407407407408,0,0,0.07407407407407408,53.25925925925927,0)" xlink:href="#bi"/><use transform="matrix(0.07407407407407408,0,0,0.07407407407407408,60.66666666666667,0)" xlink:href="#aX"/><use transform="matrix(0.07407407407407408,0,0,0.07407407407407408,68.07407407407408,0)" xlink:href="#bd"/><use transform="matrix(0.07407407407407408,0,0,0.07407407407407408,84.2962962962963,0)" xlink:href="#aS"/></g><path fill="#333" d="M91-269v-5l44-45h46v8l-60 42H91zM24 0v-248h195v40H76v63h132v40H76v65h150V0H24" id="bj"/><path fill="#333" d="M25-224v-37h50v37H25zM75 22c2 45-34 59-81 51V38c22 5 31-5 31-27v-201h50V22" id="bk"/><path fill="#333" d="M190-63c-7 42-38 67-86 67-59 0-84-38-90-98-12-110 154-137 174-36l-49 2c-2-19-15-32-35-32-30 0-35 28-38 64-6 74 65 87 74 30" id="bl"/><g id="C"><use transform="matrix(0.07407407407407408,0,0,0.07407407407407408,0,0)" xlink:href="#bj"/><use transform="matrix(0.07407407407407408,0,0,0.07407407407407408,17.77777777777778,0)" xlink:href="#bk"/><use transform="matrix(0.07407407407407408,0,0,0.07407407407407408,25.185185185185187,0)" xlink:href="#aS"/><use transform="matrix(0.07407407407407408,0,0,0.07407407407407408,40,0)" xlink:href="#bl"/><use transform="matrix(0.07407407407407408,0,0,0.07407407407407408,54.81481481481482,0)" xlink:href="#aV"/><use transform="matrix(0.07407407407407408,0,0,0.07407407407407408,63.629629629629626,0)" xlink:href="#aS"/><use transform="matrix(0.07407407407407408,0,0,0.07407407407407408,78.44444444444446,0)" xlink:href="#aR"/></g><g id="D"><use transform="matrix(0.07407407407407408,0,0,0.07407407407407408,0,0)" xlink:href="#bf"/><use transform="matrix(0.07407407407407408,0,0,0.07407407407407408,17.77777777777778,0)" xlink:href="#aN"/><use transform="matrix(0.07407407407407408,0,0,0.07407407407407408,25.185185185185187,0)" xlink:href="#bg"/></g><g id="E"><use transform="matrix(0.07407407407407408,0,0,0.07407407407407408,0,0)" xlink:href="#aS"/><use transform="matrix(0.07407407407407408,0,0,0.07407407407407408,14.814814814814817,0)" xlink:href="#aO"/><use transform="matrix(0.07407407407407408,0,0,0.07407407407407408,31.03703703703704,0)" xlink:href="#aV"/><use transform="matrix(0.07407407407407408,0,0,0.07407407407407408,39.85185185185187,0)" xlink:href="#aR"/><use transform="matrix(0.07407407407407408,0,0,0.07407407407407408,50.222222222222236,0)" xlink:href="#aQ"/></g><g id="F"><use transform="matrix(0.07407407407407408,0,0,0.07407407407407408,0,0)" xlink:href="#aW"/><use transform="matrix(0.07407407407407408,0,0,0.07407407407407408,17.77777777777778,0)" xlink:href="#aQ"/><use transform="matrix(0.07407407407407408,0,0,0.07407407407407408,32.592592592592595,0)" xlink:href="#aR"/><use transform="matrix(0.07407407407407408,0,0,0.07407407407407408,42.96296296296297,0)" xlink:href="#aX"/><use transform="matrix(0.07407407407407408,0,0,0.07407407407407408,50.370370370370374,0)" xlink:href="#aY"/><use transform="matrix(0.07407407407407408,0,0,0.07407407407407408,59.185185185185205,0)" xlink:href="#aX"/><use transform="matrix(0.07407407407407408,0,0,0.07407407407407408,66.59259259259261,0)" xlink:href="#aS"/><use transform="matrix(0.07407407407407408,0,0,0.07407407407407408,81.40740740740742,0)" xlink:href="#aR"/></g><g id="G"><use transform="matrix(0.07407407407407408,0,0,0.07407407407407408,0,0)" xlink:href="#bf"/><use transform="matrix(0.07407407407407408,0,0,0.07407407407407408,17.77777777777778,0)" xlink:href="#aN"/><use transform="matrix(0.07407407407407408,0,0,0.07407407407407408,25.185185185185187,0)" xlink:href="#bg"/></g><path fill="#333" d="M230 0l2-204L168 0h-37L68-204 70 0H24v-248h70l56 185 57-185h69V0h-46" id="bm"/><g id="H"><use transform="matrix(0.07407407407407408,0,0,0.07407407407407408,0,0)" xlink:href="#bm"/><use transform="matrix(0.07407407407407408,0,0,0.07407407407407408,22.148148148148152,0)" xlink:href="#be"/><use transform="matrix(0.07407407407407408,0,0,0.07407407407407408,38.37037037037038,0)" xlink:href="#aO"/><use transform="matrix(0.07407407407407408,0,0,0.07407407407407408,54.59259259259261,0)" xlink:href="#aV"/><use transform="matrix(0.07407407407407408,0,0,0.07407407407407408,63.407407407407426,0)" xlink:href="#aU"/><use transform="matrix(0.07407407407407408,0,0,0.07407407407407408,78.22222222222224,0)" xlink:href="#aO"/><use transform="matrix(0.07407407407407408,0,0,0.07407407407407408,94.44444444444447,0)" xlink:href="#aV"/></g><g id="I"><use transform="matrix(0.07407407407407408,0,0,0.07407407407407408,0,0)" xlink:href="#bm"/><use transform="matrix(0.07407407407407408,0,0,0.07407407407407408,22.148148148148152,0)" xlink:href="#be"/><use transform="matrix(0.07407407407407408,0,0,0.07407407407407408,38.37037037037038,0)" xlink:href="#aO"/><use transform="matrix(0.07407407407407408,0,0,0.07407407407407408,54.59259259259261,0)" xlink:href="#aV"/><use transform="matrix(0.07407407407407408,0,0,0.07407407407407408,63.407407407407426,0)" xlink:href="#aU"/><use transform="matrix(0.07407407407407408,0,0,0.07407407407407408,78.22222222222224,0)" xlink:href="#aO"/><use transform="matrix(0.07407407407407408,0,0,0.07407407407407408,94.44444444444447,0)" xlink:href="#aV"/></g><g id="J"><use transform="matrix(0.07407407407407408,0,0,0.07407407407407408,0,0)" xlink:href="#aT"/><use transform="matrix(0.07407407407407408,0,0,0.07407407407407408,19.185185185185187,0)" xlink:href="#be"/><use transform="matrix(0.07407407407407408,0,0,0.07407407407407408,35.40740740740741,0)" xlink:href="#bc"/><use transform="matrix(0.07407407407407408,0,0,0.07407407407407408,59.11111111111111,0)" xlink:href="#bc"/><use transform="matrix(0.07407407407407408,0,0,0.07407407407407408,82.81481481481482,0)" xlink:href="#aS"/><use transform="matrix(0.07407407407407408,0,0,0.07407407407407408,97.62962962962965,0)" xlink:href="#aO"/><use transform="matrix(0.07407407407407408,0,0,0.07407407407407408,113.85185185185189,0)" xlink:href="#bl"/><use transform="matrix(0.07407407407407408,0,0,0.07407407407407408,128.66666666666669,0)" xlink:href="#aS"/><use transform="matrix(0.07407407407407408,0,0,0.07407407407407408,143.4814814814815,0)" xlink:href="#aR"/></g><g id="K"><use transform="matrix(0.07407407407407408,0,0,0.07407407407407408,0,0)" xlink:href="#aV"/><use transform="matrix(0.07407407407407408,0,0,0.07407407407407408,8.814814814814817,0)" xlink:href="#aR"/><use transform="matrix(0.07407407407407408,0,0,0.07407407407407408,19.18518518518519,0)" xlink:href="#aU"/><use transform="matrix(0.07407407407407408,0,0,0.07407407407407408,34.00000000000001,0)" xlink:href="#aO"/><use transform="matrix(0.07407407407407408,0,0,0.07407407407407408,50.22222222222223,0)" xlink:href="#aP"/><use transform="matrix(0.07407407407407408,0,0,0.07407407407407408,65.03703703703704,0)" xlink:href="#aU"/><use transform="matrix(0.07407407407407408,0,0,0.07407407407407408,79.85185185185185,0)" xlink:href="#bl"/><use transform="matrix(0.07407407407407408,0,0,0.07407407407407408,94.66666666666666,0)" xlink:href="#aV"/><use transform="matrix(0.07407407407407408,0,0,0.07407407407407408,103.48148148148147,0)" xlink:href="#aX"/><use transform="matrix(0.07407407407407408,0,0,0.07407407407407408,110.88888888888887,0)" xlink:href="#be"/><use transform="matrix(0.07407407407407408,0,0,0.07407407407407408,127.1111111111111,0)" xlink:href="#aO"/></g><path fill="#333" d="M199 0l-22-63H83L61 0H9l90-248h61L250 0h-51zm-33-102l-36-108c-10 38-24 72-36 108h72" id="bn"/><path fill="#333" d="M12 0v-35l95-120H19v-35h142v35L67-36h103V0H12" id="bo"/><g id="L"><use transform="matrix(0.07407407407407408,0,0,0.07407407407407408,0,0)" xlink:href="#bn"/><use transform="matrix(0.07407407407407408,0,0,0.07407407407407408,19.185185185185187,0)" xlink:href="#aP"/><use transform="matrix(0.07407407407407408,0,0,0.07407407407407408,34,0)" xlink:href="#aP"/><use transform="matrix(0.07407407407407408,0,0,0.07407407407407408,48.81481481481481,0)" xlink:href="#aS"/><use transform="matrix(0.07407407407407408,0,0,0.07407407407407408,63.629629629629626,0)" xlink:href="#bo"/></g><g id="M"><use transform="matrix(0.07407407407407408,0,0,0.07407407407407408,0,0)" xlink:href="#bd"/><use transform="matrix(0.07407407407407408,0,0,0.07407407407407408,16.222222222222225,0)" xlink:href="#aS"/></g><path fill="#333" d="M110-251c83-7 118 89 53 130-17 10-36 21-38 46H78c2-56 65-53 71-103 2-21-15-35-38-34-25 1-41 14-44 38l-50-2c6-48 39-70 93-75zM77 0v-47h51V0H77" id="bp"/><g id="N"><use transform="matrix(0.07407407407407408,0,0,0.07407407407407408,0,0)" xlink:href="#aY"/><use transform="matrix(0.07407407407407408,0,0,0.07407407407407408,8.814814814814817,0)" xlink:href="#be"/><use transform="matrix(0.07407407407407408,0,0,0.07407407407407408,25.03703703703704,0)" xlink:href="#aO"/><use transform="matrix(0.07407407407407408,0,0,0.07407407407407408,41.25925925925927,0)" xlink:href="#bd"/><use transform="matrix(0.07407407407407408,0,0,0.07407407407407408,57.481481481481495,0)" xlink:href="#aP"/><use transform="matrix(0.07407407407407408,0,0,0.07407407407407408,72.2962962962963,0)" xlink:href="#bp"/></g><path fill="#333" d="M238-95c0 69-44 99-111 99C63 4 22-25 22-93v-155h51v151c-1 38 19 59 55 60 90 1 49-130 58-211h52v153" id="bq"/><g id="O"><use transform="matrix(0.07407407407407408,0,0,0.07407407407407408,0,0)" xlink:href="#aZ"/><use transform="matrix(0.07407407407407408,0,0,0.07407407407407408,20.740740740740744,0)" xlink:href="#bq"/><use transform="matrix(0.07407407407407408,0,0,0.07407407407407408,39.92592592592593,0)" xlink:href="#aN"/></g><path fill="#333" d="M240-174c0 40-23 61-54 70L253 0h-59l-57-94H76V0H24v-248c93 4 217-23 216 74zM76-134c48-2 112 12 112-38 0-48-66-32-112-35v73" id="br"/><path fill="#333" d="M14-72v-43h91v43H14" id="bs"/><g id="P"><use transform="matrix(0.07407407407407408,0,0,0.07407407407407408,0,0)" xlink:href="#br"/><use transform="matrix(0.07407407407407408,0,0,0.07407407407407408,19.185185185185187,0)" xlink:href="#aS"/><use transform="matrix(0.07407407407407408,0,0,0.07407407407407408,34,0)" xlink:href="#aV"/><use transform="matrix(0.07407407407407408,0,0,0.07407407407407408,42.814814814814824,0)" xlink:href="#aX"/><use transform="matrix(0.07407407407407408,0,0,0.07407407407407408,50.22222222222223,0)" xlink:href="#aR"/><use transform="matrix(0.07407407407407408,0,0,0.07407407407407408,60.5925925925926,0)" xlink:href="#aS"/><use transform="matrix(0.07407407407407408,0,0,0.07407407407407408,75.40740740740742,0)" xlink:href="#bs"/><use transform="matrix(0.07407407407407408,0,0,0.07407407407407408,84.22222222222223,0)" xlink:href="#bi"/><use transform="matrix(0.07407407407407408,0,0,0.07407407407407408,91.62962962962965,0)" xlink:href="#aS"/><use transform="matrix(0.07407407407407408,0,0,0.07407407407407408,106.44444444444446,0)" xlink:href="#aP"/></g><path fill="#333" d="M62-158H24l-5-90h48" id="bt"/><g id="Q"><use transform="matrix(0.07407407407407408,0,0,0.07407407407407408,0,0)" xlink:href="#aT"/><use transform="matrix(0.07407407407407408,0,0,0.07407407407407408,19.185185185185187,0)" xlink:href="#bt"/><use transform="matrix(0.07407407407407408,0,0,0.07407407407407408,25.481481481481485,0)" xlink:href="#aS"/><use transform="matrix(0.07407407407407408,0,0,0.07407407407407408,40.296296296296305,0)" xlink:href="#aP"/><use transform="matrix(0.07407407407407408,0,0,0.07407407407407408,55.11111111111112,0)" xlink:href="#aV"/></g><path fill="#333" d="M135-194c52 0 70 43 70 98 0 56-19 99-73 100-30 1-46-15-58-35L72 0H24l1-261h50v104c11-23 29-37 60-37zM114-30c31 0 40-27 40-66 0-37-7-63-39-63s-41 28-41 65c0 36 8 64 40 64" id="bu"/><g id="R"><use transform="matrix(0.07407407407407408,0,0,0.07407407407407408,0,0)" xlink:href="#bu"/><use transform="matrix(0.07407407407407408,0,0,0.07407407407407408,16.222222222222225,0)" xlink:href="#be"/><use transform="matrix(0.07407407407407408,0,0,0.07407407407407408,32.44444444444445,0)" xlink:href="#aO"/></g><path fill="#333" d="M136-208V0H84v-208H4v-40h212v40h-80" id="bv"/><g id="S"><use transform="matrix(0.07407407407407408,0,0,0.07407407407407408,0,0)" xlink:href="#bv"/><use transform="matrix(0.07407407407407408,0,0,0.07407407407407408,14.740740740740744,0)" xlink:href="#aR"/><use transform="matrix(0.07407407407407408,0,0,0.07407407407407408,25.111111111111114,0)" xlink:href="#aU"/><use transform="matrix(0.07407407407407408,0,0,0.07407407407407408,39.92592592592593,0)" xlink:href="#aO"/><use transform="matrix(0.07407407407407408,0,0,0.07407407407407408,56.14814814814815,0)" xlink:href="#aP"/><use transform="matrix(0.07407407407407408,0,0,0.07407407407407408,70.96296296296296,0)" xlink:href="#aU"/><use transform="matrix(0.07407407407407408,0,0,0.07407407407407408,85.77777777777777,0)" xlink:href="#bl"/><use transform="matrix(0.07407407407407408,0,0,0.07407407407407408,100.5925925925926,0)" xlink:href="#aV"/><use transform="matrix(0.07407407407407408,0,0,0.07407407407407408,109.40740740740739,0)" xlink:href="#aX"/><use transform="matrix(0.07407407407407408,0,0,0.07407407407407408,116.8148148148148,0)" xlink:href="#be"/><use transform="matrix(0.07407407407407408,0,0,0.07407407407407408,133.037037037037,0)" xlink:href="#aO"/></g><g id="T"><use transform="matrix(0.07407407407407408,0,0,0.07407407407407408,0,0)" xlink:href="#aV"/><use transform="matrix(0.07407407407407408,0,0,0.07407407407407408,8.814814814814817,0)" xlink:href="#aS"/><use transform="matrix(0.07407407407407408,0,0,0.07407407407407408,23.629629629629633,0)" xlink:href="#aR"/><use transform="matrix(0.07407407407407408,0,0,0.07407407407407408,34.00000000000001,0)" xlink:href="#bc"/><use transform="matrix(0.07407407407407408,0,0,0.07407407407407408,57.70370370370371,0)" xlink:href="#aX"/><use transform="matrix(0.07407407407407408,0,0,0.07407407407407408,65.11111111111111,0)" xlink:href="#aO"/><use transform="matrix(0.07407407407407408,0,0,0.07407407407407408,81.33333333333334,0)" xlink:href="#aQ"/><use transform="matrix(0.07407407407407408,0,0,0.07407407407407408,96.14814814814814,0)" xlink:href="#aS"/></g><g id="U"><use transform="matrix(0.07407407407407408,0,0,0.07407407407407408,0,0)" xlink:href="#aU"/><use transform="matrix(0.07407407407407408,0,0,0.07407407407407408,14.814814814814817,0)" xlink:href="#bh"/><use transform="matrix(0.07407407407407408,0,0,0.07407407407407408,29.629629629629633,0)" xlink:href="#aS"/><use transform="matrix(0.07407407407407408,0,0,0.07407407407407408,44.44444444444445,0)" xlink:href="#bl"/></g><path fill="#333" d="M85 4C-2 5 27-109 22-190h50c7 57-23 150 33 157 60-5 35-97 40-157h50l1 190h-47c-2-12 1-28-3-38-12 25-28 42-61 42" id="bw"/><path fill="#333" d="M185-48c-13 30-37 53-82 52C43 2 14-33 14-96s30-98 90-98c62 0 83 45 84 108H66c0 31 8 55 39 56 18 0 30-7 34-22zm-45-69c5-46-57-63-70-21-2 6-4 13-4 21h74zm-30-91l-59-48v-8h45l44 51v5h-30" id="bx"/><g id="V"><use transform="matrix(0.07407407407407408,0,0,0.07407407407407408,0,0)" xlink:href="#aP"/><use transform="matrix(0.07407407407407408,0,0,0.07407407407407408,14.814814814814817,0)" xlink:href="#bw"/><use transform="matrix(0.07407407407407408,0,0,0.07407407407407408,31.03703703703704,0)" xlink:href="#bl"/><use transform="matrix(0.07407407407407408,0,0,0.07407407407407408,45.851851851851855,0)" xlink:href="#bl"/><use transform="matrix(0.07407407407407408,0,0,0.07407407407407408,60.66666666666667,0)" xlink:href="#bx"/><use transform="matrix(0.07407407407407408,0,0,0.07407407407407408,75.4814814814815,0)" xlink:href="#aP"/></g><g id="W"><use transform="matrix(0.07407407407407408,0,0,0.07407407407407408,0,0)" xlink:href="#bb"/><use transform="matrix(0.07407407407407408,0,0,0.07407407407407408,19.185185185185187,0)" xlink:href="#be"/><use transform="matrix(0.07407407407407408,0,0,0.07407407407407408,35.40740740740741,0)" xlink:href="#aO"/><use transform="matrix(0.07407407407407408,0,0,0.07407407407407408,51.62962962962963,0)" xlink:href="#aO"/><use transform="matrix(0.07407407407407408,0,0,0.07407407407407408,67.85185185185186,0)" xlink:href="#aS"/><use transform="matrix(0.07407407407407408,0,0,0.07407407407407408,82.66666666666667,0)" xlink:href="#aR"/></g><path fill="#333" d="M135-194c53 0 70 44 70 98 0 56-19 98-73 100-31 1-45-17-59-34 3 33 2 69 2 105H25l-1-265h48c2 10 0 23 3 31 11-24 29-35 60-35zM114-30c33 0 39-31 40-66 0-38-9-64-40-64-56 0-55 130 0 130" id="by"/><g id="X"><use transform="matrix(0.07407407407407408,0,0,0.07407407407407408,0,0)" xlink:href="#aS"/><use transform="matrix(0.07407407407407408,0,0,0.07407407407407408,14.814814814814817,0)" xlink:href="#aP"/><use transform="matrix(0.07407407407407408,0,0,0.07407407407407408,29.629629629629633,0)" xlink:href="#by"/><use transform="matrix(0.07407407407407408,0,0,0.07407407407407408,45.851851851851855,0)" xlink:href="#bx"/><use transform="matrix(0.07407407407407408,0,0,0.07407407407407408,60.66666666666667,0)" xlink:href="#bl"/><use transform="matrix(0.07407407407407408,0,0,0.07407407407407408,75.4814814814815,0)" xlink:href="#aS"/></g><g id="Y"><use transform="matrix(0.07407407407407408,0,0,0.07407407407407408,0,0)" xlink:href="#bg"/><use transform="matrix(0.07407407407407408,0,0,0.07407407407407408,19.185185185185187,0)" xlink:href="#be"/><use transform="matrix(0.07407407407407408,0,0,0.07407407407407408,35.40740740740741,0)" xlink:href="#aO"/></g><path fill="#333" d="M114-157C55-157 80-60 75 0H25v-261h50l-1 109c12-26 28-41 61-42 86-1 58 113 63 194h-50c-7-57 23-157-34-157" id="bz"/><g id="Z"><use transform="matrix(0.07407407407407408,0,0,0.07407407407407408,0,0)" xlink:href="#bj"/><use transform="matrix(0.07407407407407408,0,0,0.07407407407407408,17.77777777777778,0)" xlink:href="#bl"/><use transform="matrix(0.07407407407407408,0,0,0.07407407407407408,32.592592592592595,0)" xlink:href="#bz"/><use transform="matrix(0.07407407407407408,0,0,0.07407407407407408,48.814814814814824,0)" xlink:href="#aS"/><use transform="matrix(0.07407407407407408,0,0,0.07407407407407408,63.62962962962964,0)" xlink:href="#bl"/></g><g id="aa"><use transform="matrix(0.07407407407407408,0,0,0.07407407407407408,0,0)" xlink:href="#bi"/><use transform="matrix(0.07407407407407408,0,0,0.07407407407407408,7.407407407407408,0)" xlink:href="#aU"/></g><g id="ab"><use transform="matrix(0.07407407407407408,0,0,0.07407407407407408,0,0)" xlink:href="#aV"/><use transform="matrix(0.07407407407407408,0,0,0.07407407407407408,8.814814814814817,0)" xlink:href="#aR"/><use transform="matrix(0.07407407407407408,0,0,0.07407407407407408,19.18518518518519,0)" xlink:href="#aU"/><use transform="matrix(0.07407407407407408,0,0,0.07407407407407408,34.00000000000001,0)" xlink:href="#aO"/><use transform="matrix(0.07407407407407408,0,0,0.07407407407407408,50.22222222222223,0)" xlink:href="#aP"/><use transform="matrix(0.07407407407407408,0,0,0.07407407407407408,65.03703703703704,0)" xlink:href="#aU"/><use transform="matrix(0.07407407407407408,0,0,0.07407407407407408,79.85185185185185,0)" xlink:href="#bl"/><use transform="matrix(0.07407407407407408,0,0,0.07407407407407408,94.66666666666666,0)" xlink:href="#aV"/><use transform="matrix(0.07407407407407408,0,0,0.07407407407407408,103.48148148148147,0)" xlink:href="#aX"/><use transform="matrix(0.07407407407407408,0,0,0.07407407407407408,110.88888888888887,0)" xlink:href="#be"/><use transform="matrix(0.07407407407407408,0,0,0.07407407407407408,127.1111111111111,0)" xlink:href="#aO"/></g><g id="ac"><use transform="matrix(0.08641975308641976,0,0,0.08641975308641976,0,0)" xlink:href="#bj"/><use transform="matrix(0.08641975308641976,0,0,0.08641975308641976,20.740740740740744,0)" xlink:href="#bk"/><use transform="matrix(0.08641975308641976,0,0,0.08641975308641976,29.382716049382726,0)" xlink:href="#aS"/><use transform="matrix(0.08641975308641976,0,0,0.08641975308641976,46.66666666666667,0)" xlink:href="#bl"/><use transform="matrix(0.08641975308641976,0,0,0.08641975308641976,63.95061728395062,0)" xlink:href="#aV"/><use transform="matrix(0.08641975308641976,0,0,0.08641975308641976,74.23456790123457,0)" xlink:href="#aS"/><use transform="matrix(0.08641975308641976,0,0,0.08641975308641976,91.51851851851853,0)" xlink:href="#aR"/></g><g id="ad"><use transform="matrix(0.08641975308641976,0,0,0.08641975308641976,0,0)" xlink:href="#aT"/><use transform="matrix(0.08641975308641976,0,0,0.08641975308641976,22.38271604938272,0)" xlink:href="#aU"/><use transform="matrix(0.08641975308641976,0,0,0.08641975308641976,39.66666666666667,0)" xlink:href="#aR"/><use transform="matrix(0.08641975308641976,0,0,0.08641975308641976,51.76543209876544,0)" xlink:href="#aV"/><use transform="matrix(0.08641975308641976,0,0,0.08641975308641976,62.04938271604939,0)" xlink:href="#aS"/></g></defs></g></svg>